<?xml version="1.0" encoding="iso-8859-1"?>
<!-- Generator: Adobe Illustrator 16.0.3, SVG Export Plug-In . SVG Version: 6.00 Build 0)  -->
<!DOCTYPE svg PUBLIC "-//W3C//DTD SVG 1.1 Basic//EN" "http://www.w3.org/Graphics/SVG/1.1/DTD/svg11-basic.dtd">
<svg version="1.1" baseProfile="basic" xmlns="http://www.w3.org/2000/svg" xmlns:xlink="http://www.w3.org/1999/xlink" x="0px"
	 y="0px" width="512px" height="512px" viewBox="0 0 512 512" xml:space="preserve">
<g id="Layer_159" display="none">
	<rect display="inline" fill="#FFFFFF" width="512" height="512"/>
	<rect x="-512" display="inline" fill="#FFFFFF" width="512" height="512"/>
	<rect x="512" display="inline" fill="#FFFFFF" width="512" height="512"/>
	<rect x="-512" y="512" display="inline" fill="#FFFFFF" width="512" height="512"/>
	<rect x="512" y="512" display="inline" fill="#FFFFFF" width="512" height="512"/>
	<rect y="512" display="inline" fill="#FFFFFF" width="512" height="512"/>
	<rect x="512" y="-511" display="inline" fill="#FFFFFF" width="512" height="512"/>
	<rect y="-511" display="inline" fill="#FFFFFF" width="512" height="512"/>
	<rect x="-512" y="-511" display="inline" fill="#FFFFFF" width="512" height="512"/>
</g>
<g id="female">
	<g id="avatar15_1_">
		<g id="baclk">
		</g>
		<g id="hair_back_8_">
		</g>
		<g id="clothes_30_">
		</g>
		<g id="face_98_">
		</g>
		<g id="hair_front_8_">
		</g>
	</g>
	<g id="avatar14_1_">
		<g id="back_16_">
		</g>
		<g id="hair_back">
		</g>
		<g id="clothes_17_">
		</g>
		<g id="face_57_">
		</g>
		<g id="hair_front">
		</g>
	</g>
	<g id="avatar13_1_">
		<g id="back_x27_">
		</g>
		<g id="clothes">
		</g>
		<g id="face">
		</g>
		<g id="hair">
		</g>
	</g>
	<g id="avatar12_1_">
		<g id="back_27_">
		</g>
		<g id="clothes_29_">
		</g>
		<g id="face_97_">
		</g>
		<g id="hair_20_">
		</g>
	</g>
	<g id="avatar11_1_">
		<g id="back_26_">
		</g>
		<g id="clothes_28_">
		</g>
		<g id="face_95_">
		</g>
		<g id="hair_19_">
		</g>
	</g>
	<g id="avatar10_1_">
		<g id="back_25_">
		</g>
		<g id="clothes_27_">
		</g>
		<g id="face_94_">
		</g>
		<g id="glasses_11_">
		</g>
		<g id="hair_18_">
		</g>
	</g>
	<g id="avatar9_1_">
		<g id="back_24_">
		</g>
		<g id="clothes_26_">
		</g>
		<g id="face_92_">
		</g>
		<g id="hair_17_">
		</g>
	</g>
	<g id="avatar8_1_">
		<g id="back_23_">
		</g>
		<g id="hair_back_7_">
		</g>
		<g id="clothes_25_">
		</g>
		<g id="face_91_">
		</g>
		<g id="hair_front_7_">
		</g>
	</g>
	<g id="avatar7_1_">
		<g id="back_22_">
		</g>
		<g id="clothes_24_">
		</g>
		<g id="face_90_">
		</g>
		<g id="necklace_1_">
		</g>
		<g id="earings_1_">
		</g>
		<g id="hair_16_">
		</g>
	</g>
	<g id="avatar6_1_">
		<g id="back_21_">
		</g>
		<g id="hair_back_6_">
		</g>
		<g id="clothes_23_">
		</g>
		<g id="face_89_">
		</g>
		<g id="glasses_12_">
		</g>
		<g id="hair_front_6_">
		</g>
	</g>
	<g id="avatar5_1_">
		<g id="back_20_">
		</g>
		<g id="hair_back_5_">
		</g>
		<g id="clothes_22_">
		</g>
		<g id="face_88_">
		</g>
		<g id="glasses_9_">
		</g>
		<g id="hair_front_5_">
		</g>
	</g>
	<g id="avatar4_1_">
		<g id="back_19_">
		</g>
		<g id="hair_back_4_">
		</g>
		<g id="clothes_21_">
		</g>
		<g id="face_87_">
		</g>
		<g id="earing_1_">
		</g>
		<g id="hair_front_4_">
		</g>
	</g>
	<g id="avatar3_1_">
		<g id="back_18_">
		</g>
		<g id="hair_back_3_">
		</g>
		<g id="clothes_20_">
		</g>
		<g id="face_86_">
		</g>
		<g id="earings">
		</g>
		<g id="glasses_8_">
		</g>
		<g id="hair_front_3_">
		</g>
	</g>
	<g id="avatar2_1_">
		<g id="Layebackr_167">
			<circle fill="#967ADC" cx="256" cy="256" r="200"/>
		</g>
		<g id="hair_back_2_">
			<path id="_x31__33_" fill="#F6BB42" d="M359.334,321.76c1.334-30.333-26.461-51.334-26.461-51.334L257.5,283.76l0.449,6.24
				h-3.897l0.449-6.24l-75.373-13.334c0,0-27.795,21.001-26.461,51.334s-32,22.666-32,22.666s9.334,19,33.334,7.667
				c0,0-14.334,12.999,5.666,31.333s87.667,0,87.667,0l3.41-47.426h10.514l3.41,47.426c0,0,67.667,18.334,87.667,0
				S358,352.093,358,352.093c24,11.333,33.334-7.667,33.334-7.667S358,352.093,359.334,321.76z"/>
		</g>
		<g id="clothes_19_">
			<path id="_x33__28_" fill="#F9E0A8" d="M372.668,369.789c-7.354-6.355-19.364-14.563-30.666-15.666
				c-4.515-0.441-36.694-9.234-60.372-15.818c0.226-1.221,0.313-1.949,0.313-1.949l16.307-88.734l-42.25,5.5l-42.25-5.5
				l16.307,88.734c0,0,0.087,0.729,0.313,1.949c-23.677,6.584-55.856,15.377-60.372,15.818
				c-11.302,1.104-23.313,9.311-30.666,15.666c-13.235,11.439-10.854,25.453-14.641,38.188
				c35.133,30.605,81.055,49.145,131.309,49.145s96.176-18.539,131.309-49.145C383.522,395.242,385.903,381.229,372.668,369.789z"/>
			<path id="_x32__28_" fill="#D9C392" d="M290,262.621l-69.525,21.592l7.086,38.557c10.66,13.145,26.918,25.186,50.957,26.264
				c2.709-6.691,3.426-12.678,3.426-12.678l12.127-65.99C291.686,265.568,290,262.621,290,262.621z"/>
			<path id="_x31__32_" fill="#F5F7FA" d="M330.639,351.551c-1.641-0.416-3.408-0.871-5.285-1.359
				c-1.703,22.322-7.469,66.48-26.305,61.098c-22.543-6.443-40.01,21.789-43.312,25.373c-3.21-3.584-20.221-31.816-42.765-25.373
				c-18.855,5.387-24.453-38.865-26.07-61.166c-1.746,0.457-3.408,0.885-4.957,1.279l0.465,63.387c0,0-6.883,11.227-16.24,21.055
				c27.011,13.605,57.521,21.277,89.83,21.277c32.381,0,62.957-7.707,90.014-21.369c-9.162-9.807-15.838-20.963-15.838-20.963
				L330.639,351.551z"/>
		</g>
		<g id="necklace">
			<path fill="#F5F7FA" d="M256,400.375c-32.198,0-45.03-57.686-45.156-58.269l0.978-0.211c0.124,0.575,12.784,57.479,44.178,57.479
				c31.4,0,44.054-56.904,44.178-57.479l0.978,0.211C301.03,342.689,288.198,400.375,256,400.375z"/>
			<path id="_x35__17_" fill="#F5F7FA" d="M257.414,414.571c-0.777,0.777-2.051,0.777-2.828,0l-5.657-5.657
				c-0.778-0.777-0.778-2.051,0-2.828l5.657-5.657c0.777-0.777,2.051-0.777,2.828,0l5.657,5.657c0.778,0.777,0.778,2.051,0,2.828
				L257.414,414.571z"/>
			<polygon id="_x34__21_" fill="#48CFAD" points="261.657,407 256,401.843 256,407 			"/>
			<polygon id="_x33__25_" fill="#52EDC6" points="256,401.843 250.343,407 256,407 			"/>
			<polygon id="_x32__26_" fill="#39A68A" points="256,407 256,412.157 261.657,407 			"/>
			<polygon id="_x31__31_" fill="#40B899" points="250.343,407 256,412.157 256,407 			"/>
		</g>
		<g id="face_85_">
			<path id="face_3_" fill="#FFE9BA" d="M256,154h-63c0,0,4.785,94.465,11,114c7,22.001,14.237,27.287,30.226,41
				C247.634,320.5,256,319,256,319s8.366,1.5,21.774-10C293.763,295.287,302,290.001,309,268c6.215-19.535,10-114,10-114H256z"/>
			<path id="ear_25_" fill="#F9E0A8" d="M197.75,214.5c0,0-22.743-10.911-17.273,16.638c5.468,27.55,22.018,23.583,22.018,23.583
				L197.75,214.5z"/>
			<path id="ear_2_" fill="#F9E0A8" d="M315.25,214.5c0,0,22.743-10.911,17.273,16.638c-5.468,27.55-22.018,23.583-22.018,23.583
				L315.25,214.5z"/>
		</g>
		<g id="hair_front_2_">
			<path id="_x39__6_" fill="#FFCE54" d="M361.918,236.532C359.918,197.667,375,97.333,256,97.333S152.081,197.667,150.081,236.532
				s-25.085,38.801-25.085,38.801c17,10,31.663-20.414,31.663-20.414c-25.333,54.586,40.658,65.747,40.658,65.747
				c-35.335,18.666-10.683,56-0.017,76.667C207.968,418,194.438,429,194.438,429c26.227-5.784-7.563-67,12.771-73.667
				s8.542-159,16.542-181S256,168,256,168s24.25-15.667,32.25,6.333s-3.791,174.333,16.542,181S291.336,423.216,317.563,429
				c0,0-13.531-11-2.864-31.667c10.666-20.667,35.318-58.001-0.017-76.667c0,0,65.992-11.161,40.659-65.747
				c0,0,14.663,30.414,31.663,20.414C387.004,275.333,363.918,275.397,361.918,236.532z"/>
			<path id="_x38__8_" fill="#F6BB42" d="M256,110.335c0,0-96-18.667-99.341,144.584C156.659,254.919,150.833,86.002,256,110.335z"
				/>
			<path id="_x37__12_" fill="#F6BB42" d="M195.91,321.44c0,0,16.023-3.105,10.391-31.438c0,0-8.3,29.792-21.634,29.063
				S195.91,321.44,195.91,321.44z"/>
			<path id="_x36__17_" fill="#F6BB42" d="M256,110.335c0,0,96-18.667,99.341,144.584C355.341,254.919,361.167,86.002,256,110.335z"
				/>
			<path id="_x35__18_" fill="#F6BB42" d="M316.09,321.44c0,0-16.024-3.105-10.391-31.438c0,0,8.3,29.792,21.634,29.063
				S316.09,321.44,316.09,321.44z"/>
			<path id="_x34__22_" fill="#FFD56B" d="M255.5,145.667c0,0-62.5-23-60.5,57.667s-22.001,147.999-74.334,120.333
				c0,0,57.168,11.263,61.667-116.332C186,103.335,255.5,145.667,255.5,145.667z"/>
			<path id="_x33__27_" fill="#FFD56B" d="M217.88,321.44c0,0-37.548,0.193-25.38,47.229
				C192.5,368.669,191.093,336.879,217.88,321.44z"/>
			<path id="_x33__26_" fill="#FFD56B" d="M256.5,145.667c0,0,62.5-23,60.5,57.667s22.001,147.999,74.334,120.333
				c0,0-57.168,11.263-61.667-116.332C326,103.335,256.5,145.667,256.5,145.667z"/>
			<path id="_x32__27_" fill="#FFD56B" d="M294.12,321.44c0,0,37.548,0.193,25.38,47.229
				C319.5,368.669,320.907,336.879,294.12,321.44z"/>
		</g>
	</g>
	<g id="avatar1_1_">
		<g id="back_17_">
		</g>
		<g id="hair_back_1_">
		</g>
		<g id="clothes_18_">
		</g>
		<g id="face_84_">
		</g>
		<g id="hair_front_1_">
		</g>
	</g>
</g>
<g id="male" display="none">
	<g id="avatar20" display="inline">
		<g id="back_32_">
		</g>
		<g id="clothes_34_">
		</g>
		<g id="face_100_">
		</g>
		<g id="hair_22_">
		</g>
	</g>
	<g id="avatar19" display="inline">
		<g id="back_31_">
		</g>
		<g id="clothes_33_">
		</g>
		<g id="face_99_">
		</g>
		<g id="scaft">
		</g>
		<g id="hat">
		</g>
	</g>
	<g id="avatar18" display="inline">
		<g id="back_30_">
		</g>
		<g id="clothes_32_">
		</g>
		<g id="face_55_">
		</g>
		<g id="earings_2_">
		</g>
		<g id="hair_21_">
		</g>
	</g>
	<g id="avatar17" display="inline">
		<g id="back_29_">
		</g>
		<g id="hair_back_10_">
		</g>
		<g id="clothes_31_">
		</g>
		<g id="face_2_">
		</g>
		<g id="glasses_10_">
		</g>
		<g id="hair_front_10_">
		</g>
	</g>
	<g id="avatar16" display="inline">
		<g id="back_28_">
		</g>
		<g id="hair_back_9_">
		</g>
		<g id="clothes_1_">
		</g>
		<g id="face_1_">
		</g>
		<g id="hair_front_9_">
		</g>
	</g>
	<g id="avatar15" display="inline">
		<g id="back_5_">
		</g>
		<g id="clothes_6_">
		</g>
		<g id="face_29_">
		</g>
		<g id="glasses_4_">
		</g>
		<g id="hair_8_">
		</g>
	</g>
	<g id="avatar14" display="inline">
		<g id="back_6_">
		</g>
		<g id="clothes_7_">
		</g>
		<g id="face_42_">
		</g>
		<g id="earings_3_">
		</g>
		<g id="hair_9_">
		</g>
	</g>
	<g id="avatar13" display="inline">
		<g id="back_7_">
		</g>
		<g id="clothes_8_">
		</g>
		<g id="face_43_">
		</g>
		<g id="glasses_5_">
		</g>
		<g id="hair_10_">
		</g>
	</g>
	<g id="avatar12" display="inline">
		<g id="back_8_">
		</g>
		<g id="clothes_9_">
		</g>
		<g id="face_44_">
		</g>
		<g id="beard_6_">
		</g>
		<g id="hair_11_">
		</g>
	</g>
	<g id="avatar11" display="inline">
		<g id="back_9_">
		</g>
		<g id="clothes_10_">
		</g>
		<g id="face_45_">
		</g>
		<g id="glass">
		</g>
		<g id="hair_12_">
		</g>
	</g>
	<g id="avatar10" display="inline">
		<g id="back_10_">
		</g>
		<g id="clothes_11_">
		</g>
		<g id="face_46_">
		</g>
		<g id="beard_7_">
		</g>
		<g id="glasses_6_">
		</g>
		<g id="hair_13_">
		</g>
	</g>
	<g id="avatar9" display="inline">
		<g id="back_11_">
		</g>
		<g id="clothes_12_">
		</g>
		<g id="face_47_">
		</g>
		<g id="glasses_3_">
		</g>
		<g id="hair_7_">
		</g>
	</g>
	<g id="avatar8" display="inline">
		<g id="back_12_">
		</g>
		<g id="clothes_13_">
		</g>
		<g id="face_48_">
		</g>
		<g id="beard_5_">
		</g>
		<g id="glasses_7_">
		</g>
		<g id="hair_6_">
		</g>
	</g>
	<g id="avatar7" display="inline">
		<g id="back_4_">
		</g>
		<g id="clothes_14_">
		</g>
		<g id="face_11_">
		</g>
		<g id="hair_14_">
		</g>
	</g>
	<g id="avatar6" display="inline">
		<g id="back_13_">
		</g>
		<g id="clothes_15_">
		</g>
		<g id="face_16_">
		</g>
		<g id="glasses_2_">
		</g>
		<g id="beard_4_">
		</g>
		<g id="hair_5_">
		</g>
	</g>
	<g id="avatar5" display="inline">
		<g id="back_14_">
		</g>
		<g id="clothes_5_">
		</g>
		<g id="face_38_">
		</g>
		<g id="beard_3_">
		</g>
		<g id="hair_4_">
		</g>
	</g>
	<g id="avatar4" display="inline">
		<g id="back_3_">
		</g>
		<g id="clothes_4_">
		</g>
		<g id="face_13_">
		</g>
		<g id="beard_2_">
		</g>
		<g id="glasses_1_">
		</g>
		<g id="hair_3_">
		</g>
	</g>
	<g id="avatar3" display="inline">
		<g id="back_15_">
		</g>
		<g id="clothes_16_">
		</g>
		<g id="face_49_">
		</g>
		<g id="hair_15_">
		</g>
	</g>
	<g id="avatar2" display="inline">
		<g id="back_2_">
		</g>
		<g id="clothes_3_">
		</g>
		<g id="face_9_">
		</g>
		<g id="beard_1_">
		</g>
		<g id="hair_2_">
		</g>
	</g>
	<g id="avatar1" display="inline">
		<g id="back_1_">
		</g>
		<g id="clothes_2_">
		</g>
		<g id="face_6_">
		</g>
		<g id="hair_1_">
		</g>
	</g>
</g>
</svg>
