<?xml version="1.0" encoding="iso-8859-1"?>
<!-- Generator: Adobe Illustrator 16.0.3, SVG Export Plug-In . SVG Version: 6.00 Build 0)  -->
<!DOCTYPE svg PUBLIC "-//W3C//DTD SVG 1.1 Basic//EN" "http://www.w3.org/Graphics/SVG/1.1/DTD/svg11-basic.dtd">
<svg version="1.1" baseProfile="basic" xmlns="http://www.w3.org/2000/svg" xmlns:xlink="http://www.w3.org/1999/xlink" x="0px"
	 y="0px" width="512px" height="512px" viewBox="0 0 512 512" xml:space="preserve">
<g id="Layer_159" display="none">
	<rect x="512" display="inline" fill="#FFFFFF" width="512" height="512"/>
	<rect display="inline" fill="#FFFFFF" width="512" height="512"/>
	<rect y="512" display="inline" fill="#FFFFFF" width="512" height="512"/>
	<rect x="512" y="512" display="inline" fill="#FFFFFF" width="512" height="512"/>
	<rect x="512" y="-511" display="inline" fill="#FFFFFF" width="512" height="512"/>
	<rect y="-511" display="inline" fill="#FFFFFF" width="512" height="512"/>
</g>
<g id="female">
	<g id="avatar15_1_">
		<g id="baclk">
		</g>
		<g id="hair_back_8_">
		</g>
		<g id="clothes_30_">
		</g>
		<g id="face_98_">
		</g>
		<g id="hair_front_8_">
		</g>
	</g>
	<g id="avatar14_1_">
		<g id="back_16_">
		</g>
		<g id="hair_back">
		</g>
		<g id="clothes_17_">
		</g>
		<g id="face_57_">
		</g>
		<g id="hair_front">
		</g>
	</g>
	<g id="avatar13_1_">
		<g id="back_x27_">
		</g>
		<g id="clothes">
		</g>
		<g id="face">
		</g>
		<g id="hair">
		</g>
	</g>
	<g id="avatar12_1_">
		<g id="back_27_">
		</g>
		<g id="clothes_29_">
		</g>
		<g id="face_97_">
		</g>
		<g id="hair_20_">
		</g>
	</g>
	<g id="avatar11_1_">
		<g id="back_26_">
		</g>
		<g id="clothes_28_">
		</g>
		<g id="face_95_">
		</g>
		<g id="hair_19_">
		</g>
	</g>
	<g id="avatar10_1_">
		<g id="back_25_">
		</g>
		<g id="clothes_27_">
		</g>
		<g id="face_94_">
		</g>
		<g id="glasses_11_">
		</g>
		<g id="hair_18_">
		</g>
	</g>
	<g id="avatar9_1_">
		<g id="back_24_">
		</g>
		<g id="clothes_26_">
		</g>
		<g id="face_92_">
		</g>
		<g id="hair_17_">
		</g>
	</g>
	<g id="avatar8_1_">
		<g id="back_23_">
		</g>
		<g id="hair_back_7_">
		</g>
		<g id="clothes_25_">
		</g>
		<g id="face_91_">
		</g>
		<g id="hair_front_7_">
		</g>
	</g>
	<g id="avatar7_1_">
		<g id="back_22_">
		</g>
		<g id="clothes_24_">
		</g>
		<g id="face_90_">
		</g>
		<g id="necklace_1_">
		</g>
		<g id="earings_1_">
		</g>
		<g id="hair_16_">
		</g>
	</g>
	<g id="avatar6_1_">
		<g id="back_21_">
		</g>
		<g id="hair_back_6_">
		</g>
		<g id="clothes_23_">
		</g>
		<g id="face_89_">
		</g>
		<g id="glasses_12_">
		</g>
		<g id="hair_front_6_">
		</g>
	</g>
	<g id="avatar5_1_">
		<g id="back_20_">
		</g>
		<g id="hair_back_5_">
		</g>
		<g id="clothes_22_">
		</g>
		<g id="face_88_">
		</g>
		<g id="glasses_9_">
		</g>
		<g id="hair_front_5_">
		</g>
	</g>
	<g id="avatar4_1_">
		<g id="back_19_">
		</g>
		<g id="hair_back_4_">
		</g>
		<g id="clothes_21_">
		</g>
		<g id="face_87_">
		</g>
		<g id="earing_1_">
		</g>
		<g id="hair_front_4_">
		</g>
	</g>
	<g id="avatar3_1_">
		<g id="back_18_">
		</g>
		<g id="hair_back_3_">
		</g>
		<g id="clothes_20_">
		</g>
		<g id="face_86_">
		</g>
		<g id="earings">
		</g>
		<g id="glasses_8_">
		</g>
		<g id="hair_front_3_">
		</g>
	</g>
	<g id="avatar2_1_">
		<g id="Layebackr_167">
		</g>
		<g id="hair_back_2_">
		</g>
		<g id="clothes_19_">
		</g>
		<g id="necklace">
		</g>
		<g id="face_85_">
		</g>
		<g id="hair_front_2_">
		</g>
	</g>
	<g id="avatar1_1_">
		<g id="back_17_">
			<circle fill="#F6BB42" cx="256" cy="256" r="200"/>
		</g>
		<g id="hair_back_1_">
			<rect id="_x31__133_" x="180" y="212" fill="#2D3138" width="153" height="170"/>
		</g>
		<g id="clothes_18_">
			<path id="_x34__66_" fill="#EC87C0" d="M372.668,368.667c-7.353-6.355-19.364-14.562-30.666-15.666
				c-2.679-0.262-15.099-3.464-29.7-7.4c0.064,0.018,0.13,0.035,0.194,0.053c-0.082,30.811-25.169,55.853-55.999,55.853
				c-30.88,0-56.003-25.123-56.003-56.003c0-0.039,0.002-0.078,0.002-0.117c0.173-0.046,0.348-0.094,0.521-0.141
				c-15.167,4.097-28.259,7.486-31.019,7.756c-11.302,1.104-23.313,9.311-30.666,15.666c-13.235,11.44-10.854,25.454-14.641,38.188
				C159.824,437.461,205.746,456,256,456s96.176-18.539,131.309-49.146C383.522,394.121,385.903,380.107,372.668,368.667z"/>
			<path id="_x33__97_" fill="#D770AD" d="M200.494,345.503c0,30.88,25.123,56.003,56.003,56.003
				c30.83,0,55.917-25.042,55.999-55.853c-0.064-0.018-0.13-0.035-0.194-0.053c-0.706-0.19-1.415-0.382-2.13-0.575
				c-0.018-0.004-0.033-0.009-0.051-0.014c-0.878-0.237-1.762-0.477-2.652-0.719c0.01,0.404,0.031,0.805,0.031,1.21
				c0,28.168-22.835,51.003-51.003,51.003s-51.003-22.835-51.003-51.003c0-0.497,0.023-0.988,0.037-1.481
				c-0.274,0.075-0.549,0.149-0.822,0.224c-0.416,0.113-0.831,0.226-1.245,0.338c-0.31,0.084-0.618,0.168-0.927,0.251
				c-0.51,0.138-1.016,0.274-1.521,0.411c-0.173,0.047-0.348,0.095-0.521,0.141C200.496,345.425,200.494,345.464,200.494,345.503z"
				/>
			<path id="_x32__84_" fill="#F9E0A8" d="M307.469,344.293c-8.646-2.348-17.734-4.857-25.838-7.109
				c0.225-1.222,0.313-1.949,0.313-1.949L298.25,246.5L256,252l-42.25-5.5l16.307,88.734c0,0,0.088,0.727,0.313,1.949
				c-0.096,0.027-0.191,0.054-0.287,0.08c-0.137,0.038-0.274,0.076-0.412,0.115c-0.037,0.01-0.073,0.02-0.109,0.029
				c-0.249,0.069-0.494,0.138-0.745,0.207c-0.322,0.09-0.649,0.181-0.975,0.271c-0.044,0.012-0.088,0.023-0.132,0.036
				c-0.271,0.075-0.541,0.149-0.813,0.226c-0.211,0.059-0.424,0.117-0.637,0.176c-0.529,0.147-1.062,0.295-1.598,0.443
				c-0.221,0.061-0.442,0.123-0.664,0.184c-0.469,0.13-0.938,0.26-1.41,0.391c-0.275,0.076-0.551,0.152-0.828,0.229
				c-0.539,0.149-1.082,0.299-1.625,0.449c-0.241,0.066-0.482,0.133-0.725,0.199c-0.125,0.035-0.25,0.069-0.376,0.104
				c-0.026,0.008-0.053,0.015-0.079,0.022c-0.475,0.131-0.951,0.262-1.428,0.394c-0.322,0.088-0.646,0.178-0.969,0.266
				c-0.428,0.118-0.856,0.236-1.285,0.354c-0.311,0.086-0.621,0.171-0.933,0.257c-0.438,0.12-0.876,0.24-1.313,0.36
				c-0.292,0.08-0.583,0.16-0.874,0.239c-0.651,0.179-1.301,0.356-1.95,0.534c-0.074,0.02-0.146,0.04-0.221,0.061
				c-0.729,0.199-1.458,0.398-2.186,0.596c-0.243,0.066-0.485,0.133-0.729,0.199c-0.479,0.13-0.957,0.261-1.434,0.391
				c-0.035,0.009-0.068,0.018-0.104,0.027c-0.014,0.493-0.037,0.984-0.037,1.481c0,28.168,22.835,51.003,51.003,51.003
				s51.003-22.835,51.003-51.003C307.5,345.098,307.479,344.697,307.469,344.293z"/>
			<path id="_x31__94_" fill="#D9C392" d="M290,261.5l-69.525,21.592l7.086,38.556c10.66,13.146,26.918,25.187,50.957,26.265
				c2.709-6.691,3.426-12.678,3.426-12.678l12.127-65.99C291.686,264.447,290,261.5,290,261.5z"/>
		</g>
		<g id="face_84_">
			<path id="face_50_" fill="#FFE9BA" d="M256,154h-63c0,0,4.785,94.465,11,114c7,22.001,14.237,27.287,30.226,41
				C247.634,320.5,256,319,256,319s8.366,1.5,21.774-10C293.763,295.287,302,290.001,309,268c6.215-19.535,10-114,10-114H256z"/>
			<path id="ear_53_" fill="#F9E0A8" d="M197.75,214.5c0,0-22.743-10.911-17.273,16.638c5.468,27.55,22.018,23.583,22.018,23.583
				L197.75,214.5z"/>
			<path id="ear_7_" fill="#F9E0A8" d="M315.25,214.5c0,0,22.743-10.911,17.273,16.638c-5.468,27.55-22.018,23.583-22.018,23.583
				L315.25,214.5z"/>
		</g>
		<g id="hair_front_1_">
			<path id="_x36__61_" fill="#434A54" d="M256,102c-122,0-77,193.979-82,237s59.375,57.506,59.375,57.506
				c-45.764-58.169-34.307-159.974-34.307-159.974c53.822-10.347,78.465-30.924,89.732-47.022
				c4.609,12.114,12.086,27.633,24.131,47.022c0,0,11.457,101.805-34.307,159.974c0,0,64.375-14.484,59.375-57.506S378,102,256,102z
				"/>
			<path id="_x35__68_" fill="#656D78" d="M314.078,274.65c-0.951,34.939-7.614,86.471-35.453,121.855c0,0,6.217-1.399,14.634-4.617
				C312.992,351.333,314.813,301.416,314.078,274.65z"/>
			<path id="_x34__60_" fill="#656D78" d="M256,121c69.291,0,84.71,62.573,86.017,124.524C343.311,178.087,332.408,102,256,102
				s-87.311,76.087-86.017,143.524C171.29,183.573,186.709,121,256,121z"/>
			<path id="_x33__66_" fill="#656D78" d="M218.741,391.889c8.417,3.218,14.634,4.617,14.634,4.617
				c-27.839-35.385-34.502-86.916-35.453-121.855C197.188,301.416,199.008,351.333,218.741,391.889z"/>
			<path id="_x32__73_" fill="#656D78" d="M288.801,189.51c0,0-12.665,56.055-89.732,47.022
				C199.068,236.532,256.5,225,288.801,189.51z"/>
			<path id="_x31__86_" fill="#656D78" d="M283.5,145c0,0-15.879,43-92.439,72.5C191.061,217.5,261,219.5,283.5,145z"/>
		</g>
	</g>
</g>
<g id="male" display="none">
	<g id="avatar20" display="inline">
		<g id="back_32_">
		</g>
		<g id="clothes_34_">
		</g>
		<g id="face_100_">
		</g>
		<g id="hair_22_">
		</g>
	</g>
	<g id="avatar19" display="inline">
		<g id="back_31_">
		</g>
		<g id="clothes_33_">
		</g>
		<g id="face_99_">
		</g>
		<g id="scaft">
		</g>
		<g id="hat">
		</g>
	</g>
	<g id="avatar18" display="inline">
		<g id="back_30_">
		</g>
		<g id="clothes_32_">
		</g>
		<g id="face_55_">
		</g>
		<g id="earings_2_">
		</g>
		<g id="hair_21_">
		</g>
	</g>
	<g id="avatar17" display="inline">
		<g id="back_29_">
		</g>
		<g id="hair_back_10_">
		</g>
		<g id="clothes_31_">
		</g>
		<g id="face_2_">
		</g>
		<g id="glasses_10_">
		</g>
		<g id="hair_front_10_">
		</g>
	</g>
	<g id="avatar16" display="inline">
		<g id="back_28_">
		</g>
		<g id="hair_back_9_">
		</g>
		<g id="clothes_1_">
		</g>
		<g id="face_1_">
		</g>
		<g id="hair_front_9_">
		</g>
	</g>
	<g id="avatar15" display="inline">
		<g id="back_5_">
		</g>
		<g id="clothes_6_">
		</g>
		<g id="face_29_">
		</g>
		<g id="glasses_4_">
		</g>
		<g id="hair_8_">
		</g>
	</g>
	<g id="avatar14" display="inline">
		<g id="back_6_">
		</g>
		<g id="clothes_7_">
		</g>
		<g id="face_42_">
		</g>
		<g id="earings_3_">
		</g>
		<g id="hair_9_">
		</g>
	</g>
	<g id="avatar13" display="inline">
		<g id="back_7_">
		</g>
		<g id="clothes_8_">
		</g>
		<g id="face_43_">
		</g>
		<g id="glasses_5_">
		</g>
		<g id="hair_10_">
		</g>
	</g>
	<g id="avatar12" display="inline">
		<g id="back_8_">
		</g>
		<g id="clothes_9_">
		</g>
		<g id="face_44_">
		</g>
		<g id="beard_6_">
		</g>
		<g id="hair_11_">
		</g>
	</g>
	<g id="avatar11" display="inline">
		<g id="back_9_">
		</g>
		<g id="clothes_10_">
		</g>
		<g id="face_45_">
		</g>
		<g id="glass">
		</g>
		<g id="hair_12_">
		</g>
	</g>
	<g id="avatar10" display="inline">
		<g id="back_10_">
		</g>
		<g id="clothes_11_">
		</g>
		<g id="face_46_">
		</g>
		<g id="beard_7_">
		</g>
		<g id="glasses_6_">
		</g>
		<g id="hair_13_">
		</g>
	</g>
	<g id="avatar9" display="inline">
		<g id="back_11_">
		</g>
		<g id="clothes_12_">
		</g>
		<g id="face_47_">
		</g>
		<g id="glasses_3_">
		</g>
		<g id="hair_7_">
		</g>
	</g>
	<g id="avatar8" display="inline">
		<g id="back_12_">
		</g>
		<g id="clothes_13_">
		</g>
		<g id="face_48_">
		</g>
		<g id="beard_5_">
		</g>
		<g id="glasses_7_">
		</g>
		<g id="hair_6_">
		</g>
	</g>
	<g id="avatar7" display="inline">
		<g id="back_4_">
		</g>
		<g id="clothes_14_">
		</g>
		<g id="face_11_">
		</g>
		<g id="hair_14_">
		</g>
	</g>
	<g id="avatar6" display="inline">
		<g id="back_13_">
		</g>
		<g id="clothes_15_">
		</g>
		<g id="face_16_">
		</g>
		<g id="glasses_2_">
		</g>
		<g id="beard_4_">
		</g>
		<g id="hair_5_">
		</g>
	</g>
	<g id="avatar5" display="inline">
		<g id="back_14_">
		</g>
		<g id="clothes_5_">
		</g>
		<g id="face_38_">
		</g>
		<g id="beard_3_">
		</g>
		<g id="hair_4_">
		</g>
	</g>
	<g id="avatar4" display="inline">
		<g id="back_3_">
		</g>
		<g id="clothes_4_">
		</g>
		<g id="face_13_">
		</g>
		<g id="beard_2_">
		</g>
		<g id="glasses_1_">
		</g>
		<g id="hair_3_">
		</g>
	</g>
	<g id="avatar3" display="inline">
		<g id="back_15_">
		</g>
		<g id="clothes_16_">
		</g>
		<g id="face_49_">
		</g>
		<g id="hair_15_">
		</g>
	</g>
	<g id="avatar2" display="inline">
		<g id="back_2_">
		</g>
		<g id="clothes_3_">
		</g>
		<g id="face_9_">
		</g>
		<g id="beard_1_">
		</g>
		<g id="hair_2_">
		</g>
	</g>
	<g id="avatar1" display="inline">
		<g id="back_1_">
		</g>
		<g id="clothes_2_">
		</g>
		<g id="face_6_">
		</g>
		<g id="hair_1_">
		</g>
	</g>
</g>
</svg>
