<?xml version="1.0" encoding="iso-8859-1"?>
<!-- Generator: Adobe Illustrator 16.0.3, SVG Export Plug-In . SVG Version: 6.00 Build 0)  -->
<!DOCTYPE svg PUBLIC "-//W3C//DTD SVG 1.1 Basic//EN" "http://www.w3.org/Graphics/SVG/1.1/DTD/svg11-basic.dtd">
<svg version="1.1" baseProfile="basic" xmlns="http://www.w3.org/2000/svg" xmlns:xlink="http://www.w3.org/1999/xlink" x="0px"
	 y="0px" width="512px" height="512px" viewBox="0 0 512 512" xml:space="preserve">
<g id="Layer_159" display="none">
	<rect y="-512" display="inline" fill="#FFFFFF" width="512" height="512"/>
	<rect x="-512" y="-512" display="inline" fill="#FFFFFF" width="512" height="512"/>
	<rect x="512" y="-512" display="inline" fill="#FFFFFF" width="512" height="512"/>
	<rect x="-512" display="inline" fill="#FFFFFF" width="512" height="512"/>
	<rect display="inline" fill="#FFFFFF" width="512" height="512"/>
	<rect x="512" display="inline" fill="#FFFFFF" width="512" height="512"/>
</g>
<g id="female">
	<g id="avatar15_1_">
		<g id="baclk">
		</g>
		<g id="hair_back_8_">
		</g>
		<g id="clothes_30_">
		</g>
		<g id="face_98_">
		</g>
		<g id="hair_front_8_">
		</g>
	</g>
	<g id="avatar14_1_">
		<g id="back_16_">
		</g>
		<g id="hair_back">
		</g>
		<g id="clothes_17_">
		</g>
		<g id="face_57_">
		</g>
		<g id="hair_front">
		</g>
	</g>
	<g id="avatar13_1_">
		<g id="back_x27_">
			<circle fill="#F6BB42" cx="256" cy="256" r="200"/>
		</g>
		<g id="clothes">
			<path id="_x34__44_" fill="#FFE9BA" d="M372.668,369.667c-7.354-6.355-19.364-14.562-30.666-15.666
				c-2.679-0.262-15.099-3.464-29.701-7.4c-0.705-0.19-1.414-0.382-2.129-0.575c-0.018-0.004-0.033-0.009-0.051-0.014
				c-0.878-0.237-1.762-0.477-2.652-0.719c-8.923-2.422-18.324-5.02-26.62-7.326c-0.182-0.051-0.362-0.102-0.542-0.151
				c-0.467-0.13-0.93-0.259-1.389-0.387c-0.219-0.061-0.436-0.121-0.652-0.182c-0.408-0.113-0.811-0.226-1.211-0.338
				c-0.237-0.065-0.475-0.132-0.709-0.197c-0.354-0.099-0.7-0.195-1.047-0.292c-0.697-0.194-1.381-0.386-2.053-0.573
				c-0.121-0.034-0.246-0.069-0.367-0.103c-0.223-0.063-0.439-0.123-0.66-0.185c-0.387-0.108-0.77-0.216-1.146-0.321
				c-5.435-1.521-9.816-2.754-12.426-3.49c-0.016-0.004-0.029-0.008-0.045-0.012c-0.41-0.116-0.766-0.217-1.084-0.307
				c-0.105-0.029-0.205-0.058-0.301-0.084c-0.314-0.09-0.555-0.157-0.75-0.213c-0.297-0.084-0.467-0.132-0.467-0.132
				s-0.221,0.063-0.602,0.17c-0.032,0.009-0.055,0.016-0.09,0.025c-0.078,0.022-0.164,0.047-0.256,0.072
				c-0.09,0.025-0.173,0.049-0.275,0.078c-0.135,0.038-0.28,0.079-0.436,0.123c-0.244,0.069-0.516,0.146-0.811,0.229
				c-0.129,0.036-0.266,0.075-0.404,0.114c-0.066,0.019-0.131,0.037-0.199,0.057c-0.414,0.116-0.859,0.241-1.346,0.379
				c-0.113,0.031-0.232,0.065-0.352,0.099c-0.009,0.002-0.018,0.005-0.027,0.008c-0.341,0.096-0.699,0.196-1.071,0.302
				c-0.142,0.039-0.278,0.078-0.423,0.119c-0.145,0.04-0.293,0.082-0.441,0.123c-0.043,0.013-0.088,0.025-0.133,0.037
				c-0.031,0.01-0.063,0.019-0.095,0.027c-0.29,0.082-0.589,0.166-0.894,0.251c-0.014,0.005-0.029,0.009-0.043,0.013
				c-0.045,0.013-0.09,0.025-0.136,0.038c-0.106,0.029-0.208,0.058-0.315,0.089c-0.176,0.049-0.358,0.101-0.539,0.151
				c-0.98,0.275-2.027,0.569-3.134,0.879c-0.163,0.046-0.321,0.09-0.487,0.137c-0.379,0.106-0.771,0.216-1.163,0.325
				c-0.079,0.022-0.157,0.045-0.236,0.066c-0.388,0.109-0.78,0.219-1.179,0.33c-0.228,0.063-0.458,0.129-0.689,0.193
				c-0.338,0.094-0.676,0.188-1.021,0.285c-0.193,0.055-0.394,0.11-0.59,0.165c-0.583,0.163-1.174,0.328-1.775,0.496
				c-0.381,0.106-0.762,0.213-1.15,0.321c-0.219,0.061-0.44,0.122-0.66,0.184c-0.414,0.115-0.828,0.231-1.248,0.348
				c-0.275,0.077-0.551,0.154-0.828,0.231c-0.393,0.109-0.789,0.22-1.188,0.33c-0.284,0.079-0.567,0.158-0.855,0.238
				c-0.272,0.076-0.55,0.153-0.825,0.229c-0.137,0.038-0.274,0.076-0.412,0.115c-0.037,0.01-0.073,0.02-0.109,0.029
				c-0.249,0.069-0.494,0.138-0.746,0.207c-0.321,0.09-0.648,0.181-0.974,0.271c-0.044,0.012-0.088,0.023-0.132,0.036
				c-0.271,0.075-0.541,0.149-0.813,0.226c-0.211,0.059-0.424,0.117-0.637,0.176c-0.529,0.147-1.062,0.295-1.598,0.443
				c-0.221,0.061-0.442,0.123-0.664,0.184c-0.469,0.13-0.938,0.26-1.41,0.391c-0.275,0.076-0.551,0.152-0.828,0.229
				c-0.539,0.149-1.082,0.299-1.625,0.449c-0.241,0.066-0.482,0.133-0.725,0.199c-0.125,0.035-0.25,0.069-0.376,0.104
				c-0.026,0.008-0.053,0.015-0.079,0.022c-0.475,0.131-0.951,0.262-1.428,0.394c-0.322,0.088-0.646,0.178-0.969,0.266
				c-0.428,0.118-0.857,0.236-1.285,0.354c-0.311,0.086-0.621,0.171-0.933,0.257c-0.438,0.12-0.876,0.24-1.313,0.36
				c-0.293,0.08-0.583,0.16-0.874,0.239c-0.651,0.179-1.302,0.356-1.95,0.534c-0.074,0.02-0.146,0.04-0.221,0.061
				c-0.729,0.199-1.458,0.398-2.186,0.596c-0.243,0.066-0.485,0.133-0.729,0.199c-0.479,0.13-0.957,0.261-1.434,0.391
				c-0.035,0.009-0.068,0.018-0.104,0.027c-0.274,0.075-0.549,0.149-0.822,0.224c-0.416,0.113-0.831,0.226-1.245,0.338
				c-0.31,0.084-0.618,0.168-0.927,0.251c-0.51,0.138-1.016,0.274-1.521,0.411c-15.167,4.097-28.259,7.486-31.019,7.756
				c-11.302,1.104-23.313,9.311-30.666,15.666c-13.235,11.44-10.854,15.454-14.641,28.188C159.824,428.461,205.746,447,256,447
				s96.176-18.539,131.309-49.146C383.522,385.121,385.903,381.107,372.668,369.667z"/>
			<path fill="#656D78" d="M196.448,346.047L184.667,425c0,0,14.333-6.666,15.667-11.666s-3.886-6-3.886-6s3.655-2.666,4.104-7.333
				S195.212,394,195.212,394s4.607-4.459,5.364-11.063s-5.364-1.604-5.364-1.604s5.403-6.667,5.429-11.667s-5.429,0-5.429,0
				s5.403-6.332,5.429-9.666s-4.193-1-4.193-1S211.333,336.234,196.448,346.047z"/>
			<path fill="#656D78" d="M186.75,349c0,0-8.457-3.603-9.27,0s4.635,10.334,4.635,10.334s-3.987-0.666-4.718,3.667
				s2.23,6.666,2.23,6.666s-7.294,0.626-6.294,5.146s6.257,4.521,6.257,4.521s-9.611,0.635-7.434,6.317s5.307,5.351,5.307,5.351
				s-7.125,0.332-5.627,5.999s5.644,7.333,5.644,7.333s-8.813-6.667-9.146,3s7.167,23.667,7.167,23.667"/>
			<path fill="#656D78" d="M315.552,346.047L327.333,425c0,0-14.333-6.666-15.667-11.666s3.886-6,3.886-6s-3.655-2.666-4.104-7.333
				s5.339-6.001,5.339-6.001s-4.607-4.459-5.364-11.063s5.364-1.604,5.364-1.604s-5.403-6.667-5.429-11.667s5.429,0,5.429,0
				s-5.403-6.332-5.429-9.666s4.193-1,4.193-1S300.667,336.234,315.552,346.047z"/>
			<path fill="#656D78" d="M325.25,349c0,0,8.457-3.603,9.27,0s-4.635,10.334-4.635,10.334s3.987-0.666,4.718,3.667
				s-2.23,6.666-2.23,6.666s7.294,0.626,6.294,5.146s-6.257,4.521-6.257,4.521s9.611,0.635,7.434,6.317s-5.307,5.351-5.307,5.351
				s7.125,0.332,5.627,5.999s-5.644,7.333-5.644,7.333s8.813-6.667,9.146,3s-7.167,23.667-7.167,23.667"/>
			<path fill="#F5F7FA" d="M229.5,342.752c0,0-18.551,26.582-9.025,34.249c0,0-25.308,27.333-6.725,45s32.25-6,32.25-6
				L229.5,342.752z"/>
			<path fill="#F5F7FA" d="M282.5,342.752c0,0,18.551,26.582,9.025,34.249c0,0,25.308,27.333,6.725,45s-32.25-6-32.25-6
				L282.5,342.752z"/>
			<path fill="#F5F7FA" d="M139.332,369.667c0,0-10.668-31,0-28.667S153,373,153,373s-3.667-27.843,6-24.088S165,373,165,373
				s1.334-8.333,8.667-6s1.833,58,1.833,58l-32.167-28L139.332,369.667z"/>
			<path fill="#F5F7FA" d="M372.668,369.667c0,0,10.668-31,0-28.667S359,373,359,373s3.667-27.843-6-24.088S347,373,347,373
				s-1.334-8.333-8.667-6s-1.833,58-1.833,58l32.167-28L372.668,369.667z"/>
			<path fill="#434A54" d="M186.75,349l-11.25,76c0,0,12.716-1.91,13-2s7.948-76.953,7.948-76.953L186.75,349z"/>
			<path fill="#434A54" d="M325.25,349l11.25,76c0,0-12.716-1.91-13-2s-7.948-76.953-7.948-76.953L325.25,349z"/>
			<path id="_x33__46_" fill="#F9E0A8" d="M256,253l-42.25-5.5l16.307,88.734c0,0,3.666,30.766,25.943,30.766
				s25.943-30.766,25.943-30.766L298.25,247.5L256,253z"/>
			<path id="_x32__61_" fill="#D9C392" d="M290,262.5l-69.525,21.592l7.086,38.556c10.66,13.146,26.918,25.187,50.957,26.265
				c2.709-6.691,3.426-12.678,3.426-12.678l12.127-65.99C291.686,265.447,290,262.5,290,262.5z"/>
			<path id="_x38__12_" fill="#D9C392" d="M281.814,337.113c-0.018,0.112-0.039,0.242-0.062,0.373
				C281.775,337.352,281.797,337.228,281.814,337.113z"/>
			<path id="_x37__46_" fill="#D9C392" d="M281.889,336.63c-0.014,0.1-0.033,0.224-0.055,0.358
				C281.855,336.85,281.874,336.73,281.889,336.63z"/>
			<path id="_x36__53_" fill="#D9C392" d="M281.943,336.234c0,0-0.004,0.034-0.012,0.09
				C281.939,336.27,281.943,336.234,281.943,336.234z"/>
			<path id="_x35__54_" fill="#D9C392" d="M281.93,336.34c-0.008,0.059-0.02,0.145-0.035,0.252
				C281.91,336.484,281.922,336.397,281.93,336.34z"/>
			<path fill="#F5F7FA" d="M298.25,305.706c0,0-10-1.373-14.792,7.294c0,0-9.458-0.204-14.125,7.064L258.635,331h-5.271
				l-10.698-10.936C238,312.796,228.542,313,228.542,313c-4.792-8.667-14.792-7.294-14.792-7.294s14.539,20.908,14.792,22.33
				l1.555,2.964H230v113h52V331h-0.097l1.555-2.964C283.711,326.614,298.25,305.706,298.25,305.706z"/>
			<rect x="245" y="341" fill="#FFFFFF" width="22" height="100"/>
			<rect x="250" y="341" fill="#F5F7FA" width="13" height="100"/>
			<path fill="#434A54" d="M283.458,328.036c0,0-7.708,3.964-27.458,3.964s-27.458-3.964-27.458-3.964
				c-7.458,4.536-3.88,11.731-3.88,11.731C231.074,346.035,256,349,256,349s24.926-2.965,31.338-9.232
				C287.338,339.768,290.916,332.572,283.458,328.036z"/>
			<path fill="#434A54" d="M372.668,369.667c0,0-35.668,19.333-36.168,55.333c0,0-43-26-80.5,8.5c-37.5-34.5-80.5-8.5-80.5-8.5
				c-0.5-36-36.168-55.333-36.168-55.333c-17.277,2.535-29.029,8.188-36.848,15.515C139.172,429.072,194.321,457,256,457
				s116.828-27.928,153.516-71.818C401.697,377.855,389.945,372.202,372.668,369.667z"/>
			<path fill="#434A54" d="M372.668,369.667c0,0-35.668,19.333-36.168,55.333c0,0-43-26-80.5,8.5c-37.5-34.5-80.5-8.5-80.5-8.5
				c-0.5-36-36.168-55.333-36.168-55.333c-17.277,2.535-29.029,8.188-36.848,15.515C139.172,429.072,194.321,457,256,457
				s116.828-27.928,153.516-71.818C401.697,377.855,389.945,372.202,372.668,369.667z"/>
			<path fill="#2D3138" d="M139.332,384.667c0,0,35.668,19.333,36.168,55.333c0,0,43-26,80.5,8.5c37.5-34.5,80.5-8.5,80.5-8.5
				c0.5-36,36.168-55.333,36.168-55.333c12.177,1.787,21.6,5.128,28.845,9.507c2.753-2.919,5.428-5.912,8.003-8.992
				c-7.818-7.326-19.571-12.979-36.848-15.515c0,0-35.668,19.333-36.168,55.333c0,0-43-26-80.5,8.5c-37.5-34.5-80.5-8.5-80.5-8.5
				c-0.5-36-36.168-55.333-36.168-55.333c-17.277,2.535-29.029,8.188-36.848,15.515c2.575,3.08,5.25,6.073,8.003,8.992
				C117.732,389.795,127.155,386.454,139.332,384.667z"/>
			<g>
				<path fill="#2D3138" d="M256.399,337.071c-6.902-0.95-13.931-1.379-20.893-1.102c-5.723,0.229-17.216,1.026-17.138,9.013
					c0.101,10.274,12.221,9.008,18.633,6.541c7.213-2.773,13.989-7.193,20.059-11.945c1.522-1.191-0.617-3.299-2.121-2.121
					c-4.172,3.266-9.713,6.779-14.785,9.375c-3.647,1.866-7.658,3.504-11.791,3.74c-3.667,0.211-7.762-2.635-6.902-6.736
					c1.213-5.788,15.162-4.979,19.24-4.94c4.751,0.044,10.823,0.507,14.899,1.068C257.492,340.225,258.308,337.334,256.399,337.071z
					"/>
			</g>
			<g>
				<path fill="#2D3138" d="M254.939,337.457c-4.174,5.004-7.989,10.338-11.528,15.804c-4.886,7.544-10.593,16.861-10.403,26.186
					c0.041,1.989,0.739,3.747,1.465,5.571c1.72,4.319,2.504,9.032,1.799,13.646c-1.083,7.085-6.861,10.686-11.168,15.695
					c-6.299,7.325-13.903,20.729-8.65,30.397c0.924,1.7,3.514,0.187,2.591-1.514c-5.58-10.27,5.692-25.14,12.999-31.545
					c3.996-3.503,6.517-8.28,7.313-13.499c0.933-6.106-1.459-11.28-3.097-16.98c-2.439-8.49,5.473-19.746,9.74-26.443
					c3.358-5.271,7.054-10.396,11.059-15.197C258.291,338.104,256.18,335.97,254.939,337.457L254.939,337.457z"/>
			</g>
			<g>
				<path fill="#2D3138" d="M256.399,339.964c4.083-0.562,10.143-0.985,14.899-1.068c4.625-0.081,17.321-0.869,19.24,4.94
					c1.232,3.73-3.063,6.561-6.157,6.738c-4.294,0.248-8.799-1.898-12.536-3.742c-5.091-2.514-10.631-6.123-14.785-9.375
					c-1.504-1.178-3.644,0.93-2.121,2.121c7.191,5.63,36.513,25.263,38.692,5.404c1.456-13.266-31.07-8.869-38.031-7.911
					C253.692,337.334,254.508,340.225,256.399,339.964z"/>
			</g>
			<g>
				<path fill="#2D3138" d="M254.939,339.578c3.786,4.538,7.238,9.375,10.484,14.31c4.759,7.232,11.745,17.492,10.462,26.632
					c-0.404,2.878-1.984,5.642-2.7,8.475c-0.726,2.871-0.856,5.871-0.597,8.806c0.444,5.03,3.039,9.409,6.439,13.008
					c4.27,4.52,8.194,8.383,11.229,13.955c2.834,5.206,5.787,12.796,2.698,18.48c-0.923,1.7,1.667,3.214,2.591,1.514
					c5.09-9.369-1.965-22.153-7.883-29.452c-4.228-5.215-9.704-8.625-11.666-15.416c-1.1-3.807-0.476-7.893,0.473-11.645
					c0.689-2.725,2.244-5.215,2.464-8.05c0.713-9.205-5.098-18.566-9.771-26.034c-3.638-5.811-7.707-11.436-12.102-16.703
					C255.82,335.97,253.709,338.104,254.939,339.578L254.939,339.578z"/>
			</g>
		</g>
		<g id="face">
			<path id="face_4_" fill="#FFE9BA" d="M256,154h-63c0,0,4.785,94.465,11,114c7,22.001,14.237,27.287,30.226,41
				C247.634,320.5,256,319,256,319s8.366,1.5,21.774-10C293.763,295.287,302,290.001,309,268c6.215-19.535,10-114,10-114H256z"/>
			<path id="ear_70_" fill="#F9E0A8" d="M197.75,214.5c0,0-22.743-10.911-17.273,16.638c5.468,27.55,22.018,23.583,22.018,23.583
				L197.75,214.5z"/>
			<path id="ear_4_" fill="#F9E0A8" d="M315.25,214.5c0,0,22.743-10.911,17.273,16.638c-5.468,27.55-22.018,23.583-22.018,23.583
				L315.25,214.5z"/>
		</g>
		<g id="hair">
			<path fill="#434A54" d="M208.475,125c0,0-38.975-38.5-71.975,12s67.5,157.5,12,143c0,0,32.5,25.5,37.5-33.5s43.5-64,43.5-64
				L208.475,125z"/>
			<path fill="#2D3138" d="M133,267.5c1.999,0.398,4.079,0.039,5.802-0.967c1.745-0.964,3.197-2.382,4.384-3.97
				c2.388-3.18,3.87-6.994,4.51-10.876c0.627-3.875,0.404-7.931-1.106-11.442c-0.749-1.748-1.819-3.335-3.166-4.636
				c-0.335-0.324-0.707-0.613-1.055-0.923l-1.187-0.992c-0.391-0.331-0.793-0.745-1.186-1.119c-0.389-0.386-0.727-0.794-1.092-1.19
				c-2.815-3.259-4.616-7.412-5.103-11.744c-0.47-4.317,0.345-8.902,2.862-12.71c1.277-1.867,2.97-3.549,5.046-4.645
				c1.017-0.587,2.14-0.957,3.265-1.268c0.572-0.099,1.143-0.26,1.721-0.295l0.867-0.083l0.644-0.077l1.51-0.175
				c0.471-0.078,0.812-0.221,1.224-0.316l0.595-0.152c0.197-0.074,0.391-0.173,0.586-0.256c0.38-0.188,0.807-0.307,1.152-0.539
				c1.484-0.8,2.591-2.049,3.271-3.477c1.344-2.884,0.779-6.606-1.32-9.34l-0.367-0.529c-0.138-0.166-0.296-0.318-0.442-0.479
				c-0.306-0.311-0.573-0.653-0.901-0.943l-2.235-1.82c-0.977-0.883-1.779-1.753-2.443-2.725c-0.67-0.967-1.249-1.989-1.693-3.052
				c-1.811-4.256-2.104-8.868-1.264-13.29c0.439-2.215,1.203-4.409,2.465-6.451c1.284-1.994,3.156-3.946,5.747-4.857
				c0.312-0.129,0.638-0.216,0.968-0.292c0.329-0.081,0.657-0.164,0.992-0.191c0.745-0.092,1.118-0.114,1.659-0.154
				c0.513-0.036,1.021-0.074,1.427-0.144c0.434-0.06,0.87-0.104,1.296-0.209c1.736-0.359,3.171-0.911,4.313-1.968
				c1.167-1.039,2.196-2.557,3.172-4.225c0.975-1.67,1.917-3.457,2.876-5.243l0.724-1.347l0.181-0.337l0.091-0.168l0.148-0.259
				l0.39-0.652c0.103-0.192,0.326-0.497,0.518-0.765c0.199-0.266,0.392-0.563,0.607-0.787l0.639-0.712l0.724-0.66
				c1.005-0.848,2.211-1.532,3.494-1.936c1.282-0.411,2.611-0.542,3.865-0.479c2.522,0.133,4.753,0.916,6.775,1.881
				c1.013,0.488,1.978,1.035,2.907,1.629c0.945,0.608,1.789,1.193,2.739,1.975l3.118,2.564l-3.78,1.599
				c-1.38,0.584-2.907,1.378-4.293,2.193c-1.408,0.827-2.764,1.734-4.03,2.726c-2.523,1.975-4.748,4.307-6.038,6.949
				c-1.319,2.635-1.518,5.519-0.679,8.336c0.396,1.415,1.132,2.777,1.918,4.113l0.669,0.975l0.333,0.488l0.402,0.564l0.752,1.057
				c0.251,0.354,0.51,0.772,0.763,1.156c1.019,1.564,1.908,3.156,2.656,4.903c0.744,1.732,1.342,3.591,1.58,5.589
				c0.229,1.984,0.113,4.14-0.655,6.123c-0.724,1.998-2.016,3.719-3.496,5.064c-1.492,1.347-3.174,2.339-4.893,3.125
				c-1.728,0.772-3.497,1.353-5.312,1.759l-0.085,0.02l-0.042,0.01c0.032-0.009-0.131,0.032,0.06-0.017l-0.156,0.043l-0.313,0.086
				c-0.12,0.029-0.196,0.058-0.243,0.082l-0.182,0.072c-0.107,0.03-0.286,0.126-0.438,0.195c-0.157,0.069-0.315,0.152-0.474,0.247
				c-0.636,0.347-1.269,0.791-1.877,1.278c-1.224,0.972-2.355,2.132-3.372,3.381c-2.034,2.492-3.639,5.4-4.378,8.423
				c-0.342,1.509-0.485,3.042-0.262,4.502c0.233,1.452,0.785,2.831,1.683,4.021c0.252,0.294,0.445,0.563,0.741,0.885l0.875,0.958
				l1.751,1.924c1.167,1.291,2.331,2.598,3.451,3.966c1.12,1.367,2.205,2.788,3.147,4.366c0.902,1.58,1.788,3.353,1.765,5.507
				c-0.012,1.062-0.374,2.167-0.98,3.034c-0.6,0.88-1.388,1.53-2.194,2.038c-1.612,1.07-3.421,1.497-4.899,2.153
				c-3.029,1.308-5.801,3.353-8.034,5.86c-2.217,2.515-3.929,5.569-4.509,8.905c-0.269,1.658-0.251,3.393,0.242,5.024
				c0.452,1.646,1.41,3.133,2.615,4.369c-1.283-1.151-2.364-2.593-2.945-4.261c-0.624-1.651-0.768-3.464-0.602-5.226
				c0.385-3.545,2.024-6.852,4.21-9.636c2.209-2.79,5.017-5.113,8.28-6.693c1.648-0.803,3.253-1.27,4.496-2.201
				c1.299-0.879,2.086-2.062,2.029-3.389c-0.026-1.35-0.759-2.813-1.623-4.164c-0.882-1.363-1.945-2.666-3.064-3.934
				c-1.118-1.27-2.301-2.506-3.499-3.739l-1.811-1.85l-0.909-0.927c-0.302-0.303-0.646-0.714-0.963-1.07
				c-1.249-1.527-2.102-3.419-2.478-5.367c-0.366-1.956-0.26-3.937,0.12-5.803c0.818-3.731,2.584-7.065,4.831-9.985
				c1.13-1.462,2.389-2.829,3.843-4.05c0.725-0.613,1.497-1.19,2.365-1.698c0.211-0.131,0.432-0.255,0.667-0.369
				c0.237-0.117,0.438-0.233,0.739-0.349l0.421-0.168c0.152-0.061,0.279-0.105,0.37-0.129l0.31-0.095l0.155-0.047l0.248-0.064
				c3.09-0.788,6.122-2.136,8.255-4.129c2.162-1.981,3.083-4.628,2.649-7.518c-0.408-2.879-1.874-5.845-3.666-8.505
				c-0.229-0.334-0.424-0.652-0.679-1.001l-0.77-1.044l-0.767-1.063l-0.815-1.153c-0.997-1.619-1.944-3.313-2.526-5.229
				c-0.59-1.898-0.893-3.953-0.734-6.002c0.146-2.048,0.728-4.048,1.597-5.84c1.757-3.604,4.478-6.379,7.361-8.673
				c1.453-1.148,2.974-2.177,4.543-3.109c1.592-0.939,3.131-1.767,4.933-2.541l-0.662,4.163c-2.751-2.166-6.37-4.126-9.465-4.26
				c-1.547-0.061-2.836,0.328-3.926,1.236l-0.403,0.359l-0.376,0.42c-0.142,0.137-0.213,0.277-0.324,0.412
				c-0.104,0.144-0.2,0.234-0.342,0.487l-0.394,0.65l-0.312,0.568l-0.723,1.327c-0.968,1.779-1.924,3.576-3.001,5.4
				c-1.085,1.807-2.312,3.728-4.183,5.394c-0.449,0.421-0.993,0.773-1.501,1.138c-0.551,0.299-1.089,0.665-1.666,0.877l-0.857,0.356
				c-0.286,0.104-0.572,0.18-0.859,0.269c-0.577,0.191-1.141,0.306-1.705,0.415c-0.562,0.13-1.134,0.191-1.706,0.265
				c-0.596,0.085-1.1,0.118-1.598,0.15c-0.47,0.029-1.108,0.08-1.369,0.116c-0.173,0.004-0.334,0.055-0.498,0.094
				c-0.165,0.034-0.331,0.071-0.486,0.143c-1.284,0.421-2.43,1.513-3.333,2.89c-0.889,1.402-1.533,3.073-1.904,4.828
				c-0.739,3.504-0.526,7.348,0.813,10.583c0.322,0.815,0.742,1.569,1.212,2.275c0.463,0.718,1.058,1.333,1.556,1.836l1.134,0.946
				l1.309,1.117c0.422,0.389,0.789,0.846,1.182,1.268c0.191,0.219,0.391,0.427,0.571,0.653l0.497,0.722
				c0.705,0.932,1.206,2.006,1.706,3.07l0.555,1.693c0.176,0.566,0.23,1.174,0.342,1.76c0.308,2.375-0.045,4.898-1.154,7.099
				c-1.101,2.192-2.919,4.038-5.041,5.116c-0.511,0.309-1.075,0.475-1.612,0.712c-0.273,0.106-0.54,0.225-0.82,0.319l-0.88,0.213
				c-0.575,0.126-1.206,0.297-1.735,0.365l-1.514,0.137l-1.516,0.12c-0.438,0.008-0.851,0.13-1.279,0.182
				c-0.827,0.216-1.658,0.449-2.41,0.866c-1.542,0.755-2.85,1.982-3.894,3.418c-2.076,2.917-2.975,6.749-2.692,10.473
				c0.287,3.735,1.704,7.412,4.091,10.383c0.309,0.358,0.605,0.744,0.924,1.083c0.333,0.333,0.617,0.668,0.983,1.011l1.101,1.01
				c0.395,0.379,0.808,0.737,1.182,1.134c1.501,1.589,2.651,3.487,3.406,5.501c1.51,4.049,1.536,8.428,0.655,12.484
				c-0.904,4.06-2.667,7.932-5.333,11.104c-1.335,1.575-2.952,2.945-4.827,3.826C137.138,267.819,134.951,268.032,133,267.5z"/>
			<path fill="#2D3138" d="M152.451,254.919c-1.484-2.165-2.514-4.633-3.213-7.19c-0.336-1.284-0.562-2.608-0.615-3.961
				c-0.042-1.349,0.077-2.746,0.603-4.084c0.271-0.662,0.637-1.305,1.13-1.863c0.502-0.551,1.108-1.004,1.769-1.348
				c0.669-0.307,1.374-0.559,2.084-0.653c0.356-0.078,0.708-0.087,1.063-0.122l0.921-0.111c0.321-0.043,0.657-0.074,0.966-0.129
				l0.788-0.263l0.394-0.121c0.129-0.049,0.251-0.134,0.377-0.198l0.75-0.403c0.889-0.683,1.673-1.497,2.098-2.54
				c0.897-2.056,0.663-4.529-0.203-6.684c-0.922-2.166-2.492-4.051-4.385-5.52l-1.534-1.096c-0.273-0.195-0.527-0.357-0.815-0.578
				c-0.303-0.254-0.616-0.508-0.905-0.772c-1.104-1.037-2.041-2.383-2.547-3.928c-0.532-1.54-0.549-3.228-0.21-4.762
				c0.326-1.55,1.014-2.949,1.868-4.194c0.857-1.248,1.916-2.332,3.125-3.235c1.209-0.901,2.568-1.644,4.091-2.075
				c1.509-0.44,3.198-0.587,4.859-0.199l0.959,0.213c0.311,0.056,0.381,0.037,0.619,0.061c0.46,0.009,0.927-0.035,1.394-0.148
				c1.877-0.459,3.705-1.885,5.045-3.688c1.359-1.801,2.299-3.976,2.676-6.191c0.385-2.216,0.195-4.474-0.629-6.445l-0.381-0.996
				l-0.085-0.23c-0.028-0.072-0.066-0.235-0.096-0.35c-0.063-0.252-0.122-0.506-0.173-0.761c-0.09-0.506-0.103-0.973-0.106-1.47
				c0.047-0.501,0.074-1.006,0.232-1.493c0.244-0.995,0.762-1.865,1.328-2.591c0.579-0.724,1.228-1.293,1.888-1.775
				c1.329-0.963,2.695-1.569,4.049-2.086c1.357-0.506,2.712-0.887,4.067-1.2c2.729-0.618,5.365-0.992,8.186-1.18l2.127-0.142
				l0.39,2.119c0.627,3.399,1.045,6.705,1.232,10.154c0.081,1.722,0.098,3.463-0.041,5.261c-0.173,1.805-0.403,3.661-1.42,5.723
				c-0.53,1.006-1.429,2.195-2.897,2.85c-0.359,0.136-0.734,0.255-1.105,0.348c-0.361,0.051-0.729,0.087-1.093,0.106l-0.56,0.015
				l-0.474,0.034c-1.347,0.122-2.788,0.455-4.1,0.971c-1.316,0.506-2.563,1.203-3.459,2.026c-0.448,0.407-0.796,0.841-1.002,1.241
				c-0.207,0.404-0.285,0.745-0.264,1.104c0.013,0.704,0.637,1.727,1.604,2.647c0.935,0.87,2.561,2.084,3.775,3.597
				c0.62,0.788,1.279,1.657,1.67,3.045c0.187,0.692,0.236,1.59-0.005,2.442c-0.234,0.855-0.731,1.578-1.224,2.064
				c-1.005,0.968-1.98,1.406-2.878,1.78c-0.906,0.364-1.773,0.621-2.625,0.848c-0.851,0.224-1.686,0.411-2.509,0.588l-1.227,0.256
				l-0.305,0.063c-0.101,0.023,0.094-0.023,0.061-0.016l-0.037,0.01l-0.075,0.019l-0.149,0.038c-0.2,0.05-0.426,0.104-0.499,0.143
				c-0.199,0.063-0.501,0.191-0.78,0.324c-0.28,0.141-0.556,0.301-0.828,0.479c-0.541,0.363-1.057,0.799-1.534,1.284
				c-1.902,1.928-3.171,4.801-2.877,7.135c0.138,1.158,0.681,2.086,1.616,2.805c0.222,0.188,0.5,0.334,0.762,0.498l1.059,0.506
				c0.316,0.134,0.857,0.464,1.333,0.779c0.419,0.326,0.83,0.623,1.176,0.989c1.452,1.408,2.393,3.099,3.069,4.798
				c0.682,1.707,1.062,3.463,1.293,5.22c0.229,1.759,0.25,3.53,0.084,5.301c-0.19,1.771-0.523,3.548-1.375,5.322
				c-0.455,0.87-1.021,1.812-2.133,2.507c-0.563,0.317-1.253,0.575-1.939,0.541c-0.465,0.008-0.86-0.03-1.246-0.024
				c-0.493,0.042-1.094,0.185-1.474,0.444c-0.386,0.252-0.59,0.65-0.692,1.189c-0.215,1.102,0.293,2.587,0.986,3.903
				c0.708,1.345,1.685,2.599,2.703,3.813l1.655,1.813c0.552,0.604,1.105,1.215,1.628,1.93c1.086,1.358,1.938,2.813,2.734,4.317
				c0.709,1.542,1.377,3.108,1.75,4.769c0.245,0.811,0.322,1.665,0.472,2.495c0.042,0.85,0.15,1.69,0.07,2.541
				c-0.068,1.686-0.44,3.391-1.264,4.869c-0.796,1.486-1.998,2.717-3.414,3.563c1.343-0.967,2.398-2.267,3.035-3.745
				c0.667-1.471,0.863-3.105,0.811-4.697c0.021-0.8-0.142-1.593-0.234-2.384c-0.201-0.777-0.324-1.567-0.612-2.319
				c-0.458-1.534-1.198-2.97-1.961-4.366c-0.839-1.35-1.733-2.707-2.781-3.861c-0.481-0.594-1.066-1.172-1.661-1.751l-1.782-1.736
				c-1.17-1.241-2.313-2.532-3.237-4.058c-0.883-1.522-1.748-3.258-1.522-5.471c0.115-1.069,0.665-2.285,1.637-3.008
				c0.958-0.718,1.994-1.02,3.137-1.126c0.436-0.024,0.865-0.006,1.223-0.032c0.147,0.017,0.248-0.072,0.397-0.145
				c0.295-0.191,0.652-0.704,0.912-1.3c0.526-1.228,0.777-2.747,0.858-4.248c0.063-1.514,0-3.054-0.247-4.556
				c-0.476-2.966-1.589-5.968-3.517-7.712c-0.223-0.231-0.501-0.399-0.729-0.577c-0.223-0.118-0.365-0.253-0.813-0.435l-1.186-0.522
				c-0.452-0.246-0.907-0.48-1.334-0.803c-0.86-0.611-1.649-1.409-2.235-2.354c-0.592-0.939-0.966-2.005-1.133-3.058
				c-0.339-2.122,0.067-4.144,0.756-5.945c0.723-1.797,1.745-3.432,3.067-4.838c1.35-1.407,2.867-2.604,4.994-3.348
				c0.31-0.114,0.485-0.153,0.684-0.209l0.396-0.104l0.299-0.067l1.186-0.272c0.783-0.184,1.552-0.374,2.29-0.584
				c0.735-0.21,1.444-0.442,2.062-0.706c0.617-0.251,1.136-0.586,1.309-0.778c0.088-0.096,0.046-0.093,0.028-0.03
				c-0.027,0.059-0.001,0.105-0.031,0.004c-0.056-0.206-0.359-0.725-0.778-1.201c-0.868-1.058-1.918-1.818-3.416-3.158
				c-0.709-0.675-1.391-1.454-1.975-2.391c-0.582-0.932-1.041-2.104-1.141-3.391c-0.106-1.289,0.218-2.607,0.764-3.663
				c0.545-1.067,1.27-1.916,2.03-2.623c1.536-1.408,3.233-2.316,4.975-3.012c1.751-0.692,3.545-1.135,5.475-1.325l0.758-0.054
				l0.675-0.021c0.045-0.021,0.088-0.024,0.136-0.014c0.023-0.024,0.041-0.032,0.072-0.024c0.055-0.023,0.263-0.179,0.493-0.62
				c0.456-0.904,0.731-2.37,0.862-3.83c0.125-1.485,0.125-3.045,0.061-4.612c-0.144-3.13-0.535-6.375-1.083-9.456l2.517,1.978
				c-2.401,0.142-4.968,0.483-7.346,1.013c-2.365,0.536-4.756,1.298-6.394,2.454c-0.805,0.573-1.336,1.187-1.467,1.733
				c-0.069,0.133-0.048,0.29-0.087,0.438c0.008,0.152,0.001,0.348,0.024,0.482c0.016,0.066,0.026,0.132,0.031,0.2
				c0.009,0.044-0.011,0.046,0.018,0.127l0.081,0.231l0.163,0.463l0.041,0.116c0.052,0.134-0.06-0.149-0.043-0.108l0.013,0.034
				l0.026,0.067l0.104,0.271c1.139,2.893,1.303,6.063,0.732,8.984c-0.57,2.932-1.821,5.672-3.657,8.017
				c-1.827,2.311-4.315,4.391-7.593,5.09c-0.812,0.166-1.659,0.224-2.505,0.171c-0.413-0.031-0.997-0.118-1.325-0.197l-0.95-0.243
				c-0.887-0.248-1.892-0.216-2.899,0.04c-2.018,0.513-3.991,1.904-5.298,3.676c-1.332,1.765-1.967,3.957-1.412,5.867
				c0.266,0.959,0.808,1.867,1.572,2.658l0.559,0.533c0.221,0.189,0.509,0.396,0.76,0.593l1.604,1.263
				c2.151,1.834,3.942,4.173,4.949,6.888c0.961,2.696,1.111,5.876-0.261,8.586c-0.661,1.366-1.793,2.449-3.037,3.261l-1.005,0.475
				c-0.17,0.074-0.33,0.164-0.508,0.222l-0.552,0.144l-1.102,0.266c-0.336,0.037-0.656,0.047-0.985,0.072
				c-0.351,0.021-0.599,0.048-1.034,0.063c-0.297,0.014-0.603,0-0.89,0.05c-0.595,0.043-1.145,0.212-1.682,0.403
				c-0.518,0.228-0.994,0.532-1.407,0.921c-0.404,0.397-0.731,0.883-0.995,1.413c-1.026,2.188-0.887,4.897-0.471,7.409
				C150.355,250.122,151.157,252.641,152.451,254.919z"/>
			<path fill="#656D78" d="M118.293,233.644c3.539-1.356,6.191-4.237,8.053-7.382c1.854-3.185,2.981-6.768,3.281-10.387
				c0.296-3.617-0.239-7.276-1.671-10.533c-0.713-1.627-1.645-3.15-2.751-4.529c-0.272-0.35-0.551-0.691-0.861-1.01l-0.956-1.049
				c-0.623-0.707-1.254-1.382-1.87-2.117c-0.589-0.818-1.197-1.637-1.764-2.477c-0.475-0.881-0.997-1.738-1.417-2.654
				c-0.778-1.86-1.465-3.816-1.615-5.906c-0.512-4.121,0.885-8.656,3.948-11.737c1.474-1.606,3.405-2.701,5.39-3.497l1.532-0.506
				c0.517-0.14,1.047-0.204,1.573-0.305l0.791-0.135l0.099-0.017c0.036-0.005-0.129,0.014-0.039,0.003l0.043-0.007l0.174-0.025
				l0.348-0.051c0.528-0.06,0.75-0.163,1.108-0.234c1.428-0.436,2.601-1.178,3.494-2.354c0.911-1.153,1.57-2.672,2.087-4.316
				c1.034-3.312,1.555-7.043,2.528-10.836c0.494-1.924,1.062-3.782,1.99-5.802c0.747-1.602,1.863-3.595,3.056-5.225
				c2.401-3.381,5.987-6.231,10.029-7.65c2.006-0.729,4.072-1.15,6.103-1.374c0.51-0.067,1.013-0.089,1.52-0.134l0.189-0.015
				l0.095-0.008l0.047-0.004c-0.074,0.007,0.233-0.019-0.154,0.014l0.349-0.045l0.698-0.09l0.347-0.045l0.161-0.07
				c0.107-0.043,0.215-0.078,0.326-0.106c0.228-0.067,0.509-0.247,0.769-0.351c0.993-0.598,1.958-1.757,3.049-3.259
				c1.089-1.486,2.381-3.242,4.085-4.702c1.69-1.463,3.728-2.645,5.811-3.308l0.389-0.144l0.049-0.018l0.187-0.055l0.085-0.022
				l0.17-0.044l0.701-0.178c0.656-0.122,1.359-0.24,1.909-0.258c1.174-0.089,2.305-0.016,3.394,0.132
				c2.18,0.3,4.189,0.914,6.087,1.661c1.903,0.744,3.699,1.63,5.429,2.593c1.733,0.96,3.393,2.007,5.011,3.106
				c1.628,1.119,3.153,2.232,4.75,3.548l4.33,3.567l-5.489,1.576c-0.735,0.211-1.687,0.554-2.513,0.898
				c-0.851,0.353-1.683,0.745-2.48,1.176c-1.585,0.869-3.067,1.868-4.218,3.031c-1.146,1.164-1.979,2.444-2.29,3.803
				c-0.156,0.681-0.248,1.377-0.178,2.112c0.026,0.366,0.078,0.738,0.155,1.115l0.333,1.378l0.367,1.482l0.308,1.764
				c0.119,0.591,0.138,1.188,0.186,1.782l0.057,0.896l-0.034,0.939l-0.044,0.939l-0.166,0.981c-0.067,0.329-0.101,0.649-0.205,0.981
				l-0.34,0.998c-0.188,0.666-0.629,1.304-0.973,1.938c-0.202,0.306-0.453,0.587-0.686,0.875c-0.237,0.287-0.474,0.575-0.761,0.8
				l-0.841,0.704c-0.286,0.22-0.593,0.379-0.893,0.565c-0.603,0.393-1.217,0.612-1.834,0.869c-0.617,0.245-1.218,0.369-1.831,0.548
				c-0.596,0.112-1.194,0.221-1.785,0.306c-0.578,0.051-1.164,0.114-1.737,0.147l-1.695,0.032l-1.659-0.056l-0.639-0.007
				c-0.148-0.006-0.224,0.004-0.288,0.014l-0.216,0.021c-1.39,0.129-3.035,0.699-4.485,1.565c-1.473,0.858-2.844,2.004-3.99,3.312
				c-1.154,1.302-2.078,2.789-2.636,4.302c-0.553,1.517-0.668,3.024-0.288,4.292c0.19,0.637,0.493,1.234,0.949,1.779l0.078,0.105
				l0.19,0.24l0.234,0.302l0.235,0.305l0.289,0.431c0.412,0.594,0.676,1.124,0.967,1.67c1.06,2.207,1.586,4.518,1.78,6.803
				c0.347,4.567-0.57,9.125-2.782,13.188c-1.129,2.017-2.64,3.897-4.591,5.353c-0.985,0.709-2.051,1.328-3.199,1.77
				c-1.149,0.418-2.346,0.744-3.552,0.836c-1.122,0.112-2.033,0.156-3.005,0.275c-0.965,0.108-1.919,0.238-2.822,0.428
				c-0.9,0.187-1.767,0.428-2.47,0.741c-0.726,0.311-1.142,0.704-1.268,0.95c-0.148,0.221-0.169,0.738,0.079,1.461
				c0.238,0.706,0.68,1.49,1.184,2.251c1.039,1.529,2.333,3.015,3.7,4.44c1.376,1.441,2.816,2.773,4.324,4.188
				c1.492,1.403,2.995,2.904,4.375,4.464c1.388,1.572,2.688,3.251,3.805,5.102c1.066,1.86,2.083,3.94,2.05,6.416
				c-0.03,1.221-0.425,2.496-1.148,3.503c-0.73,1.003-1.687,1.733-2.669,2.274c-0.989,0.543-2.02,0.914-3.052,1.2
				c-0.516,0.146-1.036,0.261-1.555,0.359l-0.39,0.072l-0.195,0.036c-0.031,0.006,0.092-0.022,0.018-0.005l-0.046,0.011
				l-0.093,0.022c-0.241,0.062-0.51,0.115-0.728,0.183c-0.168,0.08-0.34,0.148-0.518,0.22l-0.505,0.331
				c-0.135,0.145-0.297,0.267-0.424,0.423c-0.106,0.174-0.254,0.317-0.34,0.512c-0.399,0.737-0.555,1.669-0.566,2.616
				c0.004,1.916,0.481,3.892,1.092,5.797c1.233,3.832,2.998,7.527,5,11.068c-2.271-3.382-4.324-6.932-5.887-10.751
				c-0.749-1.919-1.39-3.917-1.538-6.081c-0.052-1.077,0.031-2.229,0.529-3.328c0.108-0.278,0.301-0.526,0.455-0.789
				c0.177-0.248,0.404-0.465,0.611-0.694c0.235-0.196,0.488-0.373,0.737-0.556c0.281-0.148,0.574-0.288,0.867-0.422
				c0.263-0.097,0.492-0.156,0.739-0.236l0.091-0.028l0.046-0.015l0.11-0.028l0.178-0.045l0.356-0.091
				c0.474-0.119,0.941-0.26,1.397-0.414c0.914-0.305,1.792-0.682,2.564-1.163c0.771-0.479,1.427-1.066,1.864-1.739
				c0.423-0.681,0.614-1.441,0.597-2.255c-0.045-1.646-0.918-3.381-1.958-4.956c-1.07-1.585-2.36-3.069-3.729-4.49
				c-1.381-1.433-2.818-2.756-4.347-4.08c-1.517-1.31-3.126-2.678-4.624-4.123c-1.509-1.453-2.976-2.979-4.304-4.766
				c-0.652-0.91-1.284-1.875-1.759-3.079c-0.238-0.594-0.426-1.274-0.488-2.041c-0.046-0.763,0.026-1.642,0.398-2.438
				c0.349-0.781,0.887-1.475,1.455-1.931c0.568-0.491,1.152-0.83,1.723-1.111c1.143-0.549,2.246-0.869,3.329-1.132
				c1.083-0.261,2.144-0.437,3.198-0.587c1.044-0.16,2.166-0.254,3.066-0.375c3.299-0.369,6.016-2.688,7.613-5.836
				c1.612-3.135,2.227-6.913,1.899-10.447c-0.181-1.766-0.628-3.473-1.363-4.93c-0.199-0.347-0.398-0.724-0.576-0.962l-0.131-0.208
				l-0.237-0.295l-0.442-0.553c-0.866-1.005-1.552-2.236-1.968-3.539c-0.85-2.637-0.561-5.391,0.234-7.696
				c0.81-2.326,2.063-4.36,3.568-6.135c1.507-1.777,3.27-3.315,5.289-4.549c2.029-1.229,4.273-2.174,6.945-2.437l0.544-0.039
				c0.189-0.014,0.368-0.022,0.474-0.018l0.887,0.01l1.394,0.039l1.357-0.035l1.305-0.117c1.711-0.199,3.133-0.763,3.95-1.52
				c0.832-0.716,1.206-1.909,1.278-3.487l0.025-0.585l-0.05-0.628c-0.039-0.419-0.043-0.844-0.136-1.251l-0.213-1.245l-0.375-1.479
				l-0.391-1.588c-0.13-0.617-0.226-1.258-0.275-1.904c-0.119-1.295,0.011-2.65,0.313-3.946c0.607-2.633,2.12-4.872,3.812-6.598
				c1.714-1.739,3.649-3.04,5.638-4.104c0.997-0.532,2.011-1.002,3.043-1.423c1.059-0.426,2.022-0.782,3.246-1.126l-1.159,5.144
				c-2.671-2.202-5.722-4.327-8.784-6.058c-1.542-0.871-3.116-1.656-4.705-2.286c-1.585-0.64-3.192-1.122-4.732-1.34
				c-0.768-0.109-1.52-0.16-2.217-0.106c-0.39,0.009-0.61,0.07-0.881,0.088l-0.664,0.164l-0.17,0.043l-0.085,0.021
				c-0.142,0.04,0.144-0.041,0.103-0.027l-0.034,0.012l-0.271,0.104c-1.501,0.463-2.77,1.219-3.924,2.188
				c-1.156,0.983-2.167,2.228-3.311,3.748c-1.148,1.478-2.543,3.359-4.813,4.684c-0.592,0.28-1.134,0.576-1.801,0.784
				c-0.34,0.099-0.684,0.19-1.028,0.274l-0.516,0.119l-0.352,0.04l-0.699,0.077l-0.35,0.038l-0.523,0.038
				c-0.427,0.032-0.864,0.04-1.285,0.089c-1.699,0.156-3.34,0.469-4.872,0.995c-3.069,1.036-5.674,2.993-7.683,5.681
				c-1.033,1.393-1.799,2.659-2.689,4.434l-0.24,0.509c-0.09,0.187-0.176,0.378-0.255,0.576c-0.167,0.387-0.323,0.786-0.471,1.191
				c-0.296,0.813-0.567,1.648-0.811,2.511c-1.007,3.445-1.62,7.169-2.926,10.998c-0.669,1.902-1.54,3.883-3.009,5.648
				c-1.428,1.793-3.609,3.106-5.796,3.654c-2.451,0.545-3.807,0.403-5.37,0.998c-1.489,0.538-2.96,1.262-4.074,2.403
				c-1.12,1.104-2.114,2.41-2.615,3.95c-0.07,0.188-0.168,0.367-0.219,0.563l-0.137,0.593c-0.077,0.397-0.223,0.784-0.254,1.193
				c-0.052,0.818-0.185,1.637-0.072,2.473c0.037,1.672,0.551,3.33,1.141,4.947c0.326,0.802,0.764,1.565,1.131,2.359l1.38,2.189
				c0.549,0.732,1.164,1.464,1.743,2.195l0.885,1.08c0.325,0.374,0.619,0.773,0.904,1.181c1.157,1.609,2.108,3.368,2.804,5.217
				c1.406,3.699,1.757,7.728,1.18,11.556c-0.57,3.831-1.982,7.505-4.134,10.668C124.902,229.834,121.933,232.565,118.293,233.644z"
				/>
			<path fill="#DA4453" d="M189.212,105.667c0,0-46.545,24.768-58.212,15.884c0,0,0.126,22.909,24.396,12.68
				c0,0-26.73,24.104-39.396,17.771c0,0,11.878,26,36.606,11c0,0-18.939,20.666-31.606,17.666c0,0,26.063,28.333,66.865-15
				S189.212,105.667,189.212,105.667z"/>
			<path fill="#A6343F" d="M200.212,121.667c0,0-46.545,24.768-58.212,15.884c0,0,0.126,22.909,24.396,12.68
				c0,0-26.73,24.104-39.396,17.771c0,0,11.878,26,36.606,11c0,0-18.939,20.666-31.606,17.666c0,0,26.063,28.333,66.865-15
				S200.212,121.667,200.212,121.667z"/>
			<path fill="#434A54" d="M303.525,125c0,0,38.975-38.5,71.975,12s-67.5,157.5-12,143c0,0-32.5,25.5-37.5-33.5s-43.5-64-43.5-64
				L303.525,125z"/>
			<path fill="#2D3138" d="M379,267.5c-1.951,0.532-4.138,0.319-5.985-0.605c-1.875-0.881-3.491-2.251-4.827-3.826
				c-2.667-3.172-4.429-7.044-5.333-11.104c-0.881-4.057-0.855-8.436,0.655-12.484c0.754-2.014,1.905-3.912,3.406-5.501
				c0.374-0.396,0.787-0.755,1.182-1.134l1.101-1.01c0.366-0.343,0.65-0.678,0.983-1.011c0.319-0.339,0.615-0.725,0.924-1.083
				c2.388-2.971,3.804-6.647,4.091-10.383c0.283-3.724-0.616-7.556-2.692-10.473c-1.044-1.436-2.353-2.663-3.894-3.418
				c-0.752-0.417-1.583-0.65-2.41-0.866c-0.429-0.052-0.842-0.174-1.279-0.182l-1.516-0.12l-1.515-0.137
				c-0.529-0.068-1.16-0.239-1.735-0.365l-0.88-0.213c-0.28-0.095-0.546-0.213-0.82-0.319c-0.537-0.237-1.101-0.403-1.612-0.712
				c-2.121-1.078-3.94-2.924-5.041-5.116c-1.109-2.2-1.462-4.724-1.154-7.099c0.112-0.586,0.166-1.193,0.342-1.76l0.555-1.693
				c0.5-1.064,1.001-2.139,1.706-3.07l0.497-0.722c0.18-0.227,0.38-0.435,0.571-0.653c0.393-0.422,0.76-0.879,1.182-1.268
				l1.309-1.117l1.134-0.946c0.498-0.503,1.093-1.118,1.556-1.836c0.47-0.706,0.89-1.46,1.212-2.275
				c1.339-3.235,1.551-7.079,0.813-10.583c-0.371-1.755-1.015-3.426-1.904-4.828c-0.903-1.377-2.049-2.469-3.333-2.89
				c-0.155-0.071-0.321-0.108-0.486-0.143c-0.164-0.039-0.325-0.09-0.498-0.094c-0.261-0.036-0.899-0.087-1.369-0.116
				c-0.498-0.032-1.001-0.065-1.598-0.15c-0.571-0.073-1.144-0.135-1.706-0.265c-0.563-0.109-1.127-0.224-1.705-0.415
				c-0.287-0.089-0.573-0.164-0.859-0.269l-0.857-0.356c-0.577-0.212-1.115-0.578-1.666-0.877c-0.508-0.364-1.052-0.717-1.501-1.138
				c-1.871-1.666-3.097-3.587-4.183-5.394c-1.078-1.824-2.033-3.621-3.001-5.4l-0.723-1.327l-0.312-0.568l-0.394-0.65
				c-0.142-0.253-0.237-0.344-0.342-0.487c-0.111-0.135-0.182-0.275-0.324-0.412l-0.376-0.42l-0.403-0.359
				c-1.09-0.908-2.379-1.297-3.926-1.236c-3.095,0.134-6.714,2.094-9.465,4.26l-0.662-4.163c1.802,0.774,3.34,1.602,4.933,2.541
				c1.569,0.933,3.09,1.961,4.543,3.109c2.883,2.294,5.604,5.068,7.361,8.673c0.869,1.792,1.451,3.792,1.597,5.84
				c0.158,2.049-0.145,4.104-0.734,6.002c-0.582,1.916-1.53,3.61-2.526,5.229l-0.815,1.153l-0.767,1.063l-0.77,1.044
				c-0.255,0.349-0.45,0.667-0.679,1.001c-1.792,2.66-3.258,5.626-3.666,8.505c-0.434,2.89,0.487,5.536,2.649,7.518
				c2.133,1.993,5.165,3.341,8.255,4.129l0.248,0.064l0.155,0.047l0.31,0.095c0.09,0.023,0.218,0.068,0.37,0.129l0.421,0.168
				c0.301,0.115,0.501,0.231,0.739,0.349c0.235,0.114,0.456,0.238,0.667,0.369c0.868,0.508,1.64,1.085,2.365,1.698
				c1.454,1.221,2.713,2.588,3.843,4.05c2.246,2.92,4.013,6.254,4.831,9.985c0.38,1.866,0.486,3.847,0.12,5.803
				c-0.376,1.948-1.229,3.84-2.478,5.367c-0.318,0.356-0.661,0.768-0.963,1.07l-0.909,0.927l-1.811,1.85
				c-1.198,1.233-2.381,2.47-3.499,3.739c-1.119,1.268-2.182,2.57-3.064,3.934c-0.864,1.352-1.596,2.814-1.623,4.164
				c-0.057,1.327,0.73,2.51,2.029,3.389c1.243,0.932,2.848,1.398,4.496,2.201c3.263,1.58,6.07,3.903,8.28,6.693
				c2.186,2.784,3.825,6.091,4.21,9.636c0.166,1.762,0.022,3.574-0.602,5.226c-0.582,1.668-1.663,3.109-2.945,4.261
				c1.205-1.236,2.163-2.724,2.615-4.369c0.494-1.632,0.511-3.366,0.242-5.024c-0.58-3.336-2.292-6.391-4.509-8.905
				c-2.232-2.508-5.005-4.553-8.034-5.86c-1.478-0.656-3.287-1.083-4.899-2.153c-0.806-0.508-1.594-1.158-2.194-2.038
				c-0.607-0.867-0.968-1.973-0.98-3.034c-0.023-2.154,0.863-3.927,1.765-5.507c0.942-1.578,2.027-2.999,3.147-4.366
				c1.121-1.368,2.284-2.675,3.451-3.966l1.751-1.924l0.875-0.958c0.296-0.321,0.489-0.591,0.741-0.885
				c0.898-1.19,1.449-2.569,1.683-4.021c0.223-1.46,0.08-2.993-0.262-4.502c-0.74-3.022-2.344-5.931-4.378-8.423
				c-1.017-1.249-2.148-2.409-3.372-3.381c-0.608-0.487-1.241-0.932-1.877-1.278c-0.159-0.095-0.317-0.178-0.474-0.247
				c-0.152-0.069-0.331-0.165-0.438-0.195l-0.182-0.072c-0.047-0.024-0.123-0.053-0.243-0.082l-0.313-0.086l-0.156-0.043
				c0.191,0.049,0.028,0.008,0.06,0.017l-0.042-0.01l-0.085-0.02c-1.814-0.406-3.584-0.986-5.312-1.759
				c-1.718-0.786-3.401-1.778-4.893-3.125c-1.479-1.346-2.772-3.066-3.496-5.064c-0.769-1.983-0.885-4.139-0.655-6.123
				c0.238-1.998,0.836-3.856,1.58-5.589c0.748-1.747,1.637-3.339,2.656-4.903c0.253-0.384,0.511-0.803,0.763-1.156l0.752-1.057
				l0.402-0.564l0.333-0.488l0.669-0.975c0.786-1.336,1.522-2.698,1.918-4.113c0.839-2.817,0.64-5.701-0.679-8.336
				c-1.29-2.643-3.514-4.975-6.038-6.949c-1.266-0.991-2.622-1.898-4.03-2.726c-1.387-0.815-2.913-1.609-4.293-2.193l-3.78-1.599
				l3.118-2.564c0.95-0.781,1.793-1.366,2.739-1.975c0.929-0.594,1.894-1.141,2.907-1.629c2.021-0.965,4.253-1.748,6.775-1.881
				c1.254-0.063,2.583,0.068,3.865,0.479c1.282,0.403,2.488,1.088,3.494,1.936l0.724,0.66l0.639,0.712
				c0.215,0.225,0.408,0.521,0.607,0.787c0.192,0.268,0.415,0.572,0.518,0.765l0.39,0.652l0.148,0.259l0.091,0.168l0.181,0.337
				l0.724,1.347c0.959,1.786,1.901,3.573,2.876,5.243c0.976,1.668,2.005,3.186,3.172,4.225c1.141,1.057,2.576,1.608,4.313,1.968
				c0.425,0.105,0.862,0.149,1.296,0.209c0.406,0.069,0.914,0.107,1.427,0.144c0.541,0.04,0.914,0.063,1.659,0.154
				c0.335,0.027,0.664,0.11,0.992,0.191c0.33,0.076,0.656,0.163,0.968,0.292c2.591,0.911,4.462,2.863,5.747,4.857
				c1.262,2.042,2.025,4.236,2.465,6.451c0.84,4.422,0.547,9.034-1.264,13.29c-0.444,1.063-1.023,2.085-1.693,3.052
				c-0.664,0.972-1.466,1.842-2.443,2.725l-2.235,1.82c-0.328,0.29-0.596,0.633-0.901,0.943c-0.146,0.16-0.304,0.313-0.442,0.479
				l-0.367,0.529c-2.099,2.733-2.665,6.456-1.32,9.34c0.679,1.428,1.786,2.677,3.271,3.477c0.345,0.232,0.772,0.351,1.152,0.539
				c0.196,0.083,0.39,0.182,0.586,0.256l0.595,0.152c0.412,0.096,0.753,0.238,1.224,0.316l1.51,0.175l0.644,0.077l0.867,0.083
				c0.578,0.035,1.148,0.196,1.721,0.295c1.125,0.311,2.248,0.681,3.265,1.268c2.076,1.096,3.769,2.777,5.046,4.645
				c2.517,3.808,3.332,8.393,2.862,12.71c-0.487,4.332-2.288,8.485-5.103,11.744c-0.365,0.396-0.704,0.805-1.092,1.19
				c-0.393,0.374-0.795,0.788-1.186,1.119l-1.187,0.992c-0.349,0.31-0.72,0.599-1.055,0.923c-1.346,1.301-2.417,2.888-3.166,4.636
				c-1.51,3.512-1.733,7.567-1.106,11.442c0.64,3.882,2.122,7.696,4.51,10.876c1.187,1.588,2.638,3.006,4.384,3.97
				C374.921,267.539,377.001,267.898,379,267.5z"/>
			<path fill="#2D3138" d="M359.549,254.919c1.294-2.278,2.096-4.797,2.563-7.332c0.416-2.512,0.555-5.221-0.471-7.409
				c-0.264-0.53-0.59-1.016-0.995-1.413c-0.413-0.389-0.889-0.693-1.407-0.921c-0.537-0.191-1.087-0.36-1.682-0.403
				c-0.288-0.05-0.593-0.036-0.89-0.05c-0.435-0.015-0.683-0.042-1.034-0.063c-0.329-0.025-0.648-0.035-0.985-0.072l-1.102-0.266
				l-0.552-0.144c-0.179-0.058-0.338-0.147-0.508-0.222l-1.005-0.475c-1.243-0.812-2.375-1.895-3.037-3.261
				c-1.372-2.71-1.222-5.89-0.261-8.586c1.007-2.715,2.798-5.054,4.949-6.888l1.604-1.263c0.251-0.196,0.539-0.403,0.76-0.593
				l0.559-0.533c0.765-0.791,1.306-1.699,1.572-2.658c0.555-1.91-0.08-4.103-1.412-5.867c-1.307-1.771-3.28-3.163-5.298-3.676
				c-1.007-0.256-2.012-0.288-2.899-0.04l-0.95,0.243c-0.328,0.079-0.912,0.166-1.325,0.197c-0.846,0.053-1.694-0.005-2.505-0.171
				c-3.278-0.699-5.766-2.779-7.593-5.09c-1.836-2.345-3.087-5.085-3.657-8.017c-0.571-2.921-0.407-6.092,0.732-8.984l0.104-0.271
				l0.026-0.067l0.013-0.034c0.017-0.041-0.096,0.242-0.043,0.108l0.041-0.116l0.163-0.463l0.081-0.231
				c0.029-0.081,0.009-0.083,0.018-0.127c0.004-0.068,0.015-0.134,0.031-0.2c0.023-0.135,0.016-0.33,0.024-0.482
				c-0.039-0.147-0.018-0.305-0.087-0.438c-0.131-0.547-0.663-1.16-1.467-1.733c-1.638-1.156-4.029-1.918-6.394-2.454
				c-2.378-0.529-4.944-0.871-7.346-1.013l2.517-1.978c-0.548,3.081-0.938,6.326-1.083,9.456c-0.064,1.567-0.064,3.127,0.061,4.612
				c0.131,1.46,0.406,2.926,0.862,3.83c0.23,0.441,0.438,0.597,0.493,0.62c0.031-0.008,0.049,0,0.072,0.024
				c0.048-0.011,0.09-0.007,0.136,0.014l0.675,0.021l0.758,0.054c1.93,0.19,3.724,0.633,5.475,1.325
				c1.742,0.695,3.439,1.604,4.975,3.012c0.76,0.707,1.484,1.556,2.03,2.623c0.545,1.056,0.87,2.374,0.764,3.663
				c-0.1,1.286-0.559,2.459-1.141,3.391c-0.584,0.937-1.266,1.716-1.975,2.391c-1.498,1.34-2.548,2.101-3.416,3.158
				c-0.419,0.477-0.722,0.995-0.778,1.201c-0.03,0.102-0.004,0.055-0.031-0.004c-0.019-0.063-0.06-0.065,0.028,0.03
				c0.173,0.192,0.692,0.527,1.309,0.778c0.617,0.264,1.326,0.496,2.062,0.706c0.737,0.21,1.506,0.4,2.29,0.584l1.186,0.272
				l0.299,0.067l0.396,0.104c0.199,0.056,0.374,0.095,0.684,0.209c2.126,0.743,3.644,1.94,4.994,3.348
				c1.323,1.406,2.345,3.041,3.067,4.838c0.689,1.802,1.096,3.823,0.756,5.945c-0.167,1.053-0.542,2.118-1.133,3.058
				c-0.586,0.944-1.375,1.742-2.235,2.354c-0.427,0.322-0.882,0.557-1.334,0.803l-1.186,0.522c-0.448,0.182-0.59,0.316-0.813,0.435
				c-0.228,0.178-0.507,0.346-0.729,0.577c-1.927,1.744-3.041,4.746-3.517,7.712c-0.247,1.502-0.31,3.042-0.247,4.556
				c0.082,1.501,0.333,3.021,0.859,4.248c0.26,0.596,0.617,1.108,0.913,1.3c0.149,0.072,0.25,0.161,0.396,0.145
				c0.357,0.026,0.787,0.008,1.223,0.032c1.143,0.106,2.178,0.408,3.137,1.126c0.972,0.723,1.522,1.938,1.637,3.008
				c0.226,2.213-0.639,3.948-1.522,5.471c-0.924,1.525-2.067,2.816-3.237,4.058l-1.782,1.736c-0.595,0.579-1.18,1.157-1.661,1.751
				c-1.048,1.154-1.942,2.512-2.781,3.861c-0.763,1.396-1.503,2.832-1.961,4.366c-0.289,0.752-0.412,1.542-0.612,2.319
				c-0.092,0.791-0.255,1.584-0.234,2.384c-0.052,1.592,0.144,3.227,0.811,4.697c0.637,1.479,1.692,2.778,3.035,3.745
				c-1.417-0.846-2.618-2.076-3.414-3.563c-0.823-1.479-1.196-3.184-1.264-4.869c-0.08-0.851,0.029-1.691,0.07-2.541
				c0.149-0.83,0.227-1.685,0.472-2.495c0.373-1.66,1.04-3.227,1.75-4.769c0.796-1.505,1.647-2.959,2.734-4.317
				c0.523-0.715,1.076-1.325,1.628-1.93l1.655-1.813c1.018-1.214,1.995-2.468,2.703-3.813c0.693-1.316,1.201-2.802,0.986-3.903
				c-0.102-0.539-0.307-0.938-0.692-1.189c-0.38-0.26-0.981-0.402-1.474-0.444c-0.386-0.006-0.781,0.032-1.246,0.024
				c-0.686,0.034-1.376-0.224-1.939-0.541c-1.112-0.695-1.678-1.637-2.133-2.507c-0.852-1.774-1.185-3.552-1.375-5.322
				c-0.166-1.771-0.145-3.542,0.084-5.301c0.231-1.757,0.611-3.513,1.293-5.22c0.676-1.699,1.617-3.39,3.069-4.798
				c0.346-0.366,0.757-0.663,1.176-0.989c0.477-0.315,1.017-0.646,1.333-0.779l1.059-0.506c0.262-0.164,0.541-0.31,0.762-0.498
				c0.935-0.719,1.478-1.646,1.616-2.805c0.294-2.334-0.975-5.207-2.877-7.135c-0.477-0.485-0.993-0.921-1.534-1.284
				c-0.272-0.179-0.547-0.339-0.828-0.479c-0.279-0.133-0.582-0.262-0.78-0.324c-0.073-0.039-0.299-0.093-0.499-0.143l-0.149-0.038
				l-0.075-0.019l-0.037-0.01c-0.034-0.008,0.161,0.039,0.061,0.016l-0.305-0.063l-1.227-0.256
				c-0.824-0.177-1.658-0.364-2.509-0.588c-0.852-0.227-1.719-0.483-2.625-0.848c-0.898-0.374-1.873-0.813-2.878-1.78
				c-0.493-0.486-0.99-1.209-1.224-2.064c-0.241-0.853-0.191-1.75-0.005-2.442c0.391-1.388,1.05-2.257,1.67-3.045
				c1.215-1.513,2.84-2.727,3.775-3.597c0.966-0.921,1.59-1.943,1.604-2.647c0.021-0.358-0.057-0.699-0.264-1.104
				c-0.206-0.4-0.555-0.834-1.002-1.241c-0.896-0.823-2.143-1.521-3.459-2.026c-1.312-0.516-2.753-0.849-4.101-0.971l-0.473-0.034
				l-0.56-0.015c-0.364-0.02-0.732-0.056-1.093-0.106c-0.371-0.093-0.746-0.212-1.105-0.348c-1.468-0.654-2.367-1.844-2.897-2.85
				c-1.018-2.062-1.247-3.918-1.42-5.723c-0.139-1.798-0.121-3.539-0.041-5.261c0.187-3.449,0.605-6.755,1.232-10.154l0.39-2.119
				l2.127,0.142c2.821,0.188,5.458,0.562,8.186,1.18c1.354,0.313,2.71,0.694,4.067,1.2c1.354,0.517,2.721,1.123,4.049,2.086
				c0.66,0.482,1.309,1.052,1.888,1.775c0.565,0.726,1.083,1.596,1.328,2.591c0.159,0.487,0.186,0.992,0.232,1.493
				c-0.003,0.497-0.016,0.964-0.106,1.47c-0.052,0.255-0.11,0.509-0.173,0.761c-0.03,0.114-0.068,0.277-0.096,0.35l-0.085,0.23
				l-0.381,0.996c-0.824,1.972-1.014,4.229-0.629,6.445c0.377,2.216,1.317,4.391,2.676,6.191c1.34,1.803,3.167,3.229,5.044,3.688
				c0.468,0.113,0.934,0.157,1.395,0.148c0.238-0.023,0.308-0.005,0.619-0.061l0.959-0.213c1.662-0.388,3.351-0.241,4.859,0.199
				c1.523,0.432,2.882,1.174,4.091,2.075c1.21,0.903,2.268,1.987,3.125,3.235c0.854,1.245,1.542,2.645,1.868,4.194
				c0.339,1.534,0.322,3.222-0.21,4.762c-0.507,1.545-1.443,2.891-2.547,3.928c-0.289,0.265-0.602,0.519-0.905,0.772
				c-0.288,0.221-0.542,0.383-0.815,0.578l-1.534,1.096c-1.893,1.469-3.463,3.354-4.385,5.52c-0.866,2.154-1.1,4.628-0.203,6.684
				c0.425,1.043,1.209,1.857,2.098,2.54l0.75,0.403c0.125,0.064,0.248,0.149,0.377,0.198l0.394,0.121l0.788,0.263
				c0.309,0.055,0.645,0.086,0.966,0.129l0.921,0.111c0.355,0.035,0.708,0.044,1.063,0.122c0.71,0.095,1.415,0.347,2.084,0.653
				c0.661,0.344,1.267,0.797,1.769,1.348c0.493,0.559,0.859,1.201,1.13,1.863c0.526,1.338,0.645,2.735,0.603,4.084
				c-0.054,1.353-0.279,2.677-0.615,3.961C362.063,250.286,361.033,252.754,359.549,254.919z"/>
			<path fill="#656D78" d="M393.707,233.644c-3.639-1.078-6.609-3.81-8.781-6.918c-2.152-3.163-3.564-6.837-4.134-10.668
				c-0.578-3.828-0.227-7.856,1.18-11.556c0.696-1.849,1.647-3.607,2.804-5.217c0.285-0.407,0.579-0.807,0.904-1.181l0.885-1.08
				c0.579-0.731,1.193-1.463,1.743-2.195l1.38-2.189c0.368-0.794,0.805-1.558,1.131-2.359c0.59-1.617,1.104-3.275,1.141-4.947
				c0.113-0.836-0.02-1.654-0.072-2.473c-0.031-0.409-0.177-0.796-0.254-1.193l-0.136-0.593c-0.05-0.195-0.148-0.375-0.219-0.563
				c-0.501-1.54-1.496-2.847-2.615-3.95c-1.114-1.142-2.585-1.865-4.074-2.403c-1.563-0.595-2.918-0.453-5.37-0.998
				c-2.187-0.548-4.368-1.861-5.796-3.654c-1.469-1.766-2.339-3.746-3.009-5.648c-1.306-3.829-1.918-7.553-2.926-10.998
				c-0.244-0.862-0.515-1.698-0.811-2.511c-0.148-0.405-0.303-0.805-0.471-1.191c-0.079-0.198-0.165-0.39-0.255-0.576l-0.24-0.509
				c-0.89-1.774-1.656-3.041-2.689-4.434c-2.009-2.688-4.614-4.645-7.683-5.681c-1.532-0.526-3.173-0.839-4.872-0.995
				c-0.421-0.049-0.857-0.057-1.285-0.089l-0.523-0.038l-0.35-0.038l-0.699-0.077l-0.352-0.04l-0.516-0.119
				c-0.344-0.084-0.688-0.176-1.028-0.274c-0.667-0.208-1.208-0.504-1.801-0.784c-2.269-1.324-3.665-3.206-4.813-4.684
				c-1.144-1.521-2.155-2.765-3.311-3.748c-1.154-0.97-2.423-1.726-3.924-2.188l-0.271-0.104l-0.034-0.012
				c-0.041-0.014,0.244,0.067,0.103,0.027l-0.085-0.021l-0.17-0.043l-0.664-0.164c-0.271-0.018-0.491-0.079-0.881-0.088
				c-0.697-0.054-1.45-0.003-2.217,0.106c-1.54,0.218-3.147,0.7-4.732,1.34c-1.589,0.63-3.163,1.415-4.705,2.286
				c-3.063,1.73-6.113,3.855-8.784,6.058l-1.159-5.144c1.224,0.344,2.188,0.7,3.246,1.126c1.032,0.421,2.046,0.891,3.043,1.423
				c1.989,1.064,3.924,2.365,5.638,4.104c1.692,1.726,3.205,3.965,3.812,6.598c0.302,1.296,0.432,2.651,0.313,3.946
				c-0.049,0.646-0.145,1.287-0.275,1.904l-0.391,1.588l-0.375,1.479l-0.213,1.245c-0.093,0.407-0.097,0.832-0.136,1.251
				l-0.05,0.628l0.025,0.585c0.073,1.578,0.447,2.771,1.278,3.487c0.817,0.757,2.238,1.32,3.95,1.52l1.305,0.117l1.357,0.035
				l1.394-0.039l0.887-0.01c0.106-0.005,0.285,0.004,0.474,0.018l0.544,0.039c2.672,0.263,4.916,1.207,6.945,2.437
				c2.02,1.233,3.782,2.771,5.289,4.549c1.505,1.774,2.759,3.809,3.568,6.135c0.795,2.306,1.084,5.06,0.234,7.696
				c-0.416,1.303-1.102,2.534-1.968,3.539l-0.442,0.553l-0.237,0.295l-0.131,0.208c-0.177,0.238-0.377,0.615-0.576,0.962
				c-0.734,1.457-1.182,3.164-1.362,4.93c-0.328,3.534,0.287,7.313,1.899,10.447c1.597,3.147,4.314,5.467,7.613,5.836
				c0.9,0.121,2.021,0.215,3.066,0.375c1.054,0.15,2.114,0.326,3.198,0.587c1.083,0.263,2.186,0.583,3.329,1.132
				c0.57,0.281,1.154,0.62,1.723,1.111c0.568,0.456,1.106,1.149,1.455,1.931c0.373,0.796,0.444,1.675,0.398,2.438
				c-0.062,0.767-0.25,1.447-0.488,2.041c-0.475,1.204-1.107,2.169-1.759,3.079c-1.328,1.786-2.795,3.313-4.304,4.766
				c-1.497,1.445-3.107,2.813-4.624,4.123c-1.529,1.324-2.966,2.647-4.347,4.08c-1.368,1.421-2.659,2.905-3.729,4.49
				c-1.039,1.575-1.912,3.311-1.958,4.956c-0.017,0.813,0.174,1.574,0.597,2.255c0.437,0.673,1.093,1.261,1.864,1.739
				c0.772,0.481,1.65,0.858,2.564,1.163c0.456,0.154,0.923,0.295,1.397,0.414l0.356,0.091l0.178,0.045l0.11,0.028l0.046,0.015
				l0.091,0.028c0.248,0.08,0.477,0.14,0.739,0.236c0.293,0.134,0.586,0.273,0.867,0.422c0.249,0.183,0.502,0.359,0.737,0.556
				c0.207,0.229,0.435,0.446,0.611,0.694c0.154,0.263,0.347,0.511,0.455,0.789c0.498,1.1,0.581,2.251,0.529,3.328
				c-0.147,2.164-0.789,4.162-1.538,6.081c-1.563,3.819-3.617,7.369-5.887,10.751c2.001-3.541,3.766-7.236,5-11.068
				c0.611-1.905,1.088-3.881,1.092-5.797c-0.012-0.947-0.167-1.879-0.566-2.616c-0.085-0.194-0.234-0.338-0.34-0.512
				c-0.127-0.156-0.289-0.278-0.424-0.423l-0.505-0.331c-0.178-0.071-0.35-0.14-0.518-0.22c-0.217-0.067-0.487-0.121-0.728-0.183
				l-0.093-0.022l-0.046-0.011c-0.074-0.018,0.049,0.011,0.018,0.005l-0.195-0.036l-0.39-0.072c-0.519-0.099-1.04-0.213-1.555-0.359
				c-1.032-0.286-2.063-0.657-3.052-1.2c-0.983-0.541-1.939-1.271-2.669-2.274c-0.723-1.007-1.118-2.282-1.148-3.503
				c-0.032-2.476,0.984-4.556,2.05-6.416c1.117-1.851,2.417-3.529,3.805-5.102c1.38-1.56,2.882-3.061,4.375-4.464
				c1.508-1.415,2.948-2.747,4.324-4.188c1.367-1.426,2.661-2.911,3.7-4.44c0.503-0.761,0.945-1.545,1.184-2.251
				c0.249-0.723,0.228-1.24,0.079-1.461c-0.125-0.246-0.542-0.64-1.268-0.95c-0.704-0.313-1.57-0.555-2.47-0.741
				c-0.902-0.189-1.857-0.319-2.821-0.428c-0.973-0.119-1.884-0.163-3.006-0.275c-1.207-0.092-2.403-0.418-3.552-0.836
				c-1.148-0.441-2.214-1.061-3.199-1.77c-1.951-1.455-3.462-3.336-4.591-5.353c-2.212-4.063-3.129-8.621-2.783-13.188
				c0.195-2.285,0.721-4.596,1.781-6.803c0.291-0.546,0.555-1.076,0.967-1.67l0.289-0.431l0.235-0.305l0.234-0.302l0.19-0.24
				l0.078-0.105c0.456-0.545,0.758-1.143,0.949-1.779c0.38-1.268,0.265-2.775-0.288-4.292c-0.558-1.513-1.481-3-2.636-4.302
				c-1.146-1.308-2.517-2.453-3.99-3.312c-1.45-0.866-3.095-1.437-4.485-1.565l-0.216-0.021c-0.064-0.01-0.14-0.02-0.288-0.014
				l-0.639,0.007l-1.659,0.056l-1.695-0.032c-0.573-0.033-1.159-0.097-1.737-0.147c-0.591-0.085-1.189-0.193-1.785-0.306
				c-0.613-0.179-1.214-0.303-1.831-0.548c-0.617-0.257-1.231-0.477-1.834-0.869c-0.3-0.187-0.606-0.346-0.893-0.565l-0.84-0.704
				c-0.288-0.225-0.524-0.513-0.761-0.8c-0.233-0.288-0.484-0.569-0.686-0.875c-0.344-0.634-0.785-1.271-0.973-1.938l-0.34-0.998
				c-0.104-0.332-0.137-0.652-0.205-0.981l-0.166-0.981l-0.044-0.939l-0.034-0.939l0.057-0.896c0.047-0.595,0.066-1.191,0.186-1.782
				l0.308-1.764l0.367-1.482l0.333-1.378c0.077-0.377,0.129-0.749,0.155-1.115c0.07-0.735-0.022-1.432-0.178-2.112
				c-0.311-1.358-1.145-2.639-2.29-3.803c-1.151-1.163-2.633-2.162-4.218-3.031c-0.797-0.431-1.629-0.823-2.48-1.176
				c-0.826-0.345-1.778-0.688-2.513-0.898l-5.489-1.576l4.33-3.567c1.597-1.315,3.122-2.429,4.75-3.548
				c1.618-1.1,3.278-2.146,5.011-3.106c1.73-0.963,3.525-1.849,5.429-2.593c1.897-0.747,3.907-1.361,6.087-1.661
				c1.088-0.147,2.219-0.221,3.394-0.132c0.55,0.018,1.253,0.136,1.909,0.258l0.701,0.178l0.17,0.044l0.085,0.022l0.187,0.055
				l0.049,0.018l0.389,0.144c2.083,0.663,4.12,1.845,5.811,3.308c1.704,1.46,2.996,3.216,4.085,4.702
				c1.092,1.502,2.056,2.661,3.049,3.259c0.259,0.104,0.541,0.283,0.769,0.351c0.111,0.028,0.219,0.063,0.326,0.106l0.161,0.07
				l0.347,0.045l0.698,0.09l0.349,0.045c-0.387-0.032-0.08-0.007-0.154-0.014l0.047,0.004l0.095,0.008l0.189,0.015
				c0.507,0.045,1.01,0.066,1.52,0.134c2.031,0.224,4.097,0.645,6.103,1.374c4.042,1.419,7.627,4.27,10.029,7.65
				c1.193,1.63,2.309,3.623,3.056,5.225c0.928,2.02,1.496,3.878,1.99,5.802c0.973,3.793,1.494,7.524,2.528,10.836
				c0.517,1.645,1.176,3.163,2.087,4.316c0.893,1.177,2.065,1.919,3.494,2.354c0.358,0.071,0.58,0.175,1.108,0.234l0.348,0.051
				l0.174,0.025l0.043,0.007c0.09,0.011-0.075-0.008-0.039-0.003l0.099,0.017l0.791,0.135c0.525,0.101,1.056,0.165,1.573,0.305
				l1.532,0.506c1.985,0.796,3.916,1.891,5.39,3.497c3.063,3.081,4.46,7.616,3.948,11.737c-0.149,2.09-0.837,4.046-1.615,5.906
				c-0.42,0.916-0.942,1.773-1.417,2.654c-0.567,0.84-1.175,1.658-1.764,2.477c-0.616,0.735-1.247,1.41-1.87,2.117l-0.956,1.049
				c-0.31,0.318-0.589,0.66-0.861,1.01c-1.107,1.379-2.038,2.902-2.751,4.529c-1.433,3.257-1.967,6.916-1.671,10.533
				c0.3,3.619,1.426,7.202,3.281,10.387C387.516,229.406,390.168,232.287,393.707,233.644z"/>
			<path fill="#DA4453" d="M322.788,105.667c0,0,46.545,24.768,58.212,15.884c0,0-0.126,22.909-24.396,12.68
				c0,0,26.73,24.104,39.396,17.771c0,0-11.878,26-36.606,11c0,0,18.939,20.666,31.606,17.666c0,0-26.063,28.333-66.865-15
				S322.788,105.667,322.788,105.667z"/>
			<path fill="#A6343F" d="M311.788,121.667c0,0,46.545,24.768,58.212,15.884c0,0-0.126,22.909-24.396,12.68
				c0,0,26.73,24.104,39.396,17.771c0,0-11.878,26-36.606,11c0,0,18.939,20.666,31.606,17.666c0,0-26.063,28.333-66.865-15
				S311.788,121.667,311.788,121.667z"/>
			<path fill="#F5F7FA" d="M256,86.001c-148.333,10.333-61.485,134.341-61.127,135.452L256,134l61.127,87.453
				C317.485,220.342,404.333,96.334,256,86.001z"/>
			<path fill="#2D3138" d="M331.133,182.575l-1.5-38.363c0,0,28.367-33.878,20.367-38.878s-18.023,9.166-18.023,9.166
				s8.356-29.833-8.311-35.833S292.62,91.666,292.62,91.666S296,60.001,257,60.001s-35.62,31.665-35.62,31.665
				S207,72.667,190.333,78.667s-8.311,35.833-8.311,35.833S172,100.334,164,105.334s20.367,38.878,20.367,38.878l-1.5,38.363
				c0,0-17.205-8.346-18.867-2.908s11.667,13.334,11.667,13.334s-7.333,0.333-6.052,5.219s11.013,6.447,11.013,6.447
				s-8.294,1-7.471,5.667s18.904,2.034,18.904,2.034C164.649,119.816,257,115,257,115s92.351,4.816,64.939,97.368
				c0,0,18.081,2.633,18.904-2.034s-7.471-5.667-7.471-5.667s9.731-1.562,11.013-6.447s-6.052-5.219-6.052-5.219
				s13.329-7.896,11.667-13.334S331.133,182.575,331.133,182.575z"/>
			<path fill="#434A54" d="M350,105.334c-8-5-18.023,9.166-18.023,9.166s8.356-29.833-8.311-35.833S292.62,91.666,292.62,91.666
				S296,60.001,257,60.001s-35.62,31.665-35.62,31.665S207,72.667,190.333,78.667s-8.311,35.833-8.311,35.833
				S172,100.334,164,105.334c-3.203,2.002-0.572,8.635,3.73,15.867c0.195-0.799,0.593-1.443,1.27-1.867
				c8-5,18.023,9.166,18.023,9.166s-8.356-29.833,8.311-35.833s31.046,12.999,31.046,12.999S223.3,76.784,257,74.189
				c33.7,2.595,30.62,31.477,30.62,31.477S302,86.667,318.667,92.667s8.311,35.833,8.311,35.833S337,114.334,345,119.334
				c0.677,0.424,1.075,1.068,1.27,1.867C350.572,113.969,353.203,107.336,350,105.334z"/>
			<path fill="#434A54" d="M256,114.5c0,0-77.745,2-76.373,46s19.827,68.446,19.827,68.446l12.58,2
				C209.736,221.767,206.5,205,206.5,205l10.059,26.666L229,233.644l-5-28.144l7.5,28.144c0,0,8.5,8.403,24.5,8.403
				s24.5-8.403,24.5-8.403L288,205.5l-5,28.144l12.441-1.978L305.5,205c0,0-3.236,16.767-5.534,25.946l12.58-2
				c0,0,18.454-24.446,19.827-68.446S256,114.5,256,114.5z"/>
			<path fill="#656D78" d="M316.788,143c0,0-8.818,12.553-11.981,17.255c2.03-4.608,2.693-14.922,2.693-14.922
				s-16.167,19-13.5,14.667s4.25-17,4.25-17s-22.917,20-20.583,16s-3-17.334-3-17.334c-2.333,4-7.667,16.667-7.667,16.667
				C265.667,154,256,140,256,140s-9.667,14-11,18.333c0,0-5.333-12.667-7.667-16.667c0,0-5.333,13.334-3,17.334
				s-20.583-16-20.583-16s1.583,12.667,4.25,17s-13.5-14.667-13.5-14.667s0.663,10.313,2.693,14.922
				C204.03,155.553,195.212,143,195.212,143s-7.455,34,0,46c0,0,5.776-11,7.282-18c0,0,7.839,16.999,15.172,23.666
				c0,0,7-17.332,6.333-23.666c0,0,6.333,22.514,11.333,29.924c0,0,2.281-2.078,4.706-5.852c5.087,6.738,10.743,13.305,15.96,17.296
				c5.217-3.991,10.873-10.558,15.96-17.296c2.425,3.773,4.706,5.852,4.706,5.852C281.667,193.514,288,171,288,171
				c-0.667,6.334,6.333,23.666,6.333,23.666c7.333-6.667,15.172-23.666,15.172-23.666c1.506,7,7.282,18,7.282,18
				C324.243,177,316.788,143,316.788,143z"/>
		</g>
	</g>
	<g id="avatar12_1_">
		<g id="back_27_">
		</g>
		<g id="clothes_29_">
		</g>
		<g id="face_97_">
		</g>
		<g id="hair_20_">
		</g>
	</g>
	<g id="avatar11_1_">
		<g id="back_26_">
		</g>
		<g id="clothes_28_">
		</g>
		<g id="face_95_">
		</g>
		<g id="hair_19_">
		</g>
	</g>
	<g id="avatar10_1_">
		<g id="back_25_">
		</g>
		<g id="clothes_27_">
		</g>
		<g id="face_94_">
		</g>
		<g id="glasses_11_">
		</g>
		<g id="hair_18_">
		</g>
	</g>
	<g id="avatar9_1_">
		<g id="back_24_">
		</g>
		<g id="clothes_26_">
		</g>
		<g id="face_92_">
		</g>
		<g id="hair_17_">
		</g>
	</g>
	<g id="avatar8_1_">
		<g id="back_23_">
		</g>
		<g id="hair_back_7_">
		</g>
		<g id="clothes_25_">
		</g>
		<g id="face_91_">
		</g>
		<g id="hair_front_7_">
		</g>
	</g>
	<g id="avatar7_1_">
		<g id="back_22_">
		</g>
		<g id="clothes_24_">
		</g>
		<g id="face_90_">
		</g>
		<g id="necklace_1_">
		</g>
		<g id="earings_1_">
		</g>
		<g id="hair_16_">
		</g>
	</g>
	<g id="avatar6_1_">
		<g id="back_21_">
		</g>
		<g id="hair_back_6_">
		</g>
		<g id="clothes_23_">
		</g>
		<g id="face_89_">
		</g>
		<g id="glasses_12_">
		</g>
		<g id="hair_front_6_">
		</g>
	</g>
	<g id="avatar5_1_">
		<g id="back_20_">
		</g>
		<g id="hair_back_5_">
		</g>
		<g id="clothes_22_">
		</g>
		<g id="face_88_">
		</g>
		<g id="glasses_9_">
		</g>
		<g id="hair_front_5_">
		</g>
	</g>
	<g id="avatar4_1_">
		<g id="back_19_">
		</g>
		<g id="hair_back_4_">
		</g>
		<g id="clothes_21_">
		</g>
		<g id="face_87_">
		</g>
		<g id="earing_1_">
		</g>
		<g id="hair_front_4_">
		</g>
	</g>
	<g id="avatar3_1_">
		<g id="back_18_">
		</g>
		<g id="hair_back_3_">
		</g>
		<g id="clothes_20_">
		</g>
		<g id="face_86_">
		</g>
		<g id="earings">
		</g>
		<g id="glasses_8_">
		</g>
		<g id="hair_front_3_">
		</g>
	</g>
	<g id="avatar2_1_">
		<g id="Layebackr_167">
		</g>
		<g id="hair_back_2_">
		</g>
		<g id="clothes_19_">
		</g>
		<g id="necklace">
		</g>
		<g id="face_85_">
		</g>
		<g id="hair_front_2_">
		</g>
	</g>
	<g id="avatar1_1_">
		<g id="back_17_">
		</g>
		<g id="hair_back_1_">
		</g>
		<g id="clothes_18_">
		</g>
		<g id="face_84_">
		</g>
		<g id="hair_front_1_">
		</g>
	</g>
</g>
<g id="male" display="none">
	<g id="avatar20" display="inline">
		<g id="back_32_">
		</g>
		<g id="clothes_34_">
		</g>
		<g id="face_100_">
		</g>
		<g id="hair_22_">
		</g>
	</g>
	<g id="avatar19" display="inline">
		<g id="back_31_">
		</g>
		<g id="clothes_33_">
		</g>
		<g id="face_99_">
		</g>
		<g id="scaft">
		</g>
		<g id="hat">
		</g>
	</g>
	<g id="avatar18" display="inline">
		<g id="back_30_">
		</g>
		<g id="clothes_32_">
		</g>
		<g id="face_55_">
		</g>
		<g id="earings_2_">
		</g>
		<g id="hair_21_">
		</g>
	</g>
	<g id="avatar17" display="inline">
		<g id="back_29_">
		</g>
		<g id="hair_back_10_">
		</g>
		<g id="clothes_31_">
		</g>
		<g id="face_2_">
		</g>
		<g id="glasses_10_">
		</g>
		<g id="hair_front_10_">
		</g>
	</g>
	<g id="avatar16" display="inline">
		<g id="back_28_">
		</g>
		<g id="hair_back_9_">
		</g>
		<g id="clothes_1_">
		</g>
		<g id="face_1_">
		</g>
		<g id="hair_front_9_">
		</g>
	</g>
	<g id="avatar15" display="inline">
		<g id="back_5_">
		</g>
		<g id="clothes_6_">
		</g>
		<g id="face_29_">
		</g>
		<g id="glasses_4_">
		</g>
		<g id="hair_8_">
		</g>
	</g>
	<g id="avatar14" display="inline">
		<g id="back_6_">
		</g>
		<g id="clothes_7_">
		</g>
		<g id="face_42_">
		</g>
		<g id="earings_3_">
		</g>
		<g id="hair_9_">
		</g>
	</g>
	<g id="avatar13" display="inline">
		<g id="back_7_">
		</g>
		<g id="clothes_8_">
		</g>
		<g id="face_43_">
		</g>
		<g id="glasses_5_">
		</g>
		<g id="hair_10_">
		</g>
	</g>
	<g id="avatar12" display="inline">
		<g id="back_8_">
		</g>
		<g id="clothes_9_">
		</g>
		<g id="face_44_">
		</g>
		<g id="beard_6_">
		</g>
		<g id="hair_11_">
		</g>
	</g>
	<g id="avatar11" display="inline">
		<g id="back_9_">
		</g>
		<g id="clothes_10_">
		</g>
		<g id="face_45_">
		</g>
		<g id="glass">
		</g>
		<g id="hair_12_">
		</g>
	</g>
	<g id="avatar10" display="inline">
		<g id="back_10_">
		</g>
		<g id="clothes_11_">
		</g>
		<g id="face_46_">
		</g>
		<g id="beard_7_">
		</g>
		<g id="glasses_6_">
		</g>
		<g id="hair_13_">
		</g>
	</g>
	<g id="avatar9" display="inline">
		<g id="back_11_">
		</g>
		<g id="clothes_12_">
		</g>
		<g id="face_47_">
		</g>
		<g id="glasses_3_">
		</g>
		<g id="hair_7_">
		</g>
	</g>
	<g id="avatar8" display="inline">
		<g id="back_12_">
		</g>
		<g id="clothes_13_">
		</g>
		<g id="face_48_">
		</g>
		<g id="beard_5_">
		</g>
		<g id="glasses_7_">
		</g>
		<g id="hair_6_">
		</g>
	</g>
	<g id="avatar7" display="inline">
		<g id="back_4_">
		</g>
		<g id="clothes_14_">
		</g>
		<g id="face_11_">
		</g>
		<g id="hair_14_">
		</g>
	</g>
	<g id="avatar6" display="inline">
		<g id="back_13_">
		</g>
		<g id="clothes_15_">
		</g>
		<g id="face_16_">
		</g>
		<g id="glasses_2_">
		</g>
		<g id="beard_4_">
		</g>
		<g id="hair_5_">
		</g>
	</g>
	<g id="avatar5" display="inline">
		<g id="back_14_">
		</g>
		<g id="clothes_5_">
		</g>
		<g id="face_38_">
		</g>
		<g id="beard_3_">
		</g>
		<g id="hair_4_">
		</g>
	</g>
	<g id="avatar4" display="inline">
		<g id="back_3_">
		</g>
		<g id="clothes_4_">
		</g>
		<g id="face_13_">
		</g>
		<g id="beard_2_">
		</g>
		<g id="glasses_1_">
		</g>
		<g id="hair_3_">
		</g>
	</g>
	<g id="avatar3" display="inline">
		<g id="back_15_">
		</g>
		<g id="clothes_16_">
		</g>
		<g id="face_49_">
		</g>
		<g id="hair_15_">
		</g>
	</g>
	<g id="avatar2" display="inline">
		<g id="back_2_">
		</g>
		<g id="clothes_3_">
		</g>
		<g id="face_9_">
		</g>
		<g id="beard_1_">
		</g>
		<g id="hair_2_">
		</g>
	</g>
	<g id="avatar1" display="inline">
		<g id="back_1_">
		</g>
		<g id="clothes_2_">
		</g>
		<g id="face_6_">
		</g>
		<g id="hair_1_">
		</g>
	</g>
</g>
</svg>
