<?xml version="1.0" encoding="iso-8859-1"?>
<!-- Generator: Adobe Illustrator 16.0.3, SVG Export Plug-In . SVG Version: 6.00 Build 0)  -->
<!DOCTYPE svg PUBLIC "-//W3C//DTD SVG 1.1 Basic//EN" "http://www.w3.org/Graphics/SVG/1.1/DTD/svg11-basic.dtd">
<svg version="1.1" baseProfile="basic" xmlns="http://www.w3.org/2000/svg" xmlns:xlink="http://www.w3.org/1999/xlink" x="0px"
	 y="0px" width="512px" height="512px" viewBox="0 0 512 512" xml:space="preserve">
<g id="Layer_159" display="none">
	<rect x="-512" y="-512" display="inline" fill="#FFFFFF" width="512" height="512"/>
	<rect y="-512" display="inline" fill="#FFFFFF" width="512" height="512"/>
	<rect x="512" y="-512" display="inline" fill="#FFFFFF" width="512" height="512"/>
	<rect x="-512" display="inline" fill="#FFFFFF" width="512" height="512"/>
	<rect x="512" display="inline" fill="#FFFFFF" width="512" height="512"/>
	<rect display="inline" fill="#FFFFFF" width="512" height="512"/>
</g>
<g id="female">
	<g id="avatar15_1_">
		<g id="baclk">
		</g>
		<g id="hair_back_8_">
		</g>
		<g id="clothes_30_">
		</g>
		<g id="face_98_">
		</g>
		<g id="hair_front_8_">
		</g>
	</g>
	<g id="avatar14_1_">
		<g id="back_16_">
			<circle fill="#8CC152" cx="256" cy="256" r="200"/>
		</g>
		<g id="hair_back">
			<path fill="#2D3138" d="M364.678,190.68c2.498-16.773,2.194-33.709-2.677-48.18C345.001,92,303,122.753,303,122.753L289.236,232
				c0,0,12.203,39.5,31.703,40.5c3.038,0.156,6.538-1.668,10.219-5.046c9.611,7.136,19.625-4.325,38.841-37.954
				C381.235,209.84,373.562,197.617,364.678,190.68z"/>
			<path fill="#2D3138" d="M209,122.753c0,0-42.001-30.753-59.001,19.747c-4.872,14.471-5.175,31.406-2.677,48.18
				c-8.883,6.938-16.557,19.16-5.322,38.82c19.217,33.629,29.23,45.09,38.841,37.954c3.681,3.378,7.182,5.202,10.219,5.046
				c19.5-1,31.703-40.5,31.703-40.5L209,122.753z"/>
			<path fill="#434A54" d="M364.678,215.68c2.973,2.321,5.806,5.238,7.844,8.824c6.904-15.744,1.068-26.166-6.383-32.619
				C366.412,199.665,365.868,207.689,364.678,215.68z"/>
			<path fill="#434A54" d="M303,147.753c0,0,42.001-30.753,59.001,19.747c1.734,5.152,2.88,10.621,3.536,16.28
				c1.464-14.47,0.667-28.793-3.536-41.28C345.001,92,303,122.753,303,122.753L289.236,232c0,0,0.806,2.606,2.332,6.493L303,147.753
				z"/>
			<path fill="#434A54" d="M149.999,167.5c17-50.5,59.001-19.747,59.001-19.747l11.432,90.74c1.525-3.887,2.332-6.493,2.332-6.493
				L209,122.753c0,0-42.001-30.753-59.001,19.747c-4.204,12.487-5,26.811-3.536,41.28
				C147.119,178.121,148.265,172.652,149.999,167.5z"/>
			<path fill="#434A54" d="M147.322,215.68c-1.19-7.99-1.734-16.015-1.461-23.795c-7.451,6.453-13.287,16.875-6.383,32.619
				C141.516,220.918,144.349,218.001,147.322,215.68z"/>
			<path fill="#434A54" d="M162,220c0.18,1.657-13.666-32.668,6.667-46.334C168.667,173.666,159,192.334,162,220z"/>
			<path fill="#434A54" d="M167,231c0,0-6.916-30.277,14.709-34.139C181.709,196.861,164.333,218,167,231z"/>
			<path fill="#434A54" d="M173.828,245c0,0-13.37-4.001-16.266,2.666C157.563,247.666,155.82,234.744,173.828,245z"/>
			<path fill="#434A54" d="M163.115,232.666c0,0-7.782-9.667-14.115,0C149,232.666,155.896,228.999,163.115,232.666z"/>
			<path fill="#434A54" d="M350,220c-0.18,1.657,13.666-32.668-6.667-46.334C343.333,173.666,353,192.334,350,220z"/>
			<path fill="#434A54" d="M345,231c0,0,6.916-30.277-14.709-34.139C330.291,196.861,347.667,218,345,231z"/>
			<path fill="#434A54" d="M338.172,245c0,0,13.37-4.001,16.266,2.666C354.438,247.666,356.18,234.744,338.172,245z"/>
			<path fill="#434A54" d="M348.885,232.666c0,0,7.782-9.667,14.115,0C363,232.666,356.104,228.999,348.885,232.666z"/>
		</g>
		<g id="clothes_17_">
			<path fill="#F5F7FA" d="M218.628,340.557L156.776,359c0,0-12.778-8.544,10.555-14.438c0,0,2.668-21.563,45.668-8.062
				L218.628,340.557z"/>
			<path fill="#F5F7FA" d="M218.628,340.557L156.776,359c0,0-12.778-8.544,10.555-14.438c0,0,2.668-21.563,45.668-8.062
				L218.628,340.557z"/>
			<path id="_x34__65_" fill="#F9E0A8" d="M254.527,254l-42.25-5.5l16.307,88.734c0,0,3.666,30.766,25.943,30.766
				s25.943-30.766,25.943-30.766l16.307-88.734L254.527,254z"/>
			<path id="_x33__77_" fill="#D9C392" d="M288.527,263.5l-69.525,21.592l7.086,38.556c10.66,13.146,26.918,25.187,50.957,26.265
				c2.709-6.691,3.426-12.678,3.426-12.678l12.127-65.99C290.213,266.447,288.527,263.5,288.527,263.5z"/>
			<path fill="#F5F7FA" d="M372.668,368.789c-7.353-6.355-19.364-14.563-30.666-15.666c-3.6-0.352-26.496-6.013-47.197-11.631
				l-2.208-4.992L268,330.123c0,0-45,5.377-47.099,6.377c-0.539,0.257-1.354,1.834-2.273,4.057
				c-21.432,5.908-44.83,12.194-48.63,12.566c-11.302,1.104-23.313,9.311-30.666,15.666c-13.235,11.439-10.854,25.453-14.641,38.188
				c35.133,30.605,81.055,49.145,131.309,49.145s96.176-18.539,131.309-49.145C383.522,394.242,385.903,380.229,372.668,368.789z"/>
			<path fill="#E6E9ED" d="M312.979,346.295c-5.889-1.516-12.123-3.16-18.173-4.803l-2.208-4.992L268,330.123
				c0,0-45,5.377-47.099,6.377c-0.539,0.257-1.354,1.834-2.273,4.057c-6.698,1.847-13.588,3.729-20.011,5.458
				C209.541,353.738,231.13,359,256,359C280.568,359,301.932,353.865,312.979,346.295z"/>
			<path fill="#F5F7FA" d="M300,336.75c0,5.661-4.589,10.25-10.25,10.25h-67.5c-5.661,0-10.25-4.589-10.25-10.25v-0.5
				c0-5.661,4.589-10.25,10.25-10.25h67.5c5.661,0,10.25,4.589,10.25,10.25V336.75z"/>
			<path fill="#E6E9ED" d="M169.36,436.418c3.553-11.775,7.364-25.701,5.64-26.084c-3-0.667-11,18-11,18l7-35.212
				c-5,1.121-12.423,35.545-12.423,35.545l5.089-51.666c-3.387,0-7.3,33.003-9.131,51.489
				C159.352,431.332,164.296,433.98,169.36,436.418z"/>
			<path fill="#F5F7FA" d="M292.372,340.557L354.224,359c0,0,12.778-8.544-10.555-14.438c0,0-2.668-21.563-45.668-8.062
				L292.372,340.557z"/>
			<path fill="#E6E9ED" d="M342.64,436.418c-3.553-11.775-7.364-25.701-5.64-26.084c3-0.667,11,18,11,18l-7-35.212
				c5,1.121,12.423,35.545,12.423,35.545l-5.089-51.666c3.387,0,7.3,33.003,9.131,51.489
				C352.648,431.332,347.704,433.98,342.64,436.418z"/>
		</g>
		<g id="face_57_">
			<path id="face_76_" fill="#FFE9BA" d="M256,154h-63c0,0,4.785,94.465,11,114c7,22.001,14.237,27.287,30.226,41
				C247.634,320.5,256,319,256,319s8.366,1.5,21.774-10C293.763,295.287,302,290.001,309,268c6.215-19.535,10-114,10-114H256z"/>
			<path id="ear_121_" fill="#F9E0A8" d="M197.75,217.5c0,0-22.743-10.911-17.273,16.638c5.468,27.55,22.018,23.583,22.018,23.583
				L197.75,217.5z"/>
			<path id="ear_115_" fill="#F9E0A8" d="M315.25,214.5c0,0,22.743-10.911,17.273,16.638c-5.468,27.55-22.018,23.583-22.018,23.583
				L315.25,214.5z"/>
		</g>
		<g id="hair_front">
			<path fill="#434A54" d="M256,118.198c-18.115-1.462-109.361-8.931-59.627,96.302c0,0,47.087-3.586,59.627-36.227
				c12.539,32.641,59.627,36.227,59.627,36.227C365.36,109.268,274.115,116.736,256,118.198z"/>
			<path fill="#656D78" d="M256,128.198c13.829-1.116,70.263-5.725,74.079,38.963c4.188-55.339-59.294-50.156-74.079-48.963
				c-14.785-1.193-78.268-6.376-74.08,48.962C185.737,122.474,242.172,127.082,256,128.198z"/>
			<path fill="#656D78" d="M189.313,197.827c0,0-0.313-56.396,64.687-50.111C254,147.716,197.558,161.837,189.313,197.827z"/>
			<path fill="#656D78" d="M322.687,197.827c0,0,0.313-56.396-64.687-50.111C258,147.716,314.442,161.837,322.687,197.827z"/>
		</g>
	</g>
	<g id="avatar13_1_">
		<g id="back_x27_">
		</g>
		<g id="clothes">
		</g>
		<g id="face">
		</g>
		<g id="hair">
		</g>
	</g>
	<g id="avatar12_1_">
		<g id="back_27_">
		</g>
		<g id="clothes_29_">
		</g>
		<g id="face_97_">
		</g>
		<g id="hair_20_">
		</g>
	</g>
	<g id="avatar11_1_">
		<g id="back_26_">
		</g>
		<g id="clothes_28_">
		</g>
		<g id="face_95_">
		</g>
		<g id="hair_19_">
		</g>
	</g>
	<g id="avatar10_1_">
		<g id="back_25_">
		</g>
		<g id="clothes_27_">
		</g>
		<g id="face_94_">
		</g>
		<g id="glasses_11_">
		</g>
		<g id="hair_18_">
		</g>
	</g>
	<g id="avatar9_1_">
		<g id="back_24_">
		</g>
		<g id="clothes_26_">
		</g>
		<g id="face_92_">
		</g>
		<g id="hair_17_">
		</g>
	</g>
	<g id="avatar8_1_">
		<g id="back_23_">
		</g>
		<g id="hair_back_7_">
		</g>
		<g id="clothes_25_">
		</g>
		<g id="face_91_">
		</g>
		<g id="hair_front_7_">
		</g>
	</g>
	<g id="avatar7_1_">
		<g id="back_22_">
		</g>
		<g id="clothes_24_">
		</g>
		<g id="face_90_">
		</g>
		<g id="necklace_1_">
		</g>
		<g id="earings_1_">
		</g>
		<g id="hair_16_">
		</g>
	</g>
	<g id="avatar6_1_">
		<g id="back_21_">
		</g>
		<g id="hair_back_6_">
		</g>
		<g id="clothes_23_">
		</g>
		<g id="face_89_">
		</g>
		<g id="glasses_12_">
		</g>
		<g id="hair_front_6_">
		</g>
	</g>
	<g id="avatar5_1_">
		<g id="back_20_">
		</g>
		<g id="hair_back_5_">
		</g>
		<g id="clothes_22_">
		</g>
		<g id="face_88_">
		</g>
		<g id="glasses_9_">
		</g>
		<g id="hair_front_5_">
		</g>
	</g>
	<g id="avatar4_1_">
		<g id="back_19_">
		</g>
		<g id="hair_back_4_">
		</g>
		<g id="clothes_21_">
		</g>
		<g id="face_87_">
		</g>
		<g id="earing_1_">
		</g>
		<g id="hair_front_4_">
		</g>
	</g>
	<g id="avatar3_1_">
		<g id="back_18_">
		</g>
		<g id="hair_back_3_">
		</g>
		<g id="clothes_20_">
		</g>
		<g id="face_86_">
		</g>
		<g id="earings">
		</g>
		<g id="glasses_8_">
		</g>
		<g id="hair_front_3_">
		</g>
	</g>
	<g id="avatar2_1_">
		<g id="Layebackr_167">
		</g>
		<g id="hair_back_2_">
		</g>
		<g id="clothes_19_">
		</g>
		<g id="necklace">
		</g>
		<g id="face_85_">
		</g>
		<g id="hair_front_2_">
		</g>
	</g>
	<g id="avatar1_1_">
		<g id="back_17_">
		</g>
		<g id="hair_back_1_">
		</g>
		<g id="clothes_18_">
		</g>
		<g id="face_84_">
		</g>
		<g id="hair_front_1_">
		</g>
	</g>
</g>
<g id="male" display="none">
	<g id="avatar20" display="inline">
		<g id="back_32_">
		</g>
		<g id="clothes_34_">
		</g>
		<g id="face_100_">
		</g>
		<g id="hair_22_">
		</g>
	</g>
	<g id="avatar19" display="inline">
		<g id="back_31_">
		</g>
		<g id="clothes_33_">
		</g>
		<g id="face_99_">
		</g>
		<g id="scaft">
		</g>
		<g id="hat">
		</g>
	</g>
	<g id="avatar18" display="inline">
		<g id="back_30_">
		</g>
		<g id="clothes_32_">
		</g>
		<g id="face_55_">
		</g>
		<g id="earings_2_">
		</g>
		<g id="hair_21_">
		</g>
	</g>
	<g id="avatar17" display="inline">
		<g id="back_29_">
		</g>
		<g id="hair_back_10_">
		</g>
		<g id="clothes_31_">
		</g>
		<g id="face_2_">
		</g>
		<g id="glasses_10_">
		</g>
		<g id="hair_front_10_">
		</g>
	</g>
	<g id="avatar16" display="inline">
		<g id="back_28_">
		</g>
		<g id="hair_back_9_">
		</g>
		<g id="clothes_1_">
		</g>
		<g id="face_1_">
		</g>
		<g id="hair_front_9_">
		</g>
	</g>
	<g id="avatar15" display="inline">
		<g id="back_5_">
		</g>
		<g id="clothes_6_">
		</g>
		<g id="face_29_">
		</g>
		<g id="glasses_4_">
		</g>
		<g id="hair_8_">
		</g>
	</g>
	<g id="avatar14" display="inline">
		<g id="back_6_">
		</g>
		<g id="clothes_7_">
		</g>
		<g id="face_42_">
		</g>
		<g id="earings_3_">
		</g>
		<g id="hair_9_">
		</g>
	</g>
	<g id="avatar13" display="inline">
		<g id="back_7_">
		</g>
		<g id="clothes_8_">
		</g>
		<g id="face_43_">
		</g>
		<g id="glasses_5_">
		</g>
		<g id="hair_10_">
		</g>
	</g>
	<g id="avatar12" display="inline">
		<g id="back_8_">
		</g>
		<g id="clothes_9_">
		</g>
		<g id="face_44_">
		</g>
		<g id="beard_6_">
		</g>
		<g id="hair_11_">
		</g>
	</g>
	<g id="avatar11" display="inline">
		<g id="back_9_">
		</g>
		<g id="clothes_10_">
		</g>
		<g id="face_45_">
		</g>
		<g id="glass">
		</g>
		<g id="hair_12_">
		</g>
	</g>
	<g id="avatar10" display="inline">
		<g id="back_10_">
		</g>
		<g id="clothes_11_">
		</g>
		<g id="face_46_">
		</g>
		<g id="beard_7_">
		</g>
		<g id="glasses_6_">
		</g>
		<g id="hair_13_">
		</g>
	</g>
	<g id="avatar9" display="inline">
		<g id="back_11_">
		</g>
		<g id="clothes_12_">
		</g>
		<g id="face_47_">
		</g>
		<g id="glasses_3_">
		</g>
		<g id="hair_7_">
		</g>
	</g>
	<g id="avatar8" display="inline">
		<g id="back_12_">
		</g>
		<g id="clothes_13_">
		</g>
		<g id="face_48_">
		</g>
		<g id="beard_5_">
		</g>
		<g id="glasses_7_">
		</g>
		<g id="hair_6_">
		</g>
	</g>
	<g id="avatar7" display="inline">
		<g id="back_4_">
		</g>
		<g id="clothes_14_">
		</g>
		<g id="face_11_">
		</g>
		<g id="hair_14_">
		</g>
	</g>
	<g id="avatar6" display="inline">
		<g id="back_13_">
		</g>
		<g id="clothes_15_">
		</g>
		<g id="face_16_">
		</g>
		<g id="glasses_2_">
		</g>
		<g id="beard_4_">
		</g>
		<g id="hair_5_">
		</g>
	</g>
	<g id="avatar5" display="inline">
		<g id="back_14_">
		</g>
		<g id="clothes_5_">
		</g>
		<g id="face_38_">
		</g>
		<g id="beard_3_">
		</g>
		<g id="hair_4_">
		</g>
	</g>
	<g id="avatar4" display="inline">
		<g id="back_3_">
		</g>
		<g id="clothes_4_">
		</g>
		<g id="face_13_">
		</g>
		<g id="beard_2_">
		</g>
		<g id="glasses_1_">
		</g>
		<g id="hair_3_">
		</g>
	</g>
	<g id="avatar3" display="inline">
		<g id="back_15_">
		</g>
		<g id="clothes_16_">
		</g>
		<g id="face_49_">
		</g>
		<g id="hair_15_">
		</g>
	</g>
	<g id="avatar2" display="inline">
		<g id="back_2_">
		</g>
		<g id="clothes_3_">
		</g>
		<g id="face_9_">
		</g>
		<g id="beard_1_">
		</g>
		<g id="hair_2_">
		</g>
	</g>
	<g id="avatar1" display="inline">
		<g id="back_1_">
		</g>
		<g id="clothes_2_">
		</g>
		<g id="face_6_">
		</g>
		<g id="hair_1_">
		</g>
	</g>
</g>
</svg>
