<?xml version="1.0" encoding="iso-8859-1"?>
<!-- Generator: Adobe Illustrator 16.0.3, SVG Export Plug-In . SVG Version: 6.00 Build 0)  -->
<!DOCTYPE svg PUBLIC "-//W3C//DTD SVG 1.1 Basic//EN" "http://www.w3.org/Graphics/SVG/1.1/DTD/svg11-basic.dtd">
<svg version="1.1" baseProfile="basic" xmlns="http://www.w3.org/2000/svg" xmlns:xlink="http://www.w3.org/1999/xlink" x="0px"
	 y="0px" width="512px" height="512px" viewBox="0 0 512 512" xml:space="preserve">
<g id="Layer_159" display="none">
	<rect x="-512" display="inline" fill="#FFFFFF" width="512" height="512"/>
	<rect display="inline" fill="#FFFFFF" width="512" height="512"/>
	<rect x="-512" y="512" display="inline" fill="#FFFFFF" width="512" height="512"/>
	<rect y="512" display="inline" fill="#FFFFFF" width="512" height="512"/>
	<rect y="-511" display="inline" fill="#FFFFFF" width="512" height="512"/>
	<rect x="-512" y="-511" display="inline" fill="#FFFFFF" width="512" height="512"/>
</g>
<g id="female">
	<g id="avatar15_1_">
		<g id="baclk">
		</g>
		<g id="hair_back_8_">
		</g>
		<g id="clothes_30_">
		</g>
		<g id="face_98_">
		</g>
		<g id="hair_front_8_">
		</g>
	</g>
	<g id="avatar14_1_">
		<g id="back_16_">
		</g>
		<g id="hair_back">
		</g>
		<g id="clothes_17_">
		</g>
		<g id="face_57_">
		</g>
		<g id="hair_front">
		</g>
	</g>
	<g id="avatar13_1_">
		<g id="back_x27_">
		</g>
		<g id="clothes">
		</g>
		<g id="face">
		</g>
		<g id="hair">
		</g>
	</g>
	<g id="avatar12_1_">
		<g id="back_27_">
		</g>
		<g id="clothes_29_">
		</g>
		<g id="face_97_">
		</g>
		<g id="hair_20_">
		</g>
	</g>
	<g id="avatar11_1_">
		<g id="back_26_">
		</g>
		<g id="clothes_28_">
		</g>
		<g id="face_95_">
		</g>
		<g id="hair_19_">
		</g>
	</g>
	<g id="avatar10_1_">
		<g id="back_25_">
		</g>
		<g id="clothes_27_">
		</g>
		<g id="face_94_">
		</g>
		<g id="glasses_11_">
		</g>
		<g id="hair_18_">
		</g>
	</g>
	<g id="avatar9_1_">
		<g id="back_24_">
		</g>
		<g id="clothes_26_">
		</g>
		<g id="face_92_">
		</g>
		<g id="hair_17_">
		</g>
	</g>
	<g id="avatar8_1_">
		<g id="back_23_">
		</g>
		<g id="hair_back_7_">
		</g>
		<g id="clothes_25_">
		</g>
		<g id="face_91_">
		</g>
		<g id="hair_front_7_">
		</g>
	</g>
	<g id="avatar7_1_">
		<g id="back_22_">
		</g>
		<g id="clothes_24_">
		</g>
		<g id="face_90_">
		</g>
		<g id="necklace_1_">
		</g>
		<g id="earings_1_">
		</g>
		<g id="hair_16_">
		</g>
	</g>
	<g id="avatar6_1_">
		<g id="back_21_">
		</g>
		<g id="hair_back_6_">
		</g>
		<g id="clothes_23_">
		</g>
		<g id="face_89_">
		</g>
		<g id="glasses_12_">
		</g>
		<g id="hair_front_6_">
		</g>
	</g>
	<g id="avatar5_1_">
		<g id="back_20_">
			<circle fill="#3BAFDA" cx="256" cy="256" r="200"/>
		</g>
		<g id="hair_back_5_">
			<path id="_x34__28_" fill="#434A54" d="M340.332,211.308c15.649-91.813-46-111.489-84.332-111.489s-99.982,19.676-84.332,111.489
				C189.002,313,124.691,265,124.691,265S193.594,361.955,256,295.407C318.406,361.955,387.309,265,387.309,265
				S322.999,313,340.332,211.308z"/>
			<path id="_x33__36_" fill="#656D78" d="M354.064,298.856C374.123,283.553,387.309,265,387.309,265s-43.703,32.609-49.34-12.918
				C335.018,285.08,343.406,296.573,354.064,298.856z"/>
			<path id="_x32__39_" fill="#656D78" d="M157.936,298.856c10.658-2.283,19.047-13.776,16.095-46.774
				C168.395,297.609,124.691,265,124.691,265S137.877,283.553,157.936,298.856z"/>
			<path id="_x31__46_" fill="#656D78" d="M256,122.818c32.215,0,80.891,13.904,86.32,72.838
				c6.387-78.43-50.273-95.838-86.32-95.838s-92.707,17.408-86.32,95.838C175.109,136.723,223.785,122.818,256,122.818z"/>
		</g>
		<g id="clothes_22_">
			<path id="_x36__21_" fill="#434A54" d="M372.668,368.789c-7.354-6.355-19.365-14.563-30.666-15.666
				c-7.258-0.709-86.002-23-86.002-23s-78.744,22.291-86.002,23c-11.302,1.104-23.313,9.311-30.666,15.666
				c-13.235,11.439-10.854,25.453-14.641,38.188c35.133,30.605,81.055,49.145,131.309,49.145s96.176-18.539,131.309-49.145
				C383.522,394.242,385.902,380.229,372.668,368.789z"/>
			<path id="_x35__22_" fill="#656D78" d="M228.002,322.621c0,0-45.336,6.252-35.502,45.584
				c9.834,39.334,11.168,53.291,11.168,53.291s15.334-19.354,19.334-13.688c4,5.668-9.252,21.656-9.252,21.656l23.621,24.801
				L239,416.871l-8.631-80.566L228.002,322.621z"/>
			<path id="_x34__27_" fill="#656D78" d="M283.999,322.621c0,0,45.335,6.252,35.501,45.584
				c-9.834,39.334-11.166,53.291-11.166,53.291s-15.335-19.354-19.335-13.688c-4,5.668,9.251,21.656,9.251,21.656l-23.621,24.801
				L273,416.871l8.631-80.566L283.999,322.621z"/>
			<path id="_x33__35_" fill="#AB7049" d="M256,253l-42.25-5.5l16.307,88.734c0,0,3.666,30.766,25.943,30.766
				s25.943-30.766,25.943-30.766L298.25,247.5L256,253z"/>
			<path id="_x32__38_" fill="#8C5C3C" d="M290,262.5l-69.525,21.592l7.086,38.556c10.66,13.146,26.918,25.187,50.957,26.265
				c2.709-6.691,3.426-12.678,3.426-12.678l12.127-65.99C291.686,265.447,290,262.5,290,262.5z"/>
			<path id="_x31__45_" fill="#EC87C0" d="M284.665,342.455c0,0,3.084-4.176,2.667-13.332c-0.373-8.195-25.957-6.529-31.332-6.088
				c-5.375-0.441-30.959-2.107-31.332,6.088c-0.416,9.156,2.668,13.332,2.668,13.332l4.807,9.376l6.857,65.04l-1.378,38.414
				c6.052,0.552,12.182,0.836,18.378,0.836c6.221,0,12.375-0.285,18.451-0.842L273,416.871l7.344-65.986L284.665,342.455z"/>
		</g>
		<g id="face_88_">
			<path id="face_56_" fill="#BA7A50" d="M256,154h-63c0,0,4.785,94.465,11,114c7,22.001,14.237,27.287,30.226,41
				C247.634,320.5,256,319,256,319s8.366,1.5,21.774-10C293.763,295.287,302,290.001,309,268c6.215-19.535,10-114,10-114H256z"/>
			<path id="ear_82_" fill="#AB7049" d="M197.75,214.5c0,0-22.743-10.911-17.273,16.638c5.468,27.55,22.018,23.583,22.018,23.583
				L197.75,214.5z"/>
			<path id="ear_77_" fill="#AB7049" d="M315.25,214.5c0,0,22.743-10.911,17.273,16.638c-5.468,27.55-22.018,23.583-22.018,23.583
				L315.25,214.5z"/>
		</g>
		<g id="glasses_9_">
			<path id="_x37__15_" fill="#434A54" d="M319,215.621l-0.902-3.254l-13.228,7.67c-0.433-1.741-1.995-3.037-3.87-3.037h-34
				c-2.209,0-4,1.791-4,4v4c-4.666,0-9.334,0-14,0v-4c0-2.209-1.791-4-4-4h-34c-1.875,0-3.438,1.296-3.87,3.037l-13.228-7.67
				L193,215.621l14,15.273V238c0,2.209,1.791,4,4,4h34c2.209,0,4-1.791,4-4v-10c2.654,0,9.959,0,14,0v10c0,2.209,1.791,4,4,4h34
				c2.209,0,4-1.791,4-4v-7.105L319,215.621z"/>
			<path id="_x36__20_" fill="#F5F7FA" d="M246,238c0,0.553-0.447,1-1,1h-34c-0.553,0-1-0.447-1-1v-17c0-0.553,0.447-1,1-1h34
				c0.553,0,1,0.447,1,1V238z"/>
			<polygon id="_x35__21_" fill="#E6E9ED" points="218.5,239 212.5,239 217.5,220 223.5,220 			"/>
			<polygon id="_x34__26_" fill="#E6E9ED" points="227.5,239 221.5,239 226.5,220 232.5,220 			"/>
			<path id="_x33__34_" fill="#F5F7FA" d="M302,238c0,0.553-0.447,1-1,1h-34c-0.553,0-1-0.447-1-1v-17c0-0.553,0.447-1,1-1h34
				c0.553,0,1,0.447,1,1V238z"/>
			<polygon id="_x32__36_" fill="#E6E9ED" points="274.5,239 268.5,239 273.5,220 279.5,220 			"/>
			<polygon id="_x31__43_" fill="#E6E9ED" points="283.5,239 277.5,239 282.5,220 288.5,220 			"/>
		</g>
		<g id="hair_front_5_">
			<path fill="#434A54" d="M256,123c-99,0-59.834,92.066-59.834,92.066C213.998,148.799,256,160.667,256,160.667
				s42.002-11.868,59.834,54.399C315.834,215.066,355,123,256,123z"/>
			<path id="_x32__37_" fill="#EC87C0" d="M256,140.242c-39.332,0-57.428,18.941-63.5,73.592l3.999,1.278
				c0,0,11.022-41.53,59.501-42.099c48.479,0.568,59.502,42.099,59.502,42.099l3.998-1.278
				C313.428,159.184,295.334,140.242,256,140.242z"/>
			<path id="_x31__44_" fill="#FF92CF" d="M256,146.242c37.912,0,56.088,17.61,62.789,67.818l0.711-0.227
				c-6.072-54.65-24.166-73.592-63.5-73.592c-39.332,0-57.428,18.941-63.5,73.592l0.711,0.227
				C199.912,163.853,218.088,146.242,256,146.242z"/>
		</g>
	</g>
	<g id="avatar4_1_">
		<g id="back_19_">
		</g>
		<g id="hair_back_4_">
		</g>
		<g id="clothes_21_">
		</g>
		<g id="face_87_">
		</g>
		<g id="earing_1_">
		</g>
		<g id="hair_front_4_">
		</g>
	</g>
	<g id="avatar3_1_">
		<g id="back_18_">
		</g>
		<g id="hair_back_3_">
		</g>
		<g id="clothes_20_">
		</g>
		<g id="face_86_">
		</g>
		<g id="earings">
		</g>
		<g id="glasses_8_">
		</g>
		<g id="hair_front_3_">
		</g>
	</g>
	<g id="avatar2_1_">
		<g id="Layebackr_167">
		</g>
		<g id="hair_back_2_">
		</g>
		<g id="clothes_19_">
		</g>
		<g id="necklace">
		</g>
		<g id="face_85_">
		</g>
		<g id="hair_front_2_">
		</g>
	</g>
	<g id="avatar1_1_">
		<g id="back_17_">
		</g>
		<g id="hair_back_1_">
		</g>
		<g id="clothes_18_">
		</g>
		<g id="face_84_">
		</g>
		<g id="hair_front_1_">
		</g>
	</g>
</g>
<g id="male" display="none">
	<g id="avatar20" display="inline">
		<g id="back_32_">
		</g>
		<g id="clothes_34_">
		</g>
		<g id="face_100_">
		</g>
		<g id="hair_22_">
		</g>
	</g>
	<g id="avatar19" display="inline">
		<g id="back_31_">
		</g>
		<g id="clothes_33_">
		</g>
		<g id="face_99_">
		</g>
		<g id="scaft">
		</g>
		<g id="hat">
		</g>
	</g>
	<g id="avatar18" display="inline">
		<g id="back_30_">
		</g>
		<g id="clothes_32_">
		</g>
		<g id="face_55_">
		</g>
		<g id="earings_2_">
		</g>
		<g id="hair_21_">
		</g>
	</g>
	<g id="avatar17" display="inline">
		<g id="back_29_">
		</g>
		<g id="hair_back_10_">
		</g>
		<g id="clothes_31_">
		</g>
		<g id="face_2_">
		</g>
		<g id="glasses_10_">
		</g>
		<g id="hair_front_10_">
		</g>
	</g>
	<g id="avatar16" display="inline">
		<g id="back_28_">
		</g>
		<g id="hair_back_9_">
		</g>
		<g id="clothes_1_">
		</g>
		<g id="face_1_">
		</g>
		<g id="hair_front_9_">
		</g>
	</g>
	<g id="avatar15" display="inline">
		<g id="back_5_">
		</g>
		<g id="clothes_6_">
		</g>
		<g id="face_29_">
		</g>
		<g id="glasses_4_">
		</g>
		<g id="hair_8_">
		</g>
	</g>
	<g id="avatar14" display="inline">
		<g id="back_6_">
		</g>
		<g id="clothes_7_">
		</g>
		<g id="face_42_">
		</g>
		<g id="earings_3_">
		</g>
		<g id="hair_9_">
		</g>
	</g>
	<g id="avatar13" display="inline">
		<g id="back_7_">
		</g>
		<g id="clothes_8_">
		</g>
		<g id="face_43_">
		</g>
		<g id="glasses_5_">
		</g>
		<g id="hair_10_">
		</g>
	</g>
	<g id="avatar12" display="inline">
		<g id="back_8_">
		</g>
		<g id="clothes_9_">
		</g>
		<g id="face_44_">
		</g>
		<g id="beard_6_">
		</g>
		<g id="hair_11_">
		</g>
	</g>
	<g id="avatar11" display="inline">
		<g id="back_9_">
		</g>
		<g id="clothes_10_">
		</g>
		<g id="face_45_">
		</g>
		<g id="glass">
		</g>
		<g id="hair_12_">
		</g>
	</g>
	<g id="avatar10" display="inline">
		<g id="back_10_">
		</g>
		<g id="clothes_11_">
		</g>
		<g id="face_46_">
		</g>
		<g id="beard_7_">
		</g>
		<g id="glasses_6_">
		</g>
		<g id="hair_13_">
		</g>
	</g>
	<g id="avatar9" display="inline">
		<g id="back_11_">
		</g>
		<g id="clothes_12_">
		</g>
		<g id="face_47_">
		</g>
		<g id="glasses_3_">
		</g>
		<g id="hair_7_">
		</g>
	</g>
	<g id="avatar8" display="inline">
		<g id="back_12_">
		</g>
		<g id="clothes_13_">
		</g>
		<g id="face_48_">
		</g>
		<g id="beard_5_">
		</g>
		<g id="glasses_7_">
		</g>
		<g id="hair_6_">
		</g>
	</g>
	<g id="avatar7" display="inline">
		<g id="back_4_">
		</g>
		<g id="clothes_14_">
		</g>
		<g id="face_11_">
		</g>
		<g id="hair_14_">
		</g>
	</g>
	<g id="avatar6" display="inline">
		<g id="back_13_">
		</g>
		<g id="clothes_15_">
		</g>
		<g id="face_16_">
		</g>
		<g id="glasses_2_">
		</g>
		<g id="beard_4_">
		</g>
		<g id="hair_5_">
		</g>
	</g>
	<g id="avatar5" display="inline">
		<g id="back_14_">
		</g>
		<g id="clothes_5_">
		</g>
		<g id="face_38_">
		</g>
		<g id="beard_3_">
		</g>
		<g id="hair_4_">
		</g>
	</g>
	<g id="avatar4" display="inline">
		<g id="back_3_">
		</g>
		<g id="clothes_4_">
		</g>
		<g id="face_13_">
		</g>
		<g id="beard_2_">
		</g>
		<g id="glasses_1_">
		</g>
		<g id="hair_3_">
		</g>
	</g>
	<g id="avatar3" display="inline">
		<g id="back_15_">
		</g>
		<g id="clothes_16_">
		</g>
		<g id="face_49_">
		</g>
		<g id="hair_15_">
		</g>
	</g>
	<g id="avatar2" display="inline">
		<g id="back_2_">
		</g>
		<g id="clothes_3_">
		</g>
		<g id="face_9_">
		</g>
		<g id="beard_1_">
		</g>
		<g id="hair_2_">
		</g>
	</g>
	<g id="avatar1" display="inline">
		<g id="back_1_">
		</g>
		<g id="clothes_2_">
		</g>
		<g id="face_6_">
		</g>
		<g id="hair_1_">
		</g>
	</g>
</g>
</svg>
