<?xml version="1.0" encoding="iso-8859-1"?>
<!-- Generator: Adobe Illustrator 16.0.3, SVG Export Plug-In . SVG Version: 6.00 Build 0)  -->
<!DOCTYPE svg PUBLIC "-//W3C//DTD SVG 1.1 Basic//EN" "http://www.w3.org/Graphics/SVG/1.1/DTD/svg11-basic.dtd">
<svg version="1.1" baseProfile="basic" xmlns="http://www.w3.org/2000/svg" xmlns:xlink="http://www.w3.org/1999/xlink" x="0px"
	 y="0px" width="512px" height="512px" viewBox="0 0 512 512" xml:space="preserve">
<g id="Layer_159" display="none">
	<rect display="inline" fill="#FFFFFF" width="512" height="512"/>
	<rect x="-512" display="inline" fill="#FFFFFF" width="512" height="512"/>
	<rect x="512" display="inline" fill="#FFFFFF" width="512" height="512"/>
	<rect x="-512" y="512" display="inline" fill="#FFFFFF" width="512" height="512"/>
	<rect y="512" display="inline" fill="#FFFFFF" width="512" height="512"/>
	<rect x="512" y="512" display="inline" fill="#FFFFFF" width="512" height="512"/>
	<rect x="512" y="-511" display="inline" fill="#FFFFFF" width="512" height="512"/>
	<rect x="-512" y="-511" display="inline" fill="#FFFFFF" width="512" height="512"/>
	<rect y="-511" display="inline" fill="#FFFFFF" width="512" height="512"/>
</g>
<g id="female">
	<g id="avatar15_1_">
		<g id="baclk">
		</g>
		<g id="hair_back_8_">
		</g>
		<g id="clothes_30_">
		</g>
		<g id="face_98_">
		</g>
		<g id="hair_front_8_">
		</g>
	</g>
	<g id="avatar14_1_">
		<g id="back_16_">
		</g>
		<g id="hair_back">
		</g>
		<g id="clothes_17_">
		</g>
		<g id="face_57_">
		</g>
		<g id="hair_front">
		</g>
	</g>
	<g id="avatar13_1_">
		<g id="back_x27_">
		</g>
		<g id="clothes">
		</g>
		<g id="face">
		</g>
		<g id="hair">
		</g>
	</g>
	<g id="avatar12_1_">
		<g id="back_27_">
		</g>
		<g id="clothes_29_">
		</g>
		<g id="face_97_">
		</g>
		<g id="hair_20_">
		</g>
	</g>
	<g id="avatar11_1_">
		<g id="back_26_">
		</g>
		<g id="clothes_28_">
		</g>
		<g id="face_95_">
		</g>
		<g id="hair_19_">
		</g>
	</g>
	<g id="avatar10_1_">
		<g id="back_25_">
		</g>
		<g id="clothes_27_">
		</g>
		<g id="face_94_">
		</g>
		<g id="glasses_11_">
		</g>
		<g id="hair_18_">
		</g>
	</g>
	<g id="avatar9_1_">
		<g id="back_24_">
		</g>
		<g id="clothes_26_">
		</g>
		<g id="face_92_">
		</g>
		<g id="hair_17_">
		</g>
	</g>
	<g id="avatar8_1_">
		<g id="back_23_">
		</g>
		<g id="hair_back_7_">
		</g>
		<g id="clothes_25_">
		</g>
		<g id="face_91_">
		</g>
		<g id="hair_front_7_">
		</g>
	</g>
	<g id="avatar7_1_">
		<g id="back_22_">
		</g>
		<g id="clothes_24_">
		</g>
		<g id="face_90_">
		</g>
		<g id="necklace_1_">
		</g>
		<g id="earings_1_">
		</g>
		<g id="hair_16_">
		</g>
	</g>
	<g id="avatar6_1_">
		<g id="back_21_">
		</g>
		<g id="hair_back_6_">
		</g>
		<g id="clothes_23_">
		</g>
		<g id="face_89_">
		</g>
		<g id="glasses_12_">
		</g>
		<g id="hair_front_6_">
		</g>
	</g>
	<g id="avatar5_1_">
		<g id="back_20_">
		</g>
		<g id="hair_back_5_">
		</g>
		<g id="clothes_22_">
		</g>
		<g id="face_88_">
		</g>
		<g id="glasses_9_">
		</g>
		<g id="hair_front_5_">
		</g>
	</g>
	<g id="avatar4_1_">
		<g id="back_19_">
			<circle fill="#E9573F" cx="256" cy="256" r="200"/>
		</g>
		<g id="hair_back_4_">
			<path id="_x32__35_" fill="#2D3138" d="M320.373,230.492L246,265.065L240.667,240L180,252.692c0,0,7.141,82.181,23.123,102.286
				c6.475,8.145,11.456,12.045,15.16,13.782l-7.949,29.739c0,0,57.666,76.5,97.666-4.5S320.373,230.492,320.373,230.492z"/>
			<path id="_x31__42_" fill="#434A54" d="M305.506,233.667c0,0,25.16,124.666-9.173,160.333s-21.666,14.667-21.666,14.667
				l14.403-173.333L305.506,233.667z"/>
		</g>
		<g id="clothes_21_">
			<path id="_x31_0_4_" fill="#37BC9B" d="M372.668,368.838c-7.354-6.355-19.364-14.563-30.666-15.666
				c-2.679-0.262-15.099-3.465-29.701-7.4c-0.705-0.191-1.414-0.383-2.129-0.576c-0.018-0.004-0.033-0.008-0.051-0.014
				c-0.878-0.236-1.762-0.477-2.652-0.719c-8.923-2.422-18.324-5.02-26.62-7.326c-0.182-0.051-0.362-0.102-0.542-0.15
				c-0.467-0.131-0.93-0.26-1.389-0.387c-0.219-0.061-0.436-0.121-0.652-0.182c-0.408-0.113-0.811-0.227-1.211-0.338
				c-0.237-0.066-0.475-0.133-0.709-0.197c-0.354-0.1-0.7-0.195-1.047-0.293c-0.697-0.193-1.381-0.385-2.053-0.572
				c-0.121-0.035-0.246-0.07-0.367-0.104c-0.223-0.063-0.439-0.123-0.66-0.184c-0.387-0.109-0.77-0.217-1.146-0.322
				c-5.435-1.52-9.816-2.754-12.426-3.49c-0.016-0.004-0.029-0.008-0.045-0.012c-0.41-0.115-0.766-0.217-1.084-0.307
				c-0.105-0.029-0.205-0.057-0.301-0.084c-0.314-0.09-0.555-0.156-0.75-0.213c-0.297-0.084-0.467-0.131-0.467-0.131
				s-0.221,0.063-0.602,0.17c-0.032,0.008-0.055,0.016-0.09,0.025c-0.078,0.021-0.164,0.047-0.256,0.072
				c-0.09,0.025-0.173,0.049-0.275,0.078c-0.135,0.037-0.28,0.078-0.436,0.123c-0.244,0.068-0.516,0.145-0.811,0.229
				c-0.129,0.035-0.266,0.074-0.404,0.113c-0.066,0.02-0.131,0.037-0.199,0.057c-0.414,0.117-0.859,0.242-1.346,0.379
				c-0.113,0.031-0.232,0.066-0.352,0.1c-0.009,0.002-0.018,0.004-0.027,0.008c-0.341,0.096-0.699,0.195-1.071,0.301
				c-0.142,0.039-0.278,0.078-0.423,0.119s-0.293,0.082-0.441,0.123c-0.043,0.014-0.088,0.025-0.133,0.037
				c-0.031,0.01-0.063,0.02-0.095,0.027c-0.29,0.082-0.589,0.166-0.894,0.252c-0.014,0.004-0.029,0.008-0.043,0.012
				c-0.045,0.014-0.09,0.025-0.136,0.039c-0.106,0.029-0.208,0.057-0.315,0.088c-0.176,0.049-0.358,0.102-0.539,0.152
				c-0.98,0.275-2.027,0.568-3.134,0.879c-0.163,0.045-0.321,0.09-0.487,0.137c-0.379,0.105-0.771,0.215-1.163,0.324
				c-0.079,0.023-0.157,0.045-0.236,0.066c-0.388,0.109-0.78,0.219-1.179,0.33c-0.228,0.064-0.458,0.129-0.689,0.193
				c-0.338,0.094-0.676,0.189-1.021,0.285c-0.193,0.055-0.394,0.111-0.59,0.166c-0.583,0.162-1.174,0.328-1.775,0.496
				c-0.381,0.105-0.762,0.213-1.15,0.32c-0.219,0.061-0.44,0.123-0.66,0.184c-0.414,0.115-0.828,0.232-1.248,0.348
				c-0.275,0.078-0.551,0.154-0.828,0.232c-0.393,0.109-0.789,0.219-1.188,0.33c-0.284,0.078-0.567,0.158-0.855,0.238
				c-0.272,0.076-0.55,0.152-0.825,0.229c-0.137,0.039-0.274,0.076-0.412,0.115c-0.037,0.01-0.073,0.02-0.109,0.029
				c-0.249,0.07-0.494,0.139-0.746,0.207c-0.321,0.09-0.648,0.182-0.974,0.271c-0.044,0.012-0.088,0.023-0.132,0.037
				c-0.271,0.074-0.541,0.148-0.813,0.225c-0.211,0.059-0.424,0.117-0.637,0.176c-0.529,0.148-1.062,0.295-1.598,0.443
				c-0.221,0.061-0.442,0.123-0.664,0.184c-0.469,0.131-0.938,0.26-1.41,0.391c-0.275,0.076-0.551,0.152-0.828,0.229
				c-0.539,0.15-1.082,0.299-1.625,0.449c-0.241,0.066-0.482,0.133-0.725,0.199c-0.125,0.035-0.25,0.07-0.376,0.104
				c-0.026,0.008-0.053,0.016-0.079,0.023c-0.475,0.131-0.951,0.262-1.428,0.393c-0.322,0.088-0.646,0.178-0.969,0.266
				c-0.428,0.119-0.857,0.236-1.285,0.354c-0.311,0.086-0.621,0.172-0.933,0.258c-0.438,0.119-0.876,0.24-1.313,0.359
				c-0.293,0.08-0.583,0.16-0.874,0.24c-0.651,0.178-1.302,0.355-1.95,0.533c-0.074,0.02-0.146,0.041-0.221,0.061
				c-0.729,0.199-1.458,0.398-2.186,0.596c-0.243,0.066-0.485,0.133-0.729,0.199c-0.479,0.131-0.957,0.262-1.434,0.391
				c-0.035,0.01-0.068,0.018-0.104,0.027c-0.274,0.076-0.549,0.15-0.822,0.225c-0.416,0.113-0.831,0.225-1.245,0.338
				c-0.31,0.084-0.618,0.168-0.927,0.25c-0.51,0.139-1.016,0.275-1.521,0.412c-15.167,4.096-28.259,7.486-31.019,7.756
				c-11.302,1.104-23.313,9.311-30.666,15.666c-13.235,11.439-10.854,25.453-14.641,38.188
				C159.824,437.631,205.746,456.17,256,456.17s96.176-18.539,131.309-49.145C383.522,394.291,385.903,380.277,372.668,368.838z"/>
			<path id="_x39__7_" fill="#37BC9B" d="M230.057,335.404l-3.025-16.465c-4.22-1.055-22.44-4.68-23.03,11.232
				C203.334,348.17,256,389.17,256,389.17l-10.289-25.637C232.531,356.092,230.057,335.404,230.057,335.404z"/>
			<path id="_x38__9_" fill="#37BC9B" d="M281.943,335.404l3.025-16.465c4.22-1.055,22.44-4.68,23.03,11.232
				C308.666,348.17,256,389.17,256,389.17l10.289-25.637C279.469,356.092,281.943,335.404,281.943,335.404z"/>
			<path id="_x37__14_" fill="#F9E0A8" d="M256,252.17l-42.25-5.5l16.307,88.734c0,0,3.666,30.766,25.943,30.766
				s25.943-30.766,25.943-30.766l16.307-88.734L256,252.17z"/>
			<path id="_x36__19_" fill="#D9C392" d="M290,261.67l-69.525,21.592l7.086,38.557c10.66,13.145,26.918,25.186,50.957,26.264
				c2.709-6.691,3.426-12.678,3.426-12.678l12.127-65.99C291.686,264.617,290,261.67,290,261.67z"/>
			<path id="_x35__20_" fill="#48CFAD" d="M349,337.17c-5.5-18.5-27.955-10.777-27.955-10.777
				c-10.543-22.4-33.758-11.484-35.492-10.631l-0.584,3.178c4.22-1.055,22.44-4.68,23.03,11.232
				C308.666,348.17,256,389.17,256,389.17l0,0c0,0-52.666-41-51.999-58.998c0.59-15.912,18.811-12.287,23.03-11.232l-0.584-3.178
				c-1.734-0.854-24.949-11.77-35.492,10.631c0,0-22.455-7.723-27.955,10.777c0,0-17-2.745-17.5,11.343S255.945,396,255.945,396
				h0.109c0,0,110.945-33.399,110.445-47.487S349,337.17,349,337.17z"/>
			<circle id="_x34__25_" fill="#434A54" cx="241.375" cy="386.545" r="3"/>
			<circle id="_x33__33_" fill="#434A54" cx="272.625" cy="386.545" r="3"/>
			<path id="_x32__34_" fill="#E6E9ED" d="M240,388c0,0,0,66,0,89c0,2,3,2,3,0c0-23,0-66,0-89C243,386,240,386,240,388
				C240,388,240,386,240,388z"/>
			<path id="_x31__41_" fill="#E6E9ED" d="M274,388c0,0,0,66,0,89c0,2-3,2-3,0c0-23,0-66,0-89C271,386,274,386,274,388
				C274,388,274,386,274,388z"/>
		</g>
		<g id="face_87_">
			<path id="face_54_" fill="#FFE9BA" d="M256,154h-63c0,0,4.785,94.465,11,114c7,22.001,14.237,27.287,30.226,41
				C247.634,320.5,256,319,256,319s8.366,1.5,21.774-10C293.763,295.287,302,290.001,309,268c6.215-19.535,10-114,10-114H256z"/>
			<path id="ear_78_" fill="#F9E0A8" d="M197.75,214.5c0,0-22.743-10.911-17.273,16.638c5.468,27.55,22.018,23.583,22.018,23.583
				L197.75,214.5z"/>
			<path id="ear_73_" fill="#F9E0A8" d="M315.25,214.5c0,0,22.743-10.911,17.273,16.638c-5.468,27.55-22.018,23.583-22.018,23.583
				L315.25,214.5z"/>
		</g>
		<g id="earing_1_">
			<path id="_x32__31_" fill="#F5F7FA" d="M315,250c0,10.334,0,20.666,0,31c0,3.869,6,3.869,6,0c0-10.334,0-20.666,0-31
				C321,246.131,315,246.131,315,250L315,250z"/>
		</g>
		<g id="hair_front_4_">
			<path id="_x37__13_" fill="#656D78" d="M203.994,217.666c0,0-9.995,31.667,5.339,71.667s0,73.667,0,73.667l-28-101.5l8.334-52.5
				L203.994,217.666z"/>
			<path id="_x36__18_" fill="#434A54" d="M176.844,215.841c0,0-13,38.413,4.823,69.159s6.666,68.33,6.666,68.33
				S208,328.333,193,278.333s-1.939-57.101-1.939-57.101S184.354,204.682,176.844,215.841z"/>
			<path id="_x35__19_" fill="#434A54" d="M298.125,225.279c0,0-3.84,11.222,3.645,12.055c0,0,4.578,18.903,11.363,17.509
				c6.787-1.395,12.617-40.593,12.617-40.593L298.125,225.279z"/>
			<path id="_x34__24_" fill="#37BC9B" d="M325.417,178.858c1.544-12.231,6.352-56.463-3.478-65.84
				c-9.325-8.896-30.983-16.352-64.461-16.352s-55.136,7.456-64.461,16.352c-9.829,9.377-5.021,53.608-3.478,65.84L187,182h2.957
				H325h2.957L325.417,178.858z"/>
			<path id="_x33__32_" fill="#F5F7FA" d="M194.348,180c-3.786-30.812-2.932-55.543,2.121-60.363
				c3.682-3.512,18.961-14.97,61.01-14.97s57.328,11.458,61.01,14.97c5.053,4.82,5.907,29.552,2.121,60.363H194.348z"/>
			<path id="_x32__33_" fill="#48CFAD" d="M342.024,200.724L324.46,178H257h-67.46l-17.564,22.724
				c-21.067,34.146,77.437,30.311,85.024,29.966C264.588,231.034,363.092,234.869,342.024,200.724z"/>
			<path id="_x31__40_" fill="#37BC9B" d="M257,223.689c-6.524,0.297-80.266,3.173-87.414-17.734
				c-8.219,28.501,80.238,25.061,87.414,24.734c7.176,0.326,95.633,3.767,87.414-24.734
				C337.266,226.862,263.524,223.986,257,223.689z"/>
		</g>
	</g>
	<g id="avatar3_1_">
		<g id="back_18_">
		</g>
		<g id="hair_back_3_">
		</g>
		<g id="clothes_20_">
		</g>
		<g id="face_86_">
		</g>
		<g id="earings">
		</g>
		<g id="glasses_8_">
		</g>
		<g id="hair_front_3_">
		</g>
	</g>
	<g id="avatar2_1_">
		<g id="Layebackr_167">
		</g>
		<g id="hair_back_2_">
		</g>
		<g id="clothes_19_">
		</g>
		<g id="necklace">
		</g>
		<g id="face_85_">
		</g>
		<g id="hair_front_2_">
		</g>
	</g>
	<g id="avatar1_1_">
		<g id="back_17_">
		</g>
		<g id="hair_back_1_">
		</g>
		<g id="clothes_18_">
		</g>
		<g id="face_84_">
		</g>
		<g id="hair_front_1_">
		</g>
	</g>
</g>
<g id="male" display="none">
	<g id="avatar20" display="inline">
		<g id="back_32_">
		</g>
		<g id="clothes_34_">
		</g>
		<g id="face_100_">
		</g>
		<g id="hair_22_">
		</g>
	</g>
	<g id="avatar19" display="inline">
		<g id="back_31_">
		</g>
		<g id="clothes_33_">
		</g>
		<g id="face_99_">
		</g>
		<g id="scaft">
		</g>
		<g id="hat">
		</g>
	</g>
	<g id="avatar18" display="inline">
		<g id="back_30_">
		</g>
		<g id="clothes_32_">
		</g>
		<g id="face_55_">
		</g>
		<g id="earings_2_">
		</g>
		<g id="hair_21_">
		</g>
	</g>
	<g id="avatar17" display="inline">
		<g id="back_29_">
		</g>
		<g id="hair_back_10_">
		</g>
		<g id="clothes_31_">
		</g>
		<g id="face_2_">
		</g>
		<g id="glasses_10_">
		</g>
		<g id="hair_front_10_">
		</g>
	</g>
	<g id="avatar16" display="inline">
		<g id="back_28_">
		</g>
		<g id="hair_back_9_">
		</g>
		<g id="clothes_1_">
		</g>
		<g id="face_1_">
		</g>
		<g id="hair_front_9_">
		</g>
	</g>
	<g id="avatar15" display="inline">
		<g id="back_5_">
		</g>
		<g id="clothes_6_">
		</g>
		<g id="face_29_">
		</g>
		<g id="glasses_4_">
		</g>
		<g id="hair_8_">
		</g>
	</g>
	<g id="avatar14" display="inline">
		<g id="back_6_">
		</g>
		<g id="clothes_7_">
		</g>
		<g id="face_42_">
		</g>
		<g id="earings_3_">
		</g>
		<g id="hair_9_">
		</g>
	</g>
	<g id="avatar13" display="inline">
		<g id="back_7_">
		</g>
		<g id="clothes_8_">
		</g>
		<g id="face_43_">
		</g>
		<g id="glasses_5_">
		</g>
		<g id="hair_10_">
		</g>
	</g>
	<g id="avatar12" display="inline">
		<g id="back_8_">
		</g>
		<g id="clothes_9_">
		</g>
		<g id="face_44_">
		</g>
		<g id="beard_6_">
		</g>
		<g id="hair_11_">
		</g>
	</g>
	<g id="avatar11" display="inline">
		<g id="back_9_">
		</g>
		<g id="clothes_10_">
		</g>
		<g id="face_45_">
		</g>
		<g id="glass">
		</g>
		<g id="hair_12_">
		</g>
	</g>
	<g id="avatar10" display="inline">
		<g id="back_10_">
		</g>
		<g id="clothes_11_">
		</g>
		<g id="face_46_">
		</g>
		<g id="beard_7_">
		</g>
		<g id="glasses_6_">
		</g>
		<g id="hair_13_">
		</g>
	</g>
	<g id="avatar9" display="inline">
		<g id="back_11_">
		</g>
		<g id="clothes_12_">
		</g>
		<g id="face_47_">
		</g>
		<g id="glasses_3_">
		</g>
		<g id="hair_7_">
		</g>
	</g>
	<g id="avatar8" display="inline">
		<g id="back_12_">
		</g>
		<g id="clothes_13_">
		</g>
		<g id="face_48_">
		</g>
		<g id="beard_5_">
		</g>
		<g id="glasses_7_">
		</g>
		<g id="hair_6_">
		</g>
	</g>
	<g id="avatar7" display="inline">
		<g id="back_4_">
		</g>
		<g id="clothes_14_">
		</g>
		<g id="face_11_">
		</g>
		<g id="hair_14_">
		</g>
	</g>
	<g id="avatar6" display="inline">
		<g id="back_13_">
		</g>
		<g id="clothes_15_">
		</g>
		<g id="face_16_">
		</g>
		<g id="glasses_2_">
		</g>
		<g id="beard_4_">
		</g>
		<g id="hair_5_">
		</g>
	</g>
	<g id="avatar5" display="inline">
		<g id="back_14_">
		</g>
		<g id="clothes_5_">
		</g>
		<g id="face_38_">
		</g>
		<g id="beard_3_">
		</g>
		<g id="hair_4_">
		</g>
	</g>
	<g id="avatar4" display="inline">
		<g id="back_3_">
		</g>
		<g id="clothes_4_">
		</g>
		<g id="face_13_">
		</g>
		<g id="beard_2_">
		</g>
		<g id="glasses_1_">
		</g>
		<g id="hair_3_">
		</g>
	</g>
	<g id="avatar3" display="inline">
		<g id="back_15_">
		</g>
		<g id="clothes_16_">
		</g>
		<g id="face_49_">
		</g>
		<g id="hair_15_">
		</g>
	</g>
	<g id="avatar2" display="inline">
		<g id="back_2_">
		</g>
		<g id="clothes_3_">
		</g>
		<g id="face_9_">
		</g>
		<g id="beard_1_">
		</g>
		<g id="hair_2_">
		</g>
	</g>
	<g id="avatar1" display="inline">
		<g id="back_1_">
		</g>
		<g id="clothes_2_">
		</g>
		<g id="face_6_">
		</g>
		<g id="hair_1_">
		</g>
	</g>
</g>
</svg>
