<?xml version="1.0" encoding="iso-8859-1"?>
<!-- Generator: Adobe Illustrator 16.0.3, SVG Export Plug-In . SVG Version: 6.00 Build 0)  -->
<!DOCTYPE svg PUBLIC "-//W3C//DTD SVG 1.1 Basic//EN" "http://www.w3.org/Graphics/SVG/1.1/DTD/svg11-basic.dtd">
<svg version="1.1" baseProfile="basic" xmlns="http://www.w3.org/2000/svg" xmlns:xlink="http://www.w3.org/1999/xlink" x="0px"
	 y="0px" width="512px" height="512px" viewBox="0 0 512 512" xml:space="preserve">
<g id="Layer_159" display="none">
	<rect x="512" y="-512" display="inline" fill="#FFFFFF" width="512" height="512"/>
	<rect y="-512" display="inline" fill="#FFFFFF" width="512" height="512"/>
	<rect display="inline" fill="#FFFFFF" width="512" height="512"/>
	<rect x="512" display="inline" fill="#FFFFFF" width="512" height="512"/>
	<rect y="512" display="inline" fill="#FFFFFF" width="512" height="512"/>
	<rect x="512" y="512" display="inline" fill="#FFFFFF" width="512" height="512"/>
</g>
<g id="female">
	<g id="avatar15_1_">
		<g id="baclk">
		</g>
		<g id="hair_back_8_">
		</g>
		<g id="clothes_30_">
		</g>
		<g id="face_98_">
		</g>
		<g id="hair_front_8_">
		</g>
	</g>
	<g id="avatar14_1_">
		<g id="back_16_">
		</g>
		<g id="hair_back">
		</g>
		<g id="clothes_17_">
		</g>
		<g id="face_57_">
		</g>
		<g id="hair_front">
		</g>
	</g>
	<g id="avatar13_1_">
		<g id="back_x27_">
		</g>
		<g id="clothes">
		</g>
		<g id="face">
		</g>
		<g id="hair">
		</g>
	</g>
	<g id="avatar12_1_">
		<g id="back_27_">
		</g>
		<g id="clothes_29_">
		</g>
		<g id="face_97_">
		</g>
		<g id="hair_20_">
		</g>
	</g>
	<g id="avatar11_1_">
		<g id="back_26_">
		</g>
		<g id="clothes_28_">
		</g>
		<g id="face_95_">
		</g>
		<g id="hair_19_">
		</g>
	</g>
	<g id="avatar10_1_">
		<g id="back_25_">
		</g>
		<g id="clothes_27_">
		</g>
		<g id="face_94_">
		</g>
		<g id="glasses_11_">
		</g>
		<g id="hair_18_">
		</g>
	</g>
	<g id="avatar9_1_">
		<g id="back_24_">
		</g>
		<g id="clothes_26_">
		</g>
		<g id="face_92_">
		</g>
		<g id="hair_17_">
		</g>
	</g>
	<g id="avatar8_1_">
		<g id="back_23_">
		</g>
		<g id="hair_back_7_">
		</g>
		<g id="clothes_25_">
		</g>
		<g id="face_91_">
		</g>
		<g id="hair_front_7_">
		</g>
	</g>
	<g id="avatar7_1_">
		<g id="back_22_">
		</g>
		<g id="clothes_24_">
		</g>
		<g id="face_90_">
		</g>
		<g id="necklace_1_">
		</g>
		<g id="earings_1_">
		</g>
		<g id="hair_16_">
		</g>
	</g>
	<g id="avatar6_1_">
		<g id="back_21_">
			<circle fill="#3DB093" cx="256" cy="256" r="200"/>
		</g>
		<g id="hair_back_6_">
			<path id="_x31__49_" fill="#F5F7FA" d="M364.5,206.451c-9.207,7.014-17.717,2.045-23.584-3.984
				c6.02-8.891,9.553-19.601,9.553-31.147c0-7.175-1.362-14.029-3.834-20.327c6.002-4.283,7.834-12.992,7.834-12.992
				c-4.89,3.834-8.795,4.992-11.811,4.877c-4.656-7.82-11.169-14.406-18.938-19.14c-8.692-23.943-31.641-41.049-58.588-41.049
				c-23.991,0-44.802,13.567-55.216,33.44c-17.267,2.261-32.036,12.43-40.568,26.748c-3.017,0.116-6.924-1.039-11.818-4.877
				c0,0,1.833,8.709,7.835,12.992c-2.473,6.297-3.835,13.151-3.835,20.327c0,11.548,3.521,22.269,9.54,31.161
				c-5.867,6.023-14.371,10.979-23.57,3.971c0,0,10.441,10.949,22.295,12.945c-1.076,3.195-1.662,6.615-1.662,10.173
				c0,17.635,14.296,31.931,31.931,31.931s31.931-14.296,31.931-31.931c0-1.522-0.113-3.019-0.32-4.483
				c9.291-2.498,17.625-7.328,24.326-13.838c6.266,6.088,13.955,10.718,22.523,13.334c-0.256,1.626-0.391,3.291-0.391,4.987
				c0,17.635,14.296,31.931,31.931,31.931s31.931-14.296,31.931-31.931c0-3.473-0.563-6.812-1.589-9.94
				C352.981,218.533,364.5,206.451,364.5,206.451z"/>
		</g>
		<g id="clothes_23_">
			<path id="_x38__10_" fill="#967ADC" d="M372.668,369.667c-7.354-6.355-19.364-14.562-30.666-15.666
				c-7.258-0.709-86.002-23-86.002-23s-78.744,22.291-86.002,23c-11.302,1.104-23.313,9.311-30.666,15.666
				c-13.235,11.44-10.854,25.454-14.641,38.188C159.824,438.461,205.746,457,256,457s96.176-18.539,131.309-49.146
				C383.522,395.121,385.902,381.107,372.668,369.667z"/>
			<path id="_x37__17_" fill="#F9E0A8" d="M278.371,333.909L256,335.753l-22.371-1.844l-9.154,11.759c0,0,3.525,53.666,8.191,64.666
				c3.079,7.259,13.56,10.888,20.334,12.517h6c6.774-1.629,17.255-5.258,20.334-12.517c4.666-11,8.191-64.666,8.191-64.666
				L278.371,333.909z"/>
			<path id="_x36__22_" fill="#F5F7FA" d="M278.807,421.334l8.666-35.333l-31,20.999l-31-20.999l8.666,35.333l3.705,34.81l0,0
				c6.134,0.567,12.348,0.856,18.629,0.856s12.495-0.289,18.629-0.856l0,0L278.807,421.334z"/>
			<path id="_x35__23_" fill="#F9E0A8" d="M256.473,253l-42.25-5.5l16.307,88.734c0,0,3.666,30.766,25.943,30.766
				s25.943-30.766,25.943-30.766l16.307-88.734L256.473,253z"/>
			<path id="_x34__29_" fill="#D9C392" d="M290.473,262.5l-69.525,21.592l7.086,38.556c10.66,13.146,26.918,25.187,50.957,26.265
				c2.709-6.691,3.426-12.678,3.426-12.678l12.127-65.99C292.158,265.447,290.473,262.5,290.473,262.5z"/>
			<path id="_x33__37_" fill="#F5F7FA" d="M283.854,345.646c-2.324,0-4.209,1.885-4.209,4.209c0,0.306,0.036,0.602,0.098,0.89
				c-0.287-0.063-0.584-0.099-0.889-0.099c-2.32,0-4.201,1.879-4.208,4.197c-1.731,0.521-3.001,2.11-3.001,4.012
				c0,0.074,0.018,0.144,0.021,0.217c-0.551-0.265-1.16-0.426-1.813-0.426c-2.324,0-4.209,1.885-4.209,4.209
				c0,0.074,0.018,0.144,0.021,0.217c-0.551-0.265-1.16-0.426-1.813-0.426c-1.407,0-2.646,0.697-3.41,1.758
				c-1.006-1.082-2.412-1.758-3.971-1.758s-2.965,0.676-3.971,1.758c-0.765-1.061-2.003-1.758-3.41-1.758
				c-0.652,0-1.262,0.161-1.813,0.426c0.004-0.073,0.021-0.143,0.021-0.217c0-2.324-1.885-4.209-4.209-4.209
				c-0.652,0-1.262,0.161-1.813,0.426c0.004-0.073,0.021-0.143,0.021-0.217c0-1.901-1.27-3.49-3.001-4.012
				c-0.007-2.318-1.888-4.197-4.208-4.197c-0.306,0-0.602,0.036-0.889,0.099c0.062-0.288,0.098-0.584,0.098-0.89
				c0-2.324-1.885-4.209-4.209-4.209s-4.209,1.885-4.209,4.209s1.885,4.209,4.209,4.209c0.306,0,0.602-0.036,0.889-0.099
				c-0.062,0.288-0.098,0.584-0.098,0.89c0,1.901,1.27,3.49,3.001,4.012c0.007,2.318,1.888,4.197,4.208,4.197
				c0.652,0,1.262-0.161,1.813-0.426c-0.004,0.073-0.021,0.143-0.021,0.217c0,2.324,1.885,4.209,4.209,4.209
				c0.652,0,1.262-0.161,1.813-0.426c-0.004,0.073-0.021,0.143-0.021,0.217c0,2.324,1.885,4.209,4.209,4.209
				c0.803,0,1.545-0.236,2.184-0.627c0.777,2.217,2.809,3.802,5.197,3.802s4.42-1.585,5.197-3.802
				c0.639,0.391,1.381,0.627,2.184,0.627c2.324,0,4.209-1.885,4.209-4.209c0-0.074-0.018-0.144-0.021-0.217
				c0.551,0.265,1.16,0.426,1.813,0.426c2.324,0,4.209-1.885,4.209-4.209c0-0.074-0.018-0.144-0.021-0.217
				c0.551,0.265,1.16,0.426,1.813,0.426c2.32,0,4.201-1.879,4.208-4.197c1.731-0.521,3.001-2.11,3.001-4.012
				c0-0.306-0.036-0.602-0.098-0.89c0.287,0.063,0.583,0.099,0.889,0.099c2.324,0,4.209-1.885,4.209-4.209
				S286.178,345.646,283.854,345.646z"/>
			<path id="_x32__40_" fill="#AC92EC" d="M228.002,324.5c0,0-45.336,6.251-35.502,45.584s11.167,53.291,11.167,53.291
				s15.335-19.354,19.335-13.688s-9.252,21.656-9.252,21.656l23.621,24.8L239,418.75l-8.631-80.566L228.002,324.5z"/>
			<path id="_x31__48_" fill="#AC92EC" d="M283.999,324.5c0,0,45.335,6.251,35.501,45.584s-11.167,53.291-11.167,53.291
				s-15.334-19.354-19.334-13.688s9.251,21.656,9.251,21.656l-23.621,24.8L273,418.75l8.631-80.566L283.999,324.5z"/>
		</g>
		<g id="face_89_">
			<path id="face_15_" fill="#FFE9BA" d="M256,154h-63c0,0,4.785,94.465,11,114c7,22.001,14.237,27.287,30.226,41
				C247.634,320.5,256,319,256,319s8.366,1.5,21.774-10C293.763,295.287,302,290.001,309,268c6.215-19.535,10-114,10-114H256z"/>
			<path id="ear_86_" fill="#F9E0A8" d="M197.75,214.5c0,0-22.743-10.911-17.273,16.638c5.468,27.55,22.018,23.583,22.018,23.583
				L197.75,214.5z"/>
			<path id="ear_26_" fill="#F9E0A8" d="M315.25,214.5c0,0,22.743-10.911,17.273,16.638c-5.468,27.55-22.018,23.583-22.018,23.583
				L315.25,214.5z"/>
		</g>
		<g id="glasses_12_">
			<path id="_x37__2_" fill="#656D78" d="M314.569,214.873l-22.082,8.784c-2.448-4.933-7.523-8.332-13.406-8.332
				c-7.352,0-13.456,5.301-14.726,12.288c-2.215-2.01-5.469-2.902-8.355-2.959c-2.887,0.057-6.142,0.949-8.355,2.959
				c-1.271-6.987-7.373-12.288-14.725-12.288c-5.882,0-10.959,3.399-13.409,8.332l-22.08-8.784l0.058,1.955
				c0,0,19.42,9.414,20.643,11.208c-0.113,0.742-0.19,1.495-0.19,2.268c0,8.273,6.706,14.979,14.979,14.979
				c8.14,0,14.746-6.496,14.959-14.585c1.581-2.777,5.143-3.852,8.121-3.911c2.978,0.06,6.54,1.134,8.121,3.911
				c0.21,8.089,6.819,14.585,14.959,14.585c8.273,0,14.978-6.706,14.978-14.979c0-0.772-0.077-1.525-0.189-2.268
				c1.221-1.794,20.64-11.208,20.64-11.208L314.569,214.873z"/>
			<circle id="_x36__2_" fill="#F5F7FA" cx="232.92" cy="230.304" r="13.023"/>
			<circle id="_x35__2_" fill="#F5F7FA" cx="279.081" cy="230.304" r="13.023"/>
			<path id="_x34__2_" fill="#E8EAED" d="M232.92,217.281c-1.229,0-2.412,0.183-3.54,0.5l-7.304,19.73
				c1.671,2.511,4.192,4.4,7.15,5.275l9.019-24.36C236.617,217.696,234.817,217.281,232.92,217.281z"/>
			<path id="_x33__2_" fill="#E8EAED" d="M239.515,219.09l-8.892,24.023c0.747,0.131,1.512,0.213,2.297,0.213
				c1.061,0,2.086-0.139,3.076-0.38l7.489-20.232C242.43,221.245,241.079,220.01,239.515,219.09z"/>
			<path id="_x32__2_" fill="#E8EAED" d="M279.218,217.281c-1.228,0-2.411,0.183-3.538,0.5l-7.303,19.73
				c1.673,2.511,4.189,4.4,7.15,5.275l9.016-24.36C282.918,217.696,281.119,217.281,279.218,217.281z"/>
			<path id="_x31__2_" fill="#E8EAED" d="M285.816,219.09l-8.892,24.023c0.746,0.131,1.512,0.213,2.294,0.213
				c1.062,0,2.089-0.139,3.077-0.38l7.487-20.232C288.729,221.245,287.377,220.01,285.816,219.09z"/>
		</g>
		<g id="hair_front_6_">
			<path id="_x31__47_" fill="#F5F7FA" d="M185,199.5c0,0,21.5,8,38.5-29c0,0-1.25-12.121,14.75-8.561s2.781,84.518,98.781,38.289
				l-4.143-53.726c0,0-5.889-42.837-76.389-42.837S185,154.667,185,154.667V199.5z"/>
		</g>
	</g>
	<g id="avatar5_1_">
		<g id="back_20_">
		</g>
		<g id="hair_back_5_">
		</g>
		<g id="clothes_22_">
		</g>
		<g id="face_88_">
		</g>
		<g id="glasses_9_">
		</g>
		<g id="hair_front_5_">
		</g>
	</g>
	<g id="avatar4_1_">
		<g id="back_19_">
		</g>
		<g id="hair_back_4_">
		</g>
		<g id="clothes_21_">
		</g>
		<g id="face_87_">
		</g>
		<g id="earing_1_">
		</g>
		<g id="hair_front_4_">
		</g>
	</g>
	<g id="avatar3_1_">
		<g id="back_18_">
		</g>
		<g id="hair_back_3_">
		</g>
		<g id="clothes_20_">
		</g>
		<g id="face_86_">
		</g>
		<g id="earings">
		</g>
		<g id="glasses_8_">
		</g>
		<g id="hair_front_3_">
		</g>
	</g>
	<g id="avatar2_1_">
		<g id="Layebackr_167">
		</g>
		<g id="hair_back_2_">
		</g>
		<g id="clothes_19_">
		</g>
		<g id="necklace">
		</g>
		<g id="face_85_">
		</g>
		<g id="hair_front_2_">
		</g>
	</g>
	<g id="avatar1_1_">
		<g id="back_17_">
		</g>
		<g id="hair_back_1_">
		</g>
		<g id="clothes_18_">
		</g>
		<g id="face_84_">
		</g>
		<g id="hair_front_1_">
		</g>
	</g>
</g>
<g id="male" display="none">
	<g id="avatar20" display="inline">
		<g id="back_32_">
		</g>
		<g id="clothes_34_">
		</g>
		<g id="face_100_">
		</g>
		<g id="hair_22_">
		</g>
	</g>
	<g id="avatar19" display="inline">
		<g id="back_31_">
		</g>
		<g id="clothes_33_">
		</g>
		<g id="face_99_">
		</g>
		<g id="scaft">
		</g>
		<g id="hat">
		</g>
	</g>
	<g id="avatar18" display="inline">
		<g id="back_30_">
		</g>
		<g id="clothes_32_">
		</g>
		<g id="face_55_">
		</g>
		<g id="earings_2_">
		</g>
		<g id="hair_21_">
		</g>
	</g>
	<g id="avatar17" display="inline">
		<g id="back_29_">
		</g>
		<g id="hair_back_10_">
		</g>
		<g id="clothes_31_">
		</g>
		<g id="face_2_">
		</g>
		<g id="glasses_10_">
		</g>
		<g id="hair_front_10_">
		</g>
	</g>
	<g id="avatar16" display="inline">
		<g id="back_28_">
		</g>
		<g id="hair_back_9_">
		</g>
		<g id="clothes_1_">
		</g>
		<g id="face_1_">
		</g>
		<g id="hair_front_9_">
		</g>
	</g>
	<g id="avatar15" display="inline">
		<g id="back_5_">
		</g>
		<g id="clothes_6_">
		</g>
		<g id="face_29_">
		</g>
		<g id="glasses_4_">
		</g>
		<g id="hair_8_">
		</g>
	</g>
	<g id="avatar14" display="inline">
		<g id="back_6_">
		</g>
		<g id="clothes_7_">
		</g>
		<g id="face_42_">
		</g>
		<g id="earings_3_">
		</g>
		<g id="hair_9_">
		</g>
	</g>
	<g id="avatar13" display="inline">
		<g id="back_7_">
		</g>
		<g id="clothes_8_">
		</g>
		<g id="face_43_">
		</g>
		<g id="glasses_5_">
		</g>
		<g id="hair_10_">
		</g>
	</g>
	<g id="avatar12" display="inline">
		<g id="back_8_">
		</g>
		<g id="clothes_9_">
		</g>
		<g id="face_44_">
		</g>
		<g id="beard_6_">
		</g>
		<g id="hair_11_">
		</g>
	</g>
	<g id="avatar11" display="inline">
		<g id="back_9_">
		</g>
		<g id="clothes_10_">
		</g>
		<g id="face_45_">
		</g>
		<g id="glass">
		</g>
		<g id="hair_12_">
		</g>
	</g>
	<g id="avatar10" display="inline">
		<g id="back_10_">
		</g>
		<g id="clothes_11_">
		</g>
		<g id="face_46_">
		</g>
		<g id="beard_7_">
		</g>
		<g id="glasses_6_">
		</g>
		<g id="hair_13_">
		</g>
	</g>
	<g id="avatar9" display="inline">
		<g id="back_11_">
		</g>
		<g id="clothes_12_">
		</g>
		<g id="face_47_">
		</g>
		<g id="glasses_3_">
		</g>
		<g id="hair_7_">
		</g>
	</g>
	<g id="avatar8" display="inline">
		<g id="back_12_">
		</g>
		<g id="clothes_13_">
		</g>
		<g id="face_48_">
		</g>
		<g id="beard_5_">
		</g>
		<g id="glasses_7_">
		</g>
		<g id="hair_6_">
		</g>
	</g>
	<g id="avatar7" display="inline">
		<g id="back_4_">
		</g>
		<g id="clothes_14_">
		</g>
		<g id="face_11_">
		</g>
		<g id="hair_14_">
		</g>
	</g>
	<g id="avatar6" display="inline">
		<g id="back_13_">
		</g>
		<g id="clothes_15_">
		</g>
		<g id="face_16_">
		</g>
		<g id="glasses_2_">
		</g>
		<g id="beard_4_">
		</g>
		<g id="hair_5_">
		</g>
	</g>
	<g id="avatar5" display="inline">
		<g id="back_14_">
		</g>
		<g id="clothes_5_">
		</g>
		<g id="face_38_">
		</g>
		<g id="beard_3_">
		</g>
		<g id="hair_4_">
		</g>
	</g>
	<g id="avatar4" display="inline">
		<g id="back_3_">
		</g>
		<g id="clothes_4_">
		</g>
		<g id="face_13_">
		</g>
		<g id="beard_2_">
		</g>
		<g id="glasses_1_">
		</g>
		<g id="hair_3_">
		</g>
	</g>
	<g id="avatar3" display="inline">
		<g id="back_15_">
		</g>
		<g id="clothes_16_">
		</g>
		<g id="face_49_">
		</g>
		<g id="hair_15_">
		</g>
	</g>
	<g id="avatar2" display="inline">
		<g id="back_2_">
		</g>
		<g id="clothes_3_">
		</g>
		<g id="face_9_">
		</g>
		<g id="beard_1_">
		</g>
		<g id="hair_2_">
		</g>
	</g>
	<g id="avatar1" display="inline">
		<g id="back_1_">
		</g>
		<g id="clothes_2_">
		</g>
		<g id="face_6_">
		</g>
		<g id="hair_1_">
		</g>
	</g>
</g>
</svg>
