<?xml version="1.0" encoding="iso-8859-1"?>
<!-- Generator: Adobe Illustrator 16.0.3, SVG Export Plug-In . SVG Version: 6.00 Build 0)  -->
<!DOCTYPE svg PUBLIC "-//W3C//DTD SVG 1.1 Basic//EN" "http://www.w3.org/Graphics/SVG/1.1/DTD/svg11-basic.dtd">
<svg version="1.1" baseProfile="basic" xmlns="http://www.w3.org/2000/svg" xmlns:xlink="http://www.w3.org/1999/xlink" x="0px"
	 y="0px" width="512px" height="512px" viewBox="0 0 512 512" xml:space="preserve">
<g id="Layer_159" display="none">
	<rect x="-512" display="inline" fill="#FFFFFF" width="512" height="512"/>
	<rect x="512" display="inline" fill="#FFFFFF" width="512" height="512"/>
	<rect display="inline" fill="#FFFFFF" width="512" height="512"/>
	<rect y="512" display="inline" fill="#FFFFFF" width="512" height="512"/>
	<rect x="-512" y="512" display="inline" fill="#FFFFFF" width="512" height="512"/>
	<rect x="512" y="512" display="inline" fill="#FFFFFF" width="512" height="512"/>
	<rect y="-511" display="inline" fill="#FFFFFF" width="512" height="512"/>
	<rect x="512" y="-511" display="inline" fill="#FFFFFF" width="512" height="512"/>
	<rect x="-512" y="-511" display="inline" fill="#FFFFFF" width="512" height="512"/>
</g>
<g id="female">
	<g id="avatar15_1_">
		<g id="baclk">
		</g>
		<g id="hair_back_8_">
		</g>
		<g id="clothes_30_">
		</g>
		<g id="face_98_">
		</g>
		<g id="hair_front_8_">
		</g>
	</g>
	<g id="avatar14_1_">
		<g id="back_16_">
		</g>
		<g id="hair_back">
		</g>
		<g id="clothes_17_">
		</g>
		<g id="face_57_">
		</g>
		<g id="hair_front">
		</g>
	</g>
	<g id="avatar13_1_">
		<g id="back_x27_">
		</g>
		<g id="clothes">
		</g>
		<g id="face">
		</g>
		<g id="hair">
		</g>
	</g>
	<g id="avatar12_1_">
		<g id="back_27_">
		</g>
		<g id="clothes_29_">
		</g>
		<g id="face_97_">
		</g>
		<g id="hair_20_">
		</g>
	</g>
	<g id="avatar11_1_">
		<g id="back_26_">
		</g>
		<g id="clothes_28_">
		</g>
		<g id="face_95_">
		</g>
		<g id="hair_19_">
		</g>
	</g>
	<g id="avatar10_1_">
		<g id="back_25_">
		</g>
		<g id="clothes_27_">
		</g>
		<g id="face_94_">
		</g>
		<g id="glasses_11_">
		</g>
		<g id="hair_18_">
		</g>
	</g>
	<g id="avatar9_1_">
		<g id="back_24_">
		</g>
		<g id="clothes_26_">
		</g>
		<g id="face_92_">
		</g>
		<g id="hair_17_">
		</g>
	</g>
	<g id="avatar8_1_">
		<g id="back_23_">
		</g>
		<g id="hair_back_7_">
		</g>
		<g id="clothes_25_">
		</g>
		<g id="face_91_">
		</g>
		<g id="hair_front_7_">
		</g>
	</g>
	<g id="avatar7_1_">
		<g id="back_22_">
		</g>
		<g id="clothes_24_">
		</g>
		<g id="face_90_">
		</g>
		<g id="necklace_1_">
		</g>
		<g id="earings_1_">
		</g>
		<g id="hair_16_">
		</g>
	</g>
	<g id="avatar6_1_">
		<g id="back_21_">
		</g>
		<g id="hair_back_6_">
		</g>
		<g id="clothes_23_">
		</g>
		<g id="face_89_">
		</g>
		<g id="glasses_12_">
		</g>
		<g id="hair_front_6_">
		</g>
	</g>
	<g id="avatar5_1_">
		<g id="back_20_">
		</g>
		<g id="hair_back_5_">
		</g>
		<g id="clothes_22_">
		</g>
		<g id="face_88_">
		</g>
		<g id="glasses_9_">
		</g>
		<g id="hair_front_5_">
		</g>
	</g>
	<g id="avatar4_1_">
		<g id="back_19_">
		</g>
		<g id="hair_back_4_">
		</g>
		<g id="clothes_21_">
		</g>
		<g id="face_87_">
		</g>
		<g id="earing_1_">
		</g>
		<g id="hair_front_4_">
		</g>
	</g>
	<g id="avatar3_1_">
		<g id="back_18_">
			<circle fill="#8CC152" cx="256" cy="256" r="200"/>
		</g>
		<g id="hair_back_3_">
			<path id="_x31__38_" fill="#F6BB42" d="M203.744,332.646c0,0,7.258-49.313,59.256-47.313s47.256,47.313,47.256,47.313
				l32.742-147.313L246,158.666L170,204.5L203.744,332.646z"/>
		</g>
		<g id="clothes_20_">
			<path id="_x33__31_" fill="#DA4453" d="M267.5,400.001c-30.955-60.62-38.037-59.868-37.65-62.672
				c-0.061,0.017-0.119,0.032-0.18,0.05c-0.037,0.01-0.073,0.02-0.109,0.029c-0.249,0.069-0.494,0.138-0.746,0.207
				c-0.321,0.09-0.648,0.181-0.974,0.271c-0.044,0.012-0.089,0.023-0.132,0.036c-0.271,0.075-0.541,0.149-0.813,0.226
				c-0.211,0.059-0.424,0.117-0.637,0.176c-0.529,0.147-1.062,0.295-1.598,0.443c-0.221,0.061-0.443,0.123-0.664,0.184
				c-0.469,0.13-0.938,0.26-1.41,0.391c-0.275,0.076-0.551,0.152-0.828,0.229c-0.539,0.149-1.082,0.299-1.625,0.449
				c-0.241,0.066-0.482,0.133-0.725,0.199c-0.125,0.035-0.25,0.069-0.376,0.104c-0.026,0.008-0.053,0.015-0.079,0.022
				c-0.475,0.131-0.951,0.262-1.428,0.394c-0.322,0.088-0.646,0.178-0.969,0.266c-0.428,0.118-0.857,0.236-1.285,0.354
				c-0.311,0.086-0.621,0.171-0.933,0.257c-0.438,0.12-0.876,0.24-1.313,0.36c-0.293,0.08-0.583,0.16-0.875,0.239
				c-0.65,0.179-1.301,0.356-1.949,0.534c-0.074,0.02-0.146,0.04-0.221,0.061c-0.73,0.199-1.458,0.398-2.186,0.596
				c-0.243,0.066-0.485,0.133-0.729,0.199c-0.479,0.13-0.957,0.261-1.434,0.391c-0.035,0.009-0.068,0.018-0.104,0.027
				c-0.274,0.075-0.549,0.149-0.822,0.224c-0.416,0.113-0.831,0.226-1.245,0.338c-0.31,0.084-0.618,0.168-0.927,0.251
				c-0.51,0.138-1.016,0.274-1.521,0.411c-15.167,4.097-28.259,7.486-31.019,7.756c-11.302,1.104-23.313,9.311-30.666,15.666
				c-13.235,11.44-10.854,25.454-14.641,38.188C159.824,437.461,205.746,456,256,456s96.176-18.539,131.309-49.146
				c-3.786-12.733-1.406-26.747-14.641-38.188c-7.354-6.355-19.364-14.562-30.666-15.666c-2.679-0.262-15.1-3.464-29.701-7.4
				c-0.705-0.19-1.414-0.382-2.129-0.575c-0.018-0.004-0.033-0.009-0.051-0.014c-0.878-0.237-1.762-0.477-2.652-0.719
				c-8.923-2.422-18.324-5.02-26.62-7.326c-0.181-0.051-0.362-0.102-0.542-0.151c-0.467-0.13-0.93-0.259-1.389-0.387L267.5,400.001z
				"/>
			<path id="_x32__30_" fill="#F9E0A8" d="M281.918,337.264c-0.096-0.026-0.191-0.053-0.288-0.08
				c0.226-1.223,0.313-1.949,0.313-1.949L298.25,246.5L256,252l-42.25-5.5l16.307,88.734c0,0,0.087,0.727,0.313,1.949
				c-0.096,0.027-0.191,0.054-0.288,0.08c-0.077,0.021-0.155,0.043-0.232,0.065c-0.387,2.804-4.805,46.718,26.15,107.338
				c30.955-60.62,26.537-104.534,26.15-107.338C282.073,337.307,281.995,337.285,281.918,337.264z"/>
			<path id="_x31__37_" fill="#D9C392" d="M290,261.5l-69.525,21.592l7.086,38.556c10.66,13.146,26.918,25.187,50.957,26.265
				c2.709-6.691,3.426-12.678,3.426-12.678l12.127-65.99C291.686,264.447,290,261.5,290,261.5z"/>
			<path id="_x31__36_" fill="#FFD56B" d="M198.658,325.479c2.543,4.598,4.086,7.168,4.086,7.168
				c-3.928-21.62-7.08-46.599-7.769-70.98C194.34,282.569,195.949,304.732,198.658,325.479z"/>
		</g>
		<g id="face_86_">
			<path id="face_23_" fill="#FFE9BA" d="M256,154h-63c0,0,4.785,94.465,11,114c7,22.001,14.237,27.287,30.226,41
				C247.634,320.5,256,319,256,319s8.366,1.5,21.774-10C293.763,295.287,302,290.001,309,268c6.215-19.535,10-114,10-114H256z"/>
			<path id="ear_74_" fill="#F9E0A8" d="M197.75,214.5c0,0-22.743-10.911-17.273,16.638c5.468,27.55,22.018,23.583,22.018,23.583
				L197.75,214.5z"/>
			<path id="ear_3_" fill="#F9E0A8" d="M315.25,214.5c0,0,22.743-10.911,17.273,16.638c-5.468,27.55-22.018,23.583-22.018,23.583
				L315.25,214.5z"/>
			<path id="_x32__29_" fill="#FFD56B" d="M318.246,276.438c-1.292,16.302-5.235,35.537-8.99,56.208c0,0,1.968-3.276,5.127-9.061
				C317.53,305.498,319.64,289.346,318.246,276.438z"/>
		</g>
		<g id="earings">
			<path id="_x31__35_" fill="#F5F7FA" d="M283.381,332.646c-2.324,0-4.209,1.885-4.209,4.209c0,0.306,0.036,0.602,0.098,0.89
				c-0.287-0.063-0.584-0.099-0.889-0.099c-2.32,0-4.201,1.879-4.208,4.197c-1.731,0.521-3.001,2.11-3.001,4.012
				c0,0.074,0.018,0.144,0.021,0.217c-0.551-0.265-1.16-0.426-1.813-0.426c-2.324,0-4.209,1.885-4.209,4.209
				c0,0.074,0.018,0.144,0.021,0.217c-0.551-0.265-1.16-0.426-1.813-0.426c-1.407,0-2.646,0.697-3.41,1.758
				c-1.006-1.082-2.412-1.758-3.971-1.758s-2.965,0.676-3.971,1.758c-0.765-1.061-2.003-1.758-3.41-1.758
				c-0.652,0-1.262,0.161-1.813,0.426c0.004-0.073,0.021-0.143,0.021-0.217c0-2.324-1.885-4.209-4.209-4.209
				c-0.652,0-1.262,0.161-1.813,0.426c0.004-0.073,0.021-0.143,0.021-0.217c0-1.901-1.27-3.49-3.001-4.012
				c-0.007-2.318-1.888-4.197-4.208-4.197c-0.306,0-0.602,0.036-0.889,0.099c0.062-0.288,0.098-0.584,0.098-0.89
				c0-2.324-1.885-4.209-4.209-4.209s-4.209,1.885-4.209,4.209s1.885,4.209,4.209,4.209c0.306,0,0.602-0.036,0.889-0.099
				c-0.062,0.288-0.098,0.584-0.098,0.89c0,1.901,1.27,3.49,3.001,4.012c0.007,2.318,1.888,4.197,4.208,4.197
				c0.652,0,1.262-0.161,1.813-0.426c-0.004,0.073-0.021,0.143-0.021,0.217c0,2.324,1.885,4.209,4.209,4.209
				c0.652,0,1.262-0.161,1.813-0.426c-0.004,0.073-0.021,0.143-0.021,0.217c0,2.324,1.885,4.209,4.209,4.209
				c0.803,0,1.545-0.236,2.184-0.627c0.777,2.217,2.809,3.802,5.197,3.802s4.42-1.585,5.197-3.802
				c0.639,0.391,1.381,0.627,2.184,0.627c2.324,0,4.209-1.885,4.209-4.209c0-0.074-0.018-0.144-0.021-0.217
				c0.551,0.265,1.16,0.426,1.813,0.426c2.324,0,4.209-1.885,4.209-4.209c0-0.074-0.018-0.144-0.021-0.217
				c0.551,0.265,1.16,0.426,1.813,0.426c2.32,0,4.201-1.879,4.208-4.197c1.731-0.521,3.001-2.11,3.001-4.012
				c0-0.306-0.036-0.602-0.098-0.89c0.287,0.063,0.583,0.099,0.889,0.099c2.324,0,4.209-1.885,4.209-4.209
				S285.705,332.646,283.381,332.646z"/>
		</g>
		<g id="glasses_8_">
			<path id="_x31__34_" fill="#DA4453" d="M298.52,223.266c-3.803,1.126-7.606,2.252-11.409,3.378
				c-5.558,1.646-11.116,3.292-16.675,4.938c-3.581,1.061-7.335,2.313-7.803,6.418c-4.422,0-8.844,0-13.266,0
				c-0.468-4.105-4.222-5.357-7.803-6.418c-5.559-1.646-11.117-3.292-16.675-4.938c-3.803-1.126-7.606-2.252-11.409-3.378
				c-6.285-1.861-8.816,2.255-5.41,7.459c2.549,3.515,5.098,7.029,7.646,10.545c2.629,3.621,5.061,8.008,8.803,10.586
				c4.861,3.351,10.318,0.856,14.352-2.316c2.382-1.873,7.974-5.033,9.891-8.539c4.825,0,9.65,0,14.476,0
				c1.917,3.506,7.509,6.666,9.891,8.539c4.033,3.173,9.49,5.667,14.352,2.316c3.742-2.578,6.174-6.965,8.802-10.586
				c2.549-3.516,5.099-7.03,7.647-10.545C307.336,225.521,304.805,221.404,298.52,223.266z M243.77,241.896
				c-2.684,2.112-5.369,4.224-8.054,6.335c-4.794,3.771-9.858,1.931-13.118-2.562c-3.979-5.486-7.958-10.973-11.938-16.459
				c-3.229-4.935,3.218-2.699,5.424-2.046c3.922,1.161,7.843,2.323,11.765,3.484c3.921,1.161,7.843,2.322,11.764,3.483
				C242.674,235.039,248.93,237.838,243.77,241.896z M301.34,229.211c-3.979,5.486-7.959,10.973-11.938,16.459
				c-3.259,4.492-8.323,6.332-13.118,2.562c-2.684-2.111-5.368-4.223-8.053-6.335c-5.16-4.059,1.096-6.857,4.157-7.764
				c3.921-1.161,7.843-2.322,11.763-3.483c3.923-1.161,7.844-2.323,11.766-3.484C298.122,226.512,304.568,224.276,301.34,229.211z"
				/>
		</g>
		<g id="hair_front_3_">
			<path id="_x34__23_" fill="#FFCE54" d="M256,93.333c-197,0-53.256,239.313-53.256,239.313C192.987,278.939,188,204.5,213.75,170
				c4.25,47,71.803,49.662,90.583,61.501c22.999,14.499,13.467,54.113,4.923,101.146C309.256,332.646,453,93.333,256,93.333z"/>
			<path id="_x33__29_" fill="#FFD56B" d="M256,112.333c74.785,0,100.459,34.491,103.539,77.282
				c3.32-51.1-17.941-96.282-103.539-96.282s-106.859,45.183-103.538,96.282C155.541,146.824,181.214,112.333,256,112.333z"/>
		</g>
	</g>
	<g id="avatar2_1_">
		<g id="Layebackr_167">
		</g>
		<g id="hair_back_2_">
		</g>
		<g id="clothes_19_">
		</g>
		<g id="necklace">
		</g>
		<g id="face_85_">
		</g>
		<g id="hair_front_2_">
		</g>
	</g>
	<g id="avatar1_1_">
		<g id="back_17_">
		</g>
		<g id="hair_back_1_">
		</g>
		<g id="clothes_18_">
		</g>
		<g id="face_84_">
		</g>
		<g id="hair_front_1_">
		</g>
	</g>
</g>
<g id="male" display="none">
	<g id="avatar20" display="inline">
		<g id="back_32_">
		</g>
		<g id="clothes_34_">
		</g>
		<g id="face_100_">
		</g>
		<g id="hair_22_">
		</g>
	</g>
	<g id="avatar19" display="inline">
		<g id="back_31_">
		</g>
		<g id="clothes_33_">
		</g>
		<g id="face_99_">
		</g>
		<g id="scaft">
		</g>
		<g id="hat">
		</g>
	</g>
	<g id="avatar18" display="inline">
		<g id="back_30_">
		</g>
		<g id="clothes_32_">
		</g>
		<g id="face_55_">
		</g>
		<g id="earings_2_">
		</g>
		<g id="hair_21_">
		</g>
	</g>
	<g id="avatar17" display="inline">
		<g id="back_29_">
		</g>
		<g id="hair_back_10_">
		</g>
		<g id="clothes_31_">
		</g>
		<g id="face_2_">
		</g>
		<g id="glasses_10_">
		</g>
		<g id="hair_front_10_">
		</g>
	</g>
	<g id="avatar16" display="inline">
		<g id="back_28_">
		</g>
		<g id="hair_back_9_">
		</g>
		<g id="clothes_1_">
		</g>
		<g id="face_1_">
		</g>
		<g id="hair_front_9_">
		</g>
	</g>
	<g id="avatar15" display="inline">
		<g id="back_5_">
		</g>
		<g id="clothes_6_">
		</g>
		<g id="face_29_">
		</g>
		<g id="glasses_4_">
		</g>
		<g id="hair_8_">
		</g>
	</g>
	<g id="avatar14" display="inline">
		<g id="back_6_">
		</g>
		<g id="clothes_7_">
		</g>
		<g id="face_42_">
		</g>
		<g id="earings_3_">
		</g>
		<g id="hair_9_">
		</g>
	</g>
	<g id="avatar13" display="inline">
		<g id="back_7_">
		</g>
		<g id="clothes_8_">
		</g>
		<g id="face_43_">
		</g>
		<g id="glasses_5_">
		</g>
		<g id="hair_10_">
		</g>
	</g>
	<g id="avatar12" display="inline">
		<g id="back_8_">
		</g>
		<g id="clothes_9_">
		</g>
		<g id="face_44_">
		</g>
		<g id="beard_6_">
		</g>
		<g id="hair_11_">
		</g>
	</g>
	<g id="avatar11" display="inline">
		<g id="back_9_">
		</g>
		<g id="clothes_10_">
		</g>
		<g id="face_45_">
		</g>
		<g id="glass">
		</g>
		<g id="hair_12_">
		</g>
	</g>
	<g id="avatar10" display="inline">
		<g id="back_10_">
		</g>
		<g id="clothes_11_">
		</g>
		<g id="face_46_">
		</g>
		<g id="beard_7_">
		</g>
		<g id="glasses_6_">
		</g>
		<g id="hair_13_">
		</g>
	</g>
	<g id="avatar9" display="inline">
		<g id="back_11_">
		</g>
		<g id="clothes_12_">
		</g>
		<g id="face_47_">
		</g>
		<g id="glasses_3_">
		</g>
		<g id="hair_7_">
		</g>
	</g>
	<g id="avatar8" display="inline">
		<g id="back_12_">
		</g>
		<g id="clothes_13_">
		</g>
		<g id="face_48_">
		</g>
		<g id="beard_5_">
		</g>
		<g id="glasses_7_">
		</g>
		<g id="hair_6_">
		</g>
	</g>
	<g id="avatar7" display="inline">
		<g id="back_4_">
		</g>
		<g id="clothes_14_">
		</g>
		<g id="face_11_">
		</g>
		<g id="hair_14_">
		</g>
	</g>
	<g id="avatar6" display="inline">
		<g id="back_13_">
		</g>
		<g id="clothes_15_">
		</g>
		<g id="face_16_">
		</g>
		<g id="glasses_2_">
		</g>
		<g id="beard_4_">
		</g>
		<g id="hair_5_">
		</g>
	</g>
	<g id="avatar5" display="inline">
		<g id="back_14_">
		</g>
		<g id="clothes_5_">
		</g>
		<g id="face_38_">
		</g>
		<g id="beard_3_">
		</g>
		<g id="hair_4_">
		</g>
	</g>
	<g id="avatar4" display="inline">
		<g id="back_3_">
		</g>
		<g id="clothes_4_">
		</g>
		<g id="face_13_">
		</g>
		<g id="beard_2_">
		</g>
		<g id="glasses_1_">
		</g>
		<g id="hair_3_">
		</g>
	</g>
	<g id="avatar3" display="inline">
		<g id="back_15_">
		</g>
		<g id="clothes_16_">
		</g>
		<g id="face_49_">
		</g>
		<g id="hair_15_">
		</g>
	</g>
	<g id="avatar2" display="inline">
		<g id="back_2_">
		</g>
		<g id="clothes_3_">
		</g>
		<g id="face_9_">
		</g>
		<g id="beard_1_">
		</g>
		<g id="hair_2_">
		</g>
	</g>
	<g id="avatar1" display="inline">
		<g id="back_1_">
		</g>
		<g id="clothes_2_">
		</g>
		<g id="face_6_">
		</g>
		<g id="hair_1_">
		</g>
	</g>
</g>
</svg>
