<?xml version="1.0" encoding="iso-8859-1"?>
<!-- Generator: Adobe Illustrator 16.0.3, SVG Export Plug-In . SVG Version: 6.00 Build 0)  -->
<!DOCTYPE svg PUBLIC "-//W3C//DTD SVG 1.1 Basic//EN" "http://www.w3.org/Graphics/SVG/1.1/DTD/svg11-basic.dtd">
<svg version="1.1" baseProfile="basic" xmlns="http://www.w3.org/2000/svg" xmlns:xlink="http://www.w3.org/1999/xlink" x="0px"
	 y="0px" width="512px" height="512px" viewBox="0 0 512 512" xml:space="preserve">
<g id="Layer_159" display="none">
	<rect x="-512" y="-512" display="inline" fill="#FFFFFF" width="512" height="512"/>
	<rect y="-512" display="inline" fill="#FFFFFF" width="512" height="512"/>
	<rect display="inline" fill="#FFFFFF" width="512" height="512"/>
	<rect x="-512" display="inline" fill="#FFFFFF" width="512" height="512"/>
</g>
<g id="female">
	<g id="avatar15_1_">
		<g id="baclk">
			<circle fill="#434A54" cx="256" cy="256" r="200"/>
		</g>
		<g id="hair_back_8_">
			<path fill="#F6BB42" d="M238.5,125c0,0-15.898-36.391,17.5-39c32-2.5,23,35.5,48,47s50,69.838,41.5,121.919
				s-15.5,58.327,3.5,75.204S337.828,397,324.664,405.5S280,375.5,280.5,374s29.611-28.5,16.306-59S266.75,276.5,291,245.5
				S238.5,125,238.5,125z"/>
			<path fill="#FFCE54" d="M300.173,334.52c-1.561,21.693-19.283,38.313-19.673,39.48c-0.083,0.248,0.714,1.512,2.153,3.403
				C288.055,371.134,301.619,354.445,300.173,334.52z"/>
			<path fill="#FFCE54" d="M337.014,310.394c-0.755,11.02,2.082,16.932,11.986,25.729c3.675,3.264,5.504,7.771,5.979,12.973
				c0.632-7.722-0.951-14.507-5.979-18.973C341.054,323.064,337.657,317.864,337.014,310.394z"/>
			<path fill="#FFCE54" d="M295.608,232.807c-0.399,4.845-1.839,9.153-4.608,12.693c-10.191,13.027-13.14,21.993-12.147,30.274
				c0.799-6.724,4.353-14.31,12.147-24.274C294.866,246.558,296.156,240.123,295.608,232.807z"/>
			<path fill="#FFCE54" d="M256,92c32-2.5,23,35.5,48,47c21.103,9.707,42.205,52.787,43.159,97.308
				C348.095,189.722,326.05,143.143,304,133c-25-11.5-16-49.5-48-47c-18.964,1.481-22.032,13.854-21.144,24.271
				C235.688,101.585,240.604,93.203,256,92z"/>
			<path fill="#3DB093" d="M269,115c0,6.627-5.373,12-12,12h-2c-6.627,0-12-5.373-12-12v-2c0-6.627,5.373-12,12-12h2
				c6.627,0,12,5.373,12,12V115z"/>
			<path fill="#FFCE54" d="M309,197c0,0,10.333,15.667,20.333,16.667s6.333,21.397,5,28.865s-5.333,22.135,7,34.468
				c0,0-13.333-19.999,0-48.333S309,197,309,197z"/>
			<path fill="#FFCE54" d="M329,233.644c0,0-20,34.356,16.667,50.689s15.666,38.334,15.666,38.334c3-7,7-25-19.666-33.667
				c-24.999-8.125-31.249-48.77-31.242-54.661c0-0.393,0.028-0.631,0.081-0.695L306,263.667
				c-4.752,11.029,4.488,21.981,15.939,30.666c14.504,11,14.745,22.462,8.394,33.667c-5.669,10-14.666,32.333-14.666,32.333
				c-2.666-20.667,10.134-39.908-5.373-51.627c-17.294-13.069-15.81-34.209-17.071-41.689c-0.15-0.893-0.223-1.428-0.223-1.517
				L329,233.644z"/>
		</g>
		<g id="clothes_30_">
			<path id="_x36__67_" fill="#F9E0A8" d="M372.668,368.789c-7.353-6.355-19.364-14.563-30.666-15.666
				c-7.258-0.709-86.002-23-86.002-23s-78.744,22.291-86.002,23c-11.302,1.104-23.313,9.311-30.666,15.666
				c-13.235,11.439-10.854,25.453-14.641,38.188c35.133,30.605,81.055,49.145,131.309,49.145s96.176-18.539,131.309-49.145
				C383.522,394.242,385.903,380.229,372.668,368.789z"/>
			<path fill="#D9C392" d="M270.585,404.994c-0.555,0.244-1.191,0.605-1.927,1.026c-0.725,0.433-1.528,0.96-2.362,1.598
				c-0.407,0.333-0.831,0.681-1.27,1.04c-0.419,0.382-0.835,0.797-1.274,1.218c-0.842,0.87-1.686,1.843-2.465,2.921
				c-0.783,1.075-1.507,2.25-2.156,3.49c-0.633,1.246-1.195,2.554-1.657,3.893c-0.739,2.173-1.224,4.41-1.474,6.575
				c-0.25-2.165-0.734-4.402-1.474-6.575c-0.462-1.339-1.024-2.646-1.657-3.893c-0.649-1.24-1.373-2.415-2.156-3.49
				c-0.779-1.078-1.623-2.051-2.465-2.921c-0.439-0.421-0.855-0.836-1.274-1.218c-0.438-0.359-0.862-0.707-1.27-1.04
				c-0.834-0.638-1.638-1.165-2.362-1.598c-0.735-0.421-1.372-0.782-1.927-1.026c-1.106-0.494-1.749-0.727-1.749-0.727
				s0.459,0.53,1.282,1.371c0.417,0.412,0.86,0.985,1.418,1.562c0.282,0.286,0.536,0.639,0.824,0.983
				c0.276,0.356,0.607,0.684,0.889,1.089c0.296,0.385,0.604,0.786,0.923,1.201c0.299,0.427,0.606,0.866,0.923,1.319
				c0.613,0.914,1.225,1.892,1.807,2.926c0.3,0.512,0.557,1.06,0.849,1.592c0.274,0.544,0.518,1.112,0.795,1.665
				c0.484,1.144,0.978,2.304,1.37,3.507c0.431,1.188,0.768,2.412,1.093,3.621c0.308,1.215,0.582,2.424,0.802,3.609
				c0.449,2.369,0.737,4.633,0.925,6.599c0.204,1.968,0.295,3.636,0.358,4.817C253.972,441.319,254,442,254,442
				s0.319-0.617,0.706-1.76c0.39-1.141,0.854-2.808,1.165-4.861c0.052-0.331,0.089-0.688,0.129-1.037
				c0.04,0.35,0.077,0.706,0.129,1.037c0.312,2.054,0.775,3.721,1.165,4.861C257.681,441.383,258,442,258,442
				s0.028-0.681,0.077-1.871c0.063-1.182,0.154-2.85,0.358-4.817c0.188-1.966,0.476-4.229,0.925-6.599
				c0.22-1.186,0.494-2.395,0.802-3.609c0.325-1.209,0.662-2.434,1.093-3.621c0.393-1.203,0.886-2.363,1.37-3.507
				c0.277-0.553,0.521-1.121,0.795-1.665c0.292-0.532,0.549-1.08,0.849-1.592c0.582-1.034,1.193-2.012,1.807-2.926
				c0.316-0.453,0.624-0.893,0.923-1.319c0.318-0.415,0.627-0.816,0.923-1.201c0.281-0.405,0.612-0.732,0.889-1.089
				c0.288-0.345,0.542-0.697,0.824-0.983c0.558-0.576,1.001-1.149,1.418-1.562c0.823-0.841,1.282-1.371,1.282-1.371
				S271.691,404.5,270.585,404.994z"/>
			<path id="_x35__62_" fill="#F9E0A8" d="M256,256l-42.25-5.5l16.307,88.734c0,0,3.666,30.766,25.943,30.766
				s25.943-30.766,25.943-30.766L298.25,250.5L256,256z"/>
			<path id="_x34__70_" fill="#D9C392" d="M290,265.5l-69.525,21.592l7.086,38.556c10.66,13.146,26.918,25.187,50.957,26.265
				c2.709-6.691,3.426-12.678,3.426-12.678l12.127-65.99C291.686,268.447,290,265.5,290,265.5z"/>
			<path fill="#379E84" d="M256,456.121c37.587,0,72.75-10.373,102.788-28.408l-0.25-0.318
				c-13.845-17.648-15.468-60.572-15.624-74.148c-0.304-0.039-0.609-0.094-0.912-0.123c-1.017-0.1-3.438-0.623-6.849-1.449
				l0.183,1.194l0.139,0.878c0.913,5.746,3.053,19.205-5.914,43.331c-12.367,33.277-61.322,34.964-71.01,34.964
				c-1.518,0-2.381-0.036-2.418-0.038l-0.134-0.006l-0.131,0.006c-0.037,0.002-0.902,0.038-2.419,0.038
				c-9.688,0-58.642-1.685-71.01-34.964c-8.967-24.126-6.827-37.585-5.914-43.331l0.139-0.878l0.183-1.194
				c-3.41,0.826-5.832,1.35-6.849,1.449c-0.303,0.029-0.608,0.084-0.912,0.123c-0.156,13.576-1.779,56.5-15.624,74.148l-0.25,0.318
				C183.25,445.748,218.413,456.121,256,456.121z"/>
			<path fill="#3DB093" d="M339.908,352.762c-0.477-0.099-1.014-0.215-1.606-0.348c0.872,5.699,3.769,19.614-5.929,45.708
				C317.646,437.75,256,435,256,435s-61.646,2.75-76.373-36.878c-9.697-26.094-6.801-40.009-5.929-45.708
				c-0.593,0.133-1.13,0.249-1.606,0.348c-0.137,14.463-1.783,58.019-16.27,76.484c29.458,17.085,63.673,26.875,100.178,26.875
				s70.72-9.79,100.178-26.875C341.691,410.78,340.045,367.225,339.908,352.762z"/>
		</g>
		<g id="face_98_">
			<path id="face_80_" fill="#FFE9BA" d="M256,154h-63c0,0,4.785,94.465,11,114c7,22.001,14.237,27.287,30.226,41
				C247.634,320.5,256,319,256,319s8.366,1.5,21.774-10C293.763,295.287,302,290.001,309,268c6.215-19.535,10-114,10-114H256z"/>
			<path id="ear_128_" fill="#F9E0A8" d="M197.75,214.5c0,0-22.743-10.911-17.273,16.638c5.468,27.55,22.018,23.583,22.018,23.583
				L197.75,214.5z"/>
			<path id="ear_125_" fill="#F9E0A8" d="M315.25,214.5c0,0,22.743-10.911,17.273,16.638c-5.468,27.55-22.018,23.583-22.018,23.583
				L315.25,214.5z"/>
		</g>
		<g id="hair_front_8_">
			<path fill="#FFCE54" d="M256.5,111.978c-7.415-0.277-96.867-1.511-58.75,102.772c0,0-3.25-23.125,10.25-29.125l-2.5-18.063
				c0,0,9.854-20.207,50.5-8.834V159c0.171-0.049,0.33-0.088,0.5-0.136c0.17,0.048,0.5-0.136,0.5-0.136
				c40.646-11.373,50.5,8.834,50.5,8.834l-2.5,18.063c13.5,6,10.25,29.125,10.25,29.125
				C353.367,110.467,263.915,111.7,256.5,111.978z"/>
			<path fill="#FFD56B" d="M232.871,114.458c-6.929,1.642-14.462,4.331-21.334,8.719c-2.509,15.544,4.62,26.28,12.1,33.026
				c2.387-0.49,5.062-0.814,8.049-0.908C225.123,139.757,229.919,122.43,232.871,114.458z"/>
			<path fill="#F6BB42" d="M193.158,144.29c-2.401,5.416-4.038,11.728-4.604,19.097c5.013,2.375,11.438,5.273,17.411,7.539
				l-0.466-3.363c0,0,1.088-2.209,3.995-4.753C202.931,158.45,196.407,152.479,193.158,144.29z"/>
			<path fill="#FFD56B" d="M188.995,180.072c0.481,4.136,1.247,8.53,2.308,13.182l9.293-0.328c1.152-2.242,2.706-4.245,4.779-5.766
				L188.995,180.072z"/>
			<path fill="#FFD56B" d="M280.129,114.458c6.929,1.642,14.462,4.331,21.334,8.719c2.509,15.544-4.62,26.28-12.1,33.026
				c-2.387-0.49-5.062-0.814-8.049-0.908C287.877,139.757,283.081,122.43,280.129,114.458z"/>
			<path fill="#F6BB42" d="M319.842,144.29c2.401,5.416,4.038,11.728,4.604,19.097c-5.013,2.375-11.438,5.273-17.411,7.539
				l0.466-3.363c0,0-1.088-2.209-3.995-4.753C310.069,158.45,316.593,152.479,319.842,144.29z"/>
			<path fill="#FFD56B" d="M324.005,180.072c-0.481,4.136-1.247,8.53-2.308,13.182l-9.293-0.328
				c-1.152-2.242-2.706-4.245-4.779-5.766L324.005,180.072z"/>
			<path fill="#F6BB42" d="M276.824,186.085c-0.547-1.157-1.292-2.2-2.226-3.136c-0.241-0.225-0.5-0.485-0.733-0.676l-0.683-0.533
				l-1.335-1.054c-0.438-0.317-0.828-0.706-1.221-1.089c-0.388-0.392-0.817-0.726-1.173-1.155l-1.11-1.231
				c-0.365-0.416-0.694-0.869-1.043-1.301c-0.709-0.853-1.311-1.808-1.958-2.716c-0.601-0.948-1.235-1.872-1.792-2.854
				c-0.588-0.958-1.113-1.96-1.656-2.948c-0.514-1.007-1.029-2.012-1.504-3.039c-0.491-1.019-0.971-2.045-1.421-3.082
				c-0.448-1.029-0.893-2.098-1.267-3.113l-0.32-0.867c16.558-20.679,17.634-35.775,16.26-43.953
				c-8.283-1.427-15.002-1.441-17.533-1.379L256,112l-0.109-0.041c-2.531-0.063-9.25-0.048-17.533,1.379
				c-1.376,8.189-0.294,23.314,16.326,44.035c-1.66,0.283-3.231,0.685-4.818,1.188c-2.026,0.647-4.011,1.451-5.895,2.479
				c-3.762,2.02-7.186,4.987-9.288,8.839c-1.053,1.912-1.756,4.002-2.134,6.128c-0.363,2.134-0.363,4.286-0.199,6.401
				c0.14,1.052,0.227,2.104,0.471,3.148l0.323,1.563l0.406,1.481c0.559,2.035,1.188,3.933,1.761,5.909
				c1.16,3.919,2.257,7.854,3.192,11.818c0.473,1.981,0.88,3.975,1.22,5.977c0.338,2.002,0.591,4.017,0.68,6.035
				c0.086,2.016,0.033,4.043-0.335,6.015c-0.365,1.968-1.046,3.878-2.11,5.573c-1.089,1.677-2.55,3.106-4.219,4.243
				c-1.676,1.147-3.524,1.99-5.456,2.689l0.104,0.281c1.938-0.633,3.878-1.44,5.622-2.559c1.75-1.113,3.321-2.551,4.52-4.278
				c1.174-1.743,1.954-3.735,2.398-5.778c0.448-2.048,0.567-4.143,0.544-6.218c-0.027-2.078-0.222-4.144-0.501-6.191
				c-0.282-2.047-0.633-4.082-1.049-6.1c-0.827-4.038-1.856-8.021-2.925-11.985c-0.521-1.971-1.132-3.98-1.611-5.909l-0.371-1.491
				l-0.261-1.453c-0.204-0.958-0.26-1.954-0.37-2.936c-0.104-1.967-0.056-3.938,0.314-5.844c0.386-1.898,1.051-3.723,2.014-5.377
				c1.911-3.336,5.02-5.866,8.498-7.613c1.741-0.885,3.593-1.572,5.484-2.115c1.497-0.434,3.076-0.768,4.596-0.99
				c0.276,0.73,0.559,1.449,0.856,2.169c0.452,1.086,0.92,2.165,1.428,3.226c0.507,1.063,1.057,2.104,1.605,3.146
				c0.579,1.027,1.14,2.063,1.771,3.064c0.599,1.018,1.272,1.997,1.934,2.979c0.723,0.947,1.393,1.926,2.189,2.823
				c0.392,0.452,0.761,0.921,1.172,1.358l1.255,1.296c0.4,0.445,0.893,0.817,1.337,1.225c0.456,0.398,0.907,0.801,1.422,1.14
				l1.437,1.02l0.709,0.497c0.22,0.164,0.367,0.317,0.559,0.473c0.732,0.659,1.386,1.485,1.901,2.377
				c1.035,1.809,1.477,3.993,1.568,6.198c0.073,2.218-0.199,4.475-0.619,6.71c-0.219,1.117-0.491,2.229-0.808,3.329
				c-0.325,1.096-0.654,2.202-1.067,3.271l0.271,0.129c1.107-2.052,1.963-4.225,2.659-6.462c0.695-2.238,1.163-4.572,1.255-6.974
				C278.198,190.908,277.919,188.397,276.824,186.085z"/>
		</g>
	</g>
	<g id="avatar14_1_">
		<g id="back_16_">
		</g>
		<g id="hair_back">
		</g>
		<g id="clothes_17_">
		</g>
		<g id="face_57_">
		</g>
		<g id="hair_front">
		</g>
	</g>
	<g id="avatar13_1_">
		<g id="back_x27_">
		</g>
		<g id="clothes">
		</g>
		<g id="face">
		</g>
		<g id="hair">
		</g>
	</g>
	<g id="avatar12_1_">
		<g id="back_27_">
		</g>
		<g id="clothes_29_">
		</g>
		<g id="face_97_">
		</g>
		<g id="hair_20_">
		</g>
	</g>
	<g id="avatar11_1_">
		<g id="back_26_">
		</g>
		<g id="clothes_28_">
		</g>
		<g id="face_95_">
		</g>
		<g id="hair_19_">
		</g>
	</g>
	<g id="avatar10_1_">
		<g id="back_25_">
		</g>
		<g id="clothes_27_">
		</g>
		<g id="face_94_">
		</g>
		<g id="glasses_11_">
		</g>
		<g id="hair_18_">
		</g>
	</g>
	<g id="avatar9_1_">
		<g id="back_24_">
		</g>
		<g id="clothes_26_">
		</g>
		<g id="face_92_">
		</g>
		<g id="hair_17_">
		</g>
	</g>
	<g id="avatar8_1_">
		<g id="back_23_">
		</g>
		<g id="hair_back_7_">
		</g>
		<g id="clothes_25_">
		</g>
		<g id="face_91_">
		</g>
		<g id="hair_front_7_">
		</g>
	</g>
	<g id="avatar7_1_">
		<g id="back_22_">
		</g>
		<g id="clothes_24_">
		</g>
		<g id="face_90_">
		</g>
		<g id="necklace_1_">
		</g>
		<g id="earings_1_">
		</g>
		<g id="hair_16_">
		</g>
	</g>
	<g id="avatar6_1_">
		<g id="back_21_">
		</g>
		<g id="hair_back_6_">
		</g>
		<g id="clothes_23_">
		</g>
		<g id="face_89_">
		</g>
		<g id="glasses_12_">
		</g>
		<g id="hair_front_6_">
		</g>
	</g>
	<g id="avatar5_1_">
		<g id="back_20_">
		</g>
		<g id="hair_back_5_">
		</g>
		<g id="clothes_22_">
		</g>
		<g id="face_88_">
		</g>
		<g id="glasses_9_">
		</g>
		<g id="hair_front_5_">
		</g>
	</g>
	<g id="avatar4_1_">
		<g id="back_19_">
		</g>
		<g id="hair_back_4_">
		</g>
		<g id="clothes_21_">
		</g>
		<g id="face_87_">
		</g>
		<g id="earing_1_">
		</g>
		<g id="hair_front_4_">
		</g>
	</g>
	<g id="avatar3_1_">
		<g id="back_18_">
		</g>
		<g id="hair_back_3_">
		</g>
		<g id="clothes_20_">
		</g>
		<g id="face_86_">
		</g>
		<g id="earings">
		</g>
		<g id="glasses_8_">
		</g>
		<g id="hair_front_3_">
		</g>
	</g>
	<g id="avatar2_1_">
		<g id="Layebackr_167">
		</g>
		<g id="hair_back_2_">
		</g>
		<g id="clothes_19_">
		</g>
		<g id="necklace">
		</g>
		<g id="face_85_">
		</g>
		<g id="hair_front_2_">
		</g>
	</g>
	<g id="avatar1_1_">
		<g id="back_17_">
		</g>
		<g id="hair_back_1_">
		</g>
		<g id="clothes_18_">
		</g>
		<g id="face_84_">
		</g>
		<g id="hair_front_1_">
		</g>
	</g>
</g>
<g id="male">
	<g id="avatar20">
		<g id="back_32_">
		</g>
		<g id="clothes_34_">
		</g>
		<g id="face_100_">
		</g>
		<g id="hair_22_">
		</g>
	</g>
	<g id="avatar19">
		<g id="back_31_">
		</g>
		<g id="clothes_33_">
		</g>
		<g id="face_99_">
		</g>
		<g id="scaft">
		</g>
		<g id="hat">
		</g>
	</g>
	<g id="avatar18">
		<g id="back_30_">
		</g>
		<g id="clothes_32_">
		</g>
		<g id="face_55_">
		</g>
		<g id="earings_2_">
		</g>
		<g id="hair_21_">
		</g>
	</g>
	<g id="avatar17">
		<g id="back_29_">
		</g>
		<g id="hair_back_10_">
		</g>
		<g id="clothes_31_">
		</g>
		<g id="face_2_">
		</g>
		<g id="glasses_10_">
		</g>
		<g id="hair_front_10_">
		</g>
	</g>
	<g id="avatar16">
		<g id="back_28_">
		</g>
		<g id="hair_back_9_">
		</g>
		<g id="clothes_1_">
		</g>
		<g id="face_1_">
		</g>
		<g id="hair_front_9_">
		</g>
	</g>
	<g id="avatar15">
		<g id="back_5_">
		</g>
		<g id="clothes_6_">
		</g>
		<g id="face_29_">
		</g>
		<g id="glasses_4_">
		</g>
		<g id="hair_8_">
		</g>
	</g>
	<g id="avatar14">
		<g id="back_6_">
		</g>
		<g id="clothes_7_">
		</g>
		<g id="face_42_">
		</g>
		<g id="earings_3_">
		</g>
		<g id="hair_9_">
		</g>
	</g>
	<g id="avatar13">
		<g id="back_7_">
		</g>
		<g id="clothes_8_">
		</g>
		<g id="face_43_">
		</g>
		<g id="glasses_5_">
		</g>
		<g id="hair_10_">
		</g>
	</g>
	<g id="avatar12">
		<g id="back_8_">
		</g>
		<g id="clothes_9_">
		</g>
		<g id="face_44_">
		</g>
		<g id="beard_6_">
		</g>
		<g id="hair_11_">
		</g>
	</g>
	<g id="avatar11">
		<g id="back_9_">
		</g>
		<g id="clothes_10_">
		</g>
		<g id="face_45_">
		</g>
		<g id="glass">
		</g>
		<g id="hair_12_">
		</g>
	</g>
	<g id="avatar10">
		<g id="back_10_">
		</g>
		<g id="clothes_11_">
		</g>
		<g id="face_46_">
		</g>
		<g id="beard_7_">
		</g>
		<g id="glasses_6_">
		</g>
		<g id="hair_13_">
		</g>
	</g>
	<g id="avatar9">
		<g id="back_11_">
		</g>
		<g id="clothes_12_">
		</g>
		<g id="face_47_">
		</g>
		<g id="glasses_3_">
		</g>
		<g id="hair_7_">
		</g>
	</g>
	<g id="avatar8">
		<g id="back_12_">
		</g>
		<g id="clothes_13_">
		</g>
		<g id="face_48_">
		</g>
		<g id="beard_5_">
		</g>
		<g id="glasses_7_">
		</g>
		<g id="hair_6_">
		</g>
	</g>
	<g id="avatar7">
		<g id="back_4_">
		</g>
		<g id="clothes_14_">
		</g>
		<g id="face_11_">
		</g>
		<g id="hair_14_">
		</g>
	</g>
	<g id="avatar6">
		<g id="back_13_">
		</g>
		<g id="clothes_15_">
		</g>
		<g id="face_16_">
		</g>
		<g id="glasses_2_">
		</g>
		<g id="beard_4_">
		</g>
		<g id="hair_5_">
		</g>
	</g>
	<g id="avatar5">
		<g id="back_14_">
		</g>
		<g id="clothes_5_">
		</g>
		<g id="face_38_">
		</g>
		<g id="beard_3_">
		</g>
		<g id="hair_4_">
		</g>
	</g>
	<g id="avatar4">
		<g id="back_3_">
		</g>
		<g id="clothes_4_">
		</g>
		<g id="face_13_">
		</g>
		<g id="beard_2_">
		</g>
		<g id="glasses_1_">
		</g>
		<g id="hair_3_">
		</g>
	</g>
	<g id="avatar3">
		<g id="back_15_">
		</g>
		<g id="clothes_16_">
		</g>
		<g id="face_49_">
		</g>
		<g id="hair_15_">
		</g>
	</g>
	<g id="avatar2">
		<g id="back_2_">
		</g>
		<g id="clothes_3_">
		</g>
		<g id="face_9_">
		</g>
		<g id="beard_1_">
		</g>
		<g id="hair_2_">
		</g>
	</g>
	<g id="avatar1">
		<g id="back_1_">
		</g>
		<g id="clothes_2_">
		</g>
		<g id="face_6_">
		</g>
		<g id="hair_1_">
		</g>
	</g>
</g>
</svg>
