<?xml version="1.0" encoding="iso-8859-1"?>
<!-- Generator: Adobe Illustrator 16.0.3, SVG Export Plug-In . SVG Version: 6.00 Build 0)  -->
<!DOCTYPE svg PUBLIC "-//W3C//DTD SVG 1.1 Basic//EN" "http://www.w3.org/Graphics/SVG/1.1/DTD/svg11-basic.dtd">
<svg version="1.1" baseProfile="basic" xmlns="http://www.w3.org/2000/svg" xmlns:xlink="http://www.w3.org/1999/xlink" x="0px"
	 y="0px" width="512px" height="512px" viewBox="0 0 512 512" xml:space="preserve">
<g id="Layer_159" display="none">
	<rect x="-512" y="-512" display="inline" fill="#FFFFFF" width="512" height="512"/>
	<rect y="-512" display="inline" fill="#FFFFFF" width="512" height="512"/>
	<rect x="-512" display="inline" fill="#FFFFFF" width="512" height="512"/>
	<rect display="inline" fill="#FFFFFF" width="512" height="512"/>
	<rect y="512" display="inline" fill="#FFFFFF" width="512" height="512"/>
	<rect x="-512" y="512" display="inline" fill="#FFFFFF" width="512" height="512"/>
</g>
<g id="female">
	<g id="avatar15_1_">
		<g id="baclk">
		</g>
		<g id="hair_back_8_">
		</g>
		<g id="clothes_30_">
		</g>
		<g id="face_98_">
		</g>
		<g id="hair_front_8_">
		</g>
	</g>
	<g id="avatar14_1_">
		<g id="back_16_">
		</g>
		<g id="hair_back">
		</g>
		<g id="clothes_17_">
		</g>
		<g id="face_57_">
		</g>
		<g id="hair_front">
		</g>
	</g>
	<g id="avatar13_1_">
		<g id="back_x27_">
		</g>
		<g id="clothes">
		</g>
		<g id="face">
		</g>
		<g id="hair">
		</g>
	</g>
	<g id="avatar12_1_">
		<g id="back_27_">
		</g>
		<g id="clothes_29_">
		</g>
		<g id="face_97_">
		</g>
		<g id="hair_20_">
		</g>
	</g>
	<g id="avatar11_1_">
		<g id="back_26_">
		</g>
		<g id="clothes_28_">
		</g>
		<g id="face_95_">
		</g>
		<g id="hair_19_">
		</g>
	</g>
	<g id="avatar10_1_">
		<g id="back_25_">
			<circle fill="#AAB2BD" cx="256" cy="256" r="200"/>
		</g>
		<g id="clothes_27_">
			<path id="_x36__29_" fill="#4A89DC" d="M372.668,368.789c-7.353-6.355-19.364-14.563-30.666-15.666
				c-7.258-0.709-86.002-23-86.002-23s-78.744,22.291-86.002,23c-11.302,1.104-23.313,9.311-30.666,15.666
				c-13.235,11.439-10.854,25.453-14.641,38.188c35.133,30.605,81.055,49.145,131.309,49.145s96.176-18.539,131.309-49.145
				C383.522,394.242,385.903,380.229,372.668,368.789z"/>
			<path id="_x35__31_" fill="#F9E0A8" d="M256,256l-42.25-5.5l16.307,88.734c0,0,3.666,30.766,25.943,30.766
				s25.943-30.766,25.943-30.766L298.25,250.5L256,256z"/>
			<path id="_x34__37_" fill="#D9C392" d="M290,265.5l-69.525,21.592l7.086,38.556c10.66,13.146,26.918,25.187,50.957,26.265
				c2.709-6.691,3.426-12.678,3.426-12.678l12.127-65.99C291.686,268.447,290,265.5,290,265.5z"/>
			<path id="_x33__48_" fill="#5D9CEC" d="M226.688,335.5l-9.625,14.412c0,0,23.063,32.838,23.063,32.088
				c0-0.467,5.724-3.723,10.055-10.662l5.758,5.162l-1-24.5L226.688,335.5z"/>
			<path id="_x32__51_" fill="#5D9CEC" d="M285.313,335.5l-28.25,16.5l-1,24.5l5.758-5.162c4.331,6.939,10.055,10.195,10.055,10.662
				c0,0.75,23.063-32.088,23.063-32.088L285.313,335.5z"/>
			<path id="_x31__61_" fill="#5D9CEC" d="M251,456.076c1,0.025,2.663,0.045,4,0.045c1.672,0,3-0.023,5-0.064V363h-9V456.076z"/>
		</g>
		<g id="face_94_">
			<path id="face_66_" fill="#FFE9BA" d="M256,154h-63c0,0,4.785,94.465,11,114c7,22.001,14.237,27.287,30.226,41
				C247.634,320.5,256,319,256,319s8.366,1.5,21.774-10C293.763,295.287,302,290.001,309,268c6.215-19.535,10-114,10-114H256z"/>
			<path id="ear_102_" fill="#F9E0A8" d="M197.75,214.5c0,0-22.743-10.911-17.273,16.638c5.468,27.55,22.018,23.583,22.018,23.583
				L197.75,214.5z"/>
			<path id="ear_97_" fill="#F9E0A8" d="M315.25,214.5c0,0,22.743-10.911,17.273,16.638c-5.468,27.55-22.018,23.583-22.018,23.583
				L315.25,214.5z"/>
		</g>
		<g id="glasses_11_">
			<path id="_x39__1_" fill="#434A54" d="M308.706,225.873l-9.852,10.316c-2.878-5.793-8.84-9.784-15.747-9.784
				c-8.635,0-15.804,6.227-17.294,14.433c-2.603-2.364-6.425-3.41-9.814-3.479c-3.388,0.068-7.211,1.114-9.813,3.479
				c-1.49-8.206-8.659-14.433-17.294-14.433c-6.909,0-12.869,3.991-15.747,9.784l-9.852-10.316l0.069,2.296
				c0,0,6.725,11.06,8.16,13.164c-0.133,0.871-0.223,1.757-0.223,2.665c0,9.716,7.875,17.591,17.592,17.591
				c9.56,0,17.321-7.629,17.569-17.13c1.857-3.262,6.042-4.522,9.537-4.593c3.497,0.07,7.682,1.331,9.539,4.593
				c0.248,9.501,8.01,17.13,17.569,17.13c9.717,0,17.592-7.875,17.592-17.591c0-0.908-0.09-1.794-0.223-2.665
				c1.436-2.104,8.16-13.164,8.16-13.164L308.706,225.873z"/>
			<circle id="_x38__1_" fill="#F5F7FA" cx="228.893" cy="243.998" r="15.294"/>
			<circle id="_x37__1_" fill="#F5F7FA" cx="283.107" cy="243.998" r="15.294"/>
			<path id="_x36__1_" fill="#E8EAED" d="M228.893,228.703c-1.442,0-2.833,0.214-4.156,0.587l-8.578,23.175
				c1.963,2.947,4.923,5.167,8.397,6.193l10.591-28.609C233.236,229.191,231.123,228.703,228.893,228.703z"/>
			<path id="_x35__1_" fill="#E8EAED" d="M236.64,230.826l-10.444,28.215c0.878,0.156,1.776,0.25,2.697,0.25
				c1.247,0,2.452-0.164,3.612-0.446l8.797-23.765C240.063,233.357,238.476,231.907,236.64,230.826z"/>
			<path id="_x34__1_" fill="#E8EAED" d="M283.27,228.703c-1.443,0-2.833,0.214-4.156,0.587l-8.576,23.175
				c1.963,2.947,4.921,5.167,8.397,6.193l10.59-28.609C287.613,229.191,285.501,228.703,283.27,228.703z"/>
			<path id="_x33__1_" fill="#E8EAED" d="M291.018,230.826l-10.443,28.215c0.876,0.156,1.774,0.25,2.695,0.25
				c1.247,0,2.452-0.164,3.613-0.446l8.796-23.765C294.439,233.357,292.853,231.907,291.018,230.826z"/>
			<polygon id="_x32__1_" fill="#F5F7FA" points="206.023,228.703 204.896,231.442 207.401,235.348 209.908,232.416 			"/>
			<polygon id="_x31__1_" fill="#F5F7FA" points="305.977,228.703 307.104,231.442 304.599,235.348 302.092,232.416 			"/>
		</g>
		<g id="hair_18_">
			<path id="_x31_0_6_" fill="#2D3138" d="M256,77.334c-70,0-96.024,49.333-77.515,125.333c0,0,35.834-61.333,77.515-61.333
				c41.682,0,77.515,61.333,77.515,61.333C352.024,126.667,326,77.334,256,77.334z"/>
			<path id="_x39__10_" fill="#434A54" d="M256,87.334c53.575,0,81.391,28.898,83.195,76.533
				c1.859-53.558-25.969-86.533-83.195-86.533s-85.055,32.976-83.195,86.533C174.609,116.232,202.425,87.334,256,87.334z"/>
			<path id="_x38__15_" fill="#434A54" d="M341.508,191.665c-5.779-13.048-13.924-25.155-22.883-36.188
				c-14.875-18.315-35.146-33.37-59.204-35.272c-0.673-0.131-1.386-0.205-2.148-0.205c-0.849,0-1.696,0-2.545,0
				c-0.767,0-1.483,0.074-2.159,0.207c-24.035,1.914-44.15,17.021-59.193,35.271c-9.02,10.94-17.188,23.175-22.951,36.188
				c-2.207,4.983-1.468,10.7,3.622,13.682c4.303,2.521,11.489,1.398,13.698-3.588c1.488-3.36,3.249-6.614,5.031-9.825
				c3.897-7.022,9.666-15.748,13.572-20.699c6.479-8.213,14.441-16.231,22.277-21.564c8.65-5.888,17.568-9.26,27.367-9.63
				c9.881,0.373,18.595,3.824,27.381,9.63c7.9,5.221,15.761,13.425,22.275,21.564c3.941,4.924,9.645,13.696,13.567,20.699
				c1.794,3.203,3.534,6.467,5.022,9.825c2.209,4.986,9.379,6.108,13.682,3.588C343.01,202.365,343.715,196.648,341.508,191.665z"/>
			<path id="_x37__24_" fill="#FFCE54" d="M256.008,139h-0.016c-98.675,1-101.325,179.98-73.927,214.23
				c27.398,34.252,52.602,35.094,52.602,35.094c16-38.666-44.666-142.662-29.417-157.995c7.013-7.051,18.305-26.919,28.459-46.329
				h44.582c10.154,19.41,21.446,39.283,28.459,46.334c15.249,15.333-45.417,119.334-29.417,158c0,0,25.203-0.852,52.602-35.104
				C357.333,318.98,354.683,140,256.008,139z"/>
			<path id="_x36__28_" fill="#FFD56B" d="M256,140c-52.666,0-59.834,61.191-59.834,61.191
				c19.203,21.61,53.926,22.361,60.744,22.291c6.817,0.07,41.584-0.686,60.787-22.296C317.697,201.187,308.666,140,256,140z"/>
			<path id="_x35__30_" fill="#F6BB42" d="M251.173,142.298c0.462-0.759,0.943-1.492,1.441-2.201
				c-1.829,0.095-3.603,0.264-5.317,0.505c-14.007,6.364-34.18,23.973-35.645,72.583c4.481,2.408,9.143,4.259,13.715,5.677
				C225.991,199.21,229.939,158.903,251.173,142.298z"/>
			<path id="_x34__35_" fill="#F6BB42" d="M264.5,140.572c-1.326-0.181-2.682-0.323-4.074-0.418
				c0.885,1.264,1.711,2.607,2.484,4.023c19.494,17.781,23.059,56.535,23.603,75.268c4.536-1.295,9.201-3.004,13.727-5.248
				C299.023,164.739,278.606,146.955,264.5,140.572z"/>
			<path id="_x33__47_" fill="#FFCE54" d="M262.91,144.178c-1.703-1.554-3.529-2.945-5.485-4.152
				C256.951,140.016,256.48,140,256,140c-0.529,0-1.046,0.017-1.566,0.028c-1.129,0.696-2.217,1.453-3.261,2.27
				c-14.036,23.037-12.042,68.185-12.257,79.722c8.503,1.388,15.35,1.49,17.994,1.463c2.558,0.026,9.049-0.063,17.176-1.327
				C273.859,211.135,275.81,167.802,262.91,144.178z"/>
			<path id="_x32__50_" fill="#F6BB42" d="M234.667,367.324c0,0-9.488-0.331-23.142-8.479
				c-6.479-19.611-24.958-74.976-28.191-133.179c0,0-7.019,55.856,9.171,118.209c-3.411-3.376-6.906-7.228-10.439-11.646
				c-8.12-10.15-13.6-33.013-14.724-60.186c-1.443,35.982,4.58,68.505,14.724,81.186c27.398,34.252,52.602,35.094,52.602,35.094
				c3.007-7.266,3.306-16.838,1.91-27.694C236.137,363.026,235.516,365.272,234.667,367.324z"/>
			<path id="_x31__60_" fill="#F6BB42" d="M344.658,272.045c-1.124,27.173-6.604,50.035-14.724,60.186
				c-3.533,4.418-7.028,8.27-10.44,11.646c16.191-62.354,9.172-118.21,9.172-118.21c-3.234,58.207-21.715,113.575-28.193,133.183
				c-13.652,8.15-23.14,8.484-23.14,8.484c-0.849-2.052-1.47-4.298-1.91-6.694c-1.396,10.856-1.097,20.429,1.91,27.694
				c0,0,25.203-0.852,52.602-35.104C340.078,340.55,346.102,308.027,344.658,272.045z"/>
		</g>
	</g>
	<g id="avatar9_1_">
		<g id="back_24_">
		</g>
		<g id="clothes_26_">
		</g>
		<g id="face_92_">
		</g>
		<g id="hair_17_">
		</g>
	</g>
	<g id="avatar8_1_">
		<g id="back_23_">
		</g>
		<g id="hair_back_7_">
		</g>
		<g id="clothes_25_">
		</g>
		<g id="face_91_">
		</g>
		<g id="hair_front_7_">
		</g>
	</g>
	<g id="avatar7_1_">
		<g id="back_22_">
		</g>
		<g id="clothes_24_">
		</g>
		<g id="face_90_">
		</g>
		<g id="necklace_1_">
		</g>
		<g id="earings_1_">
		</g>
		<g id="hair_16_">
		</g>
	</g>
	<g id="avatar6_1_">
		<g id="back_21_">
		</g>
		<g id="hair_back_6_">
		</g>
		<g id="clothes_23_">
		</g>
		<g id="face_89_">
		</g>
		<g id="glasses_12_">
		</g>
		<g id="hair_front_6_">
		</g>
	</g>
	<g id="avatar5_1_">
		<g id="back_20_">
		</g>
		<g id="hair_back_5_">
		</g>
		<g id="clothes_22_">
		</g>
		<g id="face_88_">
		</g>
		<g id="glasses_9_">
		</g>
		<g id="hair_front_5_">
		</g>
	</g>
	<g id="avatar4_1_">
		<g id="back_19_">
		</g>
		<g id="hair_back_4_">
		</g>
		<g id="clothes_21_">
		</g>
		<g id="face_87_">
		</g>
		<g id="earing_1_">
		</g>
		<g id="hair_front_4_">
		</g>
	</g>
	<g id="avatar3_1_">
		<g id="back_18_">
		</g>
		<g id="hair_back_3_">
		</g>
		<g id="clothes_20_">
		</g>
		<g id="face_86_">
		</g>
		<g id="earings">
		</g>
		<g id="glasses_8_">
		</g>
		<g id="hair_front_3_">
		</g>
	</g>
	<g id="avatar2_1_">
		<g id="Layebackr_167">
		</g>
		<g id="hair_back_2_">
		</g>
		<g id="clothes_19_">
		</g>
		<g id="necklace">
		</g>
		<g id="face_85_">
		</g>
		<g id="hair_front_2_">
		</g>
	</g>
	<g id="avatar1_1_">
		<g id="back_17_">
		</g>
		<g id="hair_back_1_">
		</g>
		<g id="clothes_18_">
		</g>
		<g id="face_84_">
		</g>
		<g id="hair_front_1_">
		</g>
	</g>
</g>
<g id="male" display="none">
	<g id="avatar20" display="inline">
		<g id="back_32_">
		</g>
		<g id="clothes_34_">
		</g>
		<g id="face_100_">
		</g>
		<g id="hair_22_">
		</g>
	</g>
	<g id="avatar19" display="inline">
		<g id="back_31_">
		</g>
		<g id="clothes_33_">
		</g>
		<g id="face_99_">
		</g>
		<g id="scaft">
		</g>
		<g id="hat">
		</g>
	</g>
	<g id="avatar18" display="inline">
		<g id="back_30_">
		</g>
		<g id="clothes_32_">
		</g>
		<g id="face_55_">
		</g>
		<g id="earings_2_">
		</g>
		<g id="hair_21_">
		</g>
	</g>
	<g id="avatar17" display="inline">
		<g id="back_29_">
		</g>
		<g id="hair_back_10_">
		</g>
		<g id="clothes_31_">
		</g>
		<g id="face_2_">
		</g>
		<g id="glasses_10_">
		</g>
		<g id="hair_front_10_">
		</g>
	</g>
	<g id="avatar16" display="inline">
		<g id="back_28_">
		</g>
		<g id="hair_back_9_">
		</g>
		<g id="clothes_1_">
		</g>
		<g id="face_1_">
		</g>
		<g id="hair_front_9_">
		</g>
	</g>
	<g id="avatar15" display="inline">
		<g id="back_5_">
		</g>
		<g id="clothes_6_">
		</g>
		<g id="face_29_">
		</g>
		<g id="glasses_4_">
		</g>
		<g id="hair_8_">
		</g>
	</g>
	<g id="avatar14" display="inline">
		<g id="back_6_">
		</g>
		<g id="clothes_7_">
		</g>
		<g id="face_42_">
		</g>
		<g id="earings_3_">
		</g>
		<g id="hair_9_">
		</g>
	</g>
	<g id="avatar13" display="inline">
		<g id="back_7_">
		</g>
		<g id="clothes_8_">
		</g>
		<g id="face_43_">
		</g>
		<g id="glasses_5_">
		</g>
		<g id="hair_10_">
		</g>
	</g>
	<g id="avatar12" display="inline">
		<g id="back_8_">
		</g>
		<g id="clothes_9_">
		</g>
		<g id="face_44_">
		</g>
		<g id="beard_6_">
		</g>
		<g id="hair_11_">
		</g>
	</g>
	<g id="avatar11" display="inline">
		<g id="back_9_">
		</g>
		<g id="clothes_10_">
		</g>
		<g id="face_45_">
		</g>
		<g id="glass">
		</g>
		<g id="hair_12_">
		</g>
	</g>
	<g id="avatar10" display="inline">
		<g id="back_10_">
		</g>
		<g id="clothes_11_">
		</g>
		<g id="face_46_">
		</g>
		<g id="beard_7_">
		</g>
		<g id="glasses_6_">
		</g>
		<g id="hair_13_">
		</g>
	</g>
	<g id="avatar9" display="inline">
		<g id="back_11_">
		</g>
		<g id="clothes_12_">
		</g>
		<g id="face_47_">
		</g>
		<g id="glasses_3_">
		</g>
		<g id="hair_7_">
		</g>
	</g>
	<g id="avatar8" display="inline">
		<g id="back_12_">
		</g>
		<g id="clothes_13_">
		</g>
		<g id="face_48_">
		</g>
		<g id="beard_5_">
		</g>
		<g id="glasses_7_">
		</g>
		<g id="hair_6_">
		</g>
	</g>
	<g id="avatar7" display="inline">
		<g id="back_4_">
		</g>
		<g id="clothes_14_">
		</g>
		<g id="face_11_">
		</g>
		<g id="hair_14_">
		</g>
	</g>
	<g id="avatar6" display="inline">
		<g id="back_13_">
		</g>
		<g id="clothes_15_">
		</g>
		<g id="face_16_">
		</g>
		<g id="glasses_2_">
		</g>
		<g id="beard_4_">
		</g>
		<g id="hair_5_">
		</g>
	</g>
	<g id="avatar5" display="inline">
		<g id="back_14_">
		</g>
		<g id="clothes_5_">
		</g>
		<g id="face_38_">
		</g>
		<g id="beard_3_">
		</g>
		<g id="hair_4_">
		</g>
	</g>
	<g id="avatar4" display="inline">
		<g id="back_3_">
		</g>
		<g id="clothes_4_">
		</g>
		<g id="face_13_">
		</g>
		<g id="beard_2_">
		</g>
		<g id="glasses_1_">
		</g>
		<g id="hair_3_">
		</g>
	</g>
	<g id="avatar3" display="inline">
		<g id="back_15_">
		</g>
		<g id="clothes_16_">
		</g>
		<g id="face_49_">
		</g>
		<g id="hair_15_">
		</g>
	</g>
	<g id="avatar2" display="inline">
		<g id="back_2_">
		</g>
		<g id="clothes_3_">
		</g>
		<g id="face_9_">
		</g>
		<g id="beard_1_">
		</g>
		<g id="hair_2_">
		</g>
	</g>
	<g id="avatar1" display="inline">
		<g id="back_1_">
		</g>
		<g id="clothes_2_">
		</g>
		<g id="face_6_">
		</g>
		<g id="hair_1_">
		</g>
	</g>
</g>
</svg>
