<?xml version="1.0" encoding="iso-8859-1"?>
<!-- Generator: Adobe Illustrator 16.0.3, SVG Export Plug-In . SVG Version: 6.00 Build 0)  -->
<!DOCTYPE svg PUBLIC "-//W3C//DTD SVG 1.1 Basic//EN" "http://www.w3.org/Graphics/SVG/1.1/DTD/svg11-basic.dtd">
<svg version="1.1" baseProfile="basic" xmlns="http://www.w3.org/2000/svg" xmlns:xlink="http://www.w3.org/1999/xlink" x="0px"
	 y="0px" width="512px" height="512px" viewBox="0 0 512 512" xml:space="preserve">
<g id="Layer_159" display="none">
	<rect x="-512" y="-512" display="inline" fill="#FFFFFF" width="512" height="512"/>
	<rect x="512" y="-512" display="inline" fill="#FFFFFF" width="512" height="512"/>
	<rect y="-512" display="inline" fill="#FFFFFF" width="512" height="512"/>
	<rect display="inline" fill="#FFFFFF" width="512" height="512"/>
	<rect x="-512" display="inline" fill="#FFFFFF" width="512" height="512"/>
	<rect x="512" display="inline" fill="#FFFFFF" width="512" height="512"/>
	<rect x="-512" y="512" display="inline" fill="#FFFFFF" width="512" height="512"/>
	<rect y="512" display="inline" fill="#FFFFFF" width="512" height="512"/>
	<rect x="512" y="512" display="inline" fill="#FFFFFF" width="512" height="512"/>
</g>
<g id="female">
	<g id="avatar15_1_">
		<g id="baclk">
		</g>
		<g id="hair_back_8_">
		</g>
		<g id="clothes_30_">
		</g>
		<g id="face_98_">
		</g>
		<g id="hair_front_8_">
		</g>
	</g>
	<g id="avatar14_1_">
		<g id="back_16_">
		</g>
		<g id="hair_back">
		</g>
		<g id="clothes_17_">
		</g>
		<g id="face_57_">
		</g>
		<g id="hair_front">
		</g>
	</g>
	<g id="avatar13_1_">
		<g id="back_x27_">
		</g>
		<g id="clothes">
		</g>
		<g id="face">
		</g>
		<g id="hair">
		</g>
	</g>
	<g id="avatar12_1_">
		<g id="back_27_">
		</g>
		<g id="clothes_29_">
		</g>
		<g id="face_97_">
		</g>
		<g id="hair_20_">
		</g>
	</g>
	<g id="avatar11_1_">
		<g id="back_26_">
		</g>
		<g id="clothes_28_">
		</g>
		<g id="face_95_">
		</g>
		<g id="hair_19_">
		</g>
	</g>
	<g id="avatar10_1_">
		<g id="back_25_">
		</g>
		<g id="clothes_27_">
		</g>
		<g id="face_94_">
		</g>
		<g id="glasses_11_">
		</g>
		<g id="hair_18_">
		</g>
	</g>
	<g id="avatar9_1_">
		<g id="back_24_">
		</g>
		<g id="clothes_26_">
		</g>
		<g id="face_92_">
		</g>
		<g id="hair_17_">
		</g>
	</g>
	<g id="avatar8_1_">
		<g id="back_23_">
			<circle fill="#DA4453" cx="256" cy="256" r="200"/>
		</g>
		<g id="hair_back_7_">
			<rect id="_x31__57_" x="180" y="212" fill="#2D3138" width="153" height="170"/>
		</g>
		<g id="clothes_25_">
			<path id="_x39__9_" fill="#F5F7FA" d="M372.668,369.667c-7.353-6.355-19.364-14.481-30.666-15.586
				c-0.261-0.025-0.623-0.081-1.063-0.081c-0.002,0-0.004,0-0.006,0c-0.106,0-0.213-0.119-0.329-0.141
				c-0.005-0.002-0.011-0.043-0.016-0.044c-0.172-0.033-0.36-0.091-0.553-0.13c-0.025-0.006-0.049-0.02-0.074-0.025
				c-0.003,0-0.006-0.006-0.009-0.007c-0.097-0.02-0.197-0.044-0.3-0.065c-0.007,0-0.135,0.248-0.142,0.246
				c-0.06-0.012-0.281,0.024-0.388,0.065c-0.005,0.024-0.124,0.049-0.124,0.067c0-0.023,0-0.039,0-0.062c0-0.161,0-0.297,0-0.406
				c0,0.009,0.126,0.155,0.213,0.234c0-0.296,0.002-0.431,0.005-0.481c-0.099,0.003-0.19,0.078-0.294,0.056
				c-0.023-0.006-0.043,0.052-0.066,0.046c-0.139-0.031-0.279-0.031-0.424-0.063c-0.017-0.004-0.033,0.008-0.049,0.005
				c-0.188-0.043-0.383-0.079-0.58-0.125c-0.09-0.02-0.176-0.035-0.267-0.057c-0.059-0.014-0.119-0.025-0.179-0.039
				c-0.047-0.012-0.093-0.021-0.141-0.031c-0.038-0.01-0.074-0.018-0.112-0.025c-0.171-0.041-0.349-0.082-0.526-0.124
				c-0.062-0.015-0.125-0.03-0.188-0.045c-0.09-0.021-0.179-0.042-0.271-0.063c-0.005-0.002-0.011-0.002-0.016-0.004
				c-0.015-0.004-0.031-0.008-0.047-0.012c-0.396-0.094-0.813-0.195-1.237-0.299c-0.103-0.024-0.204-0.049-0.306-0.074
				c-0.36-0.088-0.729-0.178-1.107-0.272c-0.177-0.044-0.351-0.087-0.529-0.131c-0.999-0.249-2.056-0.515-3.173-0.8
				c-0.334-0.086-0.67-0.172-1.014-0.26c-0.388-0.1-0.785-0.202-1.184-0.305c-0.065-0.018-0.129-0.033-0.193-0.051
				c-0.187-0.047-0.374-0.096-0.563-0.146c-0.099-0.025-0.2-0.052-0.3-0.077c-0.313-0.082-0.62-0.161-0.938-0.244
				c-0.016-0.004-0.031-0.008-0.046-0.012c-1.919-3.369-4.676-6.883-8.47-10.527c0,0-9.605-28.224-28.861-5.825
				c-1.172,1.363-2.383,2.926-3.625,4.681c4.702,1.307,9.697,2.689,14.75,4.077c0.236,0.064,0.471,0.13,0.707,0.194
				c-0.028,0.166-0.064,0.351-0.096,0.522c-0.006,0.028-0.011,0.058-0.016,0.087C297.235,357.74,285.209,394,258,394
				c-0.342,0-0.672-0.014-1-0.027c-0.328,0.014-0.658,0.027-1,0.027c-27.209,0-39.235-36.26-41.859-50.691
				c-0.037-0.202-0.078-0.416-0.111-0.609l0,0c0.236-0.064,0.472-0.13,0.708-0.195c5.05-1.387,10.05-2.77,14.75-4.075
				c-1.243-1.756-2.454-3.318-3.626-4.682C206.605,311.349,197,339.572,197,339.572c-3.563,3.422-6.209,6.729-8.109,9.909
				c-0.817,0.215-1.623,0.427-2.406,0.63c-0.317,0.083-0.625,0.162-0.938,0.244c-0.1,0.025-0.201,0.052-0.3,0.077
				c-0.189,0.05-0.377,0.099-0.563,0.146c-0.064,0.018-0.128,0.033-0.193,0.051c-0.398,0.103-0.796,0.205-1.184,0.305
				c-0.344,0.088-0.68,0.174-1.014,0.26c-1.117,0.285-2.174,0.551-3.173,0.8c-0.179,0.044-0.353,0.087-0.529,0.131
				c-0.379,0.095-0.747,0.185-1.107,0.272c-0.102,0.025-0.203,0.05-0.306,0.074c-0.425,0.104-0.842,0.205-1.237,0.299
				c-0.016,0.004-0.032,0.008-0.047,0.012c-0.005,0.002-0.011,0.002-0.016,0.004c-0.092,0.021-0.181,0.043-0.271,0.064
				c-0.283,0.066-0.561,0.132-0.826,0.193c-0.048,0.012-0.094,0.021-0.141,0.033c-0.154,0.035-0.299,0.068-0.445,0.102
				c-0.198,0.046-0.394,0.09-0.58,0.133c-0.164,0.036-0.615,0.2-0.615,0.188c0,0.132-2.741,0.557-3.002,0.582
				c-11.302,1.104-23.313,9.271-30.666,15.626c-13.23,11.436-10.856,25.422-14.637,38.15c-0.001-0.001-0.002-0.002-0.004-0.004
				v0.001c0.002,0.001,0.003,0.003,0.004,0.004c-0.001,0.005-0.002,0.011-0.004,0.016c0.006,0.005,0.013,0.001,0.019,0.006
				c0.427,0.372,0.864,0.728,1.295,1.094c0.409,0.348,0.815,0.699,1.226,1.045c0.32,0.271,0.638,0.544,0.96,0.812
				c0.118,0.098,0.239,0.193,0.357,0.291c0.396,0.328,0.796,0.649,1.194,0.975c0.271,0.221,0.543,0.444,0.816,0.665
				c0.392,0.316,0.783,0.635,1.178,0.948c0.467,0.371,0.934,0.74,1.403,1.107c0.168,0.131,0.339,0.258,0.508,0.389
				c0.134,0.104,0.269,0.205,0.403,0.309c0.431,0.333,0.862,0.666,1.297,0.994c0.67,0.509,1.345,1.013,2.022,1.513
				c0.189,0.14,0.378,0.28,0.568,0.419c0.358,0.263,0.719,0.522,1.079,0.783c0.768,0.555,1.541,1.105,2.316,1.649
				c0.271,0.19,0.541,0.383,0.814,0.571c0.125,0.088,0.253,0.172,0.379,0.258c0.07,0.049,0.143,0.097,0.213,0.146
				c0.781,0.538,1.564,1.072,2.353,1.599c0.44,0.295,0.886,0.584,1.329,0.875c0.225,0.148,0.449,0.297,0.676,0.444
				c0.605,0.395,1.213,0.788,1.824,1.177c0.455,0.289,0.916,0.571,1.373,0.857c0.385,0.24,0.768,0.482,1.154,0.72
				c0.038,0.023,0.076,0.048,0.114,0.071c0.417,0.256,0.833,0.512,1.252,0.765c0.393,0.237,0.79,0.466,1.184,0.7
				c0.763,0.453,1.526,0.905,2.296,1.349c0.016,0.009,0.031,0.018,0.046,0.026c0.475,0.273,0.958,0.531,1.436,0.801
				c0.644,0.363,1.289,0.723,1.937,1.079c0.488,0.269,0.969,0.548,1.46,0.813c0.055,0.029,0.11,0.058,0.165,0.087
				c0.715,0.385,1.433,0.764,2.152,1.14c0.358,0.188,0.713,0.381,1.072,0.566c0.511,0.264,1.027,0.519,1.541,0.777
				c0.074,0.037,0.15,0.074,0.225,0.111c0.246,0.125,0.494,0.246,0.74,0.368c0.547,0.272,1.092,0.549,1.643,0.816
				c0.764,0.371,1.534,0.731,2.305,1.093c0.109,0.053,0.219,0.104,0.329,0.156c0.522,0.244,1.044,0.49,1.569,0.73
				c0.773,0.354,1.554,0.699,2.333,1.044c0.341,0.15,0.682,0.298,1.022,0.447c0.07,0.031,0.142,0.063,0.213,0.093
				c0.23,0.1,0.459,0.203,0.689,0.302c0.768,0.329,1.538,0.652,2.311,0.973c0.666,0.276,1.334,0.55,2.004,0.818
				c0.762,0.307,1.526,0.608,2.293,0.905c0.69,0.268,1.383,0.529,2.077,0.79c0.758,0.284,1.517,0.565,2.278,0.841
				c0.717,0.258,1.438,0.51,2.157,0.76c0.748,0.26,1.495,0.521,2.248,0.773c0.751,0.25,1.507,0.491,2.262,0.733
				c0.731,0.235,1.462,0.474,2.198,0.701c0.594,0.184,1.193,0.357,1.791,0.533c0.054,0.016,0.107,0.032,0.161,0.048
				c0.167,0.049,0.333,0.1,0.499,0.148c0.684,0.201,1.364,0.408,2.051,0.604c0.501,0.141,1.006,0.271,1.509,0.409
				c0.002,0.001,0.004,0.001,0.006,0.002c0.662,0.182,1.325,0.362,1.99,0.536c0.774,0.204,1.552,0.401,2.33,0.596
				c1.069,0.268,2.14,0.535,3.216,0.785c0.638,0.148,1.281,0.283,1.922,0.426c0.91,0.201,1.82,0.406,2.736,0.596
				c0.68,0.141,1.363,0.271,2.047,0.404c0.884,0.174,1.768,0.348,2.656,0.509c0.698,0.128,1.4,0.246,2.102,0.366
				c0.879,0.15,1.759,0.299,2.643,0.438c0.708,0.111,1.419,0.217,2.13,0.321c0.886,0.13,1.772,0.255,2.662,0.372
				c0.709,0.094,1.419,0.185,2.13,0.271c0.903,0.109,1.81,0.213,2.717,0.311c0.702,0.076,1.404,0.15,2.108,0.219
				c0.929,0.091,1.861,0.171,2.794,0.248c0.688,0.058,1.373,0.117,2.063,0.167c0.977,0.071,1.957,0.129,2.938,0.187
				c0.648,0.037,1.296,0.08,1.946,0.111c1.087,0.053,2.179,0.09,3.27,0.125c0.549,0.018,1.095,0.043,1.645,0.057
				c1.643,0.04,3.288,0.063,4.94,0.063s3.298-0.022,4.94-0.063c0.55-0.014,1.096-0.039,1.645-0.057
				c1.091-0.035,2.183-0.072,3.27-0.125c0.65-0.031,1.298-0.074,1.946-0.111c0.98-0.058,1.961-0.115,2.938-0.187
				c0.689-0.05,1.375-0.109,2.063-0.167c0.933-0.077,1.865-0.157,2.794-0.248c0.704-0.068,1.406-0.143,2.108-0.219
				c0.907-0.098,1.813-0.201,2.717-0.311c0.711-0.087,1.421-0.178,2.13-0.271c0.89-0.117,1.776-0.242,2.662-0.372
				c0.711-0.104,1.422-0.21,2.13-0.321c0.884-0.139,1.764-0.287,2.643-0.438c0.701-0.12,1.403-0.238,2.102-0.366
				c0.889-0.161,1.772-0.335,2.656-0.509c0.684-0.134,1.367-0.264,2.047-0.404c0.916-0.189,1.826-0.395,2.736-0.596
				c0.641-0.143,1.284-0.277,1.922-0.426c1.076-0.25,2.146-0.518,3.216-0.785c0.778-0.194,1.556-0.392,2.33-0.596
				c0.665-0.174,1.328-0.354,1.99-0.536c0.002-0.001,0.004-0.001,0.006-0.002c0.503-0.138,1.008-0.269,1.509-0.409
				c0.687-0.195,1.367-0.402,2.051-0.604c0.166-0.049,0.332-0.1,0.499-0.148c0.054-0.016,0.107-0.032,0.161-0.048
				c0.598-0.176,1.197-0.35,1.791-0.533c0.736-0.228,1.467-0.466,2.198-0.701c0.755-0.242,1.511-0.483,2.262-0.733
				c0.753-0.252,1.5-0.514,2.248-0.773c0.72-0.25,1.44-0.502,2.157-0.76c0.762-0.275,1.521-0.557,2.278-0.841
				c0.694-0.261,1.387-0.522,2.077-0.79c0.767-0.297,1.531-0.599,2.293-0.905c0.67-0.269,1.338-0.542,2.004-0.818
				c0.772-0.32,1.543-0.644,2.311-0.973c0.23-0.099,0.459-0.202,0.689-0.302c0.071-0.03,0.143-0.062,0.213-0.093
				c0.341-0.149,0.682-0.297,1.022-0.447c0.779-0.345,1.56-0.689,2.333-1.044c0.525-0.24,1.047-0.486,1.569-0.73
				c0.11-0.052,0.22-0.104,0.329-0.156c0.771-0.361,1.541-0.722,2.305-1.093c0.551-0.268,1.096-0.544,1.643-0.816
				c0.246-0.122,0.494-0.243,0.74-0.368c0.074-0.037,0.15-0.074,0.225-0.111c0.514-0.259,1.03-0.514,1.541-0.777
				c0.359-0.186,0.714-0.379,1.072-0.566c0.72-0.376,1.438-0.755,2.152-1.14c0.055-0.029,0.11-0.058,0.165-0.087
				c0.491-0.266,0.972-0.545,1.46-0.813c0.647-0.356,1.293-0.716,1.937-1.079c0.478-0.27,0.961-0.527,1.436-0.801
				c0.015-0.009,0.03-0.018,0.046-0.026c0.77-0.443,1.533-0.896,2.296-1.349c0.394-0.234,0.791-0.463,1.184-0.7
				c0.419-0.253,0.835-0.509,1.252-0.765c0.038-0.023,0.076-0.048,0.114-0.071c0.387-0.237,0.77-0.479,1.154-0.72
				c0.457-0.286,0.918-0.568,1.373-0.857c0.611-0.389,1.219-0.782,1.824-1.177c0.227-0.147,0.451-0.296,0.676-0.444
				c0.443-0.291,0.889-0.58,1.329-0.875c0.788-0.526,1.571-1.061,2.353-1.599c0.07-0.049,0.143-0.097,0.213-0.146
				c0.126-0.086,0.254-0.17,0.379-0.258c0.273-0.188,0.543-0.381,0.814-0.571c0.775-0.544,1.549-1.095,2.316-1.649
				c0.36-0.261,0.721-0.521,1.079-0.783c0.19-0.139,0.379-0.279,0.568-0.419c0.678-0.5,1.353-1.004,2.022-1.513
				c0.435-0.328,0.866-0.661,1.297-0.994c0.135-0.104,0.27-0.205,0.403-0.309c0.169-0.131,0.34-0.258,0.508-0.389
				c0.47-0.367,0.937-0.736,1.403-1.107c0.395-0.313,0.786-0.632,1.178-0.948c0.273-0.221,0.545-0.444,0.816-0.665
				c0.398-0.325,0.799-0.646,1.194-0.975c0.118-0.098,0.239-0.193,0.357-0.291c0.322-0.268,0.64-0.541,0.96-0.812
				c0.841-0.708,1.681-1.417,2.51-2.14c0.004-0.002,0.008-0.006,0.011-0.009c0.006-0.005,0.013-0.011,0.019-0.016v-0.001
				C383.522,395.121,385.903,381.107,372.668,369.667z"/>
			<path id="_x38__13_" fill="#D9C392" d="M281.814,336.113c-0.018,0.112-0.039,0.242-0.062,0.373
				C281.775,336.352,281.797,336.228,281.814,336.113z"/>
			<path id="_x37__21_" fill="#D9C392" d="M281.889,335.63c-0.014,0.1-0.033,0.224-0.055,0.358
				C281.855,335.85,281.874,335.73,281.889,335.63z"/>
			<path id="_x36__25_" fill="#D9C392" d="M281.943,335.234c0,0-0.004,0.034-0.012,0.09
				C281.939,335.27,281.943,335.234,281.943,335.234z"/>
			<path id="_x35__27_" fill="#D9C392" d="M281.93,335.34c-0.008,0.059-0.02,0.145-0.035,0.252
				C281.91,335.484,281.922,335.397,281.93,335.34z"/>
			<path id="_x34__32_" fill="#EC87C0" d="M309.018,386.883C305.799,388.916,303.5,348,303.5,348c9.006,32.614-46.5,24-46.5,24
				s-55.506,8.614-46.5-24c0,0-3.262,40.463-7.453,37.613c-1.088,20.34-0.764,45.48-0.03,63.278c0.663,0.182,1.325,0.364,1.99,0.538
				c0.774,0.204,1.552,0.401,2.33,0.596c1.069,0.268,2.14,0.535,3.216,0.785c0.638,0.148,1.281,0.283,1.922,0.426
				c0.91,0.201,1.82,0.406,2.736,0.596c0.68,0.141,1.363,0.271,2.047,0.404c0.884,0.174,1.768,0.348,2.656,0.509
				c0.698,0.128,1.4,0.246,2.102,0.366c0.879,0.15,1.759,0.299,2.643,0.438c0.708,0.111,1.419,0.217,2.13,0.321
				c0.886,0.13,1.772,0.255,2.662,0.372c0.709,0.094,1.419,0.185,2.13,0.271c0.903,0.109,1.81,0.213,2.717,0.311
				c0.702,0.076,1.404,0.15,2.108,0.219c0.929,0.091,1.861,0.171,2.794,0.248c0.688,0.058,1.373,0.117,2.063,0.167
				c0.977,0.071,1.957,0.129,2.938,0.187c0.648,0.037,1.296,0.08,1.946,0.111c1.087,0.053,2.179,0.09,3.27,0.125
				c0.549,0.018,1.095,0.043,1.645,0.057c1.643,0.04,3.288,0.063,4.94,0.063s3.298-0.022,4.94-0.063
				c0.55-0.014,1.096-0.039,1.645-0.057c1.091-0.035,2.183-0.072,3.27-0.125c0.65-0.031,1.298-0.074,1.946-0.111
				c0.98-0.058,1.961-0.115,2.938-0.187c0.689-0.05,1.375-0.109,2.063-0.167c0.933-0.077,1.865-0.157,2.794-0.248
				c0.704-0.068,1.406-0.143,2.108-0.219c0.907-0.098,1.813-0.201,2.717-0.311c0.711-0.087,1.421-0.178,2.13-0.271
				c0.89-0.117,1.776-0.242,2.662-0.372c0.711-0.104,1.422-0.21,2.13-0.321c0.884-0.139,1.764-0.287,2.643-0.438
				c0.701-0.12,1.403-0.238,2.102-0.366c0.889-0.161,1.772-0.335,2.656-0.509c0.684-0.134,1.367-0.264,2.047-0.404
				c0.916-0.189,1.826-0.395,2.736-0.596c0.641-0.143,1.284-0.277,1.922-0.426c1.076-0.25,2.146-0.518,3.216-0.785
				c0.778-0.194,1.556-0.392,2.33-0.596c0.665-0.174,1.327-0.356,1.99-0.538C309.701,431.463,310.024,406.872,309.018,386.883z"/>
			<path id="_x33__44_" fill="#F9E0A8" d="M299.264,341.505c-5.053-1.388-10.048-2.771-14.75-4.077
				c-0.936-0.26-1.88-0.521-2.789-0.774c0.012-0.063,0.019-0.108,0.028-0.167c0.022-0.131,0.044-0.261,0.062-0.373
				c0.007-0.043,0.014-0.085,0.02-0.125c0.021-0.135,0.041-0.259,0.055-0.358c0.002-0.013,0.004-0.026,0.006-0.038
				c0.016-0.107,0.027-0.193,0.035-0.252c0,0,0.002-0.012,0.002-0.016c0.008-0.056,0.012-0.09,0.012-0.09L298.25,246.5L256,252
				l-42.25-5.5l16.307,88.734c0,0,0.088,0.727,0.313,1.949c-0.289,0.08-0.591,0.164-0.882,0.245c-4.7,1.306-9.7,2.688-14.75,4.075
				c-0.236,0.065-0.472,0.131-0.708,0.195l0,0c0.033,0.193,0.074,0.407,0.111,0.609C216.765,356.74,228.791,393,256,393
				c0.342,0,0.672-0.014,1-0.027c0.328,0.014,0.658,0.027,1,0.027c27.209,0,39.235-36.26,41.859-50.691
				c0.005-0.029,0.01-0.059,0.016-0.087c0.031-0.172,0.067-0.356,0.096-0.522C299.734,341.635,299.5,341.569,299.264,341.505z"/>
			<path id="_x32__47_" fill="#D9C392" d="M290,261.5l-69.525,21.592l7.086,38.556c3.645,4.493,7.943,8.857,12.982,12.698
				c9.703,7.397,22.152,12.857,37.975,13.566c1.77-4.373,2.687-8.432,3.111-10.729c0.047-0.256,0.088-0.488,0.124-0.697
				c0.022-0.131,0.044-0.261,0.062-0.373c0.007-0.043,0.014-0.085,0.02-0.125c0.021-0.135,0.041-0.259,0.055-0.358
				c0.002-0.013,0.004-0.026,0.006-0.038c0.016-0.107,0.027-0.193,0.035-0.252c0,0,0.002-0.012,0.002-0.016
				c0.008-0.056,0.012-0.09,0.012-0.09l12.127-65.99C291.686,264.447,290,261.5,290,261.5z"/>
			<path id="_x31__56_" fill="#ECB8D5" d="M325.47,349.1c-1.919-3.369-4.676-6.883-8.47-10.527c0,0-9.605-28.224-28.861-5.825
				c-1.172,1.363-2.383,2.926-3.625,4.681c4.702,1.307,9.697,2.689,14.75,4.077l0.911,0.194c0,0-0.096,0.188-0.274,0.529
				c-0.014,0.026-0.027,0.052-0.041,0.08C297.235,356.74,285.209,393,258,393c-0.342,0-0.672-0.014-1-0.027
				c-0.328,0.014-0.658,0.027-1,0.027c-27.209,0-39.235-36.26-41.859-50.691c-0.15-0.288-0.248-0.479-0.29-0.561
				c-0.016-0.029-0.025-0.049-0.025-0.049l0.912-0.195c5.05-1.387,10.05-2.77,14.75-4.075c-1.243-1.756-2.454-3.318-3.626-4.682
				C206.605,310.349,197,338.572,197,338.572c-3.563,3.422-6.209,6.729-8.109,9.909c-11.297,18.913,4.105,33.3,14.156,40.132
				c4.191,2.85,7.453,4.387,7.453,4.387c-9.006,32.614,46.5,24,46.5,24s55.506,8.614,46.5-24c0,0,2.299-1.084,5.518-3.117
				C318.722,383.752,336.787,368.967,325.47,349.1z"/>
		</g>
		<g id="face_91_">
			<path id="face_62_" fill="#FFE9BA" d="M256,154h-63c0,0,4.785,94.465,11,114c7,22.001,14.237,27.287,30.226,41
				C247.634,320.5,256,319,256,319s8.366,1.5,21.774-10C293.763,295.287,302,290.001,309,268c6.215-19.535,10-114,10-114H256z"/>
			<path id="ear_94_" fill="#F9E0A8" d="M197.75,214.5c0,0-22.743-10.911-17.273,16.638c5.468,27.55,22.018,23.583,22.018,23.583
				L197.75,214.5z"/>
			<path id="ear_89_" fill="#F9E0A8" d="M315.25,214.5c0,0,22.743-10.911,17.273,16.638c-5.468,27.55-22.018,23.583-22.018,23.583
				L315.25,214.5z"/>
		</g>
		<g id="hair_front_7_">
			<path id="_x37__20_" fill="#EC87C0" d="M301.294,130.213c6.377,1.448,13.185,7.747,15.131,13.997
				c1.947,6.251,5.541,17.797,7.988,25.654l4.962,15.943c2.447,7.857,9.022,9.344,14.61,3.302l11.277-12.19
				c5.591-6.043,14.734-15.929,20.325-21.971l11.277-12.191c5.588-6.042,3.597-12.482-4.43-14.311l-16.279-3.708
				c-8.024-1.828-19.813-4.514-26.197-5.968c-6.383-1.454-13.192-7.753-15.132-13.998c-1.938-6.244-5.522-17.783-7.963-25.644
				l-4.933-15.888c-2.442-7.861-9.013-9.351-14.601-3.309l-11.277,12.191c-5.589,6.042-14.734,15.93-20.325,21.972l-11.276,12.191
				c-5.589,6.042-3.596,12.476,4.432,14.298l16.223,3.683C283.133,126.09,294.917,128.765,301.294,130.213z"/>
			<path id="_x36__24_" fill="#ECB8D5" d="M382.436,128.446l-16.279-3.708c-8.024-1.828-19.813-4.514-26.197-5.968
				c-6.383-1.454-13.192-7.753-15.132-13.998c-1.938-6.244-5.522-17.783-7.963-25.644l-4.933-15.888
				c-2.442-7.861-9.013-9.351-14.601-3.309l-11.277,12.191c-5.589,6.042-14.734,15.93-20.325,21.972l-11.276,12.191
				c-0.729,0.789-1.323,1.585-1.798,2.377l6.074-6.568c5.591-6.042,14.736-15.93,20.325-21.972l11.277-12.191
				c5.588-6.042,12.158-4.553,14.601,3.309l4.933,15.888c2.44,7.86,6.024,19.399,7.963,25.644
				c1.939,6.245,8.749,12.544,15.132,13.998c6.384,1.454,18.173,4.14,26.197,5.968l16.279,3.708
				c6.979,1.589,9.388,6.665,6.229,11.935l5.201-5.624C392.453,136.715,390.462,130.274,382.436,128.446z"/>
			<path id="_x35__26_" fill="#434A54" d="M259.272,104.667c-102.271,0-84.271,86.133-84.271,86.133
				c5.59,47.291-23.334,45.867-23.334,45.867s38.732,52.667,137.033-37.333c0,0,12.968,35.556,58.301,31.111
				c0,0-17.252-6.444-14.626-30.444S361.544,104.667,259.272,104.667z"/>
			<path id="_x34__31_" fill="#656D78" d="M294.046,164.002c0,0,12.951,56.667,55.953,52.667
				C349.999,216.669,317.889,197.041,294.046,164.002z"/>
			<path id="_x33__42_" fill="#656D78" d="M288.7,160.867c0.786-1.317-74.366,77.802-129.699,55.802
				C159.001,216.669,231.732,256.399,288.7,160.867z"/>
			<path id="_x32__46_" fill="#656D78" d="M280.335,146.986c0,0-59.332,66.346-114.333,52.681
				C166.002,199.667,233.002,185.304,280.335,146.986z"/>
			<path id="_x31__55_" fill="#656D78" d="M259.272,130.667c55.772,0,73.233,21.215,77.159,44.397
				c3.797-30.197-0.383-70.397-77.159-70.397c-94.283,0-86.35,73.203-84.535,84.639
				C178.524,164.099,195.555,130.667,259.272,130.667z"/>
		</g>
	</g>
	<g id="avatar7_1_">
		<g id="back_22_">
		</g>
		<g id="clothes_24_">
		</g>
		<g id="face_90_">
		</g>
		<g id="necklace_1_">
		</g>
		<g id="earings_1_">
		</g>
		<g id="hair_16_">
		</g>
	</g>
	<g id="avatar6_1_">
		<g id="back_21_">
		</g>
		<g id="hair_back_6_">
		</g>
		<g id="clothes_23_">
		</g>
		<g id="face_89_">
		</g>
		<g id="glasses_12_">
		</g>
		<g id="hair_front_6_">
		</g>
	</g>
	<g id="avatar5_1_">
		<g id="back_20_">
		</g>
		<g id="hair_back_5_">
		</g>
		<g id="clothes_22_">
		</g>
		<g id="face_88_">
		</g>
		<g id="glasses_9_">
		</g>
		<g id="hair_front_5_">
		</g>
	</g>
	<g id="avatar4_1_">
		<g id="back_19_">
		</g>
		<g id="hair_back_4_">
		</g>
		<g id="clothes_21_">
		</g>
		<g id="face_87_">
		</g>
		<g id="earing_1_">
		</g>
		<g id="hair_front_4_">
		</g>
	</g>
	<g id="avatar3_1_">
		<g id="back_18_">
		</g>
		<g id="hair_back_3_">
		</g>
		<g id="clothes_20_">
		</g>
		<g id="face_86_">
		</g>
		<g id="earings">
		</g>
		<g id="glasses_8_">
		</g>
		<g id="hair_front_3_">
		</g>
	</g>
	<g id="avatar2_1_">
		<g id="Layebackr_167">
		</g>
		<g id="hair_back_2_">
		</g>
		<g id="clothes_19_">
		</g>
		<g id="necklace">
		</g>
		<g id="face_85_">
		</g>
		<g id="hair_front_2_">
		</g>
	</g>
	<g id="avatar1_1_">
		<g id="back_17_">
		</g>
		<g id="hair_back_1_">
		</g>
		<g id="clothes_18_">
		</g>
		<g id="face_84_">
		</g>
		<g id="hair_front_1_">
		</g>
	</g>
</g>
<g id="male" display="none">
	<g id="avatar20" display="inline">
		<g id="back_32_">
		</g>
		<g id="clothes_34_">
		</g>
		<g id="face_100_">
		</g>
		<g id="hair_22_">
		</g>
	</g>
	<g id="avatar19" display="inline">
		<g id="back_31_">
		</g>
		<g id="clothes_33_">
		</g>
		<g id="face_99_">
		</g>
		<g id="scaft">
		</g>
		<g id="hat">
		</g>
	</g>
	<g id="avatar18" display="inline">
		<g id="back_30_">
		</g>
		<g id="clothes_32_">
		</g>
		<g id="face_55_">
		</g>
		<g id="earings_2_">
		</g>
		<g id="hair_21_">
		</g>
	</g>
	<g id="avatar17" display="inline">
		<g id="back_29_">
		</g>
		<g id="hair_back_10_">
		</g>
		<g id="clothes_31_">
		</g>
		<g id="face_2_">
		</g>
		<g id="glasses_10_">
		</g>
		<g id="hair_front_10_">
		</g>
	</g>
	<g id="avatar16" display="inline">
		<g id="back_28_">
		</g>
		<g id="hair_back_9_">
		</g>
		<g id="clothes_1_">
		</g>
		<g id="face_1_">
		</g>
		<g id="hair_front_9_">
		</g>
	</g>
	<g id="avatar15" display="inline">
		<g id="back_5_">
		</g>
		<g id="clothes_6_">
		</g>
		<g id="face_29_">
		</g>
		<g id="glasses_4_">
		</g>
		<g id="hair_8_">
		</g>
	</g>
	<g id="avatar14" display="inline">
		<g id="back_6_">
		</g>
		<g id="clothes_7_">
		</g>
		<g id="face_42_">
		</g>
		<g id="earings_3_">
		</g>
		<g id="hair_9_">
		</g>
	</g>
	<g id="avatar13" display="inline">
		<g id="back_7_">
		</g>
		<g id="clothes_8_">
		</g>
		<g id="face_43_">
		</g>
		<g id="glasses_5_">
		</g>
		<g id="hair_10_">
		</g>
	</g>
	<g id="avatar12" display="inline">
		<g id="back_8_">
		</g>
		<g id="clothes_9_">
		</g>
		<g id="face_44_">
		</g>
		<g id="beard_6_">
		</g>
		<g id="hair_11_">
		</g>
	</g>
	<g id="avatar11" display="inline">
		<g id="back_9_">
		</g>
		<g id="clothes_10_">
		</g>
		<g id="face_45_">
		</g>
		<g id="glass">
		</g>
		<g id="hair_12_">
		</g>
	</g>
	<g id="avatar10" display="inline">
		<g id="back_10_">
		</g>
		<g id="clothes_11_">
		</g>
		<g id="face_46_">
		</g>
		<g id="beard_7_">
		</g>
		<g id="glasses_6_">
		</g>
		<g id="hair_13_">
		</g>
	</g>
	<g id="avatar9" display="inline">
		<g id="back_11_">
		</g>
		<g id="clothes_12_">
		</g>
		<g id="face_47_">
		</g>
		<g id="glasses_3_">
		</g>
		<g id="hair_7_">
		</g>
	</g>
	<g id="avatar8" display="inline">
		<g id="back_12_">
		</g>
		<g id="clothes_13_">
		</g>
		<g id="face_48_">
		</g>
		<g id="beard_5_">
		</g>
		<g id="glasses_7_">
		</g>
		<g id="hair_6_">
		</g>
	</g>
	<g id="avatar7" display="inline">
		<g id="back_4_">
		</g>
		<g id="clothes_14_">
		</g>
		<g id="face_11_">
		</g>
		<g id="hair_14_">
		</g>
	</g>
	<g id="avatar6" display="inline">
		<g id="back_13_">
		</g>
		<g id="clothes_15_">
		</g>
		<g id="face_16_">
		</g>
		<g id="glasses_2_">
		</g>
		<g id="beard_4_">
		</g>
		<g id="hair_5_">
		</g>
	</g>
	<g id="avatar5" display="inline">
		<g id="back_14_">
		</g>
		<g id="clothes_5_">
		</g>
		<g id="face_38_">
		</g>
		<g id="beard_3_">
		</g>
		<g id="hair_4_">
		</g>
	</g>
	<g id="avatar4" display="inline">
		<g id="back_3_">
		</g>
		<g id="clothes_4_">
		</g>
		<g id="face_13_">
		</g>
		<g id="beard_2_">
		</g>
		<g id="glasses_1_">
		</g>
		<g id="hair_3_">
		</g>
	</g>
	<g id="avatar3" display="inline">
		<g id="back_15_">
		</g>
		<g id="clothes_16_">
		</g>
		<g id="face_49_">
		</g>
		<g id="hair_15_">
		</g>
	</g>
	<g id="avatar2" display="inline">
		<g id="back_2_">
		</g>
		<g id="clothes_3_">
		</g>
		<g id="face_9_">
		</g>
		<g id="beard_1_">
		</g>
		<g id="hair_2_">
		</g>
	</g>
	<g id="avatar1" display="inline">
		<g id="back_1_">
		</g>
		<g id="clothes_2_">
		</g>
		<g id="face_6_">
		</g>
		<g id="hair_1_">
		</g>
	</g>
</g>
</svg>
