<?xml version="1.0" encoding="iso-8859-1"?>
<!-- Generator: Adobe Illustrator 16.0.3, SVG Export Plug-In . SVG Version: 6.00 Build 0)  -->
<!DOCTYPE svg PUBLIC "-//W3C//DTD SVG 1.1 Basic//EN" "http://www.w3.org/Graphics/SVG/1.1/DTD/svg11-basic.dtd">
<svg version="1.1" baseProfile="basic" xmlns="http://www.w3.org/2000/svg" xmlns:xlink="http://www.w3.org/1999/xlink" x="0px"
	 y="0px" width="512px" height="512px" viewBox="0 0 512 512" xml:space="preserve">
<g id="Layer_159" display="none">
	<rect y="-512" display="inline" fill="#FFFFFF" width="512" height="512"/>
	<rect x="512" y="-512" display="inline" fill="#FFFFFF" width="512" height="512"/>
	<rect display="inline" fill="#FFFFFF" width="512" height="512"/>
	<rect x="512" display="inline" fill="#FFFFFF" width="512" height="512"/>
</g>
<g id="female">
	<g id="avatar15_1_">
		<g id="baclk">
		</g>
		<g id="hair_back_8_">
		</g>
		<g id="clothes_30_">
		</g>
		<g id="face_98_">
		</g>
		<g id="hair_front_8_">
		</g>
	</g>
	<g id="avatar14_1_">
		<g id="back_16_">
		</g>
		<g id="hair_back">
		</g>
		<g id="clothes_17_">
		</g>
		<g id="face_57_">
		</g>
		<g id="hair_front">
		</g>
	</g>
	<g id="avatar13_1_">
		<g id="back_x27_">
		</g>
		<g id="clothes">
		</g>
		<g id="face">
		</g>
		<g id="hair">
		</g>
	</g>
	<g id="avatar12_1_">
		<g id="back_27_">
		</g>
		<g id="clothes_29_">
		</g>
		<g id="face_97_">
		</g>
		<g id="hair_20_">
		</g>
	</g>
	<g id="avatar11_1_">
		<g id="back_26_">
			<circle fill="#3BAFDA" cx="256" cy="256" r="200"/>
		</g>
		<g id="clothes_28_">
			<path id="_x34__39_" fill="#F6BB42" d="M372.668,368.667c-7.354-6.355-19.364-14.562-30.666-15.666
				c-2.679-0.262-15.099-3.464-29.701-7.4c-0.705-0.19-1.414-0.382-2.129-0.575c-0.018-0.004-0.033-0.009-0.051-0.014
				c-0.878-0.237-1.762-0.477-2.652-0.719c-8.923-2.422-18.324-5.02-26.62-7.326c-0.182-0.051-0.362-0.102-0.542-0.151
				c-0.467-0.13-0.93-0.259-1.389-0.387c-0.219-0.061-0.436-0.121-0.652-0.182c-0.408-0.113-0.811-0.226-1.211-0.338
				c-0.237-0.065-0.475-0.132-0.709-0.197c-0.354-0.099-0.7-0.195-1.047-0.292c-0.697-0.194-1.381-0.386-2.053-0.573
				c-0.121-0.034-0.246-0.069-0.367-0.103c-0.223-0.063-0.439-0.123-0.66-0.185c-0.387-0.108-0.77-0.216-1.146-0.321
				c-5.435-1.521-9.816-2.754-12.426-3.49c-0.016-0.004-0.029-0.008-0.045-0.012c-0.41-0.116-0.766-0.217-1.084-0.307
				c-0.105-0.029-0.205-0.058-0.301-0.084c-0.314-0.09-0.555-0.157-0.75-0.213c-0.297-0.084-0.467-0.132-0.467-0.132
				s-0.221,0.063-0.602,0.17c-0.032,0.009-0.055,0.016-0.09,0.025c-0.078,0.022-0.164,0.047-0.256,0.072
				c-0.09,0.025-0.173,0.049-0.275,0.078c-0.135,0.038-0.28,0.079-0.436,0.123c-0.244,0.069-0.516,0.146-0.811,0.229
				c-0.129,0.036-0.266,0.075-0.404,0.114c-0.066,0.019-0.131,0.037-0.199,0.057c-0.414,0.116-0.859,0.241-1.346,0.379
				c-0.113,0.031-0.232,0.065-0.352,0.099c-0.009,0.002-0.018,0.005-0.027,0.008c-0.341,0.096-0.699,0.196-1.071,0.302
				c-0.142,0.039-0.278,0.078-0.423,0.119c-0.145,0.04-0.293,0.082-0.441,0.123c-0.043,0.013-0.088,0.025-0.133,0.037
				c-0.031,0.01-0.063,0.019-0.095,0.027c-0.29,0.082-0.589,0.166-0.894,0.251c-0.014,0.005-0.029,0.009-0.043,0.013
				c-0.045,0.013-0.09,0.025-0.136,0.038c-0.106,0.029-0.208,0.058-0.315,0.089c-0.176,0.049-0.358,0.101-0.539,0.151
				c-0.98,0.275-2.027,0.569-3.134,0.879c-0.163,0.046-0.321,0.09-0.487,0.137c-0.379,0.106-0.771,0.216-1.163,0.325
				c-0.079,0.022-0.157,0.045-0.236,0.066c-0.388,0.109-0.78,0.219-1.179,0.33c-0.228,0.063-0.458,0.129-0.689,0.193
				c-0.338,0.094-0.676,0.188-1.021,0.285c-0.193,0.055-0.394,0.11-0.59,0.165c-0.583,0.163-1.174,0.328-1.775,0.496
				c-0.381,0.106-0.762,0.213-1.15,0.321c-0.219,0.061-0.44,0.122-0.66,0.184c-0.414,0.115-0.828,0.231-1.248,0.348
				c-0.275,0.077-0.551,0.154-0.828,0.231c-0.393,0.109-0.789,0.22-1.188,0.33c-0.284,0.079-0.567,0.158-0.855,0.238
				c-0.272,0.076-0.55,0.153-0.825,0.229c-0.137,0.038-0.274,0.076-0.412,0.115c-0.037,0.01-0.073,0.02-0.109,0.029
				c-0.249,0.069-0.494,0.138-0.746,0.207c-0.321,0.09-0.648,0.181-0.974,0.271c-0.044,0.012-0.088,0.023-0.132,0.036
				c-0.271,0.075-0.541,0.149-0.813,0.226c-0.211,0.059-0.424,0.117-0.637,0.176c-0.529,0.147-1.062,0.295-1.598,0.443
				c-0.221,0.061-0.442,0.123-0.664,0.184c-0.469,0.13-0.938,0.26-1.41,0.391c-0.275,0.076-0.551,0.152-0.828,0.229
				c-0.539,0.149-1.082,0.299-1.625,0.449c-0.241,0.066-0.482,0.133-0.725,0.199c-0.125,0.035-0.25,0.069-0.376,0.104
				c-0.026,0.008-0.053,0.015-0.079,0.022c-0.475,0.131-0.951,0.262-1.428,0.394c-0.322,0.088-0.646,0.178-0.969,0.266
				c-0.428,0.118-0.857,0.236-1.285,0.354c-0.311,0.086-0.621,0.171-0.933,0.257c-0.438,0.12-0.876,0.24-1.313,0.36
				c-0.293,0.08-0.583,0.16-0.874,0.239c-0.651,0.179-1.302,0.356-1.95,0.534c-0.074,0.02-0.146,0.04-0.221,0.061
				c-0.729,0.199-1.458,0.398-2.186,0.596c-0.243,0.066-0.485,0.133-0.729,0.199c-0.479,0.13-0.957,0.261-1.434,0.391
				c-0.035,0.009-0.068,0.018-0.104,0.027c-0.274,0.075-0.549,0.149-0.822,0.224c-0.416,0.113-0.831,0.226-1.245,0.338
				c-0.31,0.084-0.618,0.168-0.927,0.251c-0.51,0.138-1.016,0.274-1.521,0.411c-15.167,4.097-28.259,7.486-31.019,7.756
				c-11.302,1.104-23.313,9.311-30.666,15.666c-13.235,11.44-10.854,25.454-14.641,38.188C159.824,437.461,205.746,456,256,456
				s96.176-18.539,131.309-49.146C383.522,394.121,385.903,380.107,372.668,368.667z"/>
			<path id="_x33__50_" fill="#F9E0A8" d="M256,252l-42.25-5.5l16.307,88.734c0,0,3.666,30.766,25.943,30.766
				s25.943-30.766,25.943-30.766L298.25,246.5L256,252z"/>
			<path id="_x32__53_" fill="#D9C392" d="M290,261.5l-69.525,21.592l7.086,38.556c10.66,13.146,26.918,25.187,50.957,26.265
				c2.709-6.691,3.426-12.678,3.426-12.678l12.127-65.99C291.686,264.447,290,261.5,290,261.5z"/>
			<path id="_x31__63_" fill="#FFCE54" d="M293.531,339.666l-9.001-14.348l-23.89,27.016l-4.641,15l-4.641-15l-23.89-27.016
				l-9.002,14.348c-1.169,1.214-0.001,3.209-0.001,3.209s13.458,29.875,13.958,33.875s2.874,2.25,2.874,2.25s9.266-13.044,11.496-14
				c1.75-0.75,1.577,1.443,1.577,1.443L250.33,410h11.34l1.959-43.557c0,0-0.175-2.139,1.575-1.389
				c2.229,0.956,11.497,13.973,11.497,13.973s2.373,1.736,2.873-2.264s13.959-33.882,13.959-33.882S294.701,340.88,293.531,339.666z
				"/>
		</g>
		<g id="face_95_">
			<path id="face_68_" fill="#FFE9BA" d="M256,154h-63c0,0,4.785,94.465,11,114c7,22.001,14.237,27.287,30.226,41
				C247.634,320.5,256,319,256,319s8.366,1.5,21.774-10C293.763,295.287,302,290.001,309,268c6.215-19.535,10-114,10-114H256z"/>
			<path id="ear_106_" fill="#F9E0A8" d="M197.75,214.5c0,0-22.743-10.911-17.273,16.638c5.468,27.55,22.018,23.583,22.018,23.583
				L197.75,214.5z"/>
			<path id="ear_101_" fill="#F9E0A8" d="M315.25,214.5c0,0,22.743-10.911,17.273,16.638c-5.468,27.55-22.018,23.583-22.018,23.583
				L315.25,214.5z"/>
		</g>
		<g id="hair_19_">
			<path id="_x36__30_" fill="#434A54" d="M236.07,77.66c0,0-48.035,27.865,35.48,89.425
				c83.518,61.561,147.114-17.802,147.114-17.802s-15.385,14.923-31.698,5.511c0,0,25.867-3.767,25.158-27.373
				c0,0-71.563,42.048-102.712-8.976S253.465,69.453,236.07,77.66z"/>
			<circle id="_x35__32_" fill="#F6BB42" cx="258.11" cy="112.621" r="12.12"/>
			<path id="_x34__38_" fill="#434A54" d="M256,112c-119,0-64.939,120-64.939,120c30.273-1.778,42.238-25.814,46.625-39.547
				c17.487,19.06,50.036,47.45,83.254,39.547C320.939,232,375,112,256,112z"/>
			<path id="_x33__49_" fill="#656D78" d="M227,154.5c0,0,10.379,100.5,93.939,77.5C320.939,232,244,210.5,227,154.5z"/>
			<path id="_x32__52_" fill="#656D78" d="M220.475,154c0,0-27.475,60.736-49.975,58.368C170.5,212.368,223.949,238,220.475,154z"/>
			<path id="_x31__62_" fill="#656D78" d="M252.5,125.991c45.75,6.509,79.014,25.61,80.563,55.409
				c1.6-32.78-11.324-69.4-77.063-69.4s-78.662,36.62-77.063,69.4C180.486,151.602,193.985,117.666,252.5,125.991z"/>
		</g>
	</g>
	<g id="avatar10_1_">
		<g id="back_25_">
		</g>
		<g id="clothes_27_">
		</g>
		<g id="face_94_">
		</g>
		<g id="glasses_11_">
		</g>
		<g id="hair_18_">
		</g>
	</g>
	<g id="avatar9_1_">
		<g id="back_24_">
		</g>
		<g id="clothes_26_">
		</g>
		<g id="face_92_">
		</g>
		<g id="hair_17_">
		</g>
	</g>
	<g id="avatar8_1_">
		<g id="back_23_">
		</g>
		<g id="hair_back_7_">
		</g>
		<g id="clothes_25_">
		</g>
		<g id="face_91_">
		</g>
		<g id="hair_front_7_">
		</g>
	</g>
	<g id="avatar7_1_">
		<g id="back_22_">
		</g>
		<g id="clothes_24_">
		</g>
		<g id="face_90_">
		</g>
		<g id="necklace_1_">
		</g>
		<g id="earings_1_">
		</g>
		<g id="hair_16_">
		</g>
	</g>
	<g id="avatar6_1_">
		<g id="back_21_">
		</g>
		<g id="hair_back_6_">
		</g>
		<g id="clothes_23_">
		</g>
		<g id="face_89_">
		</g>
		<g id="glasses_12_">
		</g>
		<g id="hair_front_6_">
		</g>
	</g>
	<g id="avatar5_1_">
		<g id="back_20_">
		</g>
		<g id="hair_back_5_">
		</g>
		<g id="clothes_22_">
		</g>
		<g id="face_88_">
		</g>
		<g id="glasses_9_">
		</g>
		<g id="hair_front_5_">
		</g>
	</g>
	<g id="avatar4_1_">
		<g id="back_19_">
		</g>
		<g id="hair_back_4_">
		</g>
		<g id="clothes_21_">
		</g>
		<g id="face_87_">
		</g>
		<g id="earing_1_">
		</g>
		<g id="hair_front_4_">
		</g>
	</g>
	<g id="avatar3_1_">
		<g id="back_18_">
		</g>
		<g id="hair_back_3_">
		</g>
		<g id="clothes_20_">
		</g>
		<g id="face_86_">
		</g>
		<g id="earings">
		</g>
		<g id="glasses_8_">
		</g>
		<g id="hair_front_3_">
		</g>
	</g>
	<g id="avatar2_1_">
		<g id="Layebackr_167">
		</g>
		<g id="hair_back_2_">
		</g>
		<g id="clothes_19_">
		</g>
		<g id="necklace">
		</g>
		<g id="face_85_">
		</g>
		<g id="hair_front_2_">
		</g>
	</g>
	<g id="avatar1_1_">
		<g id="back_17_">
		</g>
		<g id="hair_back_1_">
		</g>
		<g id="clothes_18_">
		</g>
		<g id="face_84_">
		</g>
		<g id="hair_front_1_">
		</g>
	</g>
</g>
<g id="male" display="none">
	<g id="avatar20" display="inline">
		<g id="back_32_">
		</g>
		<g id="clothes_34_">
		</g>
		<g id="face_100_">
		</g>
		<g id="hair_22_">
		</g>
	</g>
	<g id="avatar19" display="inline">
		<g id="back_31_">
		</g>
		<g id="clothes_33_">
		</g>
		<g id="face_99_">
		</g>
		<g id="scaft">
		</g>
		<g id="hat">
		</g>
	</g>
	<g id="avatar18" display="inline">
		<g id="back_30_">
		</g>
		<g id="clothes_32_">
		</g>
		<g id="face_55_">
		</g>
		<g id="earings_2_">
		</g>
		<g id="hair_21_">
		</g>
	</g>
	<g id="avatar17" display="inline">
		<g id="back_29_">
		</g>
		<g id="hair_back_10_">
		</g>
		<g id="clothes_31_">
		</g>
		<g id="face_2_">
		</g>
		<g id="glasses_10_">
		</g>
		<g id="hair_front_10_">
		</g>
	</g>
	<g id="avatar16" display="inline">
		<g id="back_28_">
		</g>
		<g id="hair_back_9_">
		</g>
		<g id="clothes_1_">
		</g>
		<g id="face_1_">
		</g>
		<g id="hair_front_9_">
		</g>
	</g>
	<g id="avatar15" display="inline">
		<g id="back_5_">
		</g>
		<g id="clothes_6_">
		</g>
		<g id="face_29_">
		</g>
		<g id="glasses_4_">
		</g>
		<g id="hair_8_">
		</g>
	</g>
	<g id="avatar14" display="inline">
		<g id="back_6_">
		</g>
		<g id="clothes_7_">
		</g>
		<g id="face_42_">
		</g>
		<g id="earings_3_">
		</g>
		<g id="hair_9_">
		</g>
	</g>
	<g id="avatar13" display="inline">
		<g id="back_7_">
		</g>
		<g id="clothes_8_">
		</g>
		<g id="face_43_">
		</g>
		<g id="glasses_5_">
		</g>
		<g id="hair_10_">
		</g>
	</g>
	<g id="avatar12" display="inline">
		<g id="back_8_">
		</g>
		<g id="clothes_9_">
		</g>
		<g id="face_44_">
		</g>
		<g id="beard_6_">
		</g>
		<g id="hair_11_">
		</g>
	</g>
	<g id="avatar11" display="inline">
		<g id="back_9_">
		</g>
		<g id="clothes_10_">
		</g>
		<g id="face_45_">
		</g>
		<g id="glass">
		</g>
		<g id="hair_12_">
		</g>
	</g>
	<g id="avatar10" display="inline">
		<g id="back_10_">
		</g>
		<g id="clothes_11_">
		</g>
		<g id="face_46_">
		</g>
		<g id="beard_7_">
		</g>
		<g id="glasses_6_">
		</g>
		<g id="hair_13_">
		</g>
	</g>
	<g id="avatar9" display="inline">
		<g id="back_11_">
		</g>
		<g id="clothes_12_">
		</g>
		<g id="face_47_">
		</g>
		<g id="glasses_3_">
		</g>
		<g id="hair_7_">
		</g>
	</g>
	<g id="avatar8" display="inline">
		<g id="back_12_">
		</g>
		<g id="clothes_13_">
		</g>
		<g id="face_48_">
		</g>
		<g id="beard_5_">
		</g>
		<g id="glasses_7_">
		</g>
		<g id="hair_6_">
		</g>
	</g>
	<g id="avatar7" display="inline">
		<g id="back_4_">
		</g>
		<g id="clothes_14_">
		</g>
		<g id="face_11_">
		</g>
		<g id="hair_14_">
		</g>
	</g>
	<g id="avatar6" display="inline">
		<g id="back_13_">
		</g>
		<g id="clothes_15_">
		</g>
		<g id="face_16_">
		</g>
		<g id="glasses_2_">
		</g>
		<g id="beard_4_">
		</g>
		<g id="hair_5_">
		</g>
	</g>
	<g id="avatar5" display="inline">
		<g id="back_14_">
		</g>
		<g id="clothes_5_">
		</g>
		<g id="face_38_">
		</g>
		<g id="beard_3_">
		</g>
		<g id="hair_4_">
		</g>
	</g>
	<g id="avatar4" display="inline">
		<g id="back_3_">
		</g>
		<g id="clothes_4_">
		</g>
		<g id="face_13_">
		</g>
		<g id="beard_2_">
		</g>
		<g id="glasses_1_">
		</g>
		<g id="hair_3_">
		</g>
	</g>
	<g id="avatar3" display="inline">
		<g id="back_15_">
		</g>
		<g id="clothes_16_">
		</g>
		<g id="face_49_">
		</g>
		<g id="hair_15_">
		</g>
	</g>
	<g id="avatar2" display="inline">
		<g id="back_2_">
		</g>
		<g id="clothes_3_">
		</g>
		<g id="face_9_">
		</g>
		<g id="beard_1_">
		</g>
		<g id="hair_2_">
		</g>
	</g>
	<g id="avatar1" display="inline">
		<g id="back_1_">
		</g>
		<g id="clothes_2_">
		</g>
		<g id="face_6_">
		</g>
		<g id="hair_1_">
		</g>
	</g>
</g>
</svg>
