<?xml version="1.0" encoding="iso-8859-1"?>
<!-- Generator: Adobe Illustrator 16.0.3, SVG Export Plug-In . SVG Version: 6.00 Build 0)  -->
<!DOCTYPE svg PUBLIC "-//W3C//DTD SVG 1.1 Basic//EN" "http://www.w3.org/Graphics/SVG/1.1/DTD/svg11-basic.dtd">
<svg version="1.1" baseProfile="basic" xmlns="http://www.w3.org/2000/svg" xmlns:xlink="http://www.w3.org/1999/xlink" x="0px"
	 y="0px" width="512px" height="512px" viewBox="0 0 512 512" xml:space="preserve">
<g id="Layer_159" display="none">
	<rect y="-512" display="inline" fill="#FFFFFF" width="512" height="512"/>
	<rect x="-512" y="-512" display="inline" fill="#FFFFFF" width="512" height="512"/>
	<rect x="512" y="-512" display="inline" fill="#FFFFFF" width="512" height="512"/>
	<rect x="-512" display="inline" fill="#FFFFFF" width="512" height="512"/>
	<rect x="512" display="inline" fill="#FFFFFF" width="512" height="512"/>
	<rect display="inline" fill="#FFFFFF" width="512" height="512"/>
	<rect x="-512" y="512" display="inline" fill="#FFFFFF" width="512" height="512"/>
	<rect y="512" display="inline" fill="#FFFFFF" width="512" height="512"/>
	<rect x="512" y="512" display="inline" fill="#FFFFFF" width="512" height="512"/>
</g>
<g id="female">
	<g id="avatar15_1_">
		<g id="baclk">
		</g>
		<g id="hair_back_8_">
		</g>
		<g id="clothes_30_">
		</g>
		<g id="face_98_">
		</g>
		<g id="hair_front_8_">
		</g>
	</g>
	<g id="avatar14_1_">
		<g id="back_16_">
		</g>
		<g id="hair_back">
		</g>
		<g id="clothes_17_">
		</g>
		<g id="face_57_">
		</g>
		<g id="hair_front">
		</g>
	</g>
	<g id="avatar13_1_">
		<g id="back_x27_">
		</g>
		<g id="clothes">
		</g>
		<g id="face">
		</g>
		<g id="hair">
		</g>
	</g>
	<g id="avatar12_1_">
		<g id="back_27_">
		</g>
		<g id="clothes_29_">
		</g>
		<g id="face_97_">
		</g>
		<g id="hair_20_">
		</g>
	</g>
	<g id="avatar11_1_">
		<g id="back_26_">
		</g>
		<g id="clothes_28_">
		</g>
		<g id="face_95_">
		</g>
		<g id="hair_19_">
		</g>
	</g>
	<g id="avatar10_1_">
		<g id="back_25_">
		</g>
		<g id="clothes_27_">
		</g>
		<g id="face_94_">
		</g>
		<g id="glasses_11_">
		</g>
		<g id="hair_18_">
		</g>
	</g>
	<g id="avatar9_1_">
		<g id="back_24_">
		</g>
		<g id="clothes_26_">
		</g>
		<g id="face_92_">
		</g>
		<g id="hair_17_">
		</g>
	</g>
	<g id="avatar8_1_">
		<g id="back_23_">
		</g>
		<g id="hair_back_7_">
		</g>
		<g id="clothes_25_">
		</g>
		<g id="face_91_">
		</g>
		<g id="hair_front_7_">
		</g>
	</g>
	<g id="avatar7_1_">
		<g id="back_22_">
			<circle fill="#D770AD" cx="256" cy="256" r="200"/>
		</g>
		<g id="clothes_24_">
			<path id="_x33__41_" fill="#F9E0A8" d="M372.668,368.789c-7.353-6.355-19.364-14.563-30.666-15.666
				c-4.516-0.441-36.694-9.234-60.371-15.818c0.225-1.222,0.313-1.949,0.313-1.949l16.307-88.734l-42.25,5.5l-42.25-5.5
				l16.307,88.734c0,0,0.088,0.728,0.313,1.949c-23.677,6.584-55.855,15.377-60.371,15.818
				c-11.302,1.104-23.313,9.311-30.666,15.666c-13.235,11.439-10.854,25.453-14.641,38.188
				c35.133,30.605,81.055,49.145,131.309,49.145s96.176-18.539,131.309-49.145C383.522,394.242,385.903,380.229,372.668,368.789z"/>
			<path id="_x32__45_" fill="#D9C392" d="M290,261.621l-69.525,21.592l7.086,38.557c10.66,13.145,26.918,25.186,50.957,26.264
				c2.709-6.691,3.426-12.678,3.426-12.678l12.127-65.99C291.686,264.568,290,261.621,290,261.621z"/>
			<path id="_x31__54_" fill="#2D3138" d="M167.316,353.525c-0.445,0.086-0.891,0.172-1.337,0.277
				c-0.265,0.061-0.53,0.131-0.795,0.199c-0.409,0.105-0.819,0.215-1.229,0.336c-0.275,0.08-0.551,0.166-0.826,0.252
				c-0.401,0.129-0.802,0.262-1.202,0.4c-0.273,0.096-0.546,0.193-0.818,0.293c-0.41,0.152-0.817,0.313-1.225,0.477
				c-0.257,0.104-0.515,0.205-0.771,0.313c-0.446,0.189-0.889,0.387-1.331,0.588c-0.212,0.098-0.425,0.189-0.636,0.287
				c-0.648,0.305-1.292,0.619-1.931,0.947c3.813,18.201,0.33,43.967-5.07,67.934c2.72,1.699,5.484,3.334,8.289,4.904
				c0.188,0.105,0.377,0.211,0.565,0.316c0.877,0.486,1.757,0.971,2.642,1.443c0.014,0.008,0.027,0.016,0.041,0.023
				c2.84,1.52,5.721,2.973,8.639,4.359c0.159,0.076,0.317,0.15,0.477,0.227c0.936,0.439,1.873,0.875,2.815,1.303
				c0.013,0.006,0.024,0.01,0.036,0.016c2.988,1.352,6.017,2.631,9.081,3.838c0.089,0.035-0.046,0.07,0.044,0.105
				C204.642,450.941,229,455.777,253,456.088v0.004c1,0.012,1.924,0.029,2.777,0.029c0.334,0,0.777-0.01,1.111-0.012l0,0
				c2.305-0.012,4.655-0.064,6.94-0.152c0.123-0.004,0.274-0.008,0.396-0.012c1.008-0.041,2.025-0.094,3.027-0.148
				c0.316-0.018,0.64-0.035,0.956-0.055c0.996-0.061,1.995-0.125,2.985-0.199c0.176-0.014,0.351-0.029,0.525-0.043
				c3.227-0.25,6.434-0.58,9.616-0.982c0.291-0.035,0.581-0.072,0.872-0.109c0.971-0.127,1.942-0.262,2.91-0.402
				c0.25-0.037,0.499-0.076,0.748-0.113c3.123-0.467,6.222-1.008,9.295-1.617c0.244-0.049,0.488-0.096,0.732-0.145
				c0.953-0.193,1.904-0.395,2.853-0.6c0.276-0.061,0.552-0.123,0.827-0.184c3.1-0.689,6.173-1.449,9.217-2.281
				c0.148-0.039,0.297-0.078,0.445-0.119c0.943-0.26,1.884-0.529,2.822-0.803c0.273-0.08,0.547-0.16,0.819-0.24
				c0.945-0.281,1.889-0.564,2.828-0.857c0.062-0.02,0.124-0.041,0.187-0.061c3.076-0.963,6.119-2.002,9.13-3.109
				c0.253-0.094,0.507-0.186,0.76-0.281c0.911-0.338,1.819-0.684,2.725-1.035c0.171-0.066,0.34-0.135,0.51-0.201
				c2.911-1.143,5.788-2.352,8.631-3.625c0.202-0.09,0.403-0.18,0.605-0.27c0.891-0.402,1.778-0.813,2.662-1.227
				c0.198-0.094,0.396-0.188,0.593-0.281c2.844-1.348,5.652-2.76,8.42-4.236c0.117-0.063,0.234-0.123,0.352-0.186
				c0.878-0.471,1.75-0.947,2.62-1.43c0.191-0.107,0.382-0.213,0.573-0.32c2.837-1.588,5.633-3.238,8.383-4.957
				c-5.4-23.967-8.883-49.732-5.07-67.934c-0.639-0.328-1.283-0.643-1.931-0.947c-0.21-0.098-0.423-0.189-0.634-0.285
				c-0.443-0.201-0.887-0.4-1.334-0.59c-0.256-0.107-0.513-0.209-0.77-0.313c-0.406-0.164-0.814-0.324-1.224-0.477
				c-0.272-0.1-0.546-0.197-0.819-0.293c-0.4-0.139-0.801-0.271-1.202-0.4c-0.274-0.086-0.55-0.172-0.826-0.252
				c-0.409-0.121-0.819-0.23-1.229-0.336c-0.265-0.068-0.53-0.139-0.794-0.199c-0.446-0.105-0.893-0.191-1.338-0.277
				c-0.227-0.043-0.452-0.094-0.678-0.131c-0.67-0.113-1.338-0.207-2.004-0.271c-0.34-0.033-0.837-0.115-1.475-0.238
				c-0.026-0.004-0.057-0.012-0.084-0.016c-0.188-0.037-0.385-0.076-0.597-0.121c-0.121-0.025-0.257-0.055-0.386-0.082
				c-0.127-0.025-0.246-0.051-0.38-0.08c-0.197-0.043-0.411-0.092-0.624-0.139c-0.078-0.018-0.15-0.033-0.23-0.051
				c-0.276-0.063-0.566-0.129-0.865-0.199c-0.023-0.006-0.045-0.01-0.068-0.016c-2.917-0.678-6.898-1.68-11.539-2.887
				c-0.029-0.008-0.059-0.076-0.089-0.084C324.032,360.863,314.336,393,257,393h-2c-57.336,0-67.032-32.137-68.665-43.789
				c-0.03,0.008-0.06,0.047-0.089,0.055c-4.641,1.207-8.622,2.224-11.539,2.901c-0.025,0.006-0.048,0.019-0.072,0.024
				c-0.297,0.068-0.585,0.139-0.859,0.201c-0.094,0.02-0.178,0.041-0.269,0.061c-0.2,0.045-0.401,0.092-0.588,0.133
				c-0.134,0.027-0.253,0.054-0.38,0.08c-0.129,0.027-0.265,0.057-0.386,0.082c-0.212,0.045-0.408,0.084-0.597,0.121
				c-0.027,0.004-0.058,0.012-0.084,0.016c-0.638,0.123-1.135,0.205-1.475,0.238c-0.666,0.064-1.334,0.158-2.004,0.271
				C167.769,353.432,167.542,353.482,167.316,353.525z"/>
		</g>
		<g id="face_90_">
			<path id="face_58_" fill="#FFE9BA" d="M256,154h-63c0,0,4.785,94.465,11,114c7,22.001,14.237,27.287,30.226,41
				C247.634,320.5,256,319,256,319s8.366,1.5,21.774-10C293.763,295.287,302,290.001,309,268c6.215-19.535,10-114,10-114H256z"/>
			<path id="ear_90_" fill="#F9E0A8" d="M197.75,214.5c0,0-22.743-10.911-17.273,16.638c5.468,27.55,22.018,23.583,22.018,23.583
				L197.75,214.5z"/>
			<path id="ear_81_" fill="#F9E0A8" d="M315.25,214.5c0,0,22.743-10.911,17.273,16.638c-5.468,27.55-22.018,23.583-22.018,23.583
				L315.25,214.5z"/>
		</g>
		<g id="necklace_1_">
			<circle fill="#F5F7FA" cx="221.125" cy="340.875" r="3.875"/>
			<circle fill="#F5F7FA" cx="226.125" cy="346.875" r="3.875"/>
			<circle fill="#F5F7FA" cx="232.125" cy="352.875" r="3.875"/>
			<path fill="#F5F7FA" d="M236.986,361.104c-0.277-0.063-0.564-0.104-0.861-0.104c-2.141,0-3.875,1.734-3.875,3.875
				s1.734,3.875,3.875,3.875s3.875-1.734,3.875-3.875c0-1.35-0.69-2.535-1.736-3.229c0.277,0.063,0.564,0.104,0.861,0.104
				c2.141,0,3.875-1.734,3.875-3.875S241.266,354,239.125,354s-3.875,1.734-3.875,3.875
				C235.25,359.225,235.941,360.41,236.986,361.104z"/>
			<circle fill="#F5F7FA" cx="247.125" cy="362.875" r="3.875"/>
			<circle fill="#F5F7FA" cx="210.125" cy="342.875" r="3.875"/>
			<circle fill="#F5F7FA" cx="215.125" cy="348.875" r="3.875"/>
			<circle fill="#F5F7FA" cx="221.125" cy="354.875" r="3.875"/>
			<circle fill="#F5F7FA" cx="228.125" cy="359.875" r="3.875"/>
			<circle fill="#F5F7FA" cx="202.125" cy="347.875" r="3.875"/>
			<circle fill="#F5F7FA" cx="207.125" cy="353.875" r="3.875"/>
			<circle fill="#F5F7FA" cx="213.125" cy="359.875" r="3.875"/>
			<circle fill="#F5F7FA" cx="220.125" cy="364.875" r="3.875"/>
			<circle fill="#F5F7FA" cx="228.125" cy="369.875" r="3.875"/>
			<circle fill="#F5F7FA" cx="243.125" cy="369.875" r="3.875"/>
			<circle fill="#F5F7FA" cx="235.125" cy="374.875" r="3.875"/>
			<circle fill="#F5F7FA" cx="243.125" cy="378.875" r="3.875"/>
			<circle fill="#F5F7FA" cx="252.125" cy="370.875" r="3.875"/>
			<circle fill="#F5F7FA" cx="290.875" cy="340.875" r="3.875"/>
			<circle fill="#F5F7FA" cx="285.875" cy="346.875" r="3.875"/>
			<circle fill="#F5F7FA" cx="279.875" cy="352.875" r="3.875"/>
			<path fill="#F5F7FA" d="M275.014,361.104c0.277-0.063,0.564-0.104,0.861-0.104c2.141,0,3.875,1.734,3.875,3.875
				s-1.734,3.875-3.875,3.875S272,367.016,272,364.875c0-1.35,0.69-2.535,1.736-3.229c-0.277,0.063-0.564,0.104-0.861,0.104
				c-2.141,0-3.875-1.734-3.875-3.875s1.734-3.875,3.875-3.875s3.875,1.734,3.875,3.875
				C276.75,359.225,276.059,360.41,275.014,361.104z"/>
			<circle fill="#F5F7FA" cx="264.875" cy="362.875" r="3.875"/>
			<circle fill="#F5F7FA" cx="301.875" cy="342.875" r="3.875"/>
			<circle fill="#F5F7FA" cx="296.875" cy="348.875" r="3.875"/>
			<circle fill="#F5F7FA" cx="290.875" cy="354.875" r="3.875"/>
			<circle fill="#F5F7FA" cx="283.875" cy="359.875" r="3.875"/>
			<circle fill="#F5F7FA" cx="309.875" cy="347.875" r="3.875"/>
			<circle fill="#F5F7FA" cx="304.875" cy="353.875" r="3.875"/>
			<circle fill="#F5F7FA" cx="298.875" cy="359.875" r="3.875"/>
			<circle fill="#F5F7FA" cx="291.875" cy="364.875" r="3.875"/>
			<circle fill="#F5F7FA" cx="283.875" cy="369.875" r="3.875"/>
			<circle fill="#F5F7FA" cx="268.875" cy="369.875" r="3.875"/>
			<circle fill="#F5F7FA" cx="276.875" cy="374.875" r="3.875"/>
			<circle fill="#F5F7FA" cx="268.875" cy="378.875" r="3.875"/>
			<circle fill="#F5F7FA" cx="259.875" cy="370.875" r="3.875"/>
			<circle id="_x31__52_" fill="#FFFFFF" cx="256" cy="390.438" r="15.563"/>
		</g>
		<g id="earings_1_">
			<circle id="_x32__41_" fill="#FFFFFF" cx="198" cy="251" r="8.333"/>
			<circle id="_x31__50_" fill="#FFFFFF" cx="314" cy="251" r="8.333"/>
		</g>
		<g id="hair_16_">
			<path id="_x31_5_1_" fill="#2D3138" d="M258.91,55.667c-99.172,0-50.666,90.666-50.666,90.666l50.666-25.694l50.666,25.694
				C309.576,146.333,358.082,55.667,258.91,55.667z"/>
			<path id="_x31_4_1_" fill="#F5F7FA" d="M286.799,100.865c-2.469-1.397-5.686-8.014-7.146-14.703S272.541,74,267.1,74
				c-5.443,0-11.092,5.473-12.555,12.162c-1.461,6.689-4.678,13.306-7.146,14.703c-2.469,1.396-4.488,6.365-4.488,11.337
				S252.805,121,264.9,121h4.398c12.094,0,21.99-3.826,21.99-8.798S289.268,102.262,286.799,100.865z"/>
			<path id="_x31_3_1_" fill="#E6E9ED" d="M264.9,116c-10.059,0-15.934-2.792-16.986-4.116c0.078-3.53,1.443-6.176,2.031-6.716
				c5.031-2.936,8.326-12.641,9.484-17.938c1.029-4.71,4.898-8.229,7.67-8.229s6.639,3.52,7.668,8.229
				c1.156,5.3,4.451,15.006,9.484,17.94c0.59,0.54,1.955,3.185,2.033,6.715c-1.055,1.324-6.93,4.116-16.986,4.116H264.9z"/>
			<circle id="_x31_2_1_" fill="#FFFFFF" cx="277.785" cy="105.875" r="2.875"/>
			<circle id="_x31_1_1_" fill="#FFFFFF" cx="261.91" cy="99.5" r="3.5"/>
			<circle id="_x31_0_5_" fill="#FFFFFF" cx="264.41" cy="87" r="3.75"/>
			<circle id="_x39__8_" fill="#FFFFFF" cx="272.66" cy="98.5" r="4.5"/>
			<path id="_x38__11_" fill="#434A54" d="M264.66,67.75c-9.947-0.728-16.836,1.443-21.596,5.307
				c-24.847-6.893-17.84,20.838-32.16,37.693c-15.506,18.25-27.744,0-27.744,0c1.75,13.75,30.75,34.5,41,1
				c3.029-9.901,6.517-17.1,9.928-22.352c-2.672,12.675-0.262,27.27-0.928,33.102c-1.324,11.584-11.5,12.25-11.5,12.25
				c48.25,4.25,10.5-56.75,41.5-58.25s29,43,29,43S305.66,70.75,264.66,67.75z"/>
			<path id="_x37__18_" fill="#434A54" d="M315.227,143.447c-1.59-18.407-20.203-34.78-58.816-34.78
				c-62.629,0-62.027,37.666-62.027,37.666c-9.716,6.667-9.924,35.104-5.953,66.016l9.48,1.985c0,0,3.924-1.844,7.059-8.079
				c21.561,6.953,28.139-16.485,30.111-29.496c3.143,0.43,6.475,0.891,9.941,1.254c4.756,17.574,19.859,47.836,66.578,32.55
				c2.295,2.825,4.311,3.771,4.311,3.771l9.48-1.985C329.545,179.999,324.344,158.177,315.227,143.447z M299.146,176.712
				c0.004-0.003,0.008-0.007,0.014-0.011c1.256-1.049,2.438-2.131,3.551-3.238c1.729,2.286,2.586,5.749,2.377,10.877
				c-0.5,12.218,2.197,19.711,5.023,24.153C302.414,205.765,287.65,197.559,299.146,176.712z"/>
			<path id="_x36__23_" fill="#656D78" d="M315.227,143.447c-1.59-18.407-20.203-34.78-58.816-34.78
				c-62.629,0-62.027,37.666-62.027,37.666c0.76-0.265,0.133-13.084,22.559-20.382c15.648-1.248,44.896,0.764,48.158,32.491
				c0,0,6.23-27.938-10.324-37.433c0.544-0.004,1.081-0.01,1.635-0.01c7.85,0,14.858,0.687,21.08,1.92
				c6.436,6.581,11.063,18.092-3.58,35.522c0,0,25.931-17.722,18.699-30.821c14.324,6.46,21.646,16.927,22.617,28.159
				c6.25,10.098,10.66,23.53,11.477,41.402C327.717,172.995,322.84,155.746,315.227,143.447z"/>
			<path id="_x35__24_" fill="#656D78" d="M197.402,145.455c16.492-19.878,55.842,11.212,55.842,11.212
				C222.578,101.001,197.402,145.455,197.402,145.455z"/>
			<path id="_x34__30_" fill="#656D78" d="M193.41,194c0,0,29.174,46.851,41.67-17.241C235.08,176.759,220.576,209.667,193.41,194z"
				/>
			<path id="_x33__40_" fill="#656D78" d="M206.91,192.333c0.332-24.667,22.25-17,22.25-17
				C197.742,163.666,206.91,192.333,206.91,192.333z"/>
			<path id="_x32__44_" fill="#656D78" d="M253.244,179.333c0.666-26.333-8.223-1.32-8.223-1.32s-0.029,40.32,39.264,39.32
				C284.285,217.333,252.578,205.666,253.244,179.333z"/>
			<path id="_x31__53_" fill="#656D78" d="M275.16,178.667c2.162-24.667-10.508,0-10.508,0s2.258,35.15,38.258,36.075
				C302.91,214.742,272.998,203.334,275.16,178.667z"/>
		</g>
	</g>
	<g id="avatar6_1_">
		<g id="back_21_">
		</g>
		<g id="hair_back_6_">
		</g>
		<g id="clothes_23_">
		</g>
		<g id="face_89_">
		</g>
		<g id="glasses_12_">
		</g>
		<g id="hair_front_6_">
		</g>
	</g>
	<g id="avatar5_1_">
		<g id="back_20_">
		</g>
		<g id="hair_back_5_">
		</g>
		<g id="clothes_22_">
		</g>
		<g id="face_88_">
		</g>
		<g id="glasses_9_">
		</g>
		<g id="hair_front_5_">
		</g>
	</g>
	<g id="avatar4_1_">
		<g id="back_19_">
		</g>
		<g id="hair_back_4_">
		</g>
		<g id="clothes_21_">
		</g>
		<g id="face_87_">
		</g>
		<g id="earing_1_">
		</g>
		<g id="hair_front_4_">
		</g>
	</g>
	<g id="avatar3_1_">
		<g id="back_18_">
		</g>
		<g id="hair_back_3_">
		</g>
		<g id="clothes_20_">
		</g>
		<g id="face_86_">
		</g>
		<g id="earings">
		</g>
		<g id="glasses_8_">
		</g>
		<g id="hair_front_3_">
		</g>
	</g>
	<g id="avatar2_1_">
		<g id="Layebackr_167">
		</g>
		<g id="hair_back_2_">
		</g>
		<g id="clothes_19_">
		</g>
		<g id="necklace">
		</g>
		<g id="face_85_">
		</g>
		<g id="hair_front_2_">
		</g>
	</g>
	<g id="avatar1_1_">
		<g id="back_17_">
		</g>
		<g id="hair_back_1_">
		</g>
		<g id="clothes_18_">
		</g>
		<g id="face_84_">
		</g>
		<g id="hair_front_1_">
		</g>
	</g>
</g>
<g id="male" display="none">
	<g id="avatar20" display="inline">
		<g id="back_32_">
		</g>
		<g id="clothes_34_">
		</g>
		<g id="face_100_">
		</g>
		<g id="hair_22_">
		</g>
	</g>
	<g id="avatar19" display="inline">
		<g id="back_31_">
		</g>
		<g id="clothes_33_">
		</g>
		<g id="face_99_">
		</g>
		<g id="scaft">
		</g>
		<g id="hat">
		</g>
	</g>
	<g id="avatar18" display="inline">
		<g id="back_30_">
		</g>
		<g id="clothes_32_">
		</g>
		<g id="face_55_">
		</g>
		<g id="earings_2_">
		</g>
		<g id="hair_21_">
		</g>
	</g>
	<g id="avatar17" display="inline">
		<g id="back_29_">
		</g>
		<g id="hair_back_10_">
		</g>
		<g id="clothes_31_">
		</g>
		<g id="face_2_">
		</g>
		<g id="glasses_10_">
		</g>
		<g id="hair_front_10_">
		</g>
	</g>
	<g id="avatar16" display="inline">
		<g id="back_28_">
		</g>
		<g id="hair_back_9_">
		</g>
		<g id="clothes_1_">
		</g>
		<g id="face_1_">
		</g>
		<g id="hair_front_9_">
		</g>
	</g>
	<g id="avatar15" display="inline">
		<g id="back_5_">
		</g>
		<g id="clothes_6_">
		</g>
		<g id="face_29_">
		</g>
		<g id="glasses_4_">
		</g>
		<g id="hair_8_">
		</g>
	</g>
	<g id="avatar14" display="inline">
		<g id="back_6_">
		</g>
		<g id="clothes_7_">
		</g>
		<g id="face_42_">
		</g>
		<g id="earings_3_">
		</g>
		<g id="hair_9_">
		</g>
	</g>
	<g id="avatar13" display="inline">
		<g id="back_7_">
		</g>
		<g id="clothes_8_">
		</g>
		<g id="face_43_">
		</g>
		<g id="glasses_5_">
		</g>
		<g id="hair_10_">
		</g>
	</g>
	<g id="avatar12" display="inline">
		<g id="back_8_">
		</g>
		<g id="clothes_9_">
		</g>
		<g id="face_44_">
		</g>
		<g id="beard_6_">
		</g>
		<g id="hair_11_">
		</g>
	</g>
	<g id="avatar11" display="inline">
		<g id="back_9_">
		</g>
		<g id="clothes_10_">
		</g>
		<g id="face_45_">
		</g>
		<g id="glass">
		</g>
		<g id="hair_12_">
		</g>
	</g>
	<g id="avatar10" display="inline">
		<g id="back_10_">
		</g>
		<g id="clothes_11_">
		</g>
		<g id="face_46_">
		</g>
		<g id="beard_7_">
		</g>
		<g id="glasses_6_">
		</g>
		<g id="hair_13_">
		</g>
	</g>
	<g id="avatar9" display="inline">
		<g id="back_11_">
		</g>
		<g id="clothes_12_">
		</g>
		<g id="face_47_">
		</g>
		<g id="glasses_3_">
		</g>
		<g id="hair_7_">
		</g>
	</g>
	<g id="avatar8" display="inline">
		<g id="back_12_">
		</g>
		<g id="clothes_13_">
		</g>
		<g id="face_48_">
		</g>
		<g id="beard_5_">
		</g>
		<g id="glasses_7_">
		</g>
		<g id="hair_6_">
		</g>
	</g>
	<g id="avatar7" display="inline">
		<g id="back_4_">
		</g>
		<g id="clothes_14_">
		</g>
		<g id="face_11_">
		</g>
		<g id="hair_14_">
		</g>
	</g>
	<g id="avatar6" display="inline">
		<g id="back_13_">
		</g>
		<g id="clothes_15_">
		</g>
		<g id="face_16_">
		</g>
		<g id="glasses_2_">
		</g>
		<g id="beard_4_">
		</g>
		<g id="hair_5_">
		</g>
	</g>
	<g id="avatar5" display="inline">
		<g id="back_14_">
		</g>
		<g id="clothes_5_">
		</g>
		<g id="face_38_">
		</g>
		<g id="beard_3_">
		</g>
		<g id="hair_4_">
		</g>
	</g>
	<g id="avatar4" display="inline">
		<g id="back_3_">
		</g>
		<g id="clothes_4_">
		</g>
		<g id="face_13_">
		</g>
		<g id="beard_2_">
		</g>
		<g id="glasses_1_">
		</g>
		<g id="hair_3_">
		</g>
	</g>
	<g id="avatar3" display="inline">
		<g id="back_15_">
		</g>
		<g id="clothes_16_">
		</g>
		<g id="face_49_">
		</g>
		<g id="hair_15_">
		</g>
	</g>
	<g id="avatar2" display="inline">
		<g id="back_2_">
		</g>
		<g id="clothes_3_">
		</g>
		<g id="face_9_">
		</g>
		<g id="beard_1_">
		</g>
		<g id="hair_2_">
		</g>
	</g>
	<g id="avatar1" display="inline">
		<g id="back_1_">
		</g>
		<g id="clothes_2_">
		</g>
		<g id="face_6_">
		</g>
		<g id="hair_1_">
		</g>
	</g>
</g>
</svg>
