<?xml version="1.0" encoding="iso-8859-1"?>
<!-- Generator: Adobe Illustrator 16.0.3, SVG Export Plug-In . SVG Version: 6.00 Build 0)  -->
<!DOCTYPE svg PUBLIC "-//W3C//DTD SVG 1.1 Basic//EN" "http://www.w3.org/Graphics/SVG/1.1/DTD/svg11-basic.dtd">
<svg version="1.1" baseProfile="basic" xmlns="http://www.w3.org/2000/svg" xmlns:xlink="http://www.w3.org/1999/xlink" x="0px"
	 y="0px" width="512px" height="512px" viewBox="0 0 512 512" xml:space="preserve">
<g id="Layer_159" display="none">
	<rect x="512" y="512" display="inline" fill="#FFFFFF" width="512" height="512"/>
	<rect y="512" display="inline" fill="#FFFFFF" width="512" height="512"/>
	<rect x="-512" y="512" display="inline" fill="#FFFFFF" width="512" height="512"/>
	<rect x="512" y="-512" display="inline" fill="#FFFFFF" width="512" height="512"/>
	<rect y="-512" display="inline" fill="#FFFFFF" width="512" height="512"/>
	<rect x="-512" y="-512" display="inline" fill="#FFFFFF" width="512" height="512"/>
	<rect x="512" display="inline" fill="#FFFFFF" width="512" height="512"/>
	<rect display="inline" fill="#FFFFFF" width="512" height="512"/>
	<rect x="-512" display="inline" fill="#FFFFFF" width="512" height="512"/>
</g>
<g id="female" display="none">
	<g id="avatar15_1_" display="inline">
		<g id="baclk">
		</g>
		<g id="hair_back_8_">
		</g>
		<g id="clothes_30_">
		</g>
		<g id="face_98_">
		</g>
		<g id="hair_front_8_">
		</g>
	</g>
	<g id="avatar14_1_" display="inline">
		<g id="back_16_">
		</g>
		<g id="hair_back">
		</g>
		<g id="clothes_17_">
		</g>
		<g id="face_57_">
		</g>
		<g id="hair_front">
		</g>
	</g>
	<g id="avatar13_1_" display="inline">
		<g id="back_x27_">
		</g>
		<g id="clothes">
		</g>
		<g id="face">
		</g>
		<g id="hair">
		</g>
	</g>
	<g id="avatar12_1_" display="inline">
		<g id="back_27_">
		</g>
		<g id="clothes_29_">
		</g>
		<g id="face_97_">
		</g>
		<g id="hair_20_">
		</g>
	</g>
	<g id="avatar11_1_" display="inline">
		<g id="back_26_">
		</g>
		<g id="clothes_28_">
		</g>
		<g id="face_95_">
		</g>
		<g id="hair_19_">
		</g>
	</g>
	<g id="avatar10_1_" display="inline">
		<g id="back_25_">
		</g>
		<g id="clothes_27_">
		</g>
		<g id="face_94_">
		</g>
		<g id="glasses_11_">
		</g>
		<g id="hair_18_">
		</g>
	</g>
	<g id="avatar9_1_" display="inline">
		<g id="back_24_">
		</g>
		<g id="clothes_26_">
		</g>
		<g id="face_92_">
		</g>
		<g id="hair_17_">
		</g>
	</g>
	<g id="avatar8_1_" display="inline">
		<g id="back_23_">
		</g>
		<g id="hair_back_7_">
		</g>
		<g id="clothes_25_">
		</g>
		<g id="face_91_">
		</g>
		<g id="hair_front_7_">
		</g>
	</g>
	<g id="avatar7_1_" display="inline">
		<g id="back_22_">
		</g>
		<g id="clothes_24_">
		</g>
		<g id="face_90_">
		</g>
		<g id="necklace_1_">
		</g>
		<g id="earings_1_">
		</g>
		<g id="hair_16_">
		</g>
	</g>
	<g id="avatar6_1_" display="inline">
		<g id="back_21_">
		</g>
		<g id="hair_back_6_">
		</g>
		<g id="clothes_23_">
		</g>
		<g id="face_89_">
		</g>
		<g id="glasses_12_">
		</g>
		<g id="hair_front_6_">
		</g>
	</g>
	<g id="avatar5_1_" display="inline">
		<g id="back_20_">
		</g>
		<g id="hair_back_5_">
		</g>
		<g id="clothes_22_">
		</g>
		<g id="face_88_">
		</g>
		<g id="glasses_9_">
		</g>
		<g id="hair_front_5_">
		</g>
	</g>
	<g id="avatar4_1_" display="inline">
		<g id="back_19_">
		</g>
		<g id="hair_back_4_">
		</g>
		<g id="clothes_21_">
		</g>
		<g id="face_87_">
		</g>
		<g id="earing_1_">
		</g>
		<g id="hair_front_4_">
		</g>
	</g>
	<g id="avatar3_1_" display="inline">
		<g id="back_18_">
		</g>
		<g id="hair_back_3_">
		</g>
		<g id="clothes_20_">
		</g>
		<g id="face_86_">
		</g>
		<g id="earings">
		</g>
		<g id="glasses_8_">
		</g>
		<g id="hair_front_3_">
		</g>
	</g>
	<g id="avatar2_1_" display="inline">
		<g id="Layebackr_167">
		</g>
		<g id="hair_back_2_">
		</g>
		<g id="clothes_19_">
		</g>
		<g id="necklace">
		</g>
		<g id="face_85_">
		</g>
		<g id="hair_front_2_">
		</g>
	</g>
	<g id="avatar1_1_" display="inline">
		<g id="back_17_">
		</g>
		<g id="hair_back_1_">
		</g>
		<g id="clothes_18_">
		</g>
		<g id="face_84_">
		</g>
		<g id="hair_front_1_">
		</g>
	</g>
</g>
<g id="male">
	<g id="avatar20">
		<g id="back_32_">
		</g>
		<g id="clothes_34_">
		</g>
		<g id="face_100_">
		</g>
		<g id="hair_22_">
		</g>
	</g>
	<g id="avatar19">
		<g id="back_31_">
		</g>
		<g id="clothes_33_">
		</g>
		<g id="face_99_">
		</g>
		<g id="scaft">
		</g>
		<g id="hat">
		</g>
	</g>
	<g id="avatar18">
		<g id="back_30_">
		</g>
		<g id="clothes_32_">
		</g>
		<g id="face_55_">
		</g>
		<g id="earings_2_">
		</g>
		<g id="hair_21_">
		</g>
	</g>
	<g id="avatar17">
		<g id="back_29_">
		</g>
		<g id="hair_back_10_">
		</g>
		<g id="clothes_31_">
		</g>
		<g id="face_2_">
		</g>
		<g id="glasses_10_">
		</g>
		<g id="hair_front_10_">
		</g>
	</g>
	<g id="avatar16">
		<g id="back_28_">
		</g>
		<g id="hair_back_9_">
		</g>
		<g id="clothes_1_">
		</g>
		<g id="face_1_">
		</g>
		<g id="hair_front_9_">
		</g>
	</g>
	<g id="avatar15">
		<g id="back_5_">
		</g>
		<g id="clothes_6_">
		</g>
		<g id="face_29_">
		</g>
		<g id="glasses_4_">
		</g>
		<g id="hair_8_">
		</g>
	</g>
	<g id="avatar14">
		<g id="back_6_">
		</g>
		<g id="clothes_7_">
		</g>
		<g id="face_42_">
		</g>
		<g id="earings_3_">
		</g>
		<g id="hair_9_">
		</g>
	</g>
	<g id="avatar13">
		<g id="back_7_">
		</g>
		<g id="clothes_8_">
		</g>
		<g id="face_43_">
		</g>
		<g id="glasses_5_">
		</g>
		<g id="hair_10_">
		</g>
	</g>
	<g id="avatar12">
		<g id="back_8_">
		</g>
		<g id="clothes_9_">
		</g>
		<g id="face_44_">
		</g>
		<g id="beard_6_">
		</g>
		<g id="hair_11_">
		</g>
	</g>
	<g id="avatar11">
		<g id="back_9_">
		</g>
		<g id="clothes_10_">
		</g>
		<g id="face_45_">
		</g>
		<g id="glass">
		</g>
		<g id="hair_12_">
		</g>
	</g>
	<g id="avatar10">
		<g id="back_10_">
		</g>
		<g id="clothes_11_">
		</g>
		<g id="face_46_">
		</g>
		<g id="beard_7_">
		</g>
		<g id="glasses_6_">
		</g>
		<g id="hair_13_">
		</g>
	</g>
	<g id="avatar9">
		<g id="back_11_">
		</g>
		<g id="clothes_12_">
		</g>
		<g id="face_47_">
		</g>
		<g id="glasses_3_">
		</g>
		<g id="hair_7_">
		</g>
	</g>
	<g id="avatar8">
		<g id="back_12_">
			<circle fill="#D770AD" cx="256" cy="256" r="200"/>
		</g>
		<g id="clothes_13_">
			<path id="_x36__76_" fill="#E6E9ED" d="M372.668,359.789c-7.353-6.355-19.364-14.563-30.666-15.666
				c-7.258-0.709-86.002-13-86.002-13s-78.744,12.291-86.002,13c-11.302,1.104-23.313,9.311-30.666,15.666
				c-13.417,11.598-20.781,25.84-24.795,38.711c36.195,36.219,86.213,58.621,141.463,58.621s105.268-22.402,141.463-58.621
				C393.449,385.629,386.085,371.387,372.668,359.789z"/>
			<path id="_x35__82_" fill="#F5F7FA" d="M230.384,335.098l-2.823-12.078c0,0-7.931,2.797-14.412,14.732
				c-5.49,10.109-9.94,26.775-7.648,53.869c0,0,12.793-0.438,13.646,2.563s-5.396,9.969-5.396,9.969l16.313,51.297
				c1.971,0.256,3.938,0.482,5.938,0.68v-97.008L230.384,335.098z"/>
			<path id="_x34__98_" fill="#F5F7FA" d="M281.616,335.098l2.824-12.078c0,0,7.93,2.797,14.411,14.732
				c5.49,10.109,9.941,26.775,7.648,53.869c0,0-12.793-0.438-13.646,2.563s5.396,9.969,5.396,9.969l-16.313,51.297
				c-1.97,0.256-3.938,0.482-5.938,0.68v-97.008L281.616,335.098z"/>
			<path id="_x33__110_" fill="#F9E0A8" d="M256,253.121l-42.25-5.5l16.308,88.734c0,0,3.124,26.096,21.036,30.205L256,381.73
				l9.533-16.84c13.841-7.063,16.41-28.535,16.41-28.535l16.307-88.734L256,253.121z"/>
			<path id="_x32__124_" fill="#D9C392" d="M290,262.621l-69.525,21.592l7.086,38.557c10.661,13.145,26.919,25.186,50.957,26.264
				c2.709-6.691,3.426-12.678,3.426-12.678l12.127-65.99C291.686,265.568,290,262.621,290,262.621z"/>
			<path id="_x31__141_" fill="#C93F4D" d="M290,333.109l-5.56-10.34l-19.099,26.352l-4.342,5.99l-4.907,26.457L256,381.73
				l-0.146-0.449L251,355.111l-4.341-5.99l-19.099-26.352L222,333.109l-4,46.012l18-7.66v84.555c7,0.727,13.25,1.105,20,1.105
				c7.437,0,15-0.467,22-1.348v-83.461l16,6.809L290,333.109z"/>
		</g>
		<g id="face_48_">
			<path id="ear_36_" fill="#F9E0A8" d="M193,215.621c0,0-21.309-13.5-19.104,14.5s19.104,26,19.104,26V215.621z"/>
			<path id="ear_31_" fill="#F9E0A8" d="M319,215.621c0,0,21.31-13.5,19.104,14.5c-2.204,28-19.104,26-19.104,26V215.621z"/>
			<path id="face_18_" fill="#FFE9BA" d="M256,143.383c-63,0-63,34.738-63,34.738s0,59.5,0,80s19.237,36.287,35.226,50
				c13.408,11.5,27.774,11,27.774,11s14.366,0.5,27.774-11c15.988-13.713,35.226-29.5,35.226-50s0-80,0-80S319,143.383,256,143.383z
				"/>
		</g>
		<g id="beard_5_">
			<path id="_x38__34_" fill="#FFCE54" d="M318.975,256.109c0,0-8.975,38.512-51.214,50.262c0,0,0.239-15.25-11.761-15.25
				s-11.761,15.25-11.761,15.25c-42.239-11.75-51.214-50.262-51.214-50.262c-3.475,27.988,39.34,55.182,46.475,63.016
				c7.135,7.832,16.5,19.996,16.5,19.996s9.365-12.164,16.5-19.996C279.635,311.291,322.449,284.098,318.975,256.109z"/>
			<path id="_x37__66_" fill="#F6BB42" d="M232.684,302.16c-2.158-0.986-4.21-2.041-6.15-3.158c-0.179,2.977,0.065,6.305,1.023,9.93
				c2.366,1.961,4.55,3.73,6.423,5.277C233.212,310.438,232.635,306.25,232.684,302.16z"/>
			<path id="_x36__75_" fill="#FFD56B" d="M217.679,292.961c-2.527-2.018-4.813-4.119-6.874-6.258
				c-0.164,2.141-0.271,4.402-0.23,6.711c2.033,2.131,4.129,4.182,6.225,6.133C216.732,297.303,216.965,295.053,217.679,292.961z"/>
			<path id="_x35__79_" fill="#F6BB42" d="M204.688,279.49c-1.898-2.557-3.513-5.064-4.88-7.441
				c-0.18,2.236-0.232,4.873-0.036,7.893c1.352,2.117,2.849,4.193,4.453,6.217C204.218,283.803,204.345,281.51,204.688,279.49z"/>
			<path id="_x34__97_" fill="#F6BB42" d="M279.316,302.16c2.158-0.986,4.21-2.041,6.15-3.158c0.179,2.977-0.065,6.305-1.023,9.93
				c-2.366,1.961-4.55,3.73-6.423,5.277C278.788,310.438,279.365,306.25,279.316,302.16z"/>
			<path id="_x33__109_" fill="#FFD56B" d="M294.321,292.961c2.527-2.018,4.813-4.119,6.874-6.258
				c0.164,2.141,0.271,4.402,0.23,6.711c-2.033,2.131-4.129,4.182-6.225,6.133C295.268,297.303,295.035,295.053,294.321,292.961z"/>
			<path id="_x32__123_" fill="#F6BB42" d="M307.312,279.49c1.898-2.557,3.513-5.064,4.88-7.441c0.18,2.236,0.232,4.873,0.036,7.893
				c-1.352,2.117-2.849,4.193-4.453,6.217C307.782,283.803,307.655,281.51,307.312,279.49z"/>
			<path id="_x31__140_" fill="#FFD56B" d="M263.136,293.725c-1.688-1.549-3.988-2.604-7.136-2.604s-5.447,1.055-7.136,2.604
				c-2.174,9.934-0.35,25.688,2,38.883c3.003,3.744,5.136,6.514,5.136,6.514s2.133-2.77,5.136-6.514
				C263.485,319.412,265.31,303.658,263.136,293.725z"/>
		</g>
		<g id="glasses_7_">
			<path id="_x38__22_" fill="#434A54" d="M319.087,219.455l-0.175-3.652c0,0-12.254-0.035-12.534,0.017l-34.628,6.283
				c-2.705,0.494-5.182,1.663-5.502,2.626s-2.738,2.179-5.371,2.717c-2.634,0.537-6.944,0.531-9.578-0.006
				c-2.633-0.537-5.051-1.768-5.371-2.73s-2.797-2.156-5.502-2.65l-34.516-6.329c-0.336-0.062-12.822,0.073-12.822,0.073
				l-0.175,3.742l6.659,8.269l9.484,14.759c1.485,2.314,4.948,4.093,7.695,3.965l22.104-1.027c2.747-0.127,5.47-2.434,6.05-5.121
				l0.441-2.052c0.58-2.688,3.186-5.114,5.79-5.112S255.922,233,255.98,233s0.156,0,0.215,0s2.238,0.226,4.843,0.224
				s5.21,2.31,5.79,4.999l0.441,2.105c0.58,2.688,3.303,5.02,6.05,5.148l22.104,1.035c2.748,0.127,6.21-1.654,7.695-3.969
				l9.484-14.779c0.13-0.202,0.239-0.43,0.351-0.653L319.087,219.455z"/>
			<path id="_x37__41_" fill="#656D78" d="M263,226.766c-1,0.268-1.403,0.504-2.212,0.668c-2.634,0.537-6.989,0.537-9.623,0
				c-0.74-0.15-1.166-0.359-2.166-0.6v6.881c1-0.273,1.384-0.492,2.049-0.491c2.604,0.002,4.873-0.224,4.932-0.224s0.156,0,0.215,0
				s2.149,0.226,4.754,0.224c0.729-0.001,1.051,0.253,2.051,0.571V226.766z"/>
			<path id="_x36__50_" fill="#FC6E51" d="M268.783,237.914l0.441,2.051c0.389,1.801,2.346,3.455,4.188,3.541l22.104,1.021
				l0.188,0.006c2.042,0,4.666-1.404,5.731-3.064l9.484-14.781c1.124-1.75,1.387-4.861,0.563-6.658
				c-0.616-1.34-2.407-2.393-4.077-2.393c-0.23,0-0.455,0.021-0.669,0.061l-34.628,6.328c-2.135,0.389-3.642,3.162-4.046,3.527
				L268.783,237.914z"/>
			<path id="_x35__55_" fill="#FC8F79" d="M290.027,220.75l9.755,22.35c-1.224,0.852-2.769,1.434-4.078,1.434l-0.188-0.006
				l-3.918-0.182l-9.655-22.117L290.027,220.75z"/>
			<path id="_x34__72_" fill="#FCA897" d="M272.109,224.025l2.76-0.506l8.934,20.467l-4.454-0.205l-8.411-19.271
				C271.305,224.287,271.69,224.102,272.109,224.025z"/>
			<path id="_x33__79_" fill="#FC6E51" d="M243.393,237.914l-0.441,2.051c-0.389,1.801-2.346,3.455-4.188,3.541l-22.104,1.021
				l-0.188,0.006c-2.042,0-4.666-1.404-5.731-3.064l-9.484-14.781c-1.124-1.75-1.387-4.861-0.563-6.658
				c0.616-1.34,2.407-2.393,4.077-2.393c0.23,0,0.455,0.021,0.669,0.061l34.628,6.328c2.135,0.389,3.642,3.162,4.046,3.527
				L243.393,237.914z"/>
			<path id="_x32__89_" fill="#FC8F79" d="M222.148,220.75l-9.755,22.35c1.224,0.852,2.769,1.434,4.078,1.434l0.188-0.006
				l3.918-0.182l9.655-22.117L222.148,220.75z"/>
			<path id="_x31__104_" fill="#FCA897" d="M240.066,224.025l-2.76-0.506l-8.934,20.467l4.454-0.205l8.411-19.271
				C240.871,224.287,240.485,224.102,240.066,224.025z"/>
		</g>
		<g id="hair_6_">
			<path id="_x31_2_11_" fill="#FFCE54" d="M305.904,287.934l-0.004-0.002c-0.011-0.012-0.021-0.021-0.032-0.033
				c4.973,4.996,19.734,21.777,16.604,42.225c0,0,6.556,3.27,13.406-0.748C335.452,301.25,305.904,287.934,305.904,287.934z"/>
			<path id="_x31_1_4_" fill="#FFCE54" d="M311.287,280.591c-0.217,0.319-0.44,0.636-0.664,0.952
				c14.878,5.861,27.977,21.771,35.488,32.484C348.869,298.354,332.016,281.35,311.287,280.591z"/>
			<path id="_x31_0_14_" fill="#F6BB42" d="M341.292,324.416c0.098-0.129,0.194-0.264,0.291-0.397
				c0.233-0.319,0.465-0.653,0.694-1.001c0.108-0.162,0.216-0.326,0.322-0.496c0.227-0.359,0.451-0.737,0.673-1.125
				c0.095-0.166,0.192-0.326,0.286-0.498c0.31-0.563,0.616-1.15,0.915-1.773c0.24-0.501,0.449-1.006,0.642-1.514
				c0.057-0.148,0.108-0.298,0.161-0.447c0.134-0.377,0.255-0.756,0.365-1.136c0.043-0.151,0.088-0.302,0.128-0.452
				c0.13-0.498,0.246-0.998,0.335-1.498c0.003-0.016,0.007-0.031,0.01-0.047c-7.511-10.714-20.61-26.627-35.491-32.488
				c-1.501,2.119-3.153,4.182-4.916,6.193c0.05,0.049,0.109,0.11,0.161,0.162c0.011,0.012,0.021,0.021,0.032,0.033l0.004,0.002
				c0,0,29.548,13.316,29.975,41.441c0.003-0.002,0.006-0.004,0.009-0.005c0.35-0.206,0.701-0.433,1.052-0.679
				c0.038-0.025,0.076-0.053,0.113-0.08c0.332-0.235,0.663-0.49,0.994-0.764c0.034-0.029,0.068-0.055,0.102-0.083
				c0.724-0.608,1.443-1.312,2.15-2.121c0.045-0.052,0.089-0.109,0.134-0.161C340.721,325.145,341.007,324.789,341.292,324.416z"/>
			<path id="_x39__20_" fill="#FFCE54" d="M319.623,136.871l-0.012,0.023c-3.892-16.092-18.273-34.273-63.431-34.273
				c-45.677,0-59.939,18.375-63.656,34.527l-0.147-0.277c-18,18.334,0.804,78.75,0.804,78.75s0-1.498,5.667-9.498
				c3.348-4.727,3.67-22.01,3.374-35.369c20.382,17.201,53.959,24.867,53.959,24.867s33.176-7.576,53.591-24.561
				c-0.284,13.316,0.06,30.373,3.381,35.063c5.667,8,5.667,9.498,5.667,9.498S337.623,155.205,319.623,136.871z"/>
			<path id="_x38__28_" fill="#F6BB42" d="M202.247,119.146c1.063,37.873,13.233,57.139,25.748,66.924
				c12.662,5.535,24.131,8.555,27.311,9.34c-47.486-38.227-37.658-74.281-30.564-88.916
				C214.478,109.49,207.271,113.99,202.247,119.146z"/>
			<path id="_x37__59_" fill="#F6BB42" d="M201.786,193.154l-15.803-10.367c0.768,5.525,1.765,10.826,2.772,15.498l12.226,1.377
				C201.325,197.732,201.589,195.529,201.786,193.154z"/>
			<path id="_x36__66_" fill="#FFD56B" d="M184.624,167.277c0.107,3.885,0.424,7.84,0.878,11.736l16.716,5.977
				c0.047-1.678,0.073-3.377,0.084-5.072L184.624,167.277z"/>
			<path id="_x35__74_" fill="#FFD56B" d="M274.955,103.842c-5.581-0.783-11.804-1.221-18.774-1.221s-13.193,0.438-18.774,1.221
				c-3.312,15.125-0.75,42.436,18.562,91.73c0.135,0.031,0.213,0.049,0.213,0.049s0.078-0.018,0.213-0.049
				C275.705,146.277,278.267,118.967,274.955,103.842z"/>
			<path id="_x34__90_" fill="#F6BB42" d="M310.114,119.146c-1.063,37.873-13.233,57.139-25.748,66.924
				c-12.662,5.535-24.131,8.555-27.311,9.34c47.486-38.227,37.658-74.281,30.564-88.916
				C297.884,109.49,305.09,113.99,310.114,119.146z"/>
			<path id="_x33__101_" fill="#F6BB42" d="M311.171,200.473l11.888-1.34c1.028-4.688,2.061-10.053,2.863-15.67l-15.658,10.271
				C310.485,196.223,310.78,198.512,311.171,200.473z"/>
			<path id="_x32__112_" fill="#FFD56B" d="M327.369,167.541L309.7,180.176c0.013,1.752,0.043,3.506,0.095,5.232l16.652-5.953
				C326.918,175.506,327.25,171.488,327.369,167.541z"/>
		</g>
	</g>
	<g id="avatar7">
		<g id="back_4_">
		</g>
		<g id="clothes_14_">
		</g>
		<g id="face_11_">
		</g>
		<g id="hair_14_">
		</g>
	</g>
	<g id="avatar6">
		<g id="back_13_">
		</g>
		<g id="clothes_15_">
		</g>
		<g id="face_16_">
		</g>
		<g id="glasses_2_">
		</g>
		<g id="beard_4_">
		</g>
		<g id="hair_5_">
		</g>
	</g>
	<g id="avatar5">
		<g id="back_14_">
		</g>
		<g id="clothes_5_">
		</g>
		<g id="face_38_">
		</g>
		<g id="beard_3_">
		</g>
		<g id="hair_4_">
		</g>
	</g>
	<g id="avatar4">
		<g id="back_3_">
		</g>
		<g id="clothes_4_">
		</g>
		<g id="face_13_">
		</g>
		<g id="beard_2_">
		</g>
		<g id="glasses_1_">
		</g>
		<g id="hair_3_">
		</g>
	</g>
	<g id="avatar3">
		<g id="back_15_">
		</g>
		<g id="clothes_16_">
		</g>
		<g id="face_49_">
		</g>
		<g id="hair_15_">
		</g>
	</g>
	<g id="avatar2">
		<g id="back_2_">
		</g>
		<g id="clothes_3_">
		</g>
		<g id="face_9_">
		</g>
		<g id="beard_1_">
		</g>
		<g id="hair_2_">
		</g>
	</g>
	<g id="avatar1">
		<g id="back_1_">
		</g>
		<g id="clothes_2_">
		</g>
		<g id="face_6_">
		</g>
		<g id="hair_1_">
		</g>
	</g>
</g>
</svg>
