<?xml version="1.0" encoding="iso-8859-1"?>
<!-- Generator: Adobe Illustrator 16.0.3, SVG Export Plug-In . SVG Version: 6.00 Build 0)  -->
<!DOCTYPE svg PUBLIC "-//W3C//DTD SVG 1.1 Basic//EN" "http://www.w3.org/Graphics/SVG/1.1/DTD/svg11-basic.dtd">
<svg version="1.1" baseProfile="basic" xmlns="http://www.w3.org/2000/svg" xmlns:xlink="http://www.w3.org/1999/xlink" x="0px"
	 y="0px" width="512px" height="512px" viewBox="0 0 512 512" xml:space="preserve">
<g id="Layer_159" display="none">
	<rect x="512" y="512" display="inline" fill="#FFFFFF" width="512" height="512"/>
	<rect y="512" display="inline" fill="#FFFFFF" width="512" height="512"/>
	<rect x="-512" y="512" display="inline" fill="#FFFFFF" width="512" height="512"/>
	<rect x="512" y="-512" display="inline" fill="#FFFFFF" width="512" height="512"/>
	<rect y="-512" display="inline" fill="#FFFFFF" width="512" height="512"/>
	<rect x="-512" y="-512" display="inline" fill="#FFFFFF" width="512" height="512"/>
	<rect x="512" display="inline" fill="#FFFFFF" width="512" height="512"/>
	<rect display="inline" fill="#FFFFFF" width="512" height="512"/>
	<rect x="-512" display="inline" fill="#FFFFFF" width="512" height="512"/>
</g>
<g id="female" display="none">
	<g id="avatar15_1_" display="inline">
		<g id="baclk">
		</g>
		<g id="hair_back_8_">
		</g>
		<g id="clothes_30_">
		</g>
		<g id="face_98_">
		</g>
		<g id="hair_front_8_">
		</g>
	</g>
	<g id="avatar14_1_" display="inline">
		<g id="back_16_">
		</g>
		<g id="hair_back">
		</g>
		<g id="clothes_17_">
		</g>
		<g id="face_57_">
		</g>
		<g id="hair_front">
		</g>
	</g>
	<g id="avatar13_1_" display="inline">
		<g id="back_x27_">
		</g>
		<g id="clothes">
		</g>
		<g id="face">
		</g>
		<g id="hair">
		</g>
	</g>
	<g id="avatar12_1_" display="inline">
		<g id="back_27_">
		</g>
		<g id="clothes_29_">
		</g>
		<g id="face_97_">
		</g>
		<g id="hair_20_">
		</g>
	</g>
	<g id="avatar11_1_" display="inline">
		<g id="back_26_">
		</g>
		<g id="clothes_28_">
		</g>
		<g id="face_95_">
		</g>
		<g id="hair_19_">
		</g>
	</g>
	<g id="avatar10_1_" display="inline">
		<g id="back_25_">
		</g>
		<g id="clothes_27_">
		</g>
		<g id="face_94_">
		</g>
		<g id="glasses_11_">
		</g>
		<g id="hair_18_">
		</g>
	</g>
	<g id="avatar9_1_" display="inline">
		<g id="back_24_">
		</g>
		<g id="clothes_26_">
		</g>
		<g id="face_92_">
		</g>
		<g id="hair_17_">
		</g>
	</g>
	<g id="avatar8_1_" display="inline">
		<g id="back_23_">
		</g>
		<g id="hair_back_7_">
		</g>
		<g id="clothes_25_">
		</g>
		<g id="face_91_">
		</g>
		<g id="hair_front_7_">
		</g>
	</g>
	<g id="avatar7_1_" display="inline">
		<g id="back_22_">
		</g>
		<g id="clothes_24_">
		</g>
		<g id="face_90_">
		</g>
		<g id="necklace_1_">
		</g>
		<g id="earings_1_">
		</g>
		<g id="hair_16_">
		</g>
	</g>
	<g id="avatar6_1_" display="inline">
		<g id="back_21_">
		</g>
		<g id="hair_back_6_">
		</g>
		<g id="clothes_23_">
		</g>
		<g id="face_89_">
		</g>
		<g id="glasses_12_">
		</g>
		<g id="hair_front_6_">
		</g>
	</g>
	<g id="avatar5_1_" display="inline">
		<g id="back_20_">
		</g>
		<g id="hair_back_5_">
		</g>
		<g id="clothes_22_">
		</g>
		<g id="face_88_">
		</g>
		<g id="glasses_9_">
		</g>
		<g id="hair_front_5_">
		</g>
	</g>
	<g id="avatar4_1_" display="inline">
		<g id="back_19_">
		</g>
		<g id="hair_back_4_">
		</g>
		<g id="clothes_21_">
		</g>
		<g id="face_87_">
		</g>
		<g id="earing_1_">
		</g>
		<g id="hair_front_4_">
		</g>
	</g>
	<g id="avatar3_1_" display="inline">
		<g id="back_18_">
		</g>
		<g id="hair_back_3_">
		</g>
		<g id="clothes_20_">
		</g>
		<g id="face_86_">
		</g>
		<g id="earings">
		</g>
		<g id="glasses_8_">
		</g>
		<g id="hair_front_3_">
		</g>
	</g>
	<g id="avatar2_1_" display="inline">
		<g id="Layebackr_167">
		</g>
		<g id="hair_back_2_">
		</g>
		<g id="clothes_19_">
		</g>
		<g id="necklace">
		</g>
		<g id="face_85_">
		</g>
		<g id="hair_front_2_">
		</g>
	</g>
	<g id="avatar1_1_" display="inline">
		<g id="back_17_">
		</g>
		<g id="hair_back_1_">
		</g>
		<g id="clothes_18_">
		</g>
		<g id="face_84_">
		</g>
		<g id="hair_front_1_">
		</g>
	</g>
</g>
<g id="male">
	<g id="avatar20">
		<g id="back_32_">
		</g>
		<g id="clothes_34_">
		</g>
		<g id="face_100_">
		</g>
		<g id="hair_22_">
		</g>
	</g>
	<g id="avatar19">
		<g id="back_31_">
		</g>
		<g id="clothes_33_">
		</g>
		<g id="face_99_">
		</g>
		<g id="scaft">
		</g>
		<g id="hat">
		</g>
	</g>
	<g id="avatar18">
		<g id="back_30_">
		</g>
		<g id="clothes_32_">
		</g>
		<g id="face_55_">
		</g>
		<g id="earings_2_">
		</g>
		<g id="hair_21_">
		</g>
	</g>
	<g id="avatar17">
		<g id="back_29_">
		</g>
		<g id="hair_back_10_">
		</g>
		<g id="clothes_31_">
		</g>
		<g id="face_2_">
		</g>
		<g id="glasses_10_">
		</g>
		<g id="hair_front_10_">
		</g>
	</g>
	<g id="avatar16">
		<g id="back_28_">
		</g>
		<g id="hair_back_9_">
		</g>
		<g id="clothes_1_">
		</g>
		<g id="face_1_">
		</g>
		<g id="hair_front_9_">
		</g>
	</g>
	<g id="avatar15">
		<g id="back_5_">
		</g>
		<g id="clothes_6_">
		</g>
		<g id="face_29_">
		</g>
		<g id="glasses_4_">
		</g>
		<g id="hair_8_">
		</g>
	</g>
	<g id="avatar14">
		<g id="back_6_">
		</g>
		<g id="clothes_7_">
		</g>
		<g id="face_42_">
		</g>
		<g id="earings_3_">
		</g>
		<g id="hair_9_">
		</g>
	</g>
	<g id="avatar13">
		<g id="back_7_">
		</g>
		<g id="clothes_8_">
		</g>
		<g id="face_43_">
		</g>
		<g id="glasses_5_">
		</g>
		<g id="hair_10_">
		</g>
	</g>
	<g id="avatar12">
		<g id="back_8_">
		</g>
		<g id="clothes_9_">
		</g>
		<g id="face_44_">
		</g>
		<g id="beard_6_">
		</g>
		<g id="hair_11_">
		</g>
	</g>
	<g id="avatar11">
		<g id="back_9_">
		</g>
		<g id="clothes_10_">
		</g>
		<g id="face_45_">
		</g>
		<g id="glass">
		</g>
		<g id="hair_12_">
		</g>
	</g>
	<g id="avatar10">
		<g id="back_10_">
		</g>
		<g id="clothes_11_">
		</g>
		<g id="face_46_">
		</g>
		<g id="beard_7_">
		</g>
		<g id="glasses_6_">
		</g>
		<g id="hair_13_">
		</g>
	</g>
	<g id="avatar9">
		<g id="back_11_">
		</g>
		<g id="clothes_12_">
		</g>
		<g id="face_47_">
		</g>
		<g id="glasses_3_">
		</g>
		<g id="hair_7_">
		</g>
	</g>
	<g id="avatar8">
		<g id="back_12_">
		</g>
		<g id="clothes_13_">
		</g>
		<g id="face_48_">
		</g>
		<g id="beard_5_">
		</g>
		<g id="glasses_7_">
		</g>
		<g id="hair_6_">
		</g>
	</g>
	<g id="avatar7">
		<g id="back_4_">
			<circle fill="#967ADC" cx="256" cy="256" r="200"/>
		</g>
		<g id="clothes_14_">
			<path id="_x36__65_" fill="#E6E9ED" d="M396.557,399.266c-4.248-12.583-11.4-29.09-23.417-39.477
				c-7.353-6.355-19.364-14.563-30.666-15.666c-7.258-0.709-86.002-13-86.002-13s-78.744,12.291-86.002,13
				c-11.302,1.104-23.313,9.311-30.666,15.666c-12.24,10.58-19.433,27.508-23.649,40.172C152.218,435.242,201.564,457,256,457
				C310.794,457,360.434,434.957,396.557,399.266z"/>
			<path id="_x35__73_" fill="#F9E0A8" d="M256.473,253.121l-42.25-5.5l16.307,88.734c0,0,3.666,30.766,25.943,30.766
				s25.943-30.766,25.943-30.766l16.307-88.734L256.473,253.121z"/>
			<polygon id="_x34__89_" fill="#F9E0A8" points="244.473,363 265.473,363 256.473,454.5 			"/>
			<path id="_x33__98_" fill="#D9C392" d="M290.473,262.621l-69.525,21.592l7.086,38.557c10.66,13.145,26.918,25.186,50.957,26.264
				c2.709-6.691,3.426-12.678,3.426-12.678l12.127-65.99C292.158,265.568,290.473,262.621,290.473,262.621z"/>
			<polygon id="_x32__108_" fill="#F5F7FA" points="214.223,337.658 228.033,322.77 250.473,352.121 256.473,454.621 
				244.973,371.695 229.418,392.232 			"/>
			<polygon id="_x31__135_" fill="#F5F7FA" points="298.723,337.658 284.912,322.77 262.473,352.121 256.473,454.621 
				267.973,371.695 283.527,392.232 			"/>
		</g>
		<g id="face_11_">
			<path id="ear_35_" fill="#F9E0A8" d="M193,215.621c0,0-21.309-13.5-19.104,14.5s19.104,26,19.104,26V215.621z"/>
			<path id="ear_17_" fill="#F9E0A8" d="M319,215.621c0,0,21.31-13.5,19.104,14.5c-2.204,28-19.104,26-19.104,26V215.621z"/>
			<path id="face_22_" fill="#FFE9BA" d="M256,143.383c-63,0-63,34.738-63,34.738s0,59.5,0,80s19.237,36.287,35.226,50
				c13.408,11.5,27.774,11,27.774,11s14.366,0.5,27.774-11c15.988-13.713,35.226-29.5,35.226-50s0-80,0-80S319,143.383,256,143.383z
				"/>
		</g>
		<g id="hair_14_">
			<path id="_x31_9_2_" fill="#434A54" d="M193.473,215.621c0,0,1,14,11,26c0,0-17-50,5-56c0,0-1.5,11.5,30.5,29
				c0,0-16.5-24.5-2.5-29c0,0,45.5,38,42.5,56c0,0,15-21.5,2.5-41c0,0,28,24.5,21.5,52c0,0,15.5-23,15.5-37c0,0,6,17.5,15.5,15
				c0,0-12.301-15.5-3.15-18c0,0,8.65-10,14.65,7.5c0,0,10.5-11-7.735-24c-13.838-9.865,12.735-28.5,28.735-2.5
				c0,0-1.5-78.5-57.5-74.5c0,0,32.5-34.5,2.5-50c0,0,19,34.5-34.5,44c0,0,18.896-31.297-34.5-38.5c0,0,42,19.5,4,30.5
				c0,0-30.5-14-54,11.5c0,0,4.5-15,16-21c0,0-28.264,1-25.632,30c0,0-25.368,1.5-20.368,22.5s-12,15-12,15s9.971,14.5,22.735,1
				c0,0-11.235,7-10.735,19.5s-3.5,19.5-12,19c0,0,9.471,15,22.735-10.5c0,0-9.82,16.682-3.235,34.5c0,0,1.236-14.008,12.868-14.254
				s-2.868,24.754-17.868,19.254C165.973,231.621,184.973,242.621,193.473,215.621z"/>
			<path id="_x31_8_4_" fill="#656D78" d="M168.727,215.025c0.127,3.693,0.775,7.615,2.246,11.596c0,0,0.536-6.059,4.211-10.277
				c0.994-6.637,3.273-11.801,4.389-14.025C175.535,209.756,171.866,213.453,168.727,215.025z"/>
			<path id="_x31_7_1_" fill="#656D78" d="M191.187,221.488c-0.407-0.08-0.844-0.131-1.346-0.121
				c-1.356,0.029-2.567,0.252-3.655,0.609c-1.702,2.965-4.449,5.967-7.76,7.988c-0.556,1.373-0.905,2.666-1.123,3.672
				C181.979,232.898,187.214,229.855,191.187,221.488z"/>
			<path id="_x31_6_1_" fill="#656D78" d="M215.473,104.621c-11.5,6-16,21-16,21c23.5-25.5,54-11.5,54-11.5
				c21.411-6.197,17.424-15.094,9.862-21.68c0.513,4.48-3.304,9.045-15.862,12.68c0,0-20.949-9.615-41.501,1.607
				C211.108,104.783,215.473,104.621,215.473,104.621z"/>
			<path id="_x31_5_2_" fill="#656D78" d="M315.973,128.121c18.135-1.295,30.549,6.066,39.053,16.605
				c-6.648-12.035-16.843-22.283-32.467-25.025C319.124,124.775,315.973,128.121,315.973,128.121z"/>
			<path id="_x31_4_2_" fill="#656D78" d="M340.946,197.811c-0.365,2.479,0.707,5.113,3.791,7.311
				c1.64,1.17,3.039,2.322,4.243,3.451C348.068,205.375,345.748,201.703,340.946,197.811z"/>
			<path id="_x31_3_2_" fill="#656D78" d="M287.188,111.059c-0.321,6.268-3.216,11.063-3.216,11.063c53.5-9.5,34.5-44,34.5-44
				c2.323,1.201,4.27,2.516,5.888,3.918c-1.471-4.869-5.054-9.387-11.888-12.918C312.473,69.121,329.168,99.438,287.188,111.059z"/>
			<path id="_x31_2_3_" fill="#656D78" d="M259.411,85.418c10.06,2.342,16.669,5.744,20.9,9.551
				c-2.636-8.271-11.769-16.965-36.839-20.348C243.473,74.621,253.603,79.328,259.411,85.418z"/>
			<path id="_x31_1_3_" fill="#656D78" d="M169.094,200.318c0.359-2.266,0.494-4.828,0.379-7.697
				c-0.292-7.297,3.415-12.717,6.552-15.967c-4.632,2.979-8.732,2.537-11.892,1.064c-0.483,1.805-0.745,3.771-0.66,5.902
				c0.5,12.5-3.5,19.5-12,19C151.473,202.621,158.576,213.865,169.094,200.318z"/>
			<path id="_x31_0_13_" fill="#656D78" d="M325.473,224.621c0,0.574-0.035,1.166-0.085,1.768c0.46,0.549,0.945,1.068,1.453,1.551
				C325.947,226.006,325.473,224.621,325.473,224.621z"/>
			<path id="_x39__19_" fill="#656D78" d="M309.678,243.182c-2.274-9.184-7.237-17.277-11.801-23.217
				c5.154,9.096,8.948,20.586,6.096,32.656C303.973,252.621,306.593,248.732,309.678,243.182z"/>
			<path id="_x38__26_" fill="#656D78" d="M282.421,237.367c-1.657-3.018-3.779-6.162-6.178-9.318
				c2.82,5.053,4.364,9.762,3.729,13.572C279.973,241.621,281.069,240.043,282.421,237.367z"/>
			<path id="_x37__58_" fill="#656D78" d="M169.888,167.744c0.712-2.377,0.739-5.773-0.415-10.623c-5-21,20.368-22.5,20.368-22.5
				c-0.735-8.098,0.942-14.008,3.737-18.328c0.729-2.207,5.39-15.191,15.895-20.672c0,0-28.264,1-25.632,30
				c0,0-25.368,1.5-20.368,22.5s-12,15-12,15S159.265,174.436,169.888,167.744z"/>
			<path id="_x36__64_" fill="#656D78" d="M346.262,219.545c0.07,0.195,0.142,0.375,0.211,0.576c0,0,0.094-0.098,0.248-0.287
				C346.567,219.73,346.414,219.633,346.262,219.545z"/>
			<path id="_x35__72_" fill="#656D78" d="M199.473,224.621c-0.637,2.023-1.338,3.809-2.08,5.424
				c1.618,3.717,3.89,7.748,7.08,11.576c0,0-0.094-0.277-0.256-0.781C200.013,232.117,199.473,224.621,199.473,224.621z"/>
			<path id="_x34__87_" fill="#656D78" d="M169.863,167.824c-1.072,1.129-2.201,2.506-3.208,4.125
				C168.045,171.197,169.219,169.908,169.863,167.824z"/>
			<path id="_x33__96_" fill="#656D78" d="M176.347,233.76c-0.251-0.811-0.463-1.615-0.651-2.418
				c-3.023,1.205-6.359,1.514-9.723,0.279C165.973,231.621,170.621,234.307,176.347,233.76z"/>
			<path id="_x32__107_" fill="#656D78" d="M200.933,169.861c0,0,12.54-27.24,64.54-4.24s44.205-2.494,44.205-2.494
				s-5.383,15.494-40.294,0.494S216.393,140.6,200.933,169.861z"/>
			<path id="_x31__132_" fill="#656D78" d="M199.473,154.121c0,0,13.178-49.289,80.839-9.395
				C280.312,144.727,219.473,120.121,199.473,154.121z"/>
		</g>
	</g>
	<g id="avatar6">
		<g id="back_13_">
		</g>
		<g id="clothes_15_">
		</g>
		<g id="face_16_">
		</g>
		<g id="glasses_2_">
		</g>
		<g id="beard_4_">
		</g>
		<g id="hair_5_">
		</g>
	</g>
	<g id="avatar5">
		<g id="back_14_">
		</g>
		<g id="clothes_5_">
		</g>
		<g id="face_38_">
		</g>
		<g id="beard_3_">
		</g>
		<g id="hair_4_">
		</g>
	</g>
	<g id="avatar4">
		<g id="back_3_">
		</g>
		<g id="clothes_4_">
		</g>
		<g id="face_13_">
		</g>
		<g id="beard_2_">
		</g>
		<g id="glasses_1_">
		</g>
		<g id="hair_3_">
		</g>
	</g>
	<g id="avatar3">
		<g id="back_15_">
		</g>
		<g id="clothes_16_">
		</g>
		<g id="face_49_">
		</g>
		<g id="hair_15_">
		</g>
	</g>
	<g id="avatar2">
		<g id="back_2_">
		</g>
		<g id="clothes_3_">
		</g>
		<g id="face_9_">
		</g>
		<g id="beard_1_">
		</g>
		<g id="hair_2_">
		</g>
	</g>
	<g id="avatar1">
		<g id="back_1_">
		</g>
		<g id="clothes_2_">
		</g>
		<g id="face_6_">
		</g>
		<g id="hair_1_">
		</g>
	</g>
</g>
</svg>
