<?xml version="1.0" encoding="iso-8859-1"?>
<!-- Generator: Adobe Illustrator 16.0.3, SVG Export Plug-In . SVG Version: 6.00 Build 0)  -->
<!DOCTYPE svg PUBLIC "-//W3C//DTD SVG 1.1 Basic//EN" "http://www.w3.org/Graphics/SVG/1.1/DTD/svg11-basic.dtd">
<svg version="1.1" baseProfile="basic" xmlns="http://www.w3.org/2000/svg" xmlns:xlink="http://www.w3.org/1999/xlink" x="0px"
	 y="0px" width="512px" height="512px" viewBox="0 0 512 512" xml:space="preserve">
<g id="Layer_159" display="none">
	<rect x="512" display="inline" fill="#FFFFFF" width="512" height="512"/>
	<rect display="inline" fill="#FFFFFF" width="512" height="512"/>
	<rect x="-512" display="inline" fill="#FFFFFF" width="512" height="512"/>
	<rect x="512" y="512" display="inline" fill="#FFFFFF" width="512" height="512"/>
	<rect y="512" display="inline" fill="#FFFFFF" width="512" height="512"/>
	<rect x="-512" y="512" display="inline" fill="#FFFFFF" width="512" height="512"/>
</g>
<g id="female" display="none">
	<g id="avatar15_1_" display="inline">
		<g id="baclk">
		</g>
		<g id="hair_back_8_">
		</g>
		<g id="clothes_30_">
		</g>
		<g id="face_98_">
		</g>
		<g id="hair_front_8_">
		</g>
	</g>
	<g id="avatar14_1_" display="inline">
		<g id="back_16_">
		</g>
		<g id="hair_back">
		</g>
		<g id="clothes_17_">
		</g>
		<g id="face_57_">
		</g>
		<g id="hair_front">
		</g>
	</g>
	<g id="avatar13_1_" display="inline">
		<g id="back_x27_">
		</g>
		<g id="clothes">
		</g>
		<g id="face">
		</g>
		<g id="hair">
		</g>
	</g>
	<g id="avatar12_1_" display="inline">
		<g id="back_27_">
		</g>
		<g id="clothes_29_">
		</g>
		<g id="face_97_">
		</g>
		<g id="hair_20_">
		</g>
	</g>
	<g id="avatar11_1_" display="inline">
		<g id="back_26_">
		</g>
		<g id="clothes_28_">
		</g>
		<g id="face_95_">
		</g>
		<g id="hair_19_">
		</g>
	</g>
	<g id="avatar10_1_" display="inline">
		<g id="back_25_">
		</g>
		<g id="clothes_27_">
		</g>
		<g id="face_94_">
		</g>
		<g id="glasses_11_">
		</g>
		<g id="hair_18_">
		</g>
	</g>
	<g id="avatar9_1_" display="inline">
		<g id="back_24_">
		</g>
		<g id="clothes_26_">
		</g>
		<g id="face_92_">
		</g>
		<g id="hair_17_">
		</g>
	</g>
	<g id="avatar8_1_" display="inline">
		<g id="back_23_">
		</g>
		<g id="hair_back_7_">
		</g>
		<g id="clothes_25_">
		</g>
		<g id="face_91_">
		</g>
		<g id="hair_front_7_">
		</g>
	</g>
	<g id="avatar7_1_" display="inline">
		<g id="back_22_">
		</g>
		<g id="clothes_24_">
		</g>
		<g id="face_90_">
		</g>
		<g id="necklace_1_">
		</g>
		<g id="earings_1_">
		</g>
		<g id="hair_16_">
		</g>
	</g>
	<g id="avatar6_1_" display="inline">
		<g id="back_21_">
		</g>
		<g id="hair_back_6_">
		</g>
		<g id="clothes_23_">
		</g>
		<g id="face_89_">
		</g>
		<g id="glasses_12_">
		</g>
		<g id="hair_front_6_">
		</g>
	</g>
	<g id="avatar5_1_" display="inline">
		<g id="back_20_">
		</g>
		<g id="hair_back_5_">
		</g>
		<g id="clothes_22_">
		</g>
		<g id="face_88_">
		</g>
		<g id="glasses_9_">
		</g>
		<g id="hair_front_5_">
		</g>
	</g>
	<g id="avatar4_1_" display="inline">
		<g id="back_19_">
		</g>
		<g id="hair_back_4_">
		</g>
		<g id="clothes_21_">
		</g>
		<g id="face_87_">
		</g>
		<g id="earing_1_">
		</g>
		<g id="hair_front_4_">
		</g>
	</g>
	<g id="avatar3_1_" display="inline">
		<g id="back_18_">
		</g>
		<g id="hair_back_3_">
		</g>
		<g id="clothes_20_">
		</g>
		<g id="face_86_">
		</g>
		<g id="earings">
		</g>
		<g id="glasses_8_">
		</g>
		<g id="hair_front_3_">
		</g>
	</g>
	<g id="avatar2_1_" display="inline">
		<g id="Layebackr_167">
		</g>
		<g id="hair_back_2_">
		</g>
		<g id="clothes_19_">
		</g>
		<g id="necklace">
		</g>
		<g id="face_85_">
		</g>
		<g id="hair_front_2_">
		</g>
	</g>
	<g id="avatar1_1_" display="inline">
		<g id="back_17_">
		</g>
		<g id="hair_back_1_">
		</g>
		<g id="clothes_18_">
		</g>
		<g id="face_84_">
		</g>
		<g id="hair_front_1_">
		</g>
	</g>
</g>
<g id="male">
	<g id="avatar20">
		<g id="back_32_">
		</g>
		<g id="clothes_34_">
		</g>
		<g id="face_100_">
		</g>
		<g id="hair_22_">
		</g>
	</g>
	<g id="avatar19">
		<g id="back_31_">
		</g>
		<g id="clothes_33_">
		</g>
		<g id="face_99_">
		</g>
		<g id="scaft">
		</g>
		<g id="hat">
		</g>
	</g>
	<g id="avatar18">
		<g id="back_30_">
		</g>
		<g id="clothes_32_">
		</g>
		<g id="face_55_">
		</g>
		<g id="earings_2_">
		</g>
		<g id="hair_21_">
		</g>
	</g>
	<g id="avatar17">
		<g id="back_29_">
		</g>
		<g id="hair_back_10_">
		</g>
		<g id="clothes_31_">
		</g>
		<g id="face_2_">
		</g>
		<g id="glasses_10_">
		</g>
		<g id="hair_front_10_">
		</g>
	</g>
	<g id="avatar16">
		<g id="back_28_">
		</g>
		<g id="hair_back_9_">
		</g>
		<g id="clothes_1_">
		</g>
		<g id="face_1_">
		</g>
		<g id="hair_front_9_">
		</g>
	</g>
	<g id="avatar15">
		<g id="back_5_">
		</g>
		<g id="clothes_6_">
		</g>
		<g id="face_29_">
		</g>
		<g id="glasses_4_">
		</g>
		<g id="hair_8_">
		</g>
	</g>
	<g id="avatar14">
		<g id="back_6_">
		</g>
		<g id="clothes_7_">
		</g>
		<g id="face_42_">
		</g>
		<g id="earings_3_">
		</g>
		<g id="hair_9_">
		</g>
	</g>
	<g id="avatar13">
		<g id="back_7_">
		</g>
		<g id="clothes_8_">
		</g>
		<g id="face_43_">
		</g>
		<g id="glasses_5_">
		</g>
		<g id="hair_10_">
		</g>
	</g>
	<g id="avatar12">
		<g id="back_8_">
		</g>
		<g id="clothes_9_">
		</g>
		<g id="face_44_">
		</g>
		<g id="beard_6_">
		</g>
		<g id="hair_11_">
		</g>
	</g>
	<g id="avatar11">
		<g id="back_9_">
		</g>
		<g id="clothes_10_">
		</g>
		<g id="face_45_">
		</g>
		<g id="glass">
		</g>
		<g id="hair_12_">
		</g>
	</g>
	<g id="avatar10">
		<g id="back_10_">
		</g>
		<g id="clothes_11_">
		</g>
		<g id="face_46_">
		</g>
		<g id="beard_7_">
		</g>
		<g id="glasses_6_">
		</g>
		<g id="hair_13_">
		</g>
	</g>
	<g id="avatar9">
		<g id="back_11_">
		</g>
		<g id="clothes_12_">
		</g>
		<g id="face_47_">
		</g>
		<g id="glasses_3_">
		</g>
		<g id="hair_7_">
		</g>
	</g>
	<g id="avatar8">
		<g id="back_12_">
		</g>
		<g id="clothes_13_">
		</g>
		<g id="face_48_">
		</g>
		<g id="beard_5_">
		</g>
		<g id="glasses_7_">
		</g>
		<g id="hair_6_">
		</g>
	</g>
	<g id="avatar7">
		<g id="back_4_">
		</g>
		<g id="clothes_14_">
		</g>
		<g id="face_11_">
		</g>
		<g id="hair_14_">
		</g>
	</g>
	<g id="avatar6">
		<g id="back_13_">
		</g>
		<g id="clothes_15_">
		</g>
		<g id="face_16_">
		</g>
		<g id="glasses_2_">
		</g>
		<g id="beard_4_">
		</g>
		<g id="hair_5_">
		</g>
	</g>
	<g id="avatar5">
		<g id="back_14_">
		</g>
		<g id="clothes_5_">
		</g>
		<g id="face_38_">
		</g>
		<g id="beard_3_">
		</g>
		<g id="hair_4_">
		</g>
	</g>
	<g id="avatar4">
		<g id="back_3_">
		</g>
		<g id="clothes_4_">
		</g>
		<g id="face_13_">
		</g>
		<g id="beard_2_">
		</g>
		<g id="glasses_1_">
		</g>
		<g id="hair_3_">
		</g>
	</g>
	<g id="avatar3">
		<g id="back_15_">
		</g>
		<g id="clothes_16_">
		</g>
		<g id="face_49_">
		</g>
		<g id="hair_15_">
		</g>
	</g>
	<g id="avatar2">
		<g id="back_2_">
			<circle fill="#3BAFDA" cx="256" cy="256" r="200"/>
		</g>
		<g id="clothes_3_">
			<path id="_x35__49_" fill="#8CC152" d="M372.668,358.789c-7.353-6.355-19.364-14.563-30.666-15.666
				c-7.258-0.709-86.002-13-86.002-13s-78.744,12.291-86.002,13c-11.302,1.104-23.313,9.311-30.666,15.666
				c-13.417,11.598-20.781,25.84-24.795,38.711c36.195,36.219,86.213,58.621,141.463,58.621s105.268-22.402,141.463-58.621
				C393.449,384.629,386.085,370.387,372.668,358.789z"/>
			<path id="_x34__62_" fill="#A0D468" d="M139.332,383.789c7.353-6.355,19.364-14.563,30.666-15.666
				c7.258-0.709,86.002-13,86.002-13s78.744,12.291,86.002,13c11.302,1.104,23.313,9.311,30.666,15.666
				c7.412,6.406,12.97,13.621,17.143,20.965c2.612-2.354,5.168-4.768,7.652-7.254c-4.014-12.871-11.378-27.113-24.795-38.711
				c-7.353-6.355-19.364-14.563-30.666-15.666c-7.258-0.709-86.002-13-86.002-13s-78.744,12.291-86.002,13
				c-11.302,1.104-23.313,9.311-30.666,15.666c-13.417,11.598-20.781,25.84-24.795,38.711c2.484,2.486,5.04,4.9,7.652,7.254
				C126.362,397.41,131.92,390.195,139.332,383.789z"/>
			<path id="_x33__68_" fill="#F9E0A8" d="M256,252.121l-42.25-5.5l16.307,88.734c0,0,3.666,30.766,25.943,30.766
				s25.943-30.766,25.943-30.766l16.307-88.734L256,252.121z"/>
			<path id="_x32__75_" fill="#D9C392" d="M290,261.621l-69.525,21.592l7.086,38.557c10.66,13.145,26.918,25.186,50.957,26.264
				c2.709-6.691,3.426-12.678,3.426-12.678l12.127-65.99C291.686,264.568,290,261.621,290,261.621z"/>
			<path id="_x31__89_" fill="#A0D468" d="M293.532,334.787l-9.002-9.348l-25.89,23.016l-2.641,14l-2.641-14l-25.89-23.016
				l-9.002,9.348c-1.169,1.215-0.001,3.209-0.001,3.209s13.458,34.875,13.958,38.875s2.874,2.25,2.874,2.25s9.266-13.043,11.496-14
				c1.75-0.75,1.577,1.383,1.577,1.383L248.33,410h15.34l-0.041-43.496c0,0-0.175-2.107,1.575-1.357
				c2.23,0.955,11.498,13.987,11.498,13.987s2.372,1.743,2.872-2.257S293.533,338,293.533,338S294.701,336.002,293.532,334.787z"/>
		</g>
		<g id="face_9_">
			<path id="ear_119_" fill="#F9E0A8" d="M193,215.621c0,0-21.309-13.5-19.104,14.5s19.104,26,19.104,26V215.621z"/>
			<path id="ear_113_" fill="#F9E0A8" d="M319,215.621c0,0,21.31-13.5,19.104,14.5c-2.204,28-19.104,26-19.104,26V215.621z"/>
			<path id="face_74_" fill="#FFE9BA" d="M256,143.383c-63,0-63,34.738-63,34.738s0,59.5,0,80s19.237,36.287,35.226,50
				c13.408,11.5,27.774,11,27.774,11s14.366,0.5,27.774-11c15.988-13.713,35.226-29.5,35.226-50s0-80,0-80S319,143.383,256,143.383z
				"/>
		</g>
		<g id="beard_1_">
			<path id="_x31__85_" fill="#434A54" d="M319,256.121v-47.998c0,0-3.356,38.414-10.908,61.873
				c-0.383,0.355-0.667,0.703-1.059,1.039c-0.002,0.002,0.048,0.004,0.046,0.006c-0.765,0.654-1.518,1.264-2.304,1.809
				c-0.052,0.035-0.091,0.07-0.144,0.105c-0.326,0.223-0.648,0.434-0.977,0.633c-0.071,0.043-0.14,0.088-0.211,0.129
				c-0.748,0.439-1.498,0.809-2.247,1.098c-0.1,0.037-0.198,0.07-0.298,0.107c-0.277,0.098-0.552,0.184-0.828,0.256
				c-0.106,0.029-0.212,0.061-0.319,0.084c-0.364,0.086-0.729,0.154-1.089,0.193c-9.583,1-3.584-17-42.25-17s-32.667,18-42.25,17
				c-0.36-0.039-0.725-0.107-1.089-0.193c-0.106-0.023-0.213-0.055-0.319-0.084c-0.275-0.072-0.551-0.158-0.828-0.256
				c-0.1-0.037-0.199-0.07-0.299-0.107c-0.749-0.289-1.5-0.658-2.248-1.098c-0.071-0.041-0.143-0.086-0.214-0.129
				c-0.329-0.199-0.657-0.41-0.983-0.633c-0.053-0.035-0.104-0.07-0.156-0.105c-0.786-0.545-1.565-1.154-2.33-1.809
				c-0.002-0.002-0.004-0.004-0.006-0.006c-0.392-0.336-0.986-0.684-1.369-1.039C196.771,246.537,193,208.123,193,208.123v47.998
				c-5,59.334,55.667,69,63,69S325,315.455,319,256.121z M267.789,286.621c-3.625,4.125-11.375-0.625-11.375-4.625
				c0,4-7.75,8.75-11.375,4.625s-11.375-0.75-10.75-5.25s6.875-3.5,6.875-3.5c7.786,1.869,15.071-7.229,15.25-6.98
				c0.179-0.248,7.464,8.85,15.25,6.98c0,0,6.25-1,6.875,3.5S271.414,282.496,267.789,286.621z"/>
		</g>
		<g id="hair_2_">
			<path id="_x34__61_" fill="#434A54" d="M323.723,143.621c-5.725-13.902-31.884-20.527-49.292-23.447
				c-1.119-16.156-6.353-33.326-21.958-41.303c0,0,6.25,29.25-2.5,37.75c0,0-3.5-18.5-10.75-22.5c0,0,3.836,15.475-3.207,26.488
				c-17.313,3.121-41.337,9.762-46.793,23.012c-8.75,21.25-8.75,57.268-5.618,68.76c0,0,6.396,1.24,9.396,3.24v-7.623
				c0,0,2.986-13.189,10.486-13.189s6.368-13.469,6.118-18.969c-0.229-5.043,8.237-21.184,36.626-11.104
				c2.056,4.398,5.367,8.885,10.212,8.885c5.013,0,8.925-4.803,11.49-9.34c27.359-9.148,35.507,6.592,35.282,11.559
				c-0.25,5.5-1.733,18.969,5.767,18.969S319,207.998,319,207.998v7.623c3-2,9.868-3.24,9.868-3.24
				C332,200.889,332.473,164.871,323.723,143.621z"/>
			<path id="_x33__74_" fill="#656D78" d="M189.223,157.621c5.456-13.25,29.48-19.891,46.793-23.012
				c5.294-8.277,4.441-19.074,3.691-23.928c-0.586,3.365-1.707,6.824-3.691,9.928c-17.313,3.121-41.337,9.762-46.793,23.012
				c-6.236,15.146-7.906,37.789-7.218,53.711C182.545,183.793,184.66,168.701,189.223,157.621z"/>
			<path id="_x32__83_" fill="#656D78" d="M274.431,134.174c17.408,2.92,43.567,9.545,49.292,23.447
				c4.563,11.08,6.678,26.172,7.218,39.711c0.688-15.922-0.981-38.564-7.218-53.711c-5.725-13.902-31.884-20.527-49.292-23.447
				c-1.119-16.156-6.353-33.326-21.958-41.303c0,0,1.488,6.982,1.994,15.113C268.523,102.363,273.361,118.729,274.431,134.174z"/>
			<path id="_x31__90_" fill="#656D78" d="M240.002,108.623c6.721,4.832,9.971,21.998,9.971,21.998
				c4.919-4.777,5.098-16.113,4.311-25.123c-0.552,4.617-1.824,8.709-4.311,11.123c0,0-3.5-18.5-10.75-22.5
				C239.223,94.121,240.893,100.869,240.002,108.623z"/>
		</g>
	</g>
	<g id="avatar1">
		<g id="back_1_">
		</g>
		<g id="clothes_2_">
		</g>
		<g id="face_6_">
		</g>
		<g id="hair_1_">
		</g>
	</g>
</g>
</svg>
