<?xml version="1.0" encoding="iso-8859-1"?>
<!-- Generator: Adobe Illustrator 16.0.3, SVG Export Plug-In . SVG Version: 6.00 Build 0)  -->
<!DOCTYPE svg PUBLIC "-//W3C//DTD SVG 1.1 Basic//EN" "http://www.w3.org/Graphics/SVG/1.1/DTD/svg11-basic.dtd">
<svg version="1.1" baseProfile="basic" xmlns="http://www.w3.org/2000/svg" xmlns:xlink="http://www.w3.org/1999/xlink" x="0px"
	 y="0px" width="512px" height="512px" viewBox="0 0 512 512" xml:space="preserve">
<g id="Layer_159" display="none">
	<rect y="512" display="inline" fill="#FFFFFF" width="512" height="512"/>
	<rect x="-512" y="512" display="inline" fill="#FFFFFF" width="512" height="512"/>
	<rect display="inline" fill="#FFFFFF" width="512" height="512"/>
	<rect y="-512" display="inline" fill="#FFFFFF" width="512" height="512"/>
	<rect x="-512" y="-512" display="inline" fill="#FFFFFF" width="512" height="512"/>
	<rect x="-512" display="inline" fill="#FFFFFF" width="512" height="512"/>
</g>
<g id="female" display="none">
	<g id="avatar15_1_" display="inline">
		<g id="baclk">
		</g>
		<g id="hair_back_8_">
		</g>
		<g id="clothes_30_">
		</g>
		<g id="face_98_">
		</g>
		<g id="hair_front_8_">
		</g>
	</g>
	<g id="avatar14_1_" display="inline">
		<g id="back_16_">
		</g>
		<g id="hair_back">
		</g>
		<g id="clothes_17_">
		</g>
		<g id="face_57_">
		</g>
		<g id="hair_front">
		</g>
	</g>
	<g id="avatar13_1_" display="inline">
		<g id="back_x27_">
		</g>
		<g id="clothes">
		</g>
		<g id="face">
		</g>
		<g id="hair">
		</g>
	</g>
	<g id="avatar12_1_" display="inline">
		<g id="back_27_">
		</g>
		<g id="clothes_29_">
		</g>
		<g id="face_97_">
		</g>
		<g id="hair_20_">
		</g>
	</g>
	<g id="avatar11_1_" display="inline">
		<g id="back_26_">
		</g>
		<g id="clothes_28_">
		</g>
		<g id="face_95_">
		</g>
		<g id="hair_19_">
		</g>
	</g>
	<g id="avatar10_1_" display="inline">
		<g id="back_25_">
		</g>
		<g id="clothes_27_">
		</g>
		<g id="face_94_">
		</g>
		<g id="glasses_11_">
		</g>
		<g id="hair_18_">
		</g>
	</g>
	<g id="avatar9_1_" display="inline">
		<g id="back_24_">
		</g>
		<g id="clothes_26_">
		</g>
		<g id="face_92_">
		</g>
		<g id="hair_17_">
		</g>
	</g>
	<g id="avatar8_1_" display="inline">
		<g id="back_23_">
		</g>
		<g id="hair_back_7_">
		</g>
		<g id="clothes_25_">
		</g>
		<g id="face_91_">
		</g>
		<g id="hair_front_7_">
		</g>
	</g>
	<g id="avatar7_1_" display="inline">
		<g id="back_22_">
		</g>
		<g id="clothes_24_">
		</g>
		<g id="face_90_">
		</g>
		<g id="necklace_1_">
		</g>
		<g id="earings_1_">
		</g>
		<g id="hair_16_">
		</g>
	</g>
	<g id="avatar6_1_" display="inline">
		<g id="back_21_">
		</g>
		<g id="hair_back_6_">
		</g>
		<g id="clothes_23_">
		</g>
		<g id="face_89_">
		</g>
		<g id="glasses_12_">
		</g>
		<g id="hair_front_6_">
		</g>
	</g>
	<g id="avatar5_1_" display="inline">
		<g id="back_20_">
		</g>
		<g id="hair_back_5_">
		</g>
		<g id="clothes_22_">
		</g>
		<g id="face_88_">
		</g>
		<g id="glasses_9_">
		</g>
		<g id="hair_front_5_">
		</g>
	</g>
	<g id="avatar4_1_" display="inline">
		<g id="back_19_">
		</g>
		<g id="hair_back_4_">
		</g>
		<g id="clothes_21_">
		</g>
		<g id="face_87_">
		</g>
		<g id="earing_1_">
		</g>
		<g id="hair_front_4_">
		</g>
	</g>
	<g id="avatar3_1_" display="inline">
		<g id="back_18_">
		</g>
		<g id="hair_back_3_">
		</g>
		<g id="clothes_20_">
		</g>
		<g id="face_86_">
		</g>
		<g id="earings">
		</g>
		<g id="glasses_8_">
		</g>
		<g id="hair_front_3_">
		</g>
	</g>
	<g id="avatar2_1_" display="inline">
		<g id="Layebackr_167">
		</g>
		<g id="hair_back_2_">
		</g>
		<g id="clothes_19_">
		</g>
		<g id="necklace">
		</g>
		<g id="face_85_">
		</g>
		<g id="hair_front_2_">
		</g>
	</g>
	<g id="avatar1_1_" display="inline">
		<g id="back_17_">
		</g>
		<g id="hair_back_1_">
		</g>
		<g id="clothes_18_">
		</g>
		<g id="face_84_">
		</g>
		<g id="hair_front_1_">
		</g>
	</g>
</g>
<g id="male">
	<g id="avatar20">
		<g id="back_32_">
		</g>
		<g id="clothes_34_">
		</g>
		<g id="face_100_">
		</g>
		<g id="hair_22_">
		</g>
	</g>
	<g id="avatar19">
		<g id="back_31_">
		</g>
		<g id="clothes_33_">
		</g>
		<g id="face_99_">
		</g>
		<g id="scaft">
		</g>
		<g id="hat">
		</g>
	</g>
	<g id="avatar18">
		<g id="back_30_">
		</g>
		<g id="clothes_32_">
		</g>
		<g id="face_55_">
		</g>
		<g id="earings_2_">
		</g>
		<g id="hair_21_">
		</g>
	</g>
	<g id="avatar17">
		<g id="back_29_">
		</g>
		<g id="hair_back_10_">
		</g>
		<g id="clothes_31_">
		</g>
		<g id="face_2_">
		</g>
		<g id="glasses_10_">
		</g>
		<g id="hair_front_10_">
		</g>
	</g>
	<g id="avatar16">
		<g id="back_28_">
		</g>
		<g id="hair_back_9_">
		</g>
		<g id="clothes_1_">
		</g>
		<g id="face_1_">
		</g>
		<g id="hair_front_9_">
		</g>
	</g>
	<g id="avatar15">
		<g id="back_5_">
		</g>
		<g id="clothes_6_">
		</g>
		<g id="face_29_">
		</g>
		<g id="glasses_4_">
		</g>
		<g id="hair_8_">
		</g>
	</g>
	<g id="avatar14">
		<g id="back_6_">
		</g>
		<g id="clothes_7_">
		</g>
		<g id="face_42_">
		</g>
		<g id="earings_3_">
		</g>
		<g id="hair_9_">
		</g>
	</g>
	<g id="avatar13">
		<g id="back_7_">
		</g>
		<g id="clothes_8_">
		</g>
		<g id="face_43_">
		</g>
		<g id="glasses_5_">
		</g>
		<g id="hair_10_">
		</g>
	</g>
	<g id="avatar12">
		<g id="back_8_">
		</g>
		<g id="clothes_9_">
		</g>
		<g id="face_44_">
		</g>
		<g id="beard_6_">
		</g>
		<g id="hair_11_">
		</g>
	</g>
	<g id="avatar11">
		<g id="back_9_">
		</g>
		<g id="clothes_10_">
		</g>
		<g id="face_45_">
		</g>
		<g id="glass">
		</g>
		<g id="hair_12_">
		</g>
	</g>
	<g id="avatar10">
		<g id="back_10_">
			<circle fill="#AAB2BD" cx="256" cy="256" r="200"/>
		</g>
		<g id="clothes_11_">
			<path id="_x35__66_" fill="#F9E0A8" d="M256,252.121l-42.25-5.5l16.307,88.734c0,0,3.666,30.766,25.943,30.766
				s25.943-30.766,25.943-30.766l16.307-88.734L256,252.121z"/>
			<path id="_x34__84_" fill="#D9C392" d="M290,261.621l-69.525,21.592l7.086,38.557c10.66,13.145,26.918,25.186,50.957,26.264
				c2.709-6.691,3.426-12.678,3.426-12.678l12.127-65.99C291.686,264.568,290,261.621,290,261.621z"/>
			<path id="_x33__90_" fill="#DA4453" d="M372.668,358.789c-7.353-6.355-19.364-14.563-30.666-15.666
				c-4.146-0.406-31.615-4.59-54.412-8.104l-3.96-8.676c-2.667,2.668-6.026,4.846-9.475,6.6c-8.786,4.469-18.155,6.178-18.155,6.178
				s-9.369-1.709-18.155-6.178c-3.448-1.754-6.808-3.932-9.475-6.6l-3.96,8.676c-22.797,3.514-50.266,7.697-54.412,8.104
				c-11.302,1.104-23.313,9.311-30.666,15.666c-13.417,11.598-20.781,25.84-24.795,38.711
				c36.195,36.219,86.213,58.621,141.463,58.621s105.268-22.402,141.463-58.621C393.449,384.629,386.085,370.387,372.668,358.789z"
				/>
			<path id="_x32__100_" fill="#C93F4D" d="M253,456.084c1,0.014,1.997,0.037,3,0.037c0.669,0,2-0.018,2-0.025V340h-5V456.084z"/>
			<path id="_x31__115_" fill="#C93F4D" d="M283.63,326.344C272.26,336.566,256,337.121,256,337.121s-16.26-0.555-27.63-10.777
				l-3.96,8.676l20.256,21.768L256,343.273l11.334,13.514l20.256-21.768L283.63,326.344z"/>
		</g>
		<g id="face_46_">
			<path id="ear_161_" fill="#F9E0A8" d="M193,215.621c0,0-21.309-13.5-19.104,14.5s19.104,26,19.104,26V215.621z"/>
			<path id="ear_158_" fill="#F9E0A8" d="M319,215.621c0,0,21.31-13.5,19.104,14.5c-2.204,28-19.104,26-19.104,26V215.621z"/>
			<path id="face_96_" fill="#FFE9BA" d="M256,143.383c-63,0-63,34.738-63,34.738s0,59.5,0,80s19.237,36.287,35.226,50
				c13.408,11.5,27.774,11,27.774,11s14.366,0.5,27.774-11c15.988-13.713,35.226-29.5,35.226-50s0-80,0-80S319,143.383,256,143.383z
				"/>
		</g>
		<g id="beard_7_">
			<path id="_x31__113_" fill="#F6BB42" d="M266,314.539c0,0-0.204,2.828-4.505,2.984L257,307.246l-4.495,10.277
				c-4.301-0.156-4.505-2.984-4.505-2.984c-6.277,1.064-18.774-5.418-18.774-5.418c17.558,13.666,22.353,10.521,22.353,10.521
				c3.911,5.188,5.422,4.479,5.422,4.479s1.511,0.709,5.422-4.479c0,0,4.795,3.145,22.353-10.521
				C284.774,309.121,272.277,315.604,266,314.539z"/>
		</g>
		<g id="glasses_6_">
			<path id="_x39__28_" fill="#434A54" d="M319.083,212.873l-11.791,12.348c-3.444-6.934-10.579-11.711-18.848-11.711
				c-10.335,0-18.915,7.453-20.698,17.275c-3.114-2.83-7.689-4.082-11.746-4.164c-4.057,0.082-8.632,1.334-11.746,4.164
				c-1.783-9.822-10.363-17.275-20.698-17.275c-8.269,0-15.403,4.777-18.848,11.711l-11.791-12.348l0.083,2.748
				c0,0,8.049,13.236,9.767,15.756c-0.159,1.043-0.267,2.102-0.267,3.189c0,11.629,9.427,21.055,21.056,21.055
				c11.441,0,20.731-9.131,21.028-20.502c2.223-3.904,7.231-5.414,11.416-5.498c4.185,0.084,9.193,1.594,11.416,5.498
				c0.297,11.371,9.587,20.502,21.028,20.502c11.629,0,21.056-9.426,21.056-21.055c0-1.088-0.107-2.146-0.267-3.189
				c1.718-2.52,9.767-15.756,9.767-15.756L319.083,212.873z"/>
			<circle id="_x38__38_" fill="#F5F7FA" cx="223.556" cy="234.566" r="18.306"/>
			<circle id="_x37__72_" fill="#F5F7FA" cx="288.444" cy="234.566" r="18.306"/>
			<path id="_x36__84_" fill="#E8EAED" d="M223.556,216.26c-1.727,0-3.391,0.256-4.975,0.703l-10.267,27.736
				c2.35,3.527,5.892,6.186,10.051,7.414l12.676-34.242C228.754,216.844,226.225,216.26,223.556,216.26z"/>
			<path id="_x35__89_" fill="#E8EAED" d="M232.828,218.801l-12.5,33.77c1.05,0.188,2.125,0.301,3.228,0.301
				c1.492,0,2.935-0.197,4.323-0.535l10.528-28.443C236.924,221.832,235.024,220.096,232.828,218.801z"/>
			<path id="_x34__106_" fill="#E8EAED" d="M288.639,216.26c-1.727,0-3.391,0.256-4.975,0.703l-10.266,27.736
				c2.35,3.527,5.891,6.186,10.051,7.414l12.676-34.242C293.838,216.844,291.309,216.26,288.639,216.26z"/>
			<path id="_x33__118_" fill="#E8EAED" d="M297.912,218.801l-12.5,33.77c1.049,0.188,2.125,0.301,3.227,0.301
				c1.492,0,2.936-0.197,4.324-0.535l10.527-28.443C302.008,221.832,300.107,220.096,297.912,218.801z"/>
			<polygon id="_x32__132_" fill="#F5F7FA" points="196.184,216.26 194.833,219.539 197.833,224.213 200.833,220.705 			"/>
			<polygon id="_x31__149_" fill="#F5F7FA" points="315.816,216.26 317.167,219.539 314.167,224.213 311.167,220.705 			"/>
		</g>
		<g id="hair_13_">
			<path id="_x35__65_" fill="#F6BB42" d="M256.383,119.383c-37.334,0-68,12.344-68,49.227c0,38.18,5,47.012,5,47.012
				s5-20.832,13.666-23.832s7.084-18.334,7.084-18.334s28.916,4,42.25,4c13.332,0,42.25-4,42.25-4s-1.584,15.334,7.082,18.334
				s13.668,23.832,13.668,23.832s5-8.832,5-47.012C324.383,131.727,293.715,119.383,256.383,119.383z"/>
			<path id="_x34__83_" fill="#FFCE54" d="M321.033,122.121c-0.443-17.389-13.648-32.594-58.15-33
				c-105.027-0.959-48.75,84.334-48.75,84.334c50.25,21.834,84.5,0,84.5,0s13.178-15.861,19.324-33.826
				c19.684,7.443,29.926-3.492,29.926-3.492C325.406,145.641,321.043,122.17,321.033,122.121z"/>
			<path id="_x33__89_" fill="#F6BB42" d="M318.273,110.225c-0.795-1.641-1.77-3.227-2.967-4.738
				c-108.355-17.209-54.814,70.619-50.504,77.455c0.844-0.057,1.674-0.125,2.49-0.201c0.043-0.006,0.086-0.008,0.127-0.012
				c0.807-0.078,1.6-0.164,2.379-0.26c0.051-0.006,0.1-0.012,0.15-0.02c1.549-0.191,3.043-0.416,4.482-0.666
				c0.076-0.014,0.154-0.201,0.232-0.215c0.709-0.126,1.408-0.568,2.088-0.568c0.002,0,0.004,0,0.006,0
				c0.67,0,1.322-0.104,1.965-0.248c0.076-0.018,0.152,0.053,0.229,0.035c0.623-0.143,1.232-0.246,1.828-0.396
				c0.09-0.022,0.178-0.024,0.266-0.048c0.57-0.145,1.131-0.281,1.676-0.432c0.025-0.008,0.049-0.01,0.074-0.016
				C273.279,161.674,254.629,101.926,318.273,110.225z"/>
			<path id="_x32__99_" fill="#FFD56B" d="M285.639,90.99c-5.152-0.898-10.984-1.494-17.564-1.74
				c-88.832,3.385-55.313,70.994-45.836,87.404c6.75,2.402,13.168,4.029,19.209,5.053C231.17,163.627,199.061,96.457,285.639,90.99z
				"/>
			<path id="_x31__114_" fill="#FFD56B" d="M291.939,176.76c4.352-1.813,6.693-3.305,6.693-3.305s0.715-0.863,1.883-2.4
				c-4.051-11.205-10.898-37.619,17.441-31.426C317.957,139.629,270.521,106.486,291.939,176.76z"/>
		</g>
	</g>
	<g id="avatar9">
		<g id="back_11_">
		</g>
		<g id="clothes_12_">
		</g>
		<g id="face_47_">
		</g>
		<g id="glasses_3_">
		</g>
		<g id="hair_7_">
		</g>
	</g>
	<g id="avatar8">
		<g id="back_12_">
		</g>
		<g id="clothes_13_">
		</g>
		<g id="face_48_">
		</g>
		<g id="beard_5_">
		</g>
		<g id="glasses_7_">
		</g>
		<g id="hair_6_">
		</g>
	</g>
	<g id="avatar7">
		<g id="back_4_">
		</g>
		<g id="clothes_14_">
		</g>
		<g id="face_11_">
		</g>
		<g id="hair_14_">
		</g>
	</g>
	<g id="avatar6">
		<g id="back_13_">
		</g>
		<g id="clothes_15_">
		</g>
		<g id="face_16_">
		</g>
		<g id="glasses_2_">
		</g>
		<g id="beard_4_">
		</g>
		<g id="hair_5_">
		</g>
	</g>
	<g id="avatar5">
		<g id="back_14_">
		</g>
		<g id="clothes_5_">
		</g>
		<g id="face_38_">
		</g>
		<g id="beard_3_">
		</g>
		<g id="hair_4_">
		</g>
	</g>
	<g id="avatar4">
		<g id="back_3_">
		</g>
		<g id="clothes_4_">
		</g>
		<g id="face_13_">
		</g>
		<g id="beard_2_">
		</g>
		<g id="glasses_1_">
		</g>
		<g id="hair_3_">
		</g>
	</g>
	<g id="avatar3">
		<g id="back_15_">
		</g>
		<g id="clothes_16_">
		</g>
		<g id="face_49_">
		</g>
		<g id="hair_15_">
		</g>
	</g>
	<g id="avatar2">
		<g id="back_2_">
		</g>
		<g id="clothes_3_">
		</g>
		<g id="face_9_">
		</g>
		<g id="beard_1_">
		</g>
		<g id="hair_2_">
		</g>
	</g>
	<g id="avatar1">
		<g id="back_1_">
		</g>
		<g id="clothes_2_">
		</g>
		<g id="face_6_">
		</g>
		<g id="hair_1_">
		</g>
	</g>
</g>
</svg>
