<?xml version="1.0" encoding="iso-8859-1"?>
<!-- Generator: Adobe Illustrator 16.0.3, SVG Export Plug-In . SVG Version: 6.00 Build 0)  -->
<!DOCTYPE svg PUBLIC "-//W3C//DTD SVG 1.1 Basic//EN" "http://www.w3.org/Graphics/SVG/1.1/DTD/svg11-basic.dtd">
<svg version="1.1" baseProfile="basic" xmlns="http://www.w3.org/2000/svg" xmlns:xlink="http://www.w3.org/1999/xlink" x="0px"
	 y="0px" width="512px" height="512px" viewBox="0 0 512 512" xml:space="preserve">
<g id="Layer_159" display="none">
	<rect display="inline" fill="#FFFFFF" width="512" height="512"/>
	<rect x="-512" display="inline" fill="#FFFFFF" width="512" height="512"/>
	<rect y="-512" display="inline" fill="#FFFFFF" width="512" height="512"/>
	<rect x="-512" y="-512" display="inline" fill="#FFFFFF" width="512" height="512"/>
	<rect y="512" display="inline" fill="#FFFFFF" width="512" height="512"/>
	<rect x="-512" y="512" display="inline" fill="#FFFFFF" width="512" height="512"/>
</g>
<g id="female" display="none">
	<g id="avatar15_1_" display="inline">
		<g id="baclk">
		</g>
		<g id="hair_back_8_">
		</g>
		<g id="clothes_30_">
		</g>
		<g id="face_98_">
		</g>
		<g id="hair_front_8_">
		</g>
	</g>
	<g id="avatar14_1_" display="inline">
		<g id="back_16_">
		</g>
		<g id="hair_back">
		</g>
		<g id="clothes_17_">
		</g>
		<g id="face_57_">
		</g>
		<g id="hair_front">
		</g>
	</g>
	<g id="avatar13_1_" display="inline">
		<g id="back_x27_">
		</g>
		<g id="clothes">
		</g>
		<g id="face">
		</g>
		<g id="hair">
		</g>
	</g>
	<g id="avatar12_1_" display="inline">
		<g id="back_27_">
		</g>
		<g id="clothes_29_">
		</g>
		<g id="face_97_">
		</g>
		<g id="hair_20_">
		</g>
	</g>
	<g id="avatar11_1_" display="inline">
		<g id="back_26_">
		</g>
		<g id="clothes_28_">
		</g>
		<g id="face_95_">
		</g>
		<g id="hair_19_">
		</g>
	</g>
	<g id="avatar10_1_" display="inline">
		<g id="back_25_">
		</g>
		<g id="clothes_27_">
		</g>
		<g id="face_94_">
		</g>
		<g id="glasses_11_">
		</g>
		<g id="hair_18_">
		</g>
	</g>
	<g id="avatar9_1_" display="inline">
		<g id="back_24_">
		</g>
		<g id="clothes_26_">
		</g>
		<g id="face_92_">
		</g>
		<g id="hair_17_">
		</g>
	</g>
	<g id="avatar8_1_" display="inline">
		<g id="back_23_">
		</g>
		<g id="hair_back_7_">
		</g>
		<g id="clothes_25_">
		</g>
		<g id="face_91_">
		</g>
		<g id="hair_front_7_">
		</g>
	</g>
	<g id="avatar7_1_" display="inline">
		<g id="back_22_">
		</g>
		<g id="clothes_24_">
		</g>
		<g id="face_90_">
		</g>
		<g id="necklace_1_">
		</g>
		<g id="earings_1_">
		</g>
		<g id="hair_16_">
		</g>
	</g>
	<g id="avatar6_1_" display="inline">
		<g id="back_21_">
		</g>
		<g id="hair_back_6_">
		</g>
		<g id="clothes_23_">
		</g>
		<g id="face_89_">
		</g>
		<g id="glasses_12_">
		</g>
		<g id="hair_front_6_">
		</g>
	</g>
	<g id="avatar5_1_" display="inline">
		<g id="back_20_">
		</g>
		<g id="hair_back_5_">
		</g>
		<g id="clothes_22_">
		</g>
		<g id="face_88_">
		</g>
		<g id="glasses_9_">
		</g>
		<g id="hair_front_5_">
		</g>
	</g>
	<g id="avatar4_1_" display="inline">
		<g id="back_19_">
		</g>
		<g id="hair_back_4_">
		</g>
		<g id="clothes_21_">
		</g>
		<g id="face_87_">
		</g>
		<g id="earing_1_">
		</g>
		<g id="hair_front_4_">
		</g>
	</g>
	<g id="avatar3_1_" display="inline">
		<g id="back_18_">
		</g>
		<g id="hair_back_3_">
		</g>
		<g id="clothes_20_">
		</g>
		<g id="face_86_">
		</g>
		<g id="earings">
		</g>
		<g id="glasses_8_">
		</g>
		<g id="hair_front_3_">
		</g>
	</g>
	<g id="avatar2_1_" display="inline">
		<g id="Layebackr_167">
		</g>
		<g id="hair_back_2_">
		</g>
		<g id="clothes_19_">
		</g>
		<g id="necklace">
		</g>
		<g id="face_85_">
		</g>
		<g id="hair_front_2_">
		</g>
	</g>
	<g id="avatar1_1_" display="inline">
		<g id="back_17_">
		</g>
		<g id="hair_back_1_">
		</g>
		<g id="clothes_18_">
		</g>
		<g id="face_84_">
		</g>
		<g id="hair_front_1_">
		</g>
	</g>
</g>
<g id="male">
	<g id="avatar20">
		<g id="back_32_">
		</g>
		<g id="clothes_34_">
		</g>
		<g id="face_100_">
		</g>
		<g id="hair_22_">
		</g>
	</g>
	<g id="avatar19">
		<g id="back_31_">
		</g>
		<g id="clothes_33_">
		</g>
		<g id="face_99_">
		</g>
		<g id="scaft">
		</g>
		<g id="hat">
		</g>
	</g>
	<g id="avatar18">
		<g id="back_30_">
		</g>
		<g id="clothes_32_">
		</g>
		<g id="face_55_">
		</g>
		<g id="earings_2_">
		</g>
		<g id="hair_21_">
		</g>
	</g>
	<g id="avatar17">
		<g id="back_29_">
		</g>
		<g id="hair_back_10_">
		</g>
		<g id="clothes_31_">
		</g>
		<g id="face_2_">
		</g>
		<g id="glasses_10_">
		</g>
		<g id="hair_front_10_">
		</g>
	</g>
	<g id="avatar16">
		<g id="back_28_">
		</g>
		<g id="hair_back_9_">
		</g>
		<g id="clothes_1_">
		</g>
		<g id="face_1_">
		</g>
		<g id="hair_front_9_">
		</g>
	</g>
	<g id="avatar15">
		<g id="back_5_">
			<circle fill="#967ADC" cx="256" cy="256" r="200"/>
		</g>
		<g id="clothes_6_">
			<path id="_x37__85_" fill="#434A54" d="M372.668,359.789c-7.353-6.355-19.364-14.563-30.666-15.666
				c-7.258-0.709-86.002-13-86.002-13s-78.744,12.291-86.002,13c-11.302,1.104-23.313,9.311-30.666,15.666
				c-13.417,11.598-20.781,25.84-24.795,38.711c36.195,36.219,86.213,58.621,141.463,58.621s105.268-22.402,141.463-58.621
				C393.449,385.629,386.085,371.387,372.668,359.789z"/>
			<path id="_x36__100_" fill="#F9E0A8" d="M256,253.121l-42.25-5.5l16.307,88.734c0,0,3.666,30.766,25.943,30.766
				s25.943-30.766,25.943-30.766l16.307-88.734L256,253.121z"/>
			<path id="_x35__109_" fill="#D9C392" d="M290,262.621l-69.525,21.592l7.086,38.557c10.66,13.145,26.918,25.186,50.957,26.264
				c2.709-6.691,3.426-12.678,3.426-12.678l12.127-65.99C291.686,265.568,290,262.621,290,262.621z"/>
			<path id="_x34__123_" fill="#F5F7FA" d="M283.63,327.344c-9.463,9.463-27.63,12.777-27.63,12.777s-18.167-3.314-27.63-12.777
				l-4.001,8.766L256,452.834l31.631-116.725L283.63,327.344z"/>
			<polygon id="_x33__139_" fill="#E6E9ED" points="231.929,364.006 256,340.121 280.071,364.006 256,452.834 			"/>
			<polygon id="_x32__156_" fill="#C93F4D" points="248.693,374.621 241.386,408.902 256,452.834 270.707,408.563 263.597,374.621 
				269.855,353.869 256,340.121 242.27,353.744 			"/>
			<path id="_x31__174_" fill="#656D78" d="M284.451,329.145l3.18,6.965L256,452.834l-31.631-116.725l3.18-6.965
				c-34.549,6.977-12.299,68.477-12.299,68.477l10-3.5l-6.375,10.25L256,454.834l37.125-50.463l-6.375-10.25l10,3.5
				C296.75,397.621,319,336.121,284.451,329.145z"/>
		</g>
		<g id="face_29_">
			<path id="ear_68_" fill="#F9E0A8" d="M193,215.621c0,0-21.309-13.5-19.104,14.5s19.104,26,19.104,26V215.621z"/>
			<path id="ear_63_" fill="#F9E0A8" d="M319,215.621c0,0,21.31-13.5,19.104,14.5c-2.204,28-19.104,26-19.104,26V215.621z"/>
			<path id="face_34_" fill="#FFE9BA" d="M256,143.383c-63,0-63,34.738-63,34.738s0,59.5,0,80s19.237,36.287,35.226,50
				c13.408,11.5,27.774,11,27.774,11s14.366,0.5,27.774-11c15.988-13.713,35.226-29.5,35.226-50s0-80,0-80S319,143.383,256,143.383z
				"/>
		</g>
		<g id="glasses_4_">
			<polygon id="_x38__42_" fill="#F5F7FA" points="249,215.561 249,239 205,239 205,216.881 			"/>
			<polygon id="_x37__84_" fill="#E6E9ED" points="221.18,239 216.863,239 219.741,219 224.058,219 			"/>
			<polygon id="_x36__99_" fill="#E6E9ED" points="225.497,239 229.814,239 232.608,219 228.276,219 			"/>
			<polygon id="_x35__108_" fill="#F5F7FA" points="263,215.561 263,239 307,239 307,216.881 			"/>
			<polygon id="_x34__122_" fill="#F5F7FA" points="263,215.561 263,239 307,239 307,216.881 			"/>
			<polygon id="_x33__138_" fill="#E6E9ED" points="284.652,239 280.336,239 283.214,219 287.53,219 			"/>
			<polygon id="_x32__155_" fill="#E6E9ED" points="288.97,239 293.287,239 296.081,219 291.749,219 			"/>
			<polygon id="_x31__173_" fill="#656D78" points="319,215.621 310.473,214 261.596,214 261,219.566 261,219 251,219 251,219.566 
				251.35,214 202.473,214 193,215.621 193,219.121 203.458,222.061 204.152,225 205.351,225 206.789,219 247.132,219 
				249.96,227.834 251.64,226.864 251.598,225 261.348,225 261.306,226.895 262.985,227.804 265.813,219 306.156,219 307.595,225 
				308.793,225 309.015,222.061 319,219.121 			"/>
		</g>
		<g id="hair_8_">
			<path id="_x38__31_" fill="#FFD56B" d="M304.723,83.371c-47-12.25-59.25,25.75-59.25,25.75s-11.75-12.75-42-4.25
				s-9,44.25-9,44.25l3.166-2.166l5.167,2.166c0,0-3.166-11.75,16.334-11.75c15.555,0,23.68,7.473,26.333,10.496
				c0.085,0.098,0.165,0.191,0.239,0.277c2.401-4.557,13.865-23.648,37.424-23.648c26.75,0,25.337,10.73,25.337,10.73
				s3.333,1.818,2.166,4.15c0,0,4.76,20.576,9.834,9.744C320.473,149.121,351.723,95.621,304.723,83.371z"/>
			<path id="_x37__57_" fill="#F6BB42" d="M282.136,133.496c-23.559,0-35.022,20.092-37.424,24.648
				c-0.095,0.18-7.489-12.336-26.572-11.773c-19.703,0.581-16.78,11.379-16.376,12.629h-8.291c-18,18,0,61.53,0,61.53
				s0-1.469,5.667-9.469c5.491-7.753,2.843-49.372,2.675-51.937c0.176,0.064,16.969,6.172,52.158,6.172
				c35.375,0,48.625-6.176,48.625-6.176S308.886,133.496,282.136,133.496z"/>
			<path id="_x36__70_" fill="#F6BB42" d="M319.473,159h-8.333c0,0-3.001,44.062,2.666,52.062s5.667,9.469,5.667,9.469
				S337.473,177,319.473,159z"/>
			<path id="_x35__77_" fill="#FFCE54" d="M303.723,93.371c-47-12.25-59.25,25.75-59.25,25.75s-11.75-12.75-42-4.25
				s-9,44.25-9,44.25l8.675,6.176l-0.342-6.176c0,0-3.166-11.75,16.334-11.75c15.555,0,23.68,7.473,26.333,10.496
				c0.085,0.098,0.165,0.191,0.239,0.277c2.401-4.557,13.865-23.648,37.424-23.648c26.75,0,18.67,24.625,18.67,24.625
				s-3.333,14.002-4.5,16.334c0,0,18.093-5.502,23.167-16.334C319.473,159.121,350.723,105.621,303.723,93.371z"/>
			<path id="_x34__94_" fill="#F6BB42" d="M296.081,119.123c-31.608-14.334-51.608,26-51.608,26s23.808-34,50.07-19.668
				c26.263,14.334,8.697,47.258,8.697,47.258S327.689,133.457,296.081,119.123z"/>
			<path id="_x33__102_" fill="#F6BB42" d="M202.6,133.496c-16.873,3.041-7.721,26.627-7.721,26.627l2.951,2.1
				c-3.627-41.336,46.643-17.846,46.643-17.846S219.473,130.455,202.6,133.496z"/>
			<path id="_x32__115_" fill="#F6BB42" d="M294.543,97.898c-26.278-3.104-49.831,37.557-49.831,37.557s25.106-32.334,51.369-23.666
				c26.263,8.666,21.392,48.334,21.392,48.334S327.473,101.789,294.543,97.898z"/>
			<path id="_x31__130_" fill="#F6BB42" d="M198.48,116.271c-9.108,3.918-12.087,10.928-12.252,18.16
				c15.152-29.143,58.483,1.023,58.483,1.023C232.422,119.303,213.789,115.814,198.48,116.271z"/>
		</g>
	</g>
	<g id="avatar14">
		<g id="back_6_">
		</g>
		<g id="clothes_7_">
		</g>
		<g id="face_42_">
		</g>
		<g id="earings_3_">
		</g>
		<g id="hair_9_">
		</g>
	</g>
	<g id="avatar13">
		<g id="back_7_">
		</g>
		<g id="clothes_8_">
		</g>
		<g id="face_43_">
		</g>
		<g id="glasses_5_">
		</g>
		<g id="hair_10_">
		</g>
	</g>
	<g id="avatar12">
		<g id="back_8_">
		</g>
		<g id="clothes_9_">
		</g>
		<g id="face_44_">
		</g>
		<g id="beard_6_">
		</g>
		<g id="hair_11_">
		</g>
	</g>
	<g id="avatar11">
		<g id="back_9_">
		</g>
		<g id="clothes_10_">
		</g>
		<g id="face_45_">
		</g>
		<g id="glass">
		</g>
		<g id="hair_12_">
		</g>
	</g>
	<g id="avatar10">
		<g id="back_10_">
		</g>
		<g id="clothes_11_">
		</g>
		<g id="face_46_">
		</g>
		<g id="beard_7_">
		</g>
		<g id="glasses_6_">
		</g>
		<g id="hair_13_">
		</g>
	</g>
	<g id="avatar9">
		<g id="back_11_">
		</g>
		<g id="clothes_12_">
		</g>
		<g id="face_47_">
		</g>
		<g id="glasses_3_">
		</g>
		<g id="hair_7_">
		</g>
	</g>
	<g id="avatar8">
		<g id="back_12_">
		</g>
		<g id="clothes_13_">
		</g>
		<g id="face_48_">
		</g>
		<g id="beard_5_">
		</g>
		<g id="glasses_7_">
		</g>
		<g id="hair_6_">
		</g>
	</g>
	<g id="avatar7">
		<g id="back_4_">
		</g>
		<g id="clothes_14_">
		</g>
		<g id="face_11_">
		</g>
		<g id="hair_14_">
		</g>
	</g>
	<g id="avatar6">
		<g id="back_13_">
		</g>
		<g id="clothes_15_">
		</g>
		<g id="face_16_">
		</g>
		<g id="glasses_2_">
		</g>
		<g id="beard_4_">
		</g>
		<g id="hair_5_">
		</g>
	</g>
	<g id="avatar5">
		<g id="back_14_">
		</g>
		<g id="clothes_5_">
		</g>
		<g id="face_38_">
		</g>
		<g id="beard_3_">
		</g>
		<g id="hair_4_">
		</g>
	</g>
	<g id="avatar4">
		<g id="back_3_">
		</g>
		<g id="clothes_4_">
		</g>
		<g id="face_13_">
		</g>
		<g id="beard_2_">
		</g>
		<g id="glasses_1_">
		</g>
		<g id="hair_3_">
		</g>
	</g>
	<g id="avatar3">
		<g id="back_15_">
		</g>
		<g id="clothes_16_">
		</g>
		<g id="face_49_">
		</g>
		<g id="hair_15_">
		</g>
	</g>
	<g id="avatar2">
		<g id="back_2_">
		</g>
		<g id="clothes_3_">
		</g>
		<g id="face_9_">
		</g>
		<g id="beard_1_">
		</g>
		<g id="hair_2_">
		</g>
	</g>
	<g id="avatar1">
		<g id="back_1_">
		</g>
		<g id="clothes_2_">
		</g>
		<g id="face_6_">
		</g>
		<g id="hair_1_">
		</g>
	</g>
</g>
</svg>
