<?xml version="1.0" encoding="iso-8859-1"?>
<!-- Generator: Adobe Illustrator 16.0.3, SVG Export Plug-In . SVG Version: 6.00 Build 0)  -->
<!DOCTYPE svg PUBLIC "-//W3C//DTD SVG 1.1 Basic//EN" "http://www.w3.org/Graphics/SVG/1.1/DTD/svg11-basic.dtd">
<svg version="1.1" baseProfile="basic" xmlns="http://www.w3.org/2000/svg" xmlns:xlink="http://www.w3.org/1999/xlink" x="0px"
	 y="0px" width="512px" height="512px" viewBox="0 0 512 512" xml:space="preserve">
<g id="Layer_159" display="none">
	<rect x="512" display="inline" fill="#FFFFFF" width="512" height="512"/>
	<rect display="inline" fill="#FFFFFF" width="512" height="512"/>
	<rect x="512" y="512" display="inline" fill="#FFFFFF" width="512" height="512"/>
	<rect y="512" display="inline" fill="#FFFFFF" width="512" height="512"/>
</g>
<g id="female" display="none">
	<g id="avatar15_1_" display="inline">
		<g id="baclk">
		</g>
		<g id="hair_back_8_">
		</g>
		<g id="clothes_30_">
		</g>
		<g id="face_98_">
		</g>
		<g id="hair_front_8_">
		</g>
	</g>
	<g id="avatar14_1_" display="inline">
		<g id="back_16_">
		</g>
		<g id="hair_back">
		</g>
		<g id="clothes_17_">
		</g>
		<g id="face_57_">
		</g>
		<g id="hair_front">
		</g>
	</g>
	<g id="avatar13_1_" display="inline">
		<g id="back_x27_">
		</g>
		<g id="clothes">
		</g>
		<g id="face">
		</g>
		<g id="hair">
		</g>
	</g>
	<g id="avatar12_1_" display="inline">
		<g id="back_27_">
		</g>
		<g id="clothes_29_">
		</g>
		<g id="face_97_">
		</g>
		<g id="hair_20_">
		</g>
	</g>
	<g id="avatar11_1_" display="inline">
		<g id="back_26_">
		</g>
		<g id="clothes_28_">
		</g>
		<g id="face_95_">
		</g>
		<g id="hair_19_">
		</g>
	</g>
	<g id="avatar10_1_" display="inline">
		<g id="back_25_">
		</g>
		<g id="clothes_27_">
		</g>
		<g id="face_94_">
		</g>
		<g id="glasses_11_">
		</g>
		<g id="hair_18_">
		</g>
	</g>
	<g id="avatar9_1_" display="inline">
		<g id="back_24_">
		</g>
		<g id="clothes_26_">
		</g>
		<g id="face_92_">
		</g>
		<g id="hair_17_">
		</g>
	</g>
	<g id="avatar8_1_" display="inline">
		<g id="back_23_">
		</g>
		<g id="hair_back_7_">
		</g>
		<g id="clothes_25_">
		</g>
		<g id="face_91_">
		</g>
		<g id="hair_front_7_">
		</g>
	</g>
	<g id="avatar7_1_" display="inline">
		<g id="back_22_">
		</g>
		<g id="clothes_24_">
		</g>
		<g id="face_90_">
		</g>
		<g id="necklace_1_">
		</g>
		<g id="earings_1_">
		</g>
		<g id="hair_16_">
		</g>
	</g>
	<g id="avatar6_1_" display="inline">
		<g id="back_21_">
		</g>
		<g id="hair_back_6_">
		</g>
		<g id="clothes_23_">
		</g>
		<g id="face_89_">
		</g>
		<g id="glasses_12_">
		</g>
		<g id="hair_front_6_">
		</g>
	</g>
	<g id="avatar5_1_" display="inline">
		<g id="back_20_">
		</g>
		<g id="hair_back_5_">
		</g>
		<g id="clothes_22_">
		</g>
		<g id="face_88_">
		</g>
		<g id="glasses_9_">
		</g>
		<g id="hair_front_5_">
		</g>
	</g>
	<g id="avatar4_1_" display="inline">
		<g id="back_19_">
		</g>
		<g id="hair_back_4_">
		</g>
		<g id="clothes_21_">
		</g>
		<g id="face_87_">
		</g>
		<g id="earing_1_">
		</g>
		<g id="hair_front_4_">
		</g>
	</g>
	<g id="avatar3_1_" display="inline">
		<g id="back_18_">
		</g>
		<g id="hair_back_3_">
		</g>
		<g id="clothes_20_">
		</g>
		<g id="face_86_">
		</g>
		<g id="earings">
		</g>
		<g id="glasses_8_">
		</g>
		<g id="hair_front_3_">
		</g>
	</g>
	<g id="avatar2_1_" display="inline">
		<g id="Layebackr_167">
		</g>
		<g id="hair_back_2_">
		</g>
		<g id="clothes_19_">
		</g>
		<g id="necklace">
		</g>
		<g id="face_85_">
		</g>
		<g id="hair_front_2_">
		</g>
	</g>
	<g id="avatar1_1_" display="inline">
		<g id="back_17_">
		</g>
		<g id="hair_back_1_">
		</g>
		<g id="clothes_18_">
		</g>
		<g id="face_84_">
		</g>
		<g id="hair_front_1_">
		</g>
	</g>
</g>
<g id="male">
	<g id="avatar20">
		<g id="back_32_">
		</g>
		<g id="clothes_34_">
		</g>
		<g id="face_100_">
		</g>
		<g id="hair_22_">
		</g>
	</g>
	<g id="avatar19">
		<g id="back_31_">
		</g>
		<g id="clothes_33_">
		</g>
		<g id="face_99_">
		</g>
		<g id="scaft">
		</g>
		<g id="hat">
		</g>
	</g>
	<g id="avatar18">
		<g id="back_30_">
		</g>
		<g id="clothes_32_">
		</g>
		<g id="face_55_">
		</g>
		<g id="earings_2_">
		</g>
		<g id="hair_21_">
		</g>
	</g>
	<g id="avatar17">
		<g id="back_29_">
		</g>
		<g id="hair_back_10_">
		</g>
		<g id="clothes_31_">
		</g>
		<g id="face_2_">
		</g>
		<g id="glasses_10_">
		</g>
		<g id="hair_front_10_">
		</g>
	</g>
	<g id="avatar16">
		<g id="back_28_">
		</g>
		<g id="hair_back_9_">
		</g>
		<g id="clothes_1_">
		</g>
		<g id="face_1_">
		</g>
		<g id="hair_front_9_">
		</g>
	</g>
	<g id="avatar15">
		<g id="back_5_">
		</g>
		<g id="clothes_6_">
		</g>
		<g id="face_29_">
		</g>
		<g id="glasses_4_">
		</g>
		<g id="hair_8_">
		</g>
	</g>
	<g id="avatar14">
		<g id="back_6_">
		</g>
		<g id="clothes_7_">
		</g>
		<g id="face_42_">
		</g>
		<g id="earings_3_">
		</g>
		<g id="hair_9_">
		</g>
	</g>
	<g id="avatar13">
		<g id="back_7_">
		</g>
		<g id="clothes_8_">
		</g>
		<g id="face_43_">
		</g>
		<g id="glasses_5_">
		</g>
		<g id="hair_10_">
		</g>
	</g>
	<g id="avatar12">
		<g id="back_8_">
		</g>
		<g id="clothes_9_">
		</g>
		<g id="face_44_">
		</g>
		<g id="beard_6_">
		</g>
		<g id="hair_11_">
		</g>
	</g>
	<g id="avatar11">
		<g id="back_9_">
		</g>
		<g id="clothes_10_">
		</g>
		<g id="face_45_">
		</g>
		<g id="glass">
		</g>
		<g id="hair_12_">
		</g>
	</g>
	<g id="avatar10">
		<g id="back_10_">
		</g>
		<g id="clothes_11_">
		</g>
		<g id="face_46_">
		</g>
		<g id="beard_7_">
		</g>
		<g id="glasses_6_">
		</g>
		<g id="hair_13_">
		</g>
	</g>
	<g id="avatar9">
		<g id="back_11_">
		</g>
		<g id="clothes_12_">
		</g>
		<g id="face_47_">
		</g>
		<g id="glasses_3_">
		</g>
		<g id="hair_7_">
		</g>
	</g>
	<g id="avatar8">
		<g id="back_12_">
		</g>
		<g id="clothes_13_">
		</g>
		<g id="face_48_">
		</g>
		<g id="beard_5_">
		</g>
		<g id="glasses_7_">
		</g>
		<g id="hair_6_">
		</g>
	</g>
	<g id="avatar7">
		<g id="back_4_">
		</g>
		<g id="clothes_14_">
		</g>
		<g id="face_11_">
		</g>
		<g id="hair_14_">
		</g>
	</g>
	<g id="avatar6">
		<g id="back_13_">
		</g>
		<g id="clothes_15_">
		</g>
		<g id="face_16_">
		</g>
		<g id="glasses_2_">
		</g>
		<g id="beard_4_">
		</g>
		<g id="hair_5_">
		</g>
	</g>
	<g id="avatar5">
		<g id="back_14_">
		</g>
		<g id="clothes_5_">
		</g>
		<g id="face_38_">
		</g>
		<g id="beard_3_">
		</g>
		<g id="hair_4_">
		</g>
	</g>
	<g id="avatar4">
		<g id="back_3_">
		</g>
		<g id="clothes_4_">
		</g>
		<g id="face_13_">
		</g>
		<g id="beard_2_">
		</g>
		<g id="glasses_1_">
		</g>
		<g id="hair_3_">
		</g>
	</g>
	<g id="avatar3">
		<g id="back_15_">
		</g>
		<g id="clothes_16_">
		</g>
		<g id="face_49_">
		</g>
		<g id="hair_15_">
		</g>
	</g>
	<g id="avatar2">
		<g id="back_2_">
		</g>
		<g id="clothes_3_">
		</g>
		<g id="face_9_">
		</g>
		<g id="beard_1_">
		</g>
		<g id="hair_2_">
		</g>
	</g>
	<g id="avatar1">
		<g id="back_1_">
			<circle fill="#8CC152" cx="256" cy="256" r="200"/>
		</g>
		<g id="clothes_2_">
			<path id="_x34__47_" fill="#434A54" d="M372.668,358.789c-7.353-6.355-19.364-14.563-30.666-15.666
				c-7.257-0.709-86.002-13-86.002-13s-78.744,12.291-86.001,13c-11.303,1.104-23.314,9.311-30.667,15.666
				c-13.417,11.598-20.781,25.84-24.795,38.711c36.196,36.219,86.213,58.621,141.463,58.621s105.268-22.402,141.463-58.621
				C393.449,384.629,386.085,370.387,372.668,358.789z"/>
			<path id="_x33__72_" fill="#656D78" d="M372.668,358.789c-7.353-6.355-19.364-14.563-30.666-15.666
				c-3.878-0.379-28.173-4.066-49.956-7.417v-0.001c-16.484-2.535-31.524-4.877-35.19-5.449c-0.055-0.008-0.098-0.016-0.148-0.023
				c-0.192-0.029-0.346-0.053-0.46-0.071c-0.161-0.024-0.248-0.038-0.248-0.038s-0.097,0.015-0.27,0.041
				c-0.092,0.016-0.21,0.033-0.35,0.055c-0.097,0.016-0.2,0.031-0.319,0.051c-0.327,0.051-0.732,0.113-1.218,0.189
				c-0.075,0.012-0.153,0.023-0.231,0.035c-5.333,0.831-18.917,2.943-33.658,5.211v0.001c-21.782,3.351-46.077,7.038-49.955,7.417
				c-11.303,1.104-23.314,9.311-30.667,15.666c-13.417,11.598-20.781,25.84-24.795,38.711c2.251,2.252,4.556,4.451,6.912,6.594
				c4.249-7.805,10.021-15.51,17.883-22.305c7.353-6.355,19.364-14.563,30.667-15.666c4.306-0.421,33.78-4.92,57.04-8.508
				c5.563,9.906,14.76,18.506,28.961,18.506s23.398-8.6,28.961-18.506c23.26,3.588,52.735,8.087,57.041,8.508
				c11.302,1.104,23.313,9.311,30.666,15.666c7.862,6.795,13.635,14.5,17.884,22.305c2.355-2.143,4.66-4.342,6.911-6.594
				C393.449,384.629,386.085,370.387,372.668,358.789z"/>
			<path id="_x32__80_" fill="#F9E0A8" d="M256,252.121l-42.25-5.5l16.308,88.734c0,0,3.665,30.766,25.942,30.766
				s25.943-30.766,25.943-30.766l16.307-88.734L256,252.121z"/>
			<path id="_x31__87_" fill="#D9C392" d="M289.728,262.621l-69.525,21.592l7.086,38.557c10.661,13.145,26.919,25.186,50.957,26.264
				c2.709-6.691,3.426-12.678,3.426-12.678l12.127-65.99C291.413,265.568,289.728,262.621,289.728,262.621z"/>
		</g>
		<g id="face_6_">
			<path id="ear_20_" fill="#F9E0A8" d="M193,215.621c0,0-21.309-13.5-19.104,14.5s19.104,26,19.104,26V215.621z"/>
			<path id="ear_9_" fill="#F9E0A8" d="M319,215.621c0,0,21.31-13.5,19.104,14.5c-2.204,28-19.104,26-19.104,26V215.621z"/>
			<path id="face_7_" fill="#FFE9BA" d="M256,143.383c-63,0-63,34.738-63,34.738s0,59.5,0,80s19.237,36.287,35.226,50
				c13.408,11.5,27.774,11,27.774,11s14.366,0.5,27.774-11c15.988-13.713,35.226-29.5,35.226-50s0-80,0-80S319,143.383,256,143.383z
				"/>
		</g>
		<g id="hair_1_">
			<path id="_x36__44_" fill="#434A54" d="M373.473,122.281c-1.779,11.568-34.843,17.91-42.099,19.184
				c22.196-4.475,24.599-45.304,24.599-45.304c-8.5,18-36,17.979-36,17.979c18-11,0-36.01,0-36.01c-23.5,42-44.5,20.996-90,22.496
				s-36.5,53.498-36.5,53.498s-11.042,33.369-2.021,60.309l2.622,1.115L194,214.938v1.184V226h4.973l3.5-13.693
				c8-13.754,4.5-44.617,4.5-44.617c8,8.598,50.5,11.667,50.5,11.667s42.5-3.048,50.5-11.646c0,0-3.5,30.838,4.5,44.592l3.5,13.697
				H320v-9.879v-1.184l0.398,0.611l2.978-0.957c5.705-17.037,3.044-36.592,0.275-48.592h0.031
				C369.682,166,373.473,122.281,373.473,122.281z"/>
			<path id="_x35__25_" fill="#656D78" d="M319.973,125.148c-1.945,0,25.329-2.655,33.687-14.107
				c1.922-8.221,2.313-14.865,2.313-14.865c-5.582,11.82-19.356,15.867-28.157,17.252
				C327.244,117.863,325.028,122.059,319.973,125.148z"/>
			<path id="_x34__36_" fill="#656D78" d="M331.374,151.496c5.574-0.979,26.369-4.936,36.521-11.959
				c4.835-9.584,5.578-18.195,5.578-18.195c-1.089,7.076-13.88,12.182-25.312,15.375
				C344.495,143.893,339.15,149.928,331.374,151.496z"/>
			<path id="_x33__30_" fill="#656D78" d="M229.973,110.629c45.5-1.5,66.5,19.506,90-22.494c0,0,5.319,7.406,7.279,15.93
				c3.538-11.885-7.279-26.93-7.279-26.93c-23.5,42-44.5,20.994-90,22.494c-35.847,1.182-38.244,33.701-37.224,47.449
				C193.934,131.77,201.852,111.555,229.973,110.629z"/>
			<path id="_x32__32_" fill="#656D78" d="M194.473,165.125c0,0-1.643-3.348-1.86-8.367c-1.937,6.275-5.394,22.941-4.347,40.352
				C189.265,179.563,194.473,165.125,194.473,165.125z"/>
			<path id="_x31__39_" fill="#656D78" d="M271.473,152.129c29.7-1.994,36.5-24.006,36.5-24.006
				c-17.634,19.381-52.166,12.666-63.5,19.955c-11.333,7.287,14,18.377,7,24.045c-7,5.666-44.5-4.404-44.5-4.404l2.611,1.996
				c12.049,7.08,47.889,9.656,47.889,9.656s34.019-2.445,46.912-9.119l3.588-2.533C276.806,173.648,241.772,154.121,271.473,152.129
				z"/>
		</g>
	</g>
</g>
</svg>
