<?xml version="1.0" encoding="iso-8859-1"?>
<!-- Generator: Adobe Illustrator 16.0.3, SVG Export Plug-In . SVG Version: 6.00 Build 0)  -->
<!DOCTYPE svg PUBLIC "-//W3C//DTD SVG 1.1 Basic//EN" "http://www.w3.org/Graphics/SVG/1.1/DTD/svg11-basic.dtd">
<svg version="1.1" baseProfile="basic" xmlns="http://www.w3.org/2000/svg" xmlns:xlink="http://www.w3.org/1999/xlink" x="0px"
	 y="0px" width="512px" height="512px" viewBox="0 0 512 512" xml:space="preserve">
<g id="Layer_159" display="none">
	<rect x="512" display="inline" fill="#FFFFFF" width="512" height="512"/>
	<rect display="inline" fill="#FFFFFF" width="512" height="512"/>
	<rect x="512" y="-512" display="inline" fill="#FFFFFF" width="512" height="512"/>
	<rect y="-512" display="inline" fill="#FFFFFF" width="512" height="512"/>
	<rect x="512" y="512" display="inline" fill="#FFFFFF" width="512" height="512"/>
	<rect y="512" display="inline" fill="#FFFFFF" width="512" height="512"/>
</g>
<g id="female" display="none">
	<g id="avatar15_1_" display="inline">
		<g id="baclk">
		</g>
		<g id="hair_back_8_">
		</g>
		<g id="clothes_30_">
		</g>
		<g id="face_98_">
		</g>
		<g id="hair_front_8_">
		</g>
	</g>
	<g id="avatar14_1_" display="inline">
		<g id="back_16_">
		</g>
		<g id="hair_back">
		</g>
		<g id="clothes_17_">
		</g>
		<g id="face_57_">
		</g>
		<g id="hair_front">
		</g>
	</g>
	<g id="avatar13_1_" display="inline">
		<g id="back_x27_">
		</g>
		<g id="clothes">
		</g>
		<g id="face">
		</g>
		<g id="hair">
		</g>
	</g>
	<g id="avatar12_1_" display="inline">
		<g id="back_27_">
		</g>
		<g id="clothes_29_">
		</g>
		<g id="face_97_">
		</g>
		<g id="hair_20_">
		</g>
	</g>
	<g id="avatar11_1_" display="inline">
		<g id="back_26_">
		</g>
		<g id="clothes_28_">
		</g>
		<g id="face_95_">
		</g>
		<g id="hair_19_">
		</g>
	</g>
	<g id="avatar10_1_" display="inline">
		<g id="back_25_">
		</g>
		<g id="clothes_27_">
		</g>
		<g id="face_94_">
		</g>
		<g id="glasses_11_">
		</g>
		<g id="hair_18_">
		</g>
	</g>
	<g id="avatar9_1_" display="inline">
		<g id="back_24_">
		</g>
		<g id="clothes_26_">
		</g>
		<g id="face_92_">
		</g>
		<g id="hair_17_">
		</g>
	</g>
	<g id="avatar8_1_" display="inline">
		<g id="back_23_">
		</g>
		<g id="hair_back_7_">
		</g>
		<g id="clothes_25_">
		</g>
		<g id="face_91_">
		</g>
		<g id="hair_front_7_">
		</g>
	</g>
	<g id="avatar7_1_" display="inline">
		<g id="back_22_">
		</g>
		<g id="clothes_24_">
		</g>
		<g id="face_90_">
		</g>
		<g id="necklace_1_">
		</g>
		<g id="earings_1_">
		</g>
		<g id="hair_16_">
		</g>
	</g>
	<g id="avatar6_1_" display="inline">
		<g id="back_21_">
		</g>
		<g id="hair_back_6_">
		</g>
		<g id="clothes_23_">
		</g>
		<g id="face_89_">
		</g>
		<g id="glasses_12_">
		</g>
		<g id="hair_front_6_">
		</g>
	</g>
	<g id="avatar5_1_" display="inline">
		<g id="back_20_">
		</g>
		<g id="hair_back_5_">
		</g>
		<g id="clothes_22_">
		</g>
		<g id="face_88_">
		</g>
		<g id="glasses_9_">
		</g>
		<g id="hair_front_5_">
		</g>
	</g>
	<g id="avatar4_1_" display="inline">
		<g id="back_19_">
		</g>
		<g id="hair_back_4_">
		</g>
		<g id="clothes_21_">
		</g>
		<g id="face_87_">
		</g>
		<g id="earing_1_">
		</g>
		<g id="hair_front_4_">
		</g>
	</g>
	<g id="avatar3_1_" display="inline">
		<g id="back_18_">
		</g>
		<g id="hair_back_3_">
		</g>
		<g id="clothes_20_">
		</g>
		<g id="face_86_">
		</g>
		<g id="earings">
		</g>
		<g id="glasses_8_">
		</g>
		<g id="hair_front_3_">
		</g>
	</g>
	<g id="avatar2_1_" display="inline">
		<g id="Layebackr_167">
		</g>
		<g id="hair_back_2_">
		</g>
		<g id="clothes_19_">
		</g>
		<g id="necklace">
		</g>
		<g id="face_85_">
		</g>
		<g id="hair_front_2_">
		</g>
	</g>
	<g id="avatar1_1_" display="inline">
		<g id="back_17_">
		</g>
		<g id="hair_back_1_">
		</g>
		<g id="clothes_18_">
		</g>
		<g id="face_84_">
		</g>
		<g id="hair_front_1_">
		</g>
	</g>
</g>
<g id="male">
	<g id="avatar20">
		<g id="back_32_">
		</g>
		<g id="clothes_34_">
		</g>
		<g id="face_100_">
		</g>
		<g id="hair_22_">
		</g>
	</g>
	<g id="avatar19">
		<g id="back_31_">
		</g>
		<g id="clothes_33_">
		</g>
		<g id="face_99_">
		</g>
		<g id="scaft">
		</g>
		<g id="hat">
		</g>
	</g>
	<g id="avatar18">
		<g id="back_30_">
		</g>
		<g id="clothes_32_">
		</g>
		<g id="face_55_">
		</g>
		<g id="earings_2_">
		</g>
		<g id="hair_21_">
		</g>
	</g>
	<g id="avatar17">
		<g id="back_29_">
		</g>
		<g id="hair_back_10_">
		</g>
		<g id="clothes_31_">
		</g>
		<g id="face_2_">
		</g>
		<g id="glasses_10_">
		</g>
		<g id="hair_front_10_">
		</g>
	</g>
	<g id="avatar16">
		<g id="back_28_">
		</g>
		<g id="hair_back_9_">
		</g>
		<g id="clothes_1_">
		</g>
		<g id="face_1_">
		</g>
		<g id="hair_front_9_">
		</g>
	</g>
	<g id="avatar15">
		<g id="back_5_">
		</g>
		<g id="clothes_6_">
		</g>
		<g id="face_29_">
		</g>
		<g id="glasses_4_">
		</g>
		<g id="hair_8_">
		</g>
	</g>
	<g id="avatar14">
		<g id="back_6_">
		</g>
		<g id="clothes_7_">
		</g>
		<g id="face_42_">
		</g>
		<g id="earings_3_">
		</g>
		<g id="hair_9_">
		</g>
	</g>
	<g id="avatar13">
		<g id="back_7_">
		</g>
		<g id="clothes_8_">
		</g>
		<g id="face_43_">
		</g>
		<g id="glasses_5_">
		</g>
		<g id="hair_10_">
		</g>
	</g>
	<g id="avatar12">
		<g id="back_8_">
		</g>
		<g id="clothes_9_">
		</g>
		<g id="face_44_">
		</g>
		<g id="beard_6_">
		</g>
		<g id="hair_11_">
		</g>
	</g>
	<g id="avatar11">
		<g id="back_9_">
			<circle fill="#F6BB42" cx="256" cy="256" r="200"/>
		</g>
		<g id="clothes_10_">
			<path id="_x37__73_" fill="#434A54" d="M372.668,358.789c-7.353-6.355-19.364-14.563-30.666-15.666
				c-7.258-0.709-86.002-13-86.002-13s-78.744,12.291-86.002,13c-11.302,1.104-23.313,9.311-30.666,15.666
				c-13.417,11.598-20.781,25.84-24.795,38.711c36.195,36.219,86.213,58.621,141.463,58.621s105.268-22.402,141.463-58.621
				C393.449,384.629,386.085,370.387,372.668,358.789z"/>
			<path id="_x36__85_" fill="#F9E0A8" d="M256,252.121l-42.25-5.5l16.308,88.734c0,0,3.665,30.766,25.942,30.766
				s25.943-30.766,25.943-30.766l16.307-88.734L256,252.121z"/>
			<path id="_x35__94_" fill="#D9C392" d="M290,261.621l-69.525,21.592l7.086,38.557c10.661,13.145,26.919,25.186,50.957,26.264
				c2.709-6.691,3.426-12.678,3.426-12.678l12.127-65.99C291.686,264.568,290,261.621,290,261.621z"/>
			<path id="_x34__109_" fill="#F5F7FA" d="M283.63,326.344c-9.463,9.463-27.63,12.777-27.63,12.777s-18.167-3.314-27.63-12.777
				l-4.001,8.766L256,451.834l31.631-116.725L283.63,326.344z"/>
			<path id="_x33__123_" fill="#656D78" d="M284.451,328.145l3.18,6.965L256,451.834l-31.631-116.725l3.18-6.965
				c-34.549,6.977-12.299,68.477-12.299,68.477l10-3.5l-6.375,10.25L256,453.834l37.125-50.463l-6.375-10.25l10,3.5
				C296.75,396.621,319,335.121,284.451,328.145z"/>
			<polygon id="_x32__137_" fill="#AAB2BD" points="235.467,376.063 256,399.371 276.533,376.063 256,451.834 			"/>
			<path id="_x31__155_" fill="#DA4453" d="M281.087,339.127c0.071-2.75-1.848-3.924-4.264-2.611l-7.113,3.865
				c-2.416,1.313-4.352,1.956-4.302,1.503c0.051-0.453-2.158-0.884-4.908-0.884h-9c-2.75,0-4.959,0.431-4.908,0.884
				s-1.886-0.22-4.302-1.534l-7.113-3.849c-2.416-1.313-4.335-0.132-4.264,2.618l0.607,23.494c0.071,2.748,2.049,3.824,4.394,2.389
				l8.132-4.979c2.346-1.438,4.307-2.287,4.359-1.817c0.052,0.47,2.345,0.794,5.095,0.794h5c2.75,0,5.043-0.324,5.095-0.794
				c0.053-0.47,2.015,0.351,4.359,1.788l8.132,4.994c2.346,1.437,4.322,0.369,4.394-2.379L281.087,339.127z"/>
		</g>
		<g id="face_45_">
			<path id="ear_52_" fill="#F9E0A8" d="M193,215.621c0,0-21.309-13.5-19.104,14.5s19.104,26,19.104,26V215.621z"/>
			<path id="ear_47_" fill="#F9E0A8" d="M319,215.621c0,0,21.31-13.5,19.104,14.5c-2.204,28-19.104,26-19.104,26V215.621z"/>
			<path id="face_26_" fill="#FFE9BA" d="M256,143.383c-63,0-63,34.738-63,34.738s0,59.5,0,80s19.237,36.287,35.226,50
				c13.408,11.5,27.774,11,27.774,11s14.366,0.5,27.774-11c15.988-13.713,35.226-29.5,35.226-50s0-80,0-80S319,143.383,256,143.383z
				"/>
		</g>
		<g id="glass">
			<path id="_x35__93_" fill="#F6BB42" d="M290.917,247.871c-11.196,0-20.306-9.109-20.306-20.305
				c0-11.197,9.109-20.307,20.306-20.307c11.197,0,20.306,9.109,20.306,20.307C311.223,238.762,302.114,247.871,290.917,247.871z"/>
			<path fill="#F6BB42" d="M290.167,247.871c0.741,9.39,2.116,18.775,3.973,28.004c1.374,6.829,3.129,13.631,5.852,20.055
				c1.654,3.906,4.262,9.052,8.536,10.654c18.523,6.948,15.104-41.832,14.27-50.463c-0.092-0.953-1.593-0.963-1.5,0
				c0.79,8.17,0.939,16.455,0.521,24.648c-0.303,5.953-2.464,31.066-14.116,23.678c-4.208-2.669-6.338-8.742-7.921-13.156
				c-2.169-6.053-3.557-12.391-4.759-18.693c-1.556-8.158-2.701-16.445-3.354-24.727
				C291.591,246.914,290.091,246.906,290.167,247.871L290.167,247.871z"/>
			<circle id="_x33__122_" fill="#F5F7FA" cx="290.917" cy="227.566" r="18.306"/>
			<path id="_x32__136_" fill="#E8EAED" d="M291.111,209.26c-1.727,0-3.391,0.256-4.975,0.703l-10.266,27.736
				c2.35,3.527,5.891,6.186,10.051,7.414l12.676-34.242C296.311,209.844,293.781,209.26,291.111,209.26z"/>
			<path id="_x31__154_" fill="#E8EAED" d="M300.385,211.801l-12.5,33.77c1.049,0.188,2.125,0.301,3.227,0.301
				c1.492,0,2.936-0.197,4.324-0.535l10.527-28.443C304.48,214.832,302.58,213.096,300.385,211.801z"/>
		</g>
		<g id="hair_12_">
			<path id="_x33__92_" fill="#434A54" d="M324.079,158.248c-0.25-17.5-19.234-13.291-19.234-13.291s-27.5-54.385-82.431-29.836
				c-34.217,15.291-34.396,29.297-29.053,37.969c-0.091,0.338-0.36,0.68-0.36,1.031c0,20.5,0,62,0,62v8l6.236-8
				c0,0,9.317-11,3.482-54c0,0,31.195,5,54.695,5s52.667-5.078,52.667-5.078c-6.887,42.328,3.142,54.039,3.142,54.039l5.778,8.039
				v-8c0,0,0-17.197,0-34.92C322,177.398,324.245,169.836,324.079,158.248z"/>
			<path id="_x32__102_" fill="#656D78" d="M293.949,164.412c-1.867-12.242-9.948-45.926-42.31-45.123c0,0,32.166,11.834,31,38
				c0,0-30.472-33.836-56.5-31.334c0,0,32.5,8.332,36.167,33.5c0,0-26.5-32.832-65.334-21.666c0,0,43.334,4.334,48.75,25.5
				c0,0-29.443-21.242-53.164-12.182c0.222,0.475,0.462,0.936,0.718,1.385c7.753,0.309,25.633,2.244,37.228,13.109
				c8.747,0.85,18.367,1.52,26.969,1.52C269.748,167.121,283.554,165.736,293.949,164.412z"/>
			<path id="_x31__117_" fill="#656D78" d="M306.473,154.455c0,0,13.35-5.432,16.758,15.951
				C323.23,170.406,321.64,141.955,306.473,154.455z"/>
		</g>
	</g>
	<g id="avatar10">
		<g id="back_10_">
		</g>
		<g id="clothes_11_">
		</g>
		<g id="face_46_">
		</g>
		<g id="beard_7_">
		</g>
		<g id="glasses_6_">
		</g>
		<g id="hair_13_">
		</g>
	</g>
	<g id="avatar9">
		<g id="back_11_">
		</g>
		<g id="clothes_12_">
		</g>
		<g id="face_47_">
		</g>
		<g id="glasses_3_">
		</g>
		<g id="hair_7_">
		</g>
	</g>
	<g id="avatar8">
		<g id="back_12_">
		</g>
		<g id="clothes_13_">
		</g>
		<g id="face_48_">
		</g>
		<g id="beard_5_">
		</g>
		<g id="glasses_7_">
		</g>
		<g id="hair_6_">
		</g>
	</g>
	<g id="avatar7">
		<g id="back_4_">
		</g>
		<g id="clothes_14_">
		</g>
		<g id="face_11_">
		</g>
		<g id="hair_14_">
		</g>
	</g>
	<g id="avatar6">
		<g id="back_13_">
		</g>
		<g id="clothes_15_">
		</g>
		<g id="face_16_">
		</g>
		<g id="glasses_2_">
		</g>
		<g id="beard_4_">
		</g>
		<g id="hair_5_">
		</g>
	</g>
	<g id="avatar5">
		<g id="back_14_">
		</g>
		<g id="clothes_5_">
		</g>
		<g id="face_38_">
		</g>
		<g id="beard_3_">
		</g>
		<g id="hair_4_">
		</g>
	</g>
	<g id="avatar4">
		<g id="back_3_">
		</g>
		<g id="clothes_4_">
		</g>
		<g id="face_13_">
		</g>
		<g id="beard_2_">
		</g>
		<g id="glasses_1_">
		</g>
		<g id="hair_3_">
		</g>
	</g>
	<g id="avatar3">
		<g id="back_15_">
		</g>
		<g id="clothes_16_">
		</g>
		<g id="face_49_">
		</g>
		<g id="hair_15_">
		</g>
	</g>
	<g id="avatar2">
		<g id="back_2_">
		</g>
		<g id="clothes_3_">
		</g>
		<g id="face_9_">
		</g>
		<g id="beard_1_">
		</g>
		<g id="hair_2_">
		</g>
	</g>
	<g id="avatar1">
		<g id="back_1_">
		</g>
		<g id="clothes_2_">
		</g>
		<g id="face_6_">
		</g>
		<g id="hair_1_">
		</g>
	</g>
</g>
</svg>
