<?xml version="1.0" encoding="iso-8859-1"?>
<!-- Generator: Adobe Illustrator 16.0.3, SVG Export Plug-In . SVG Version: 6.00 Build 0)  -->
<!DOCTYPE svg PUBLIC "-//W3C//DTD SVG 1.1 Basic//EN" "http://www.w3.org/Graphics/SVG/1.1/DTD/svg11-basic.dtd">
<svg version="1.1" baseProfile="basic" xmlns="http://www.w3.org/2000/svg" xmlns:xlink="http://www.w3.org/1999/xlink" x="0px"
	 y="0px" width="512px" height="512px" viewBox="0 0 512 512" xml:space="preserve">
<g id="Layer_159" display="none">
	<rect x="-512" y="511" display="inline" fill="#FFFFFF" width="512" height="512"/>
	<rect y="511" display="inline" fill="#FFFFFF" width="512" height="512"/>
	<rect y="-512" display="inline" fill="#FFFFFF" width="512" height="512"/>
	<rect x="-512" y="-512" display="inline" fill="#FFFFFF" width="512" height="512"/>
	<rect display="inline" fill="#FFFFFF" width="512" height="512"/>
	<rect x="-512" display="inline" fill="#FFFFFF" width="512" height="512"/>
</g>
<g id="female">
	<g id="avatar15_1_">
		<g id="baclk">
		</g>
		<g id="hair_back_8_">
		</g>
		<g id="clothes_30_">
		</g>
		<g id="face_98_">
		</g>
		<g id="hair_front_8_">
		</g>
	</g>
	<g id="avatar14_1_">
		<g id="back_16_">
		</g>
		<g id="hair_back">
		</g>
		<g id="clothes_17_">
		</g>
		<g id="face_57_">
		</g>
		<g id="hair_front">
		</g>
	</g>
	<g id="avatar13_1_">
		<g id="back_x27_">
		</g>
		<g id="clothes">
		</g>
		<g id="face">
		</g>
		<g id="hair">
		</g>
	</g>
	<g id="avatar12_1_">
		<g id="back_27_">
		</g>
		<g id="clothes_29_">
		</g>
		<g id="face_97_">
		</g>
		<g id="hair_20_">
		</g>
	</g>
	<g id="avatar11_1_">
		<g id="back_26_">
		</g>
		<g id="clothes_28_">
		</g>
		<g id="face_95_">
		</g>
		<g id="hair_19_">
		</g>
	</g>
	<g id="avatar10_1_">
		<g id="back_25_">
		</g>
		<g id="clothes_27_">
		</g>
		<g id="face_94_">
		</g>
		<g id="glasses_11_">
		</g>
		<g id="hair_18_">
		</g>
	</g>
	<g id="avatar9_1_">
		<g id="back_24_">
		</g>
		<g id="clothes_26_">
		</g>
		<g id="face_92_">
		</g>
		<g id="hair_17_">
		</g>
	</g>
	<g id="avatar8_1_">
		<g id="back_23_">
		</g>
		<g id="hair_back_7_">
		</g>
		<g id="clothes_25_">
		</g>
		<g id="face_91_">
		</g>
		<g id="hair_front_7_">
		</g>
	</g>
	<g id="avatar7_1_">
		<g id="back_22_">
		</g>
		<g id="clothes_24_">
		</g>
		<g id="face_90_">
		</g>
		<g id="necklace_1_">
		</g>
		<g id="earings_1_">
		</g>
		<g id="hair_16_">
		</g>
	</g>
	<g id="avatar6_1_">
		<g id="back_21_">
		</g>
		<g id="hair_back_6_">
		</g>
		<g id="clothes_23_">
		</g>
		<g id="face_89_">
		</g>
		<g id="glasses_12_">
		</g>
		<g id="hair_front_6_">
		</g>
	</g>
	<g id="avatar5_1_">
		<g id="back_20_">
		</g>
		<g id="hair_back_5_">
		</g>
		<g id="clothes_22_">
		</g>
		<g id="face_88_">
		</g>
		<g id="glasses_9_">
		</g>
		<g id="hair_front_5_">
		</g>
	</g>
	<g id="avatar4_1_">
		<g id="back_19_">
		</g>
		<g id="hair_back_4_">
		</g>
		<g id="clothes_21_">
		</g>
		<g id="face_87_">
		</g>
		<g id="earing_1_">
		</g>
		<g id="hair_front_4_">
		</g>
	</g>
	<g id="avatar3_1_">
		<g id="back_18_">
		</g>
		<g id="hair_back_3_">
		</g>
		<g id="clothes_20_">
		</g>
		<g id="face_86_">
		</g>
		<g id="earings">
		</g>
		<g id="glasses_8_">
		</g>
		<g id="hair_front_3_">
		</g>
	</g>
	<g id="avatar2_1_">
		<g id="Layebackr_167">
		</g>
		<g id="hair_back_2_">
		</g>
		<g id="clothes_19_">
		</g>
		<g id="necklace">
		</g>
		<g id="face_85_">
		</g>
		<g id="hair_front_2_">
		</g>
	</g>
	<g id="avatar1_1_">
		<g id="back_17_">
		</g>
		<g id="hair_back_1_">
		</g>
		<g id="clothes_18_">
		</g>
		<g id="face_84_">
		</g>
		<g id="hair_front_1_">
		</g>
	</g>
</g>
<g id="male">
	<g id="avatar20">
		<g id="back_32_">
			<circle fill="#8CC152" cx="256" cy="256" r="200"/>
		</g>
		<g id="clothes_34_">
			<path fill="#B54331" d="M302.635,334.166c0,0-29.507-1.602-43.666-2.504c-0.48-0.226-1.015-0.332-1.613-0.289
				c-0.413,0.029-0.873,0.061-1.355,0.094c-0.482-0.033-0.942-0.064-1.355-0.094c-0.599-0.043-1.133,0.063-1.613,0.289
				c-14.159,0.902-43.666,2.504-43.666,2.504L195,357.001L204,378c0,0,36.24,0,49.574,0c2.991,0,4.835,0,4.852,0
				c13.334,0,49.574,0,49.574,0l9-20.999L302.635,334.166z"/>
			<path id="_x37__64_" fill="#434A54" d="M372.668,359.789c-7.353-6.355-19.364-14.563-30.666-15.666
				c-7.258-0.709-86.002-13-86.002-13s-78.744,12.291-86.002,13c-11.302,1.104-23.313,9.311-30.666,15.666
				c-13.417,11.598-20.781,25.84-24.795,38.711c36.195,36.219,86.213,58.621,141.463,58.621s105.268-22.402,141.463-58.621
				C393.449,385.629,386.085,371.387,372.668,359.789z"/>
			<path id="_x36__80_" fill="#AB7049" d="M256,253.121l-42.25-5.5l16.307,88.734c0,0,3.666,30.766,25.943,30.766
				s25.943-30.766,25.943-30.766l16.307-88.734L256,253.121z"/>
			<path id="_x35__88_" fill="#8C5C3C" d="M290,262.621l-69.525,21.592l7.086,38.557c10.66,13.145,26.918,25.186,50.957,26.264
				c2.709-6.691,3.426-12.678,3.426-12.678l12.127-65.99C291.686,265.568,290,262.621,290,262.621z"/>
			<path fill="#E9573F" d="M302.801,334c3.836,21.828-4.028,58.521-46.801,59.096c-42.772-0.574-50.637-37.268-46.801-59.096
				C178.445,331.123,144,352.001,144,352.001c17.635,31.495,20.495,59.057,17.316,81.202C189.502,448.381,221.743,457,256,457
				s66.498-8.619,94.684-23.797c-3.179-22.146-0.318-49.707,17.316-81.202C368,352.001,333.555,331.123,302.801,334z"/>
			<path fill="#FC5E44" d="M256,457c32.624,0,63.411-7.831,90.617-21.686c-0.729-25.403,5.074-59.395,17.329-82.164
				c-7.713-4.223-32.005-16.423-55.163-16.423c-0.855,0-1.706,0.018-2.547,0.051c1.512,12.91-0.694,29.994-11.22,42.702
				c-8.942,10.798-22.056,16.388-39.057,16.615c-16.921-0.228-30.034-5.817-38.977-16.615
				c-10.525-12.708-12.731-29.792-11.22-42.702c-0.841-0.033-1.691-0.051-2.547-0.051c-23.159,0-47.45,12.2-55.163,16.423
				c12.255,22.77,18.058,56.761,17.329,82.164C192.589,449.169,223.376,457,256,457z"/>
		</g>
		<g id="face_100_">
			<path id="ear_209_" fill="#AB7049" d="M193,215.621c0,0-21.309-13.5-19.104,14.5s19.104,26,19.104,26V215.621z"/>
			<path id="ear_206_" fill="#AB7049" d="M319,215.621c0,0,21.31-13.5,19.104,14.5c-2.204,28-19.104,26-19.104,26V215.621z"/>
			<path id="face_120_" fill="#BA7A50" d="M256,137c-63,0-63,41.121-63,41.121s0,59.5,0,80s19.237,36.287,35.226,50
				c13.408,11.5,27.774,11,27.774,11s14.366,0.5,27.774-11c15.988-13.713,35.226-29.5,35.226-50s0-80,0-80S319,137,256,137z"/>
		</g>
		<g id="hair_22_">
			<path fill="#434A54" d="M256,119.5c-64.557,0-65,42.137-65,42.137s0,60.971,0,81.978c0,3.99,0.723,7.805,2,11.465
				c0-15.586,0-45.902,0-63.474l62-28.105l64,23.5c0,16.327,0,51.005,0,68.065c1.277-3.656,2-7.466,2-11.451
				c0-21.007,0-81.978,0-81.978S320.557,119.5,256,119.5z"/>
			<path fill="#E9573F" d="M332.86,192.146c-4.671-8.97-11.912-16.27-19.108-21.796c-17.134-13.158-37.351-18.083-57.253-18.347
				c-0.101-0.002-0.195-0.016-0.299-0.016c-0.066,0-0.134,0.004-0.2,0.005c-0.067-0.001-0.134-0.005-0.201-0.005
				c-0.103,0-0.197,0.014-0.298,0.016c-19.902,0.264-40.12,5.188-57.253,18.347c-7.196,5.526-14.438,12.826-19.108,21.796
				c-7.211,13.849,10.491,26.632,17.648,12.888c0.006-0.013,0.014-0.024,0.02-0.036c0.585-0.874,1.188-1.727,1.813-2.554
				c1.349-1.789,2.803-3.447,4.296-5.043c0.357-0.379,0.72-0.753,1.085-1.122c0.01-0.009,0.014-0.014,0.022-0.022
				c0.088-0.08,0.191-0.175,0.318-0.293c1.126-1.043,2.292-2.014,3.466-2.968c13.899-11.288,30.882-15.303,48.192-15.467
				c17.311,0.164,34.292,4.179,48.192,15.467c1.173,0.954,2.34,1.925,3.466,2.968c0.127,0.118,0.23,0.213,0.318,0.293
				c0.009,0.009,0.013,0.014,0.021,0.022c0.365,0.369,0.728,0.743,1.086,1.122c1.493,1.596,2.947,3.254,4.296,5.043
				c0.623,0.827,1.228,1.68,1.812,2.554c0.006,0.012,0.015,0.023,0.021,0.036C322.369,218.777,340.071,205.994,332.86,192.146z
				 M197.363,204.019C197.588,203.64,197.692,203.479,197.363,204.019L197.363,204.019z M314.637,204.019
				C314.308,203.479,314.412,203.64,314.637,204.019L314.637,204.019z"/>
			<path fill="#FC5E44" d="M179.14,196.879c4.671-8.97,11.912-16.27,19.108-21.796c17.133-13.158,37.351-18.083,57.253-18.347
				c0.101-0.002,0.195-0.016,0.298-0.016c0.067,0,0.134,0.004,0.201,0.005c0.066-0.001,0.134-0.005,0.2-0.005
				c0.104,0,0.198,0.014,0.299,0.016c19.902,0.264,40.119,5.188,57.253,18.347c7.196,5.526,14.438,12.826,19.108,21.796
				c0.525,1.009,0.903,2.01,1.179,2.997c0.878-3.015,0.701-6.546-1.179-10.156c-4.671-8.97-11.912-16.27-19.108-21.796
				c-17.134-13.158-37.351-18.083-57.253-18.347c-0.101-0.002-0.195-0.016-0.299-0.016c-0.066,0-0.134,0.004-0.2,0.005
				c-0.067-0.001-0.134-0.005-0.201-0.005c-0.103,0-0.197,0.014-0.298,0.016c-19.902,0.264-40.12,5.188-57.253,18.347
				c-7.196,5.526-14.438,12.826-19.108,21.796c-1.88,3.61-2.057,7.142-1.179,10.156C178.236,198.889,178.614,197.888,179.14,196.879
				z"/>
		</g>
	</g>
	<g id="avatar19">
		<g id="back_31_">
		</g>
		<g id="clothes_33_">
		</g>
		<g id="face_99_">
		</g>
		<g id="scaft">
		</g>
		<g id="hat">
		</g>
	</g>
	<g id="avatar18">
		<g id="back_30_">
		</g>
		<g id="clothes_32_">
		</g>
		<g id="face_55_">
		</g>
		<g id="earings_2_">
		</g>
		<g id="hair_21_">
		</g>
	</g>
	<g id="avatar17">
		<g id="back_29_">
		</g>
		<g id="hair_back_10_">
		</g>
		<g id="clothes_31_">
		</g>
		<g id="face_2_">
		</g>
		<g id="glasses_10_">
		</g>
		<g id="hair_front_10_">
		</g>
	</g>
	<g id="avatar16">
		<g id="back_28_">
		</g>
		<g id="hair_back_9_">
		</g>
		<g id="clothes_1_">
		</g>
		<g id="face_1_">
		</g>
		<g id="hair_front_9_">
		</g>
	</g>
	<g id="avatar15">
		<g id="back_5_">
		</g>
		<g id="clothes_6_">
		</g>
		<g id="face_29_">
		</g>
		<g id="glasses_4_">
		</g>
		<g id="hair_8_">
		</g>
	</g>
	<g id="avatar14">
		<g id="back_6_">
		</g>
		<g id="clothes_7_">
		</g>
		<g id="face_42_">
		</g>
		<g id="earings_3_">
		</g>
		<g id="hair_9_">
		</g>
	</g>
	<g id="avatar13">
		<g id="back_7_">
		</g>
		<g id="clothes_8_">
		</g>
		<g id="face_43_">
		</g>
		<g id="glasses_5_">
		</g>
		<g id="hair_10_">
		</g>
	</g>
	<g id="avatar12">
		<g id="back_8_">
		</g>
		<g id="clothes_9_">
		</g>
		<g id="face_44_">
		</g>
		<g id="beard_6_">
		</g>
		<g id="hair_11_">
		</g>
	</g>
	<g id="avatar11">
		<g id="back_9_">
		</g>
		<g id="clothes_10_">
		</g>
		<g id="face_45_">
		</g>
		<g id="glass">
		</g>
		<g id="hair_12_">
		</g>
	</g>
	<g id="avatar10">
		<g id="back_10_">
		</g>
		<g id="clothes_11_">
		</g>
		<g id="face_46_">
		</g>
		<g id="beard_7_">
		</g>
		<g id="glasses_6_">
		</g>
		<g id="hair_13_">
		</g>
	</g>
	<g id="avatar9">
		<g id="back_11_">
		</g>
		<g id="clothes_12_">
		</g>
		<g id="face_47_">
		</g>
		<g id="glasses_3_">
		</g>
		<g id="hair_7_">
		</g>
	</g>
	<g id="avatar8">
		<g id="back_12_">
		</g>
		<g id="clothes_13_">
		</g>
		<g id="face_48_">
		</g>
		<g id="beard_5_">
		</g>
		<g id="glasses_7_">
		</g>
		<g id="hair_6_">
		</g>
	</g>
	<g id="avatar7">
		<g id="back_4_">
		</g>
		<g id="clothes_14_">
		</g>
		<g id="face_11_">
		</g>
		<g id="hair_14_">
		</g>
	</g>
	<g id="avatar6">
		<g id="back_13_">
		</g>
		<g id="clothes_15_">
		</g>
		<g id="face_16_">
		</g>
		<g id="glasses_2_">
		</g>
		<g id="beard_4_">
		</g>
		<g id="hair_5_">
		</g>
	</g>
	<g id="avatar5">
		<g id="back_14_">
		</g>
		<g id="clothes_5_">
		</g>
		<g id="face_38_">
		</g>
		<g id="beard_3_">
		</g>
		<g id="hair_4_">
		</g>
	</g>
	<g id="avatar4">
		<g id="back_3_">
		</g>
		<g id="clothes_4_">
		</g>
		<g id="face_13_">
		</g>
		<g id="beard_2_">
		</g>
		<g id="glasses_1_">
		</g>
		<g id="hair_3_">
		</g>
	</g>
	<g id="avatar3">
		<g id="back_15_">
		</g>
		<g id="clothes_16_">
		</g>
		<g id="face_49_">
		</g>
		<g id="hair_15_">
		</g>
	</g>
	<g id="avatar2">
		<g id="back_2_">
		</g>
		<g id="clothes_3_">
		</g>
		<g id="face_9_">
		</g>
		<g id="beard_1_">
		</g>
		<g id="hair_2_">
		</g>
	</g>
	<g id="avatar1">
		<g id="back_1_">
		</g>
		<g id="clothes_2_">
		</g>
		<g id="face_6_">
		</g>
		<g id="hair_1_">
		</g>
	</g>
</g>
</svg>
