<?xml version="1.0" encoding="iso-8859-1"?>
<!-- Generator: Adobe Illustrator 16.0.3, SVG Export Plug-In . SVG Version: 6.00 Build 0)  -->
<!DOCTYPE svg PUBLIC "-//W3C//DTD SVG 1.1 Basic//EN" "http://www.w3.org/Graphics/SVG/1.1/DTD/svg11-basic.dtd">
<svg version="1.1" baseProfile="basic" xmlns="http://www.w3.org/2000/svg" xmlns:xlink="http://www.w3.org/1999/xlink" x="0px"
	 y="0px" width="512px" height="512px" viewBox="0 0 512 512" xml:space="preserve">
<g id="Layer_159" display="none">
	<rect y="511" display="inline" fill="#FFFFFF" width="512" height="512"/>
	<rect x="-512" y="511" display="inline" fill="#FFFFFF" width="512" height="512"/>
	<rect x="512" y="511" display="inline" fill="#FFFFFF" width="512" height="512"/>
	<rect x="512" y="-512" display="inline" fill="#FFFFFF" width="512" height="512"/>
	<rect y="-512" display="inline" fill="#FFFFFF" width="512" height="512"/>
	<rect x="-512" y="-512" display="inline" fill="#FFFFFF" width="512" height="512"/>
	<rect x="512" display="inline" fill="#FFFFFF" width="512" height="512"/>
	<rect display="inline" fill="#FFFFFF" width="512" height="512"/>
	<rect x="-512" display="inline" fill="#FFFFFF" width="512" height="512"/>
</g>
<g id="female" display="none">
	<g id="avatar15_1_" display="inline">
		<g id="baclk">
		</g>
		<g id="hair_back_8_">
		</g>
		<g id="clothes_30_">
		</g>
		<g id="face_98_">
		</g>
		<g id="hair_front_8_">
		</g>
	</g>
	<g id="avatar14_1_" display="inline">
		<g id="back_16_">
		</g>
		<g id="hair_back">
		</g>
		<g id="clothes_17_">
		</g>
		<g id="face_57_">
		</g>
		<g id="hair_front">
		</g>
	</g>
	<g id="avatar13_1_" display="inline">
		<g id="back_x27_">
		</g>
		<g id="clothes">
		</g>
		<g id="face">
		</g>
		<g id="hair">
		</g>
	</g>
	<g id="avatar12_1_" display="inline">
		<g id="back_27_">
		</g>
		<g id="clothes_29_">
		</g>
		<g id="face_97_">
		</g>
		<g id="hair_20_">
		</g>
	</g>
	<g id="avatar11_1_" display="inline">
		<g id="back_26_">
		</g>
		<g id="clothes_28_">
		</g>
		<g id="face_95_">
		</g>
		<g id="hair_19_">
		</g>
	</g>
	<g id="avatar10_1_" display="inline">
		<g id="back_25_">
		</g>
		<g id="clothes_27_">
		</g>
		<g id="face_94_">
		</g>
		<g id="glasses_11_">
		</g>
		<g id="hair_18_">
		</g>
	</g>
	<g id="avatar9_1_" display="inline">
		<g id="back_24_">
		</g>
		<g id="clothes_26_">
		</g>
		<g id="face_92_">
		</g>
		<g id="hair_17_">
		</g>
	</g>
	<g id="avatar8_1_" display="inline">
		<g id="back_23_">
		</g>
		<g id="hair_back_7_">
		</g>
		<g id="clothes_25_">
		</g>
		<g id="face_91_">
		</g>
		<g id="hair_front_7_">
		</g>
	</g>
	<g id="avatar7_1_" display="inline">
		<g id="back_22_">
		</g>
		<g id="clothes_24_">
		</g>
		<g id="face_90_">
		</g>
		<g id="necklace_1_">
		</g>
		<g id="earings_1_">
		</g>
		<g id="hair_16_">
		</g>
	</g>
	<g id="avatar6_1_" display="inline">
		<g id="back_21_">
		</g>
		<g id="hair_back_6_">
		</g>
		<g id="clothes_23_">
		</g>
		<g id="face_89_">
		</g>
		<g id="glasses_12_">
		</g>
		<g id="hair_front_6_">
		</g>
	</g>
	<g id="avatar5_1_" display="inline">
		<g id="back_20_">
		</g>
		<g id="hair_back_5_">
		</g>
		<g id="clothes_22_">
		</g>
		<g id="face_88_">
		</g>
		<g id="glasses_9_">
		</g>
		<g id="hair_front_5_">
		</g>
	</g>
	<g id="avatar4_1_" display="inline">
		<g id="back_19_">
		</g>
		<g id="hair_back_4_">
		</g>
		<g id="clothes_21_">
		</g>
		<g id="face_87_">
		</g>
		<g id="earing_1_">
		</g>
		<g id="hair_front_4_">
		</g>
	</g>
	<g id="avatar3_1_" display="inline">
		<g id="back_18_">
		</g>
		<g id="hair_back_3_">
		</g>
		<g id="clothes_20_">
		</g>
		<g id="face_86_">
		</g>
		<g id="earings">
		</g>
		<g id="glasses_8_">
		</g>
		<g id="hair_front_3_">
		</g>
	</g>
	<g id="avatar2_1_" display="inline">
		<g id="Layebackr_167">
		</g>
		<g id="hair_back_2_">
		</g>
		<g id="clothes_19_">
		</g>
		<g id="necklace">
		</g>
		<g id="face_85_">
		</g>
		<g id="hair_front_2_">
		</g>
	</g>
	<g id="avatar1_1_" display="inline">
		<g id="back_17_">
		</g>
		<g id="hair_back_1_">
		</g>
		<g id="clothes_18_">
		</g>
		<g id="face_84_">
		</g>
		<g id="hair_front_1_">
		</g>
	</g>
</g>
<g id="male">
	<g id="avatar20">
		<g id="back_32_">
		</g>
		<g id="clothes_34_">
		</g>
		<g id="face_100_">
		</g>
		<g id="hair_22_">
		</g>
	</g>
	<g id="avatar19">
		<g id="back_31_">
		</g>
		<g id="clothes_33_">
		</g>
		<g id="face_99_">
		</g>
		<g id="scaft">
		</g>
		<g id="hat">
		</g>
	</g>
	<g id="avatar18">
		<g id="back_30_">
		</g>
		<g id="clothes_32_">
		</g>
		<g id="face_55_">
		</g>
		<g id="earings_2_">
		</g>
		<g id="hair_21_">
		</g>
	</g>
	<g id="avatar17">
		<g id="back_29_">
			<circle fill="#8CC152" cx="257" cy="256" r="200"/>
		</g>
		<g id="hair_back_10_">
			<g>
				<path fill="#272B30" d="M154.5,349.033c0.314-4.4,0.754-6.666,1.786-11.874c1.95-9.839,4.857-19.582,8.893-28.771
					c11.596-26.4,32.577-45.85,61.625-50.461c-1.284-3.046-2.568-6.092-3.853-9.139c-15.757,11.142-29.479,25.865-40.583,41.544
					c-20.598,29.086-28.786,65.277-14.689,98.996c2.449,5.858,12.129,3.29,9.643-2.658c-6.731-16.101-8.778-33.22-5.161-50.343
					c3.213-15.215,10.518-29.193,19.447-41.803c7.062-9.971,15.488-19,24.494-27.234c2.948-2.694,5.992-5.286,9.119-7.771
					c1.02-0.81,0.578-0.458,0.711-0.561c0.353-0.271,0.709-0.538,1.065-0.805c0.331-0.247,0.664-0.493,1.001-0.731
					c4.774-3.376,1.767-10.031-3.853-9.139c-30.758,4.883-53.976,25.722-66.861,53.419c-6.819,14.658-11.628,31.127-12.784,47.329
					C144.041,355.472,154.044,355.427,154.5,349.033L154.5,349.033z"/>
			</g>
			<g>
				<path fill="#272B30" d="M199.5,388c-0.96-18.277-0.272-36.798,1.61-54.986c1.459-14.1,3.955-28.295,8.842-41.641
					c3.442-9.4,9.224-20.521,19.377-23.931c-1.882-2.448-3.764-4.896-5.646-7.345c-5.363,12.142-7.334,26.003-7.851,39.145
					c-1.251,31.781,9.972,62.67,28.351,88.281c3.723,5.188,12.403,0.204,8.635-5.047c-17.326-24.144-27.659-52.198-27.021-82.095
					c0.188-8.831,1.431-17.599,3.646-26.146c0.634-2.445,1.374-4.864,2.208-7.248c0.282-0.807,1.598-3.951,0.667-1.844
					c1.608-3.641-1.04-8.891-5.646-7.345c-11.917,4-19.381,14.479-24.209,25.584c-6.014,13.833-8.754,28.798-10.664,43.679
					c-2.577,20.078-3.361,40.707-2.298,60.938C189.837,394.414,199.839,394.447,199.5,388L199.5,388z"/>
			</g>
			<g>
				<path fill="#434A54" d="M171.321,326.329c2.238-12.162,8.387-23.581,15.408-33.663c17.592-25.263,45.872-39.451,75.6-44.845
					c5.808-1.054,4.036-9.538-1.329-9.821c-17.643-0.931-36.234,2.377-52.926,7.811c-33.67,10.96-60.132,34.992-71.03,69.095
					c-0.922,2.884-1.675,5.819-2.365,8.766c-1.471,6.272,8.171,8.936,9.643,2.658c4.288-18.292,12.865-34.827,26.503-47.869
					c10.997-10.516,24.752-17.867,39.082-22.731c16.081-5.46,34.036-8.628,51.094-7.729c-0.443-3.273-0.886-6.548-1.329-9.821
					c-32.061,5.817-61.152,21.521-80.575,48.039c-7.902,10.788-14.966,24.137-17.417,37.453
					C160.519,329.974,170.155,332.666,171.321,326.329L171.321,326.329z"/>
			</g>
			<g>
				<path fill="#434A54" d="M190.148,336.789c0.354-3.437,0.665-5.287,1.375-9.486c1.427-8.449,3.335-16.817,5.721-25.047
					c4.776-16.471,12.831-39.184,30.084-46.435c-1.882-2.448-3.764-4.896-5.646-7.345c-18.903,27.148-23.099,65.442-10.754,95.853
					c2.393,5.894,12.069,3.319,9.643-2.658c-11.459-28.23-7.812-62.932,9.746-88.147c2.368-3.4-1.614-9.039-5.646-7.345
					c-19.942,8.38-29.643,30.086-35.864,49.468c-4.263,13.281-7.229,27.254-8.658,41.143
					C179.488,343.202,189.495,343.139,190.148,336.789L190.148,336.789z"/>
			</g>
			<g>
				<path fill="#272B30" d="M367.5,349.033c-1.14-15.969-5.904-31.976-12.41-46.51c-12.582-28.102-36.311-49.33-67.235-54.238
					c-5.619-0.893-8.627,5.763-3.853,9.139c0.28,0.198,0.556,0.402,0.831,0.605c0.333,0.246,0.664,0.496,0.994,0.747
					c1.058,0.803-0.569-0.451,0.633,0.492c3.063,2.405,6.022,4.943,8.916,7.55c9.253,8.332,17.749,17.591,25.017,27.707
					c8.826,12.286,15.693,25.912,19.194,40.673c4.114,17.345,1.925,35.128-4.908,51.473c-2.487,5.948,7.193,8.517,9.643,2.658
					c14.17-33.894,5.749-69.713-14.689-98.996c-10.969-15.716-24.874-30.436-40.583-41.544c-1.284,3.047-2.568,6.093-3.853,9.139
					c28.862,4.582,49.39,23.637,61.259,49.643c4.207,9.219,7.093,19.091,9.14,28.999c0.372,1.802,0.701,3.612,1.004,5.428
					c0.127,0.76,0.244,1.521,0.357,2.282c0.201,1.347,0.111,0.753,0.141,0.981c0.163,1.253,0.313,2.512,0.403,3.772
					C357.956,355.427,367.959,355.472,367.5,349.033L367.5,349.033z"/>
			</g>
			<g>
				<path fill="#272B30" d="M322.5,388c1.047-19.92,0.218-40.156-2.174-59.943c-1.805-14.928-4.571-29.949-10.446-43.863
					c-4.817-11.407-12.336-22.293-24.551-26.394c-4.606-1.546-7.255,3.704-5.646,7.345c-0.912-2.065,0.253,0.697,0.538,1.482
					c0.828,2.285,1.525,4.617,2.165,6.961c2.286,8.378,3.442,16.986,3.783,25.654c1.188,30.175-9.546,58.932-26.986,83.234
					c-3.768,5.251,4.912,10.235,8.635,5.047c18.281-25.475,29.059-55.618,28.386-87.142c-0.288-13.464-2.396-27.856-7.886-40.284
					c-1.882,2.448-3.765,4.896-5.646,7.345c9.923,3.331,15.522,13.956,19.06,23.086c5.114,13.201,7.509,27.483,9.054,41.497
					c2.039,18.488,2.693,37.385,1.716,55.975C312.161,394.447,322.163,394.414,322.5,388L322.5,388z"/>
			</g>
			<g>
				<path fill="#434A54" d="M350.321,323.671c-2.461-13.372-9.575-26.565-17.417-37.453c-19.151-26.593-48.716-42.259-80.575-48.039
					c-0.443,3.273-0.886,6.548-1.329,9.821c16.827-0.888,34.346,2.271,50.268,7.453c14.392,4.686,27.983,12.066,39.17,22.316
					c14.117,12.935,22.903,30.058,27.24,48.56c1.471,6.277,11.113,3.614,9.643-2.658c-4.423-18.868-13.285-36.26-26.894-50.15
					c-11.366-11.602-25.624-19.861-40.693-25.652c-18.205-6.996-38.827-10.615-58.377-9.884c-0.119,0.004-0.239,0.01-0.358,0.016
					c-5.365,0.283-7.137,8.768-1.329,9.821c29.916,5.428,57.755,19.646,75.6,44.845c7.077,9.992,13.179,21.551,15.408,33.663
					C341.845,332.666,351.481,329.974,350.321,323.671L350.321,323.671z"/>
			</g>
			<g>
				<path fill="#434A54" d="M331.852,336.789c-1.397-13.572-4.335-27.128-8.347-40.15c-6.064-19.687-15.999-41.98-36.176-50.46
					c-4.032-1.694-8.014,3.944-5.646,7.345c17.558,25.216,21.206,59.917,9.746,88.147c-2.427,5.978,7.25,8.552,9.643,2.658
					c12.345-30.41,8.149-68.704-10.754-95.853c-1.882,2.448-3.765,4.896-5.646,7.345c17.02,7.152,24.904,29.252,29.794,45.451
					c2.507,8.305,4.397,16.798,5.893,25.34c0.26,1.484,0.5,2.973,0.729,4.462c0.084,0.542,0.164,1.084,0.243,1.627
					c0.031,0.213,0.313,2.244,0.14,0.955c0.14,1.043,0.274,2.087,0.381,3.133C322.505,343.139,332.512,343.202,331.852,336.789
					L331.852,336.789z"/>
			</g>
		</g>
		<g id="clothes_31_">
			<path fill="#BA4632" d="M219.945,337c0,0-2.278-15.992,36.055-15.992S292.055,337,292.055,337H219.945z"/>
			<path id="_x36__106_" fill="#E9573F" d="M256,457c55.25,0,105.267-22.403,141.463-58.621
				c-4.014-12.872-11.378-27.114-24.795-38.712c-4.934-4.265-11.967-9.353-19.473-12.579c-3.682-1.582-7.475-2.724-11.193-3.087
				c-2.043-0.199-9.75-1.317-19.771-2.819C296.652,337.347,256,331.001,256,331.001s-40.652,6.346-66.231,10.181
				c-10.021,1.502-17.728,2.62-19.771,2.819c-3.719,0.363-7.512,1.505-11.193,3.087c-7.506,3.227-14.539,8.314-19.473,12.579
				c-13.417,11.598-20.781,25.84-24.795,38.712C150.733,434.597,200.75,457,256,457z"/>
			<path fill="#FF5F45" d="M335.191,383.064c0,0-6.629-13.905-3.216-23.89c0,0,2.917,2.44,5.334,6.651l-0.756,2.869l1.684-0.966
				c0,0,1.332,5.57,0.391,6.857l2.667-1.815C344.636,378.879,335.191,383.064,335.191,383.064z"/>
			<path fill="#FF5F45" d="M330.747,359.88c0,0-0.913,15.64,3.761,21.914c0,0-4.021,1.002-6.476-2.627l1.44-0.071
				c0,0-3.849-1.729-3.867-4.116l2.105-1.208l-2.998-1.647C324.712,372.124,325.979,365.229,330.747,359.88z"/>
			<path fill="#BA4632" d="M316.897,437.496c0,0-22.045-22.817-21.913-44.548c0,0,7.033,2.624,14.509,9.266l0.14,5.865l2.656-2.99
				c0,0,6.509,10.241,5.513,13.368l4.151-5.174C332.475,423.021,316.897,437.496,316.897,437.496z"/>
			<path fill="#BA4632" d="M293.048,395.129c0,0,8.452,31.14,21.686,40.333c0,0-7.196,4.587-14.367-0.892l2.505-1.314
				c0,0-8.872-1.056-10.507-5.739l3.321-3.737l-6.672-1.023C289.014,422.756,287.239,408.694,293.048,395.129z"/>
			<path fill="#BA4632" d="M352.247,400.923c0,0,17.498-13.7,32.627-12.029c0,0-2.52,4.873-7.691,9.6l-4.277-0.163l1.89,2.067
				c0,0-7.426,3.624-9.533,2.704l3.394,3.185C361.108,412.909,352.247,400.923,352.247,400.923z"/>
			<path fill="#BA4632" d="M383.495,387.386c0,0-22.308,3.625-29.674,12.177c0,0-2.673-5.346,1.665-9.943l0.553,2.006
				c0,0,1.225-5.962,4.581-6.737l2.362,2.585l1.378-4.738C364.36,382.734,374.466,382.354,383.495,387.386z"/>
			<path fill="#FF5F45" d="M174.313,386.752c0,0,5.993-14.191,15.724-18.271c0,0,0.113,3.801-1.43,8.405l-2.647,1.341l1.841,0.617
				c0,0-3.28,4.695-4.867,4.847l3.128,0.788C183.716,391.033,174.313,386.752,174.313,386.752z"/>
			<path fill="#FF5F45" d="M188.694,368.031c0,0-12.299,9.705-13.885,17.366c0,0-3.419-2.341-2.337-6.586l1.01,1.029
				c0,0-1.264-4.025,0.509-5.625l2.302,0.771l-0.76-3.335C175.533,371.652,181.528,368.021,188.694,368.031z"/>
			<path fill="#AB7049" d="M256,331.001c0,0-17.075,2.665-36.055,5.585c6.75,18.833,17.254,93.53,20.821,119.841
				C245.794,456.805,250.875,457,256,457s10.206-0.195,15.234-0.573c3.566-26.311,14.07-101.008,20.821-119.841
				C273.075,333.666,256,331.001,256,331.001z"/>
			<path id="_x32__157_" fill="#AB7049" d="M256,253l-42.25-5.5l16.307,88.734c0,0,3.666,30.766,25.943,30.766
				s25.943-30.766,25.943-30.766L298.25,247.5L256,253z"/>
			<path id="_x31__175_" fill="#8C5C3C" d="M290,262.5l-69.525,21.592l7.086,38.556c10.66,13.146,26.918,25.187,50.957,26.265
				c2.709-6.691,3.426-12.678,3.426-12.678l12.127-65.99C291.686,265.447,290,262.5,290,262.5z"/>
			<path fill="#FF5F45" d="M226.913,319.124c-0.913,0.543-30.584,18.877-30.58,56.543c0,0-1,10,16-3c0,0-7.175,29.666,1.246,33
				s20.971,7.302,20.971,7.302c2.45-10.968-14.605-76.383-14.605-76.383s1.25-4.957,8.319-10.104L226.913,319.124z"/>
			<path fill="#FF5F45" d="M285.087,319.124c0.913,0.543,30.584,18.877,30.58,56.543c0,0,1,10-16-3c0,0,7.175,29.666-1.246,33
				s-20.971,7.302-20.971,7.302c-2.45-10.968,14.605-76.383,14.605-76.383s-1.25-4.957-8.319-10.104L285.087,319.124z"/>
			<path fill="#BA4632" d="M136.833,412.969c0,0,2.417-31.636,18.75-45.969c0,0,2.709,7,2.709,17L154,388h4
				c0,0-3.333,11.667-6.333,13l6.625-0.333C158,415,136.833,412.969,136.833,412.969z"/>
			<path fill="#BA4632" d="M152.667,367c0,0-17.667,27-15.75,43c0,0-8.208-2.333-8.875-11.333l2.646,1c0,0-5.103-7.334-2.688-11.667
				h5l-3.667-5.667C129.333,382.333,138.667,371.667,152.667,367z"/>
			<path fill="#BA4632" d="M187.653,415.105c0,0,21.863,3.981,30.662,16.402c0,0-5.316,1.353-12.284,0.626l-2.718-3.306
				l-0.291,2.786c0,0-7.642-3.145-8.353-5.331l-0.127,4.652C184.576,429.69,187.653,415.105,187.653,415.105z"/>
			<path fill="#BA4632" d="M218.526,429.476c0,0-17.526-14.27-28.812-14.097c0,0,2.221-5.549,8.539-5.359l-1.132,1.745
				c0,0,5.271-3.044,8.079-1.05l-0.363,3.483l4.458-2.117C209.296,412.081,216.292,419.383,218.526,429.476z"/>
		</g>
		<g id="face_2_">
			<path id="ear_118_" fill="#AB7049" d="M193,215.621c0,0-21.309-13.5-19.104,14.5s19.104,26,19.104,26V215.621z"/>
			<path id="ear_116_" fill="#AB7049" d="M319,215.621c0,0,21.31-13.5,19.104,14.5c-2.204,28-19.104,26-19.104,26V215.621z"/>
			<path id="face_75_" fill="#BA7A50" d="M256,143.383c-63,0-63,34.738-63,34.738s0,59.5,0,80s19.237,36.287,35.226,50
				c13.408,11.5,27.774,11,27.774,11s14.366,0.5,27.774-11c15.988-13.713,35.226-29.5,35.226-50s0-80,0-80S319,143.383,256,143.383z
				"/>
		</g>
		<g id="glasses_10_">
			<path fill="#F6BB42" d="M318.277,229.388c-0.002-0.126-1.259-20.744-27.829-20.744c-1.06,0-2.162,0.033-3.275,0.1
				c-7.819,0.46-13.456,1.534-17.525,2.87c-15.879-5.103-26.326-1.342-29.165-0.061c-4.055-1.308-9.641-2.357-17.343-2.81
				c-1.113-0.066-2.215-0.1-3.275-0.1c-26.57,0-27.827,20.618-27.829,20.744c-0.08,0.596-1.871,14.71,5.669,23.729
				c3.702,4.427,9.011,6.826,15.778,7.129c0.58,0.026,1.149,0.039,1.712,0.039c30.72,0,35.917-38.272,35.956-38.595
				c0.035-0.178,0.233-1.523-0.668-3.305c0.038-0.835,0.242-1.881,0.915-2.706c0.773-0.948,2.038-1.429,3.758-1.429
				c1.709,0,2.954,0.474,3.699,1.409c0.724,0.908,0.863,2.101,0.846,2.976c-0.763,1.656-0.573,2.885-0.54,3.055
				c0.039,0.322,5.235,38.595,35.956,38.595c0.563,0,1.132-0.013,1.712-0.039c6.768-0.303,12.076-2.702,15.778-7.129
				C320.148,244.098,318.356,229.983,318.277,229.388z M260.669,217.045c-0.034,0.044-0.055,0.085-0.088,0.129
				c-0.139-0.721-0.417-1.475-0.939-2.133c-0.944-1.188-2.453-1.791-4.485-1.791c-2.036,0-3.561,0.604-4.533,1.797
				c-0.509,0.624-0.803,1.334-0.965,2.018c-0.005-0.006-0.008-0.013-0.014-0.02c-1.252-1.616-3.543-3.441-7.708-4.989
				c3.667-1.368,12.96-3.78,26.135,0.116C264.103,213.695,261.891,215.469,260.669,217.045z"/>
			<path fill="#434A54" d="M192.978,229.514c0,0,0.991-21.537,30.107-19.823c29.117,1.712,27.134,11.815,27.134,11.815
				s-4.958,39.213-36.693,37.791C189.133,258.203,192.978,229.514,192.978,229.514z"/>
			<path fill="#656D78" d="M250.22,221.506c0,0,1.983-10.104-27.134-11.815c-6.75-0.397-11.972,0.464-16.037,2.009
				c-2.488,4.376-2.678,8.32-2.678,8.32s-3.845,28.688,20.549,29.783c5.864,0.262,10.812-0.865,14.985-2.874
				C248.397,235.899,250.22,221.506,250.22,221.506z"/>
			<path fill="#434A54" d="M317.336,229.514c0,0-0.991-21.537-30.107-19.823c-29.117,1.712-27.134,11.815-27.134,11.815
				s4.958,39.213,36.693,37.791C321.181,258.203,317.336,229.514,317.336,229.514z"/>
			<path fill="#656D78" d="M260.094,221.506c0,0-1.983-10.104,27.134-11.815c6.75-0.397,11.972,0.464,16.037,2.009
				c2.488,4.376,2.677,8.32,2.677,8.32s3.845,28.688-20.549,29.783c-5.864,0.262-10.812-0.865-14.984-2.874
				C261.917,235.899,260.094,221.506,260.094,221.506z"/>
		</g>
		<g id="hair_front_10_">
			<path fill="#434A54" d="M331.5,173.45c3.379-11.585-5.063-16.915-5.652-17.271c0.593-1.369,8.983-21.262-5.181-18.52
				c0,0,4.458-16.781-9.604-13.721c0,0-0.563-15.039-12.813-9.239c0,0-3.752-13.556-15.251-5.628c0,0-5.024-11.462-14.63-2.452
				c-0.416-0.04,2.298-8.954-13.369-9.12c-13-0.5-10.953,9.08-11.369,9.12c-9.606-9.01-14.63,2.452-14.63,2.452
				c-11.499-7.928-15.251,5.628-15.251,5.628c-12.25-5.8-12.813,9.239-12.813,9.239c-14.063-3.061-9.604,13.721-9.604,13.721
				c-14.164-2.742-5.774,17.15-5.181,18.52c-0.589,0.355-9.031,5.686-5.652,17.271c0,0-7.608,7.024,2.446,20.024
				c0,0-5.946,12.768,10.054,22.146V206.5c8,0.5,8-10,8-10c8,1,10-11,10-11c4.5,2.5,9.475-9.5,9.475-9.5
				c8.475,3,8.526-8.498,8.526-8.498C238.502,172.504,246,159,246,159c4.964,4.609,8.41,4.691,10,4.35
				c1.59,0.342,5.036,0.26,10-4.35c0,0,7.498,13.504,16.999,8.502c0,0,0.052,11.498,8.526,8.498c0,0,4.975,12,9.475,9.5
				c0,0,2,12,10,11c0,0,0,10.5,8,10v9.121c16-9.379,10.054-22.146,10.054-22.146C339.108,180.475,331.5,173.45,331.5,173.45z"/>
			<path fill="#656D78" d="M329.054,203.475c0,0,0.114,0.248,0.266,0.688c0.189-0.565,0.341-1.121,0.458-1.663
				C329.545,202.821,329.31,203.145,329.054,203.475z"/>
			<path fill="#656D78" d="M325.848,166.18c0.38,0.229,4.024,2.532,5.659,7.245c2.229-7.675-0.731-12.599-3.149-15.147
				C327.568,162.118,326.085,165.632,325.848,166.18z"/>
			<path fill="#656D78" d="M182.946,203.475c-0.255-0.33-0.491-0.653-0.724-0.976c0.117,0.542,0.27,1.098,0.458,1.663
				C182.832,203.723,182.946,203.475,182.946,203.475z"/>
			<path fill="#656D78" d="M331.523,173.473c0.887,2.586,1.168,5.891-0.023,9.978c0,0,0.977,0.907,1.768,2.665
				C336.129,178.186,331.877,173.816,331.523,173.473z"/>
			<path fill="#656D78" d="M180.5,183.45c-1.192-4.087-0.91-7.392-0.023-9.978c-0.354,0.344-4.605,4.713-1.745,12.643
				C179.523,184.357,180.5,183.45,180.5,183.45z"/>
			<path fill="#656D78" d="M186.152,166.18c-0.237-0.548-1.721-4.062-2.51-7.902c-2.417,2.549-5.377,7.473-3.149,15.147
				C182.128,168.712,185.772,166.409,186.152,166.18z"/>
			<path fill="#656D78" d="M191.333,147.66c0,0-4.458-16.781,9.604-13.721c0,0,0.563-15.039,12.813-9.239
				c0,0,3.752-13.556,15.251-5.628c0,0,5.024-11.462,14.63-2.452C244.047,116.58,242,107,255,107.5
				c15.667,0.166,12.953,9.08,13.369,9.12c9.606-9.01,14.63,2.452,14.63,2.452c11.499-7.928,15.251,5.628,15.251,5.628
				c12.25-5.8,12.813,9.239,12.813,9.239c14.063-3.061,9.604,13.721,9.604,13.721c4.044-0.783,6.245,0.283,7.318,2.232
				c1.558-6.066,1.987-14.034-7.318-12.232c0,0,4.458-16.781-9.604-13.721c0,0-0.563-15.039-12.813-9.239
				c0,0-3.752-13.556-15.251-5.628c0,0-5.024-11.462-14.63-2.452c-0.416-0.04,2.298-8.954-13.369-9.12
				c-13-0.5-10.953,9.08-11.369,9.12c-9.606-9.01-14.63,2.452-14.63,2.452c-11.499-7.928-15.251,5.628-15.251,5.628
				c-12.25-5.8-12.813,9.239-12.813,9.239c-14.063-3.061-9.604,13.721-9.604,13.721c-9.305-1.802-8.876,6.166-7.318,12.232
				C185.088,147.943,187.289,146.877,191.333,147.66z"/>
			<path fill="#272B30" d="M187.487,158.277c0,0,0.294,0.51,0.75,1.419c0.457,0.909,1.087,2.214,1.764,3.806
				c0.697,1.584,1.431,3.458,2.185,5.476c0.742,2.021,1.475,4.195,2.157,6.385c0.675,2.192,1.3,4.399,1.83,6.486
				c0.517,2.091,0.97,4.052,1.289,5.753c0.34,1.695,0.555,3.13,0.691,4.138c0.137,1.009,0.181,1.595,0.181,1.595
				s-0.294-0.509-0.751-1.418c-0.457-0.909-1.09-2.214-1.767-3.805c-0.698-1.585-1.432-3.459-2.185-5.477
				c-0.741-2.021-1.472-4.195-2.153-6.386c-0.674-2.192-1.296-4.4-1.826-6.487c-0.516-2.091-0.969-4.052-1.289-5.754
				c-0.34-1.695-0.556-3.129-0.693-4.137C187.533,158.863,187.487,158.277,187.487,158.277z"/>
			<path fill="#272B30" d="M211,183.334c0,0-0.353-0.593-0.913-1.65c-0.277-0.529-0.623-1.17-0.985-1.916
				c-0.355-0.753-0.857-1.546-1.314-2.45c-0.479-0.895-0.998-1.86-1.505-2.896c-0.517-1.031-1.098-2.129-1.644-3.273
				c-1.113-2.287-2.245-4.751-3.327-7.236c-1.067-2.492-2.077-5.009-2.975-7.389c-0.885-2.387-1.681-4.626-2.296-6.572
				c-0.636-1.939-1.1-3.582-1.411-4.738c-0.312-1.156-0.457-1.83-0.457-1.83s0.387,0.572,1.006,1.597
				c0.62,1.024,1.486,2.497,2.446,4.296c0.98,1.791,2.046,3.913,3.157,6.199c1.1,2.292,2.21,4.763,3.283,7.25
				c1.074,2.487,2.098,4.995,3.007,7.369c0.899,2.366,1.7,4.639,2.312,6.601c0.31,0.978,0.616,1.868,0.789,2.681
				c0.2,0.807,0.344,1.521,0.47,2.105C210.892,182.652,211,183.334,211,183.334z"/>
			<path fill="#272B30" d="M219.333,173.425c0,0-0.362-0.624-0.938-1.737c-0.577-1.112-1.38-2.709-2.265-4.654
				c-0.447-0.971-0.931-2.022-1.403-3.148c-0.48-1.124-1.002-2.304-1.485-3.544c-0.486-1.239-1.029-2.506-1.507-3.819
				c-0.488-1.309-0.983-2.639-1.479-3.97c-0.473-1.339-0.949-2.676-1.389-4.003c-0.458-1.319-0.849-2.641-1.259-3.907
				c-0.8-2.54-1.487-4.934-2.023-7.003c-0.553-2.063-0.946-3.808-1.207-5.033c-0.262-1.227-0.378-1.938-0.378-1.938
				s0.363,0.624,0.94,1.736s1.382,2.709,2.267,4.653c0.901,1.939,1.892,4.224,2.888,6.693c0.488,1.238,1.027,2.507,1.512,3.817
				c0.503,1.304,0.985,2.639,1.472,3.973c0.462,1.342,0.925,2.685,1.381,4.005c0.466,1.317,0.851,2.641,1.263,3.906
				c0.416,1.265,0.762,2.507,1.105,3.68c0.352,1.17,0.646,2.29,0.917,3.324c0.553,2.063,0.947,3.807,1.209,5.032
				S219.333,173.425,219.333,173.425z"/>
			<path fill="#272B30" d="M246,155.046c0,0-0.121-0.573-0.273-1.571c-0.144-1.004-0.439-2.399-0.652-4.053
				c-0.244-1.646-0.485-3.635-0.689-5.73c-0.197-2.104-0.364-4.353-0.469-6.604c-0.101-2.25-0.159-4.504-0.15-6.62
				c0.019-2.116,0.065-4.094,0.178-5.793c0.089-1.697,0.234-3.116,0.351-4.11c0.115-0.993,0.216-1.563,0.216-1.563
				s0.161,0.556,0.38,1.532c0.219,0.977,0.511,2.373,0.774,4.054c0.283,1.679,0.531,3.643,0.759,5.749
				c0.212,2.107,0.38,4.358,0.488,6.612c0.096,2.255,0.147,4.512,0.123,6.632c-0.005,1.061-0.054,2.086-0.088,3.059
				c-0.026,0.974-0.085,1.885-0.158,2.759c-0.14,1.729-0.282,3.15-0.471,4.12C246.138,154.492,246,155.046,246,155.046z"/>
			<path fill="#272B30" d="M228.333,163.358c0,0-0.292-0.605-0.746-1.681s-1.08-2.616-1.75-4.486
				c-0.691-1.865-1.417-4.063-2.162-6.426c-0.732-2.365-1.455-4.904-2.126-7.457c-0.663-2.555-1.276-5.122-1.794-7.544
				c-0.505-2.425-0.946-4.697-1.254-6.662c-0.33-1.96-0.535-3.611-0.664-4.771c-0.129-1.16-0.169-1.831-0.169-1.831
				s0.293,0.605,0.747,1.681c0.454,1.074,1.083,2.615,1.753,4.486c0.691,1.864,1.417,4.062,2.162,6.425
				c0.732,2.366,1.452,4.905,2.122,7.458c0.663,2.555,1.273,5.123,1.791,7.545c0.504,2.426,0.946,4.697,1.255,6.662
				c0.329,1.96,0.536,3.61,0.666,4.77C228.292,162.688,228.333,163.358,228.333,163.358z"/>
			<path fill="#272B30" d="M185.148,195.334c0,0,0.203,0.063,0.509,0.209c0.309,0.144,0.719,0.37,1.166,0.674
				c0.894,0.608,1.872,1.568,2.646,2.671s1.345,2.348,1.61,3.396c0.132,0.524,0.205,0.987,0.233,1.327
				c0.032,0.338,0.021,0.551,0.021,0.551s-0.204-0.063-0.51-0.208c-0.31-0.144-0.721-0.369-1.168-0.673
				c-0.895-0.606-1.871-1.568-2.643-2.673s-1.34-2.352-1.606-3.398c-0.133-0.524-0.206-0.987-0.235-1.326
				C185.139,195.547,185.148,195.334,185.148,195.334z"/>
			<path fill="#272B30" d="M324.513,158.277c0,0-0.045,0.586-0.183,1.594c-0.137,1.008-0.353,2.441-0.693,4.137
				c-0.32,1.702-0.773,3.663-1.289,5.754c-0.53,2.087-1.152,4.295-1.826,6.487c-0.681,2.19-1.412,4.364-2.153,6.386
				c-0.753,2.018-1.487,3.892-2.185,5.477c-0.677,1.591-1.31,2.896-1.767,3.805c-0.457,0.909-0.751,1.418-0.751,1.418
				s0.044-0.586,0.181-1.595c0.136-1.008,0.351-2.442,0.691-4.138c0.319-1.701,0.771-3.662,1.289-5.753
				c0.53-2.087,1.155-4.294,1.83-6.486c0.682-2.189,1.415-4.363,2.157-6.385c0.754-2.018,1.488-3.892,2.185-5.476
				c0.677-1.592,1.308-2.896,1.764-3.806C324.219,158.787,324.513,158.277,324.513,158.277z"/>
			<path fill="#272B30" d="M301,183.334c0,0,0.108-0.682,0.355-1.854c0.126-0.585,0.27-1.299,0.47-2.105
				c0.173-0.813,0.479-1.703,0.789-2.681c0.612-1.962,1.413-4.234,2.312-6.601c0.909-2.374,1.934-4.882,3.007-7.369
				c1.072-2.487,2.183-4.958,3.283-7.25c1.111-2.286,2.177-4.408,3.157-6.199c0.96-1.799,1.826-3.271,2.446-4.296
				c0.62-1.024,1.006-1.597,1.006-1.597s-0.146,0.674-0.457,1.83c-0.311,1.156-0.775,2.799-1.411,4.738
				c-0.616,1.946-1.412,4.186-2.296,6.572c-0.897,2.38-1.908,4.896-2.975,7.389c-1.082,2.485-2.214,4.949-3.327,7.236
				c-0.546,1.145-1.127,2.242-1.644,3.273c-0.507,1.035-1.025,2.001-1.505,2.896c-0.457,0.904-0.958,1.697-1.314,2.45
				c-0.362,0.746-0.708,1.387-0.985,1.916C301.353,182.741,301,183.334,301,183.334z"/>
			<path fill="#272B30" d="M292.667,173.425c0,0,0.117-0.712,0.379-1.938s0.657-2.969,1.209-5.032
				c0.271-1.034,0.566-2.154,0.917-3.324c0.343-1.173,0.689-2.415,1.105-3.68c0.413-1.266,0.797-2.589,1.263-3.906
				c0.456-1.32,0.918-2.663,1.381-4.005c0.486-1.334,0.969-2.669,1.472-3.973c0.485-1.311,1.023-2.579,1.512-3.817
				c0.997-2.47,1.987-4.754,2.888-6.693c0.885-1.944,1.689-3.541,2.267-4.653s0.94-1.736,0.94-1.736s-0.116,0.712-0.378,1.938
				c-0.261,1.226-0.654,2.97-1.207,5.033c-0.537,2.069-1.224,4.463-2.023,7.003c-0.41,1.267-0.8,2.588-1.259,3.907
				c-0.44,1.327-0.916,2.664-1.389,4.003c-0.496,1.331-0.991,2.661-1.479,3.97c-0.478,1.313-1.021,2.58-1.507,3.819
				c-0.483,1.24-1.005,2.42-1.485,3.544c-0.472,1.126-0.957,2.178-1.403,3.148c-0.885,1.945-1.688,3.542-2.265,4.654
				C293.028,172.801,292.667,173.425,292.667,173.425z"/>
			<path fill="#272B30" d="M266,155.046c0,0-0.138-0.554-0.319-1.528c-0.189-0.97-0.332-2.392-0.471-4.12
				c-0.073-0.874-0.132-1.785-0.158-2.759c-0.035-0.973-0.083-1.998-0.088-3.059c-0.024-2.12,0.027-4.377,0.123-6.632
				c0.108-2.254,0.276-4.505,0.488-6.612c0.228-2.106,0.477-4.07,0.759-5.749c0.263-1.681,0.556-3.077,0.774-4.054
				c0.219-0.977,0.38-1.532,0.38-1.532s0.101,0.57,0.216,1.563c0.117,0.994,0.261,2.413,0.351,4.11
				c0.113,1.699,0.159,3.677,0.178,5.793c0.009,2.116-0.049,4.37-0.15,6.62c-0.104,2.251-0.272,4.5-0.469,6.604
				c-0.204,2.096-0.445,4.084-0.689,5.73c-0.212,1.653-0.508,3.049-0.652,4.053C266.121,154.473,266,155.046,266,155.046z"/>
			<path fill="#272B30" d="M283.667,163.358c0,0,0.041-0.671,0.171-1.831c0.13-1.159,0.336-2.81,0.666-4.77
				c0.309-1.965,0.75-4.236,1.255-6.662c0.518-2.422,1.128-4.99,1.791-7.545c0.67-2.553,1.39-5.092,2.122-7.458
				c0.745-2.363,1.471-4.561,2.162-6.425c0.67-1.871,1.299-3.412,1.753-4.486c0.454-1.075,0.747-1.681,0.747-1.681
				s-0.04,0.671-0.169,1.831c-0.129,1.159-0.334,2.811-0.664,4.771c-0.308,1.965-0.749,4.237-1.254,6.662
				c-0.518,2.422-1.131,4.989-1.794,7.544c-0.671,2.553-1.394,5.092-2.126,7.457c-0.746,2.363-1.471,4.561-2.162,6.426
				c-0.67,1.87-1.297,3.411-1.75,4.486S283.667,163.358,283.667,163.358z"/>
			<path fill="#272B30" d="M326.852,195.334c0,0,0.01,0.213-0.022,0.55c-0.03,0.339-0.103,0.802-0.235,1.326
				c-0.267,1.047-0.835,2.294-1.606,3.398s-1.748,2.066-2.643,2.673c-0.447,0.304-0.858,0.529-1.168,0.673
				c-0.306,0.146-0.51,0.208-0.51,0.208s-0.011-0.213,0.021-0.551c0.028-0.34,0.101-0.803,0.233-1.327
				c0.265-1.049,0.835-2.294,1.61-3.396s1.752-2.063,2.646-2.671c0.447-0.304,0.857-0.53,1.166-0.674
				C326.648,195.397,326.852,195.334,326.852,195.334z"/>
		</g>
	</g>
	<g id="avatar16">
		<g id="back_28_">
		</g>
		<g id="hair_back_9_">
		</g>
		<g id="clothes_1_">
		</g>
		<g id="face_1_">
		</g>
		<g id="hair_front_9_">
		</g>
	</g>
	<g id="avatar15">
		<g id="back_5_">
		</g>
		<g id="clothes_6_">
		</g>
		<g id="face_29_">
		</g>
		<g id="glasses_4_">
		</g>
		<g id="hair_8_">
		</g>
	</g>
	<g id="avatar14">
		<g id="back_6_">
		</g>
		<g id="clothes_7_">
		</g>
		<g id="face_42_">
		</g>
		<g id="earings_3_">
		</g>
		<g id="hair_9_">
		</g>
	</g>
	<g id="avatar13">
		<g id="back_7_">
		</g>
		<g id="clothes_8_">
		</g>
		<g id="face_43_">
		</g>
		<g id="glasses_5_">
		</g>
		<g id="hair_10_">
		</g>
	</g>
	<g id="avatar12">
		<g id="back_8_">
		</g>
		<g id="clothes_9_">
		</g>
		<g id="face_44_">
		</g>
		<g id="beard_6_">
		</g>
		<g id="hair_11_">
		</g>
	</g>
	<g id="avatar11">
		<g id="back_9_">
		</g>
		<g id="clothes_10_">
		</g>
		<g id="face_45_">
		</g>
		<g id="glass">
		</g>
		<g id="hair_12_">
		</g>
	</g>
	<g id="avatar10">
		<g id="back_10_">
		</g>
		<g id="clothes_11_">
		</g>
		<g id="face_46_">
		</g>
		<g id="beard_7_">
		</g>
		<g id="glasses_6_">
		</g>
		<g id="hair_13_">
		</g>
	</g>
	<g id="avatar9">
		<g id="back_11_">
		</g>
		<g id="clothes_12_">
		</g>
		<g id="face_47_">
		</g>
		<g id="glasses_3_">
		</g>
		<g id="hair_7_">
		</g>
	</g>
	<g id="avatar8">
		<g id="back_12_">
		</g>
		<g id="clothes_13_">
		</g>
		<g id="face_48_">
		</g>
		<g id="beard_5_">
		</g>
		<g id="glasses_7_">
		</g>
		<g id="hair_6_">
		</g>
	</g>
	<g id="avatar7">
		<g id="back_4_">
		</g>
		<g id="clothes_14_">
		</g>
		<g id="face_11_">
		</g>
		<g id="hair_14_">
		</g>
	</g>
	<g id="avatar6">
		<g id="back_13_">
		</g>
		<g id="clothes_15_">
		</g>
		<g id="face_16_">
		</g>
		<g id="glasses_2_">
		</g>
		<g id="beard_4_">
		</g>
		<g id="hair_5_">
		</g>
	</g>
	<g id="avatar5">
		<g id="back_14_">
		</g>
		<g id="clothes_5_">
		</g>
		<g id="face_38_">
		</g>
		<g id="beard_3_">
		</g>
		<g id="hair_4_">
		</g>
	</g>
	<g id="avatar4">
		<g id="back_3_">
		</g>
		<g id="clothes_4_">
		</g>
		<g id="face_13_">
		</g>
		<g id="beard_2_">
		</g>
		<g id="glasses_1_">
		</g>
		<g id="hair_3_">
		</g>
	</g>
	<g id="avatar3">
		<g id="back_15_">
		</g>
		<g id="clothes_16_">
		</g>
		<g id="face_49_">
		</g>
		<g id="hair_15_">
		</g>
	</g>
	<g id="avatar2">
		<g id="back_2_">
		</g>
		<g id="clothes_3_">
		</g>
		<g id="face_9_">
		</g>
		<g id="beard_1_">
		</g>
		<g id="hair_2_">
		</g>
	</g>
	<g id="avatar1">
		<g id="back_1_">
		</g>
		<g id="clothes_2_">
		</g>
		<g id="face_6_">
		</g>
		<g id="hair_1_">
		</g>
	</g>
</g>
</svg>
