<?xml version="1.0" encoding="iso-8859-1"?>
<!-- Generator: Adobe Illustrator 16.0.3, SVG Export Plug-In . SVG Version: 6.00 Build 0)  -->
<!DOCTYPE svg PUBLIC "-//W3C//DTD SVG 1.1 Basic//EN" "http://www.w3.org/Graphics/SVG/1.1/DTD/svg11-basic.dtd">
<svg version="1.1" baseProfile="basic" xmlns="http://www.w3.org/2000/svg" xmlns:xlink="http://www.w3.org/1999/xlink" x="0px"
	 y="0px" width="512px" height="512px" viewBox="0 0 512 512" xml:space="preserve">
<g id="Layer_159" display="none">
	<rect x="512" y="512" display="inline" fill="#FFFFFF" width="512" height="512"/>
	<rect y="512" display="inline" fill="#FFFFFF" width="512" height="512"/>
	<rect x="-512" y="512" display="inline" fill="#FFFFFF" width="512" height="512"/>
	<rect x="512" display="inline" fill="#FFFFFF" width="512" height="512"/>
	<rect x="512" y="-512" display="inline" fill="#FFFFFF" width="512" height="512"/>
	<rect y="-512" display="inline" fill="#FFFFFF" width="512" height="512"/>
	<rect x="-512" y="-512" display="inline" fill="#FFFFFF" width="512" height="512"/>
	<rect display="inline" fill="#FFFFFF" width="512" height="512"/>
	<rect x="-512" display="inline" fill="#FFFFFF" width="512" height="512"/>
</g>
<g id="female" display="none">
	<g id="avatar15_1_" display="inline">
		<g id="baclk">
		</g>
		<g id="hair_back_8_">
		</g>
		<g id="clothes_30_">
		</g>
		<g id="face_98_">
		</g>
		<g id="hair_front_8_">
		</g>
	</g>
	<g id="avatar14_1_" display="inline">
		<g id="back_16_">
		</g>
		<g id="hair_back">
		</g>
		<g id="clothes_17_">
		</g>
		<g id="face_57_">
		</g>
		<g id="hair_front">
		</g>
	</g>
	<g id="avatar13_1_" display="inline">
		<g id="back_x27_">
		</g>
		<g id="clothes">
		</g>
		<g id="face">
		</g>
		<g id="hair">
		</g>
	</g>
	<g id="avatar12_1_" display="inline">
		<g id="back_27_">
		</g>
		<g id="clothes_29_">
		</g>
		<g id="face_97_">
		</g>
		<g id="hair_20_">
		</g>
	</g>
	<g id="avatar11_1_" display="inline">
		<g id="back_26_">
		</g>
		<g id="clothes_28_">
		</g>
		<g id="face_95_">
		</g>
		<g id="hair_19_">
		</g>
	</g>
	<g id="avatar10_1_" display="inline">
		<g id="back_25_">
		</g>
		<g id="clothes_27_">
		</g>
		<g id="face_94_">
		</g>
		<g id="glasses_11_">
		</g>
		<g id="hair_18_">
		</g>
	</g>
	<g id="avatar9_1_" display="inline">
		<g id="back_24_">
		</g>
		<g id="clothes_26_">
		</g>
		<g id="face_92_">
		</g>
		<g id="hair_17_">
		</g>
	</g>
	<g id="avatar8_1_" display="inline">
		<g id="back_23_">
		</g>
		<g id="hair_back_7_">
		</g>
		<g id="clothes_25_">
		</g>
		<g id="face_91_">
		</g>
		<g id="hair_front_7_">
		</g>
	</g>
	<g id="avatar7_1_" display="inline">
		<g id="back_22_">
		</g>
		<g id="clothes_24_">
		</g>
		<g id="face_90_">
		</g>
		<g id="necklace_1_">
		</g>
		<g id="earings_1_">
		</g>
		<g id="hair_16_">
		</g>
	</g>
	<g id="avatar6_1_" display="inline">
		<g id="back_21_">
		</g>
		<g id="hair_back_6_">
		</g>
		<g id="clothes_23_">
		</g>
		<g id="face_89_">
		</g>
		<g id="glasses_12_">
		</g>
		<g id="hair_front_6_">
		</g>
	</g>
	<g id="avatar5_1_" display="inline">
		<g id="back_20_">
		</g>
		<g id="hair_back_5_">
		</g>
		<g id="clothes_22_">
		</g>
		<g id="face_88_">
		</g>
		<g id="glasses_9_">
		</g>
		<g id="hair_front_5_">
		</g>
	</g>
	<g id="avatar4_1_" display="inline">
		<g id="back_19_">
		</g>
		<g id="hair_back_4_">
		</g>
		<g id="clothes_21_">
		</g>
		<g id="face_87_">
		</g>
		<g id="earing_1_">
		</g>
		<g id="hair_front_4_">
		</g>
	</g>
	<g id="avatar3_1_" display="inline">
		<g id="back_18_">
		</g>
		<g id="hair_back_3_">
		</g>
		<g id="clothes_20_">
		</g>
		<g id="face_86_">
		</g>
		<g id="earings">
		</g>
		<g id="glasses_8_">
		</g>
		<g id="hair_front_3_">
		</g>
	</g>
	<g id="avatar2_1_" display="inline">
		<g id="Layebackr_167">
		</g>
		<g id="hair_back_2_">
		</g>
		<g id="clothes_19_">
		</g>
		<g id="necklace">
		</g>
		<g id="face_85_">
		</g>
		<g id="hair_front_2_">
		</g>
	</g>
	<g id="avatar1_1_" display="inline">
		<g id="back_17_">
		</g>
		<g id="hair_back_1_">
		</g>
		<g id="clothes_18_">
		</g>
		<g id="face_84_">
		</g>
		<g id="hair_front_1_">
		</g>
	</g>
</g>
<g id="male">
	<g id="avatar20">
		<g id="back_32_">
		</g>
		<g id="clothes_34_">
		</g>
		<g id="face_100_">
		</g>
		<g id="hair_22_">
		</g>
	</g>
	<g id="avatar19">
		<g id="back_31_">
		</g>
		<g id="clothes_33_">
		</g>
		<g id="face_99_">
		</g>
		<g id="scaft">
		</g>
		<g id="hat">
		</g>
	</g>
	<g id="avatar18">
		<g id="back_30_">
		</g>
		<g id="clothes_32_">
		</g>
		<g id="face_55_">
		</g>
		<g id="earings_2_">
		</g>
		<g id="hair_21_">
		</g>
	</g>
	<g id="avatar17">
		<g id="back_29_">
		</g>
		<g id="hair_back_10_">
		</g>
		<g id="clothes_31_">
		</g>
		<g id="face_2_">
		</g>
		<g id="glasses_10_">
		</g>
		<g id="hair_front_10_">
		</g>
	</g>
	<g id="avatar16">
		<g id="back_28_">
		</g>
		<g id="hair_back_9_">
		</g>
		<g id="clothes_1_">
		</g>
		<g id="face_1_">
		</g>
		<g id="hair_front_9_">
		</g>
	</g>
	<g id="avatar15">
		<g id="back_5_">
		</g>
		<g id="clothes_6_">
		</g>
		<g id="face_29_">
		</g>
		<g id="glasses_4_">
		</g>
		<g id="hair_8_">
		</g>
	</g>
	<g id="avatar14">
		<g id="back_6_">
		</g>
		<g id="clothes_7_">
		</g>
		<g id="face_42_">
		</g>
		<g id="earings_3_">
		</g>
		<g id="hair_9_">
		</g>
	</g>
	<g id="avatar13">
		<g id="back_7_">
		</g>
		<g id="clothes_8_">
		</g>
		<g id="face_43_">
		</g>
		<g id="glasses_5_">
		</g>
		<g id="hair_10_">
		</g>
	</g>
	<g id="avatar12">
		<g id="back_8_">
		</g>
		<g id="clothes_9_">
		</g>
		<g id="face_44_">
		</g>
		<g id="beard_6_">
		</g>
		<g id="hair_11_">
		</g>
	</g>
	<g id="avatar11">
		<g id="back_9_">
		</g>
		<g id="clothes_10_">
		</g>
		<g id="face_45_">
		</g>
		<g id="glass">
		</g>
		<g id="hair_12_">
		</g>
	</g>
	<g id="avatar10">
		<g id="back_10_">
		</g>
		<g id="clothes_11_">
		</g>
		<g id="face_46_">
		</g>
		<g id="beard_7_">
		</g>
		<g id="glasses_6_">
		</g>
		<g id="hair_13_">
		</g>
	</g>
	<g id="avatar9">
		<g id="back_11_">
			<circle fill="#3BAFDA" cx="256" cy="256" r="200"/>
		</g>
		<g id="clothes_12_">
			<path id="_x31_6_4_" fill="#434A54" d="M269.375,382.375l1.775-0.877c0.062-0.486,0.1-0.748,0.1-0.748
				c3.377-10.014,5.268-19.758,6.564-27.933c1.239-7.811,2.866-17.985,2.866-17.985l0,0C266.756,332.68,256,331.001,256,331.001
				s-10.756,1.679-24.681,3.831l0,0c0,0,1.627,10.175,2.866,17.985c1.297,8.175,3.188,17.919,6.564,27.933
				c0,0,0.038,0.262,0.1,0.748l1.775,0.877c0,0,6.699,52.506-9.259,73.343C240.797,456.555,248.346,457,256,457
				s15.203-0.445,22.634-1.282C262.676,434.881,269.375,382.375,269.375,382.375z"/>
			<path id="_x31_5_5_" fill="#656D78" d="M291.887,337.751l0.213-1.158c-18.998-2.923-36.1-5.592-36.1-5.592
				s-17.038,2.659-35.993,5.575l0.216,1.175C221.969,351.523,231.607,377,256.055,377C280.5,377,290.141,351.523,291.887,337.751z"
				/>
			<path id="_x31_4_7_" fill="#F5F7FA" d="M240.85,381.498l-30.501,70.263c7.518,1.755,15.201,3.076,23.018,3.957
				c15.958-20.837,9.259-73.343,9.259-73.343L240.85,381.498z"/>
			<path id="_x31_3_7_" fill="#F9E0A8" d="M256,253l-42.25-5.5l16.307,88.734c0,0,3.666,30.766,25.943,30.766
				s25.943-30.766,25.943-30.766L298.25,247.5L256,253z"/>
			<path id="_x31_2_9_" fill="#D9C392" d="M290,262.5l-69.525,21.592l7.086,38.556c10.66,13.146,26.918,25.187,50.957,26.265
				c2.709-6.691,3.426-12.678,3.426-12.678l12.127-65.99C291.686,265.447,290,262.5,290,262.5z"/>
			<path id="_x31_1_9_" fill="#F5F7FA" d="M171.75,363.25l44.941-7.51c-1.43-7.397-2.627-14.433-3.243-18.156
				c-19.877,3.047-39.954,6.075-43.45,6.417c-11.302,1.104-23.313,9.311-30.666,15.666c-13.417,11.598-20.781,25.84-24.795,38.712
				c15.455,15.465,33.432,28.405,53.258,38.161C185.727,406.703,171.75,363.25,171.75,363.25z"/>
			<path id="_x31_0_18_" fill="#DA4453" d="M214.588,344.275c-14.678,2.179-42.791,6.431-46.79,7.62
				c-4.321,1.284-32.977,19.604-42.399,56.565c1.979,1.707,3.99,3.375,6.035,5.004c7.719-35.584,34.975-53.808,38.358-54.86
				c3.068-0.911,26.831-4.587,46.035-7.438C215.373,348.713,214.955,346.375,214.588,344.275z"/>
			<path id="_x39__21_" fill="#DA4453" d="M223.207,380.994c-1.972-3.451-4.479-14.716-6.516-25.254l-44.941,7.51
				c0,0,13.977,43.453-3.955,73.29c19.665,9.676,41.149,16.22,63.804,18.976c14.554-27.117,10.016-68.021,9.251-74.018
				C230.516,387.228,223.207,380.994,223.207,380.994z"/>
			<path id="_x38__27_" fill="#ED5565" d="M240.75,380.75c-3.377-10.014-5.268-19.758-6.564-27.933
				c-1.239-7.811-2.866-17.985-2.866-17.985s-1.319-2.707-9.694-0.957s-8.177,3.709-8.177,3.709
				c0.616,3.724,1.813,10.759,3.243,18.156c2.036,10.538,4.544,21.803,6.516,25.254c0,0,7.309,6.233,17.643,0.504
				C240.788,381.012,240.75,380.75,240.75,380.75z"/>
			<path id="_x37__47_" fill="#F5F7FA" d="M224.544,333.405c-0.605,0.065-1.276,0.168-1.99,0.297
				c1.037,24.145,6.195,41.612,9.34,50.212c0.666,0.01,1.362-0.023,2.088-0.109C230.916,375.576,225.572,357.998,224.544,333.405z"
				/>
			<path id="_x36__58_" fill="#F5F7FA" d="M271.15,381.498l30.501,70.263c-7.518,1.755-15.201,3.076-23.018,3.957
				c-15.958-20.837-9.259-73.343-9.259-73.343L271.15,381.498z"/>
			<path id="_x35__63_" fill="#F5F7FA" d="M340.25,363.25l-44.941-7.51c1.43-7.397,2.627-14.433,3.243-18.156
				c19.877,3.047,39.954,6.075,43.45,6.417c11.302,1.104,23.313,9.311,30.666,15.666c13.417,11.598,20.781,25.84,24.795,38.712
				c-15.455,15.465-33.432,28.405-53.258,38.161C326.273,406.703,340.25,363.25,340.25,363.25z"/>
			<path id="_x34__81_" fill="#DA4453" d="M288.793,380.994c1.972-3.451,4.479-14.716,6.516-25.254l44.941,7.51
				c0,0-13.977,43.453,3.955,73.29c-19.665,9.676-41.149,16.22-63.804,18.976c-14.554-27.117-10.016-68.021-9.251-74.018
				C281.484,387.228,288.793,380.994,288.793,380.994z"/>
			<path id="_x33__87_" fill="#ED5565" d="M271.25,380.75c3.377-10.014,5.268-19.758,6.564-27.933
				c1.239-7.811,2.866-17.985,2.866-17.985s1.319-2.707,9.694-0.957s8.177,3.709,8.177,3.709
				c-0.616,3.724-1.813,10.759-3.243,18.156c-2.036,10.538-4.544,21.803-6.516,25.254c0,0-7.309,6.233-17.643,0.504
				C271.212,381.012,271.25,380.75,271.25,380.75z"/>
			<path id="_x32__97_" fill="#F5F7FA" d="M287.456,333.405c0.605,0.065,1.276,0.168,1.99,0.297
				c-1.037,24.145-6.195,41.612-9.34,50.212c-0.666,0.01-1.362-0.023-2.088-0.109C281.084,375.576,286.428,357.998,287.456,333.405z
				"/>
			<path id="_x31__111_" fill="#DA4453" d="M297.412,344.275c14.678,2.179,42.791,6.431,46.79,7.62
				c4.321,1.284,32.977,19.604,42.399,56.565c-1.979,1.707-3.99,3.375-6.035,5.004c-7.719-35.584-34.975-53.808-38.358-54.86
				c-3.068-0.911-26.831-4.587-46.035-7.438C296.627,348.713,297.045,346.375,297.412,344.275z"/>
		</g>
		<g id="face_47_">
			<path id="ear_155_" fill="#F9E0A8" d="M193,215.621c0,0-21.309-13.5-19.104,14.5s19.104,26,19.104,26V215.621z"/>
			<path id="ear_152_" fill="#F9E0A8" d="M319,215.621c0,0,21.31-13.5,19.104,14.5c-2.204,28-19.104,26-19.104,26V215.621z"/>
			<path id="face_93_" fill="#FFE9BA" d="M256,143.383c-63,0-63,34.738-63,34.738s0,59.5,0,80s19.237,36.287,35.226,50
				c13.408,11.5,27.774,11,27.774,11s14.366,0.5,27.774-11c15.988-13.713,35.226-29.5,35.226-50s0-80,0-80S319,143.383,256,143.383z
				"/>
		</g>
		<g id="glasses_3_">
			<path id="_x37__45_" fill="#434A54" d="M319.206,215.354l-16.202-2.394l0.077,0.04c-0.001,0-0.003,0-0.005,0
				c-3.221,0-9.457-0.798-14.122-0.816c-1.396-0.006-2.366,0.016-2.597,0.02c-0.23-0.006-1.2-0.017-2.596-0.021
				c-4.663-0.019-10.898,0.1-14.124,0.736c-2.313,0.459-5.624,1.432-7.643,4.561c-0.06,0.093-0.116,0.19-0.173,0.285
				c-0.521,0.182-1.1,0.47-1.673,0.925c-1.789,1.42-1.603,1.212-4.128,1.212c-2.523,0-2.358,0.21-4.149-1.21
				c-0.58-0.462-1.168-0.751-1.697-0.933c-0.056-0.094-0.11-0.186-0.169-0.277c-2.02-3.129-5.329-4.101-7.643-4.559
				c-3.226-0.639-9.461-0.752-14.124-0.734c-1.396,0.005-2.364,0.021-2.596,0.027c-0.23-0.004-1.2-0.037-2.596-0.031
				c-4.665,0.019-10.902,0.816-14.124,0.816c0,0-0.003,0-0.005,0l0.078-0.04l-16.202,2.382l-0.947,7.052
				c0,0,1.991,2.128,5.024,1.265c1.03-0.293,2.016,0.996,2.614,2.014c-0.002,0.401,0.002,0.813,0.015,1.24
				c0.06,2.016,1.466,10.329,4.852,16.624c1.911,3.552,4.167,5.271,8.892,6.97c4.555,1.637,9.411,1.966,12.552,1.954
				c3.151-0.012,7.86-0.378,12.396-2.05c4.696-1.73,6.773-3.465,8.658-7.034c2.752-5.207,4.362-11.791,4.866-15.067
				c1.807-2.83,4.306-2.6,4.306-2.6s2.457-0.229,4.256,2.552c0.495,3.259,2.108,9.882,4.874,15.115
				c1.885,3.569,3.962,5.304,8.657,7.035c4.536,1.671,9.244,2.037,12.397,2.049c3.14,0.012,7.996-0.317,12.552-1.954
				c4.724-1.698,6.979-3.417,8.89-6.969c3.387-6.295,4.793-14.609,4.853-16.623c0.014-0.428,0.016-0.838,0.016-1.24
				c0.598-1.018,1.583-2.305,2.612-2.012c3.034,0.862,5.024-1.262,5.024-1.262L319.206,215.354z"/>
			<path id="_x36__56_" fill="#31363D" d="M241.75,216.019c-4.453-0.882-16.094-0.647-16.094-0.647s-11.65-0.146-16.096,0.769
				c-5.476,1.126-7.104,3.89-6.904,10.682c0.15,5.124,0.996,11.278,3.374,15.697c3.333,6.196,12.389,8.232,19.759,8.205
				c7.417-0.028,16.247-2.132,19.534-8.354c2.345-4.437,3.296-10.597,3.408-15.723C248.881,219.854,247.234,217.104,241.75,216.019z
				"/>
			<path id="_x35__61_" fill="#31363D" d="M302.44,216.14c-4.446-0.915-16.096-0.769-16.096-0.769s-11.641-0.234-16.095,0.647
				c-5.482,1.085-7.129,3.835-6.98,10.629c0.111,5.126,1.064,11.286,3.408,15.723c3.286,6.222,12.116,8.325,19.534,8.354
				c7.37,0.027,16.426-2.009,19.76-8.205c2.377-4.419,3.223-10.573,3.373-15.697C309.544,220.029,307.915,217.266,302.44,216.14z"/>
			<path id="_x34__79_" fill="#656D78" d="M226.92,215.354l-17.897,30.686c2.735,2.213,6.467,3.516,10.307,4.162l20.119-34.496
				C235.431,215.318,229.489,215.328,226.92,215.354z"/>
			<path id="_x33__85_" fill="#7C8694" d="M243.613,216.503l-19.927,34.166c0.711,0.035,1.415,0.058,2.103,0.055
				c0.836-0.003,1.691-0.037,2.553-0.096l18.634-31.949C246.181,217.698,245.085,216.997,243.613,216.503z"/>
			<path id="_x32__95_" fill="#656D78" d="M286.345,215.371c0,0-1.882-0.038-4.421-0.025l-15.476,26.535
				c0.079,0.16,0.147,0.333,0.229,0.489c1.67,3.161,4.773,5.256,8.394,6.559l19.517-33.464
				C290.368,215.32,286.345,215.371,286.345,215.371z"/>
			<path id="_x31__109_" fill="#7C8694" d="M302.44,216.14c-0.885-0.183-2.058-0.321-3.364-0.429l-20.016,34.316
				c1.42,0.284,2.865,0.474,4.293,0.582l19.98-34.26C303.047,216.274,302.752,216.203,302.44,216.14z"/>
		</g>
		<g id="hair_7_">
			<path id="_x31_4_3_" fill="#FFCE54" d="M207.6,289.314c-0.536,9.611,0.734,21.006,7.149,30.686c0,0-2.338-10.832,0.362-20.257
				c-0.158-1.226-0.277-2.348-0.363-3.341C212.273,294.107,209.865,291.748,207.6,289.314z"/>
			<path id="_x31_3_3_" fill="#F6BB42" d="M224.262,304.81c-2.781-2.384-5.61-4.833-8.379-7.36c-0.38-0.348-0.758-0.697-1.135-1.047
				c0.086,0.993,0.205,2.115,0.363,3.341c1.101,8.511,4.186,21.941,12.859,30.757C227.971,330.5,222.332,314.336,224.262,304.81z"/>
			<path id="_x31_2_12_" fill="#FFCE54" d="M297.303,295.785c-0.09,1.134-0.225,2.473-0.416,3.958
				c2.7,9.425,0.362,20.257,0.362,20.257c6.573-9.917,7.747-21.638,7.108-31.393C302.136,291.072,299.757,293.462,297.303,295.785z"
				/>
			<path id="_x31_1_5_" fill="#F6BB42" d="M295.949,297.052c-2.729,2.53-5.531,4.983-8.301,7.369
				c2.172,9.468-3.621,26.079-3.621,26.079c8.674-8.815,11.759-22.246,12.859-30.757c0.191-1.485,0.326-2.824,0.416-3.958
				C296.854,296.209,296.402,296.631,295.949,297.052z"/>
			<path id="_x31_0_16_" fill="#FFCE54" d="M319.623,136.75l-0.012,0.022C315.72,120.681,343.681,60,256.181,60
				s-59.939,60.874-63.656,77.027l-0.147-0.277c-18,18.333,0.804,78.75,0.804,78.75s0-1.499,5.667-9.499
				c3.348-4.726,3.67-22.01,3.374-35.369c20.382,17.201,53.959,28.868,53.959,28.868s33.176-11.576,53.591-28.561
				c-0.284,13.316,0.06,30.372,3.381,35.062c5.667,8,5.667,9.499,5.667,9.499S337.623,155.083,319.623,136.75z"/>
			<path id="_x39__24_" fill="#FFD56B" d="M201.786,193.033l-15.803-10.367c0.768,5.524,1.765,10.826,2.772,15.497l12.226,1.378
				C201.325,197.611,201.589,195.408,201.786,193.033z"/>
			<path id="_x38__35_" fill="#F6BB42" d="M184.624,167.156c0.107,3.884,0.424,7.84,0.878,11.736l16.716,5.976
				c0.047-1.677,0.073-3.376,0.084-5.071L184.624,167.156z"/>
			<path id="_x37__67_" fill="#FFD56B" d="M276.077,61.675C270.214,60.596,263.624,60,256.181,60c-7.44,0-14.03,0.598-19.896,1.677
				c-0.845,37.997,3.625,82.637,19.637,137.595c0.156,0.137,0.26,0.229,0.26,0.229s0.104-0.092,0.26-0.231
				C272.453,144.31,276.923,99.67,276.077,61.675z"/>
			<path id="_x36__77_" fill="#F6BB42" d="M249.409,196.93c0,0-54.087-53.264-28.754-130.93
				C220.655,66,149.97,113.193,249.409,196.93z"/>
			<path id="_x35__83_" fill="#FFD56B" d="M202.222,170.632c0,0-9.273-13.159-9.845-33.882
				C192.377,136.75,178.362,155.071,202.222,170.632z"/>
			<path id="_x34__99_" fill="#F6BB42" d="M262.591,196.93c0,0,54.087-53.264,28.754-130.93
				C291.345,66,362.03,113.193,262.591,196.93z"/>
			<path id="_x33__111_" fill="#FFD56B" d="M309.778,170.632c0,0,9.273-13.159,9.845-33.882
				C319.623,136.75,333.638,155.071,309.778,170.632z"/>
			<path id="_x32__125_" fill="#FFD56B" d="M310.214,193.033l15.803-10.367c-0.768,5.524-1.765,10.826-2.772,15.497l-12.226,1.378
				C310.675,197.611,310.411,195.408,310.214,193.033z"/>
			<path id="_x31__142_" fill="#F6BB42" d="M327.376,167.156c-0.107,3.884-0.424,7.84-0.878,11.736l-16.716,5.976
				c-0.047-1.677-0.073-3.376-0.084-5.071L327.376,167.156z"/>
		</g>
	</g>
	<g id="avatar8">
		<g id="back_12_">
		</g>
		<g id="clothes_13_">
		</g>
		<g id="face_48_">
		</g>
		<g id="beard_5_">
		</g>
		<g id="glasses_7_">
		</g>
		<g id="hair_6_">
		</g>
	</g>
	<g id="avatar7">
		<g id="back_4_">
		</g>
		<g id="clothes_14_">
		</g>
		<g id="face_11_">
		</g>
		<g id="hair_14_">
		</g>
	</g>
	<g id="avatar6">
		<g id="back_13_">
		</g>
		<g id="clothes_15_">
		</g>
		<g id="face_16_">
		</g>
		<g id="glasses_2_">
		</g>
		<g id="beard_4_">
		</g>
		<g id="hair_5_">
		</g>
	</g>
	<g id="avatar5">
		<g id="back_14_">
		</g>
		<g id="clothes_5_">
		</g>
		<g id="face_38_">
		</g>
		<g id="beard_3_">
		</g>
		<g id="hair_4_">
		</g>
	</g>
	<g id="avatar4">
		<g id="back_3_">
		</g>
		<g id="clothes_4_">
		</g>
		<g id="face_13_">
		</g>
		<g id="beard_2_">
		</g>
		<g id="glasses_1_">
		</g>
		<g id="hair_3_">
		</g>
	</g>
	<g id="avatar3">
		<g id="back_15_">
		</g>
		<g id="clothes_16_">
		</g>
		<g id="face_49_">
		</g>
		<g id="hair_15_">
		</g>
	</g>
	<g id="avatar2">
		<g id="back_2_">
		</g>
		<g id="clothes_3_">
		</g>
		<g id="face_9_">
		</g>
		<g id="beard_1_">
		</g>
		<g id="hair_2_">
		</g>
	</g>
	<g id="avatar1">
		<g id="back_1_">
		</g>
		<g id="clothes_2_">
		</g>
		<g id="face_6_">
		</g>
		<g id="hair_1_">
		</g>
	</g>
</g>
</svg>
