<?xml version="1.0" encoding="iso-8859-1"?>
<!-- Generator: Adobe Illustrator 16.0.3, SVG Export Plug-In . SVG Version: 6.00 Build 0)  -->
<!DOCTYPE svg PUBLIC "-//W3C//DTD SVG 1.1 Basic//EN" "http://www.w3.org/Graphics/SVG/1.1/DTD/svg11-basic.dtd">
<svg version="1.1" baseProfile="basic" xmlns="http://www.w3.org/2000/svg" xmlns:xlink="http://www.w3.org/1999/xlink" x="0px"
	 y="0px" width="512px" height="512px" viewBox="0 0 512 512" xml:space="preserve">
<g id="Layer_159" display="none">
	<rect x="512" display="inline" fill="#FFFFFF" width="512" height="512"/>
	<rect display="inline" fill="#FFFFFF" width="512" height="512"/>
	<rect x="-512" display="inline" fill="#FFFFFF" width="512" height="512"/>
	<rect x="512" y="512" display="inline" fill="#FFFFFF" width="512" height="512"/>
	<rect y="512" display="inline" fill="#FFFFFF" width="512" height="512"/>
	<rect x="-512" y="512" display="inline" fill="#FFFFFF" width="512" height="512"/>
</g>
<g id="female" display="none">
	<g id="avatar15_1_" display="inline">
		<g id="baclk">
		</g>
		<g id="hair_back_8_">
		</g>
		<g id="clothes_30_">
		</g>
		<g id="face_98_">
		</g>
		<g id="hair_front_8_">
		</g>
	</g>
	<g id="avatar14_1_" display="inline">
		<g id="back_16_">
		</g>
		<g id="hair_back">
		</g>
		<g id="clothes_17_">
		</g>
		<g id="face_57_">
		</g>
		<g id="hair_front">
		</g>
	</g>
	<g id="avatar13_1_" display="inline">
		<g id="back_x27_">
		</g>
		<g id="clothes">
		</g>
		<g id="face">
		</g>
		<g id="hair">
		</g>
	</g>
	<g id="avatar12_1_" display="inline">
		<g id="back_27_">
		</g>
		<g id="clothes_29_">
		</g>
		<g id="face_97_">
		</g>
		<g id="hair_20_">
		</g>
	</g>
	<g id="avatar11_1_" display="inline">
		<g id="back_26_">
		</g>
		<g id="clothes_28_">
		</g>
		<g id="face_95_">
		</g>
		<g id="hair_19_">
		</g>
	</g>
	<g id="avatar10_1_" display="inline">
		<g id="back_25_">
		</g>
		<g id="clothes_27_">
		</g>
		<g id="face_94_">
		</g>
		<g id="glasses_11_">
		</g>
		<g id="hair_18_">
		</g>
	</g>
	<g id="avatar9_1_" display="inline">
		<g id="back_24_">
		</g>
		<g id="clothes_26_">
		</g>
		<g id="face_92_">
		</g>
		<g id="hair_17_">
		</g>
	</g>
	<g id="avatar8_1_" display="inline">
		<g id="back_23_">
		</g>
		<g id="hair_back_7_">
		</g>
		<g id="clothes_25_">
		</g>
		<g id="face_91_">
		</g>
		<g id="hair_front_7_">
		</g>
	</g>
	<g id="avatar7_1_" display="inline">
		<g id="back_22_">
		</g>
		<g id="clothes_24_">
		</g>
		<g id="face_90_">
		</g>
		<g id="necklace_1_">
		</g>
		<g id="earings_1_">
		</g>
		<g id="hair_16_">
		</g>
	</g>
	<g id="avatar6_1_" display="inline">
		<g id="back_21_">
		</g>
		<g id="hair_back_6_">
		</g>
		<g id="clothes_23_">
		</g>
		<g id="face_89_">
		</g>
		<g id="glasses_12_">
		</g>
		<g id="hair_front_6_">
		</g>
	</g>
	<g id="avatar5_1_" display="inline">
		<g id="back_20_">
		</g>
		<g id="hair_back_5_">
		</g>
		<g id="clothes_22_">
		</g>
		<g id="face_88_">
		</g>
		<g id="glasses_9_">
		</g>
		<g id="hair_front_5_">
		</g>
	</g>
	<g id="avatar4_1_" display="inline">
		<g id="back_19_">
		</g>
		<g id="hair_back_4_">
		</g>
		<g id="clothes_21_">
		</g>
		<g id="face_87_">
		</g>
		<g id="earing_1_">
		</g>
		<g id="hair_front_4_">
		</g>
	</g>
	<g id="avatar3_1_" display="inline">
		<g id="back_18_">
		</g>
		<g id="hair_back_3_">
		</g>
		<g id="clothes_20_">
		</g>
		<g id="face_86_">
		</g>
		<g id="earings">
		</g>
		<g id="glasses_8_">
		</g>
		<g id="hair_front_3_">
		</g>
	</g>
	<g id="avatar2_1_" display="inline">
		<g id="Layebackr_167">
		</g>
		<g id="hair_back_2_">
		</g>
		<g id="clothes_19_">
		</g>
		<g id="necklace">
		</g>
		<g id="face_85_">
		</g>
		<g id="hair_front_2_">
		</g>
	</g>
	<g id="avatar1_1_" display="inline">
		<g id="back_17_">
		</g>
		<g id="hair_back_1_">
		</g>
		<g id="clothes_18_">
		</g>
		<g id="face_84_">
		</g>
		<g id="hair_front_1_">
		</g>
	</g>
</g>
<g id="male">
	<g id="avatar20">
		<g id="back_32_">
		</g>
		<g id="clothes_34_">
		</g>
		<g id="face_100_">
		</g>
		<g id="hair_22_">
		</g>
	</g>
	<g id="avatar19">
		<g id="back_31_">
		</g>
		<g id="clothes_33_">
		</g>
		<g id="face_99_">
		</g>
		<g id="scaft">
		</g>
		<g id="hat">
		</g>
	</g>
	<g id="avatar18">
		<g id="back_30_">
		</g>
		<g id="clothes_32_">
		</g>
		<g id="face_55_">
		</g>
		<g id="earings_2_">
		</g>
		<g id="hair_21_">
		</g>
	</g>
	<g id="avatar17">
		<g id="back_29_">
		</g>
		<g id="hair_back_10_">
		</g>
		<g id="clothes_31_">
		</g>
		<g id="face_2_">
		</g>
		<g id="glasses_10_">
		</g>
		<g id="hair_front_10_">
		</g>
	</g>
	<g id="avatar16">
		<g id="back_28_">
		</g>
		<g id="hair_back_9_">
		</g>
		<g id="clothes_1_">
		</g>
		<g id="face_1_">
		</g>
		<g id="hair_front_9_">
		</g>
	</g>
	<g id="avatar15">
		<g id="back_5_">
		</g>
		<g id="clothes_6_">
		</g>
		<g id="face_29_">
		</g>
		<g id="glasses_4_">
		</g>
		<g id="hair_8_">
		</g>
	</g>
	<g id="avatar14">
		<g id="back_6_">
		</g>
		<g id="clothes_7_">
		</g>
		<g id="face_42_">
		</g>
		<g id="earings_3_">
		</g>
		<g id="hair_9_">
		</g>
	</g>
	<g id="avatar13">
		<g id="back_7_">
		</g>
		<g id="clothes_8_">
		</g>
		<g id="face_43_">
		</g>
		<g id="glasses_5_">
		</g>
		<g id="hair_10_">
		</g>
	</g>
	<g id="avatar12">
		<g id="back_8_">
		</g>
		<g id="clothes_9_">
		</g>
		<g id="face_44_">
		</g>
		<g id="beard_6_">
		</g>
		<g id="hair_11_">
		</g>
	</g>
	<g id="avatar11">
		<g id="back_9_">
		</g>
		<g id="clothes_10_">
		</g>
		<g id="face_45_">
		</g>
		<g id="glass">
		</g>
		<g id="hair_12_">
		</g>
	</g>
	<g id="avatar10">
		<g id="back_10_">
		</g>
		<g id="clothes_11_">
		</g>
		<g id="face_46_">
		</g>
		<g id="beard_7_">
		</g>
		<g id="glasses_6_">
		</g>
		<g id="hair_13_">
		</g>
	</g>
	<g id="avatar9">
		<g id="back_11_">
		</g>
		<g id="clothes_12_">
		</g>
		<g id="face_47_">
		</g>
		<g id="glasses_3_">
		</g>
		<g id="hair_7_">
		</g>
	</g>
	<g id="avatar8">
		<g id="back_12_">
		</g>
		<g id="clothes_13_">
		</g>
		<g id="face_48_">
		</g>
		<g id="beard_5_">
		</g>
		<g id="glasses_7_">
		</g>
		<g id="hair_6_">
		</g>
	</g>
	<g id="avatar7">
		<g id="back_4_">
		</g>
		<g id="clothes_14_">
		</g>
		<g id="face_11_">
		</g>
		<g id="hair_14_">
		</g>
	</g>
	<g id="avatar6">
		<g id="back_13_">
		</g>
		<g id="clothes_15_">
		</g>
		<g id="face_16_">
		</g>
		<g id="glasses_2_">
		</g>
		<g id="beard_4_">
		</g>
		<g id="hair_5_">
		</g>
	</g>
	<g id="avatar5">
		<g id="back_14_">
		</g>
		<g id="clothes_5_">
		</g>
		<g id="face_38_">
		</g>
		<g id="beard_3_">
		</g>
		<g id="hair_4_">
		</g>
	</g>
	<g id="avatar4">
		<g id="back_3_">
		</g>
		<g id="clothes_4_">
		</g>
		<g id="face_13_">
		</g>
		<g id="beard_2_">
		</g>
		<g id="glasses_1_">
		</g>
		<g id="hair_3_">
		</g>
	</g>
	<g id="avatar3">
		<g id="back_15_">
			<circle fill="#F6BB42" cx="256" cy="256" r="200"/>
		</g>
		<g id="clothes_16_">
			<path id="_x31_0_11_" fill="#FFF6E3" d="M372.668,359.667c-7.353-6.355-19.364-14.562-30.666-15.666
				c-7.258-0.709-86.002-13-86.002-13s-78.744,12.291-86.002,13c-11.302,1.104-23.313,9.311-30.666,15.666
				c-13.417,11.598-20.781,25.84-24.795,38.712C150.732,434.597,200.75,457,256,457s105.268-22.403,141.463-58.621
				C393.449,385.507,386.085,371.265,372.668,359.667z"/>
			<path id="_x39__14_" fill="#F9E0A8" d="M256,253l-42.25-5.5l16.307,88.734c0,0,3.666,30.766,25.943,30.766
				s25.943-30.766,25.943-30.766L298.25,247.5L256,253z"/>
			<path id="_x38__20_" fill="#D9C392" d="M290,262.5l-69.525,21.592l7.086,38.556c10.66,13.146,26.918,25.187,50.957,26.265
				c2.709-6.691,3.426-12.678,3.426-12.678l12.127-65.99C291.686,265.447,290,262.5,290,262.5z"/>
			<polygon id="_x37__33_" fill="#FFF6E3" points="283.392,328.414 260.5,337.531 256,368.5 251.5,337.531 228.608,328.414 
				222.698,336.287 256,411 289.302,336.287 			"/>
			<path id="_x36__43_" fill="#434A54" d="M186,341.744v102.651c3,0.864,5,1.688,7,2.468V340.696V339l-7,1V341.744z"/>
			<path id="_x35__48_" fill="#434A54" d="M319,339v1.696v106.167c3-0.78,5-1.604,7-2.468V341.744V340L319,339z"/>
			<path id="_x34__58_" fill="#F9D178" d="M315,409c0,2.75,2.25,5,5,5h5c2.75,0,5-2.25,5-5v-7c0-2.75-2.25-5-5-5h-5
				c-2.75,0-5,2.25-5,5V409z"/>
			<path id="_x33__64_" fill="#F9D178" d="M197,409c0,2.75-2.25,5-5,5h-5c-2.75,0-5-2.25-5-5v-7c0-2.75,2.25-5,5-5h5
				c2.75,0,5,2.25,5,5V409z"/>
			<polygon id="_x32__71_" fill="#EDE5D3" points="222.698,336.287 225.668,367 248.334,348.912 256,368.5 251.5,337.531 
				228.608,328.414 			"/>
			<polygon id="_x31__84_" fill="#EDE5D3" points="289.302,336.287 286.332,367 263.666,348.912 256,368.5 260.5,337.531 
				283.392,328.414 			"/>
		</g>
		<g id="face_49_">
			<path id="ear_127_" fill="#F9E0A8" d="M193,215.621c0,0-21.309-13.5-19.104,14.5s19.104,26,19.104,26V215.621z"/>
			<path id="ear_124_" fill="#F9E0A8" d="M319,215.621c0,0,21.31-13.5,19.104,14.5c-2.204,28-19.104,26-19.104,26V215.621z"/>
			<path id="face_79_" fill="#FFE9BA" d="M256,143.383c-63,0-63,34.738-63,34.738s0,59.5,0,80s19.237,36.287,35.226,50
				c13.408,11.5,27.774,11,27.774,11s14.366,0.5,27.774-11c15.988-13.713,35.226-29.5,35.226-50s0-80,0-80S319,143.383,256,143.383z
				"/>
		</g>
		<g id="hair_15_">
			<path id="_x34__57_" fill="#434A54" d="M300.32,116.096c-3.752-5.619-16.346-9.475-43.848-9.475s-40.096,3.855-43.848,9.475
				c-47.973,25.951-28.785,96.283-28.785,96.283c2.572-0.207,9.633,3.242,9.633,3.242c-19.265,124,63,111.5,63,111.5
				s82.265,12.5,63-111.5c0,0,7.061-3.449,9.633-3.242C329.105,212.379,348.293,142.047,300.32,116.096z M303.473,256.143
				c0,0,4.116,55.104-47,41.479c-51.116,13.625-47-41.479-47-41.479s-9.5-7.521-8.5-23.885c1-16.365,14.271-20.08,4.384-40.945
				c-12.884-27.191,15.591-32.451,15.591-32.451s55.525,47.76,89.205,14.201l0,0c1.417,4.568,1.098,10.521-2.563,18.25
				c-9.888,20.865,3.384,24.58,4.384,40.945C312.973,248.621,303.473,256.143,303.473,256.143z"/>
			<path id="_x33__18_" fill="#656D78" d="M220.947,136.121c0,0,40.025,53.5,88.525,26.5
				C309.473,162.621,259.922,173.621,220.947,136.121z"/>
			<path id="_x32__70_" fill="#656D78" d="M220.947,127.121c0,0,55.025,27.023,85.025,16.262
				C305.973,143.383,240.422,135.621,220.947,127.121z"/>
			<path id="_x31__83_" fill="#656D78" d="M216.973,143.383c0,0-29.932,18.189-22,55.738
				C194.973,199.121,177.473,153.609,216.973,143.383z"/>
		</g>
	</g>
	<g id="avatar2">
		<g id="back_2_">
		</g>
		<g id="clothes_3_">
		</g>
		<g id="face_9_">
		</g>
		<g id="beard_1_">
		</g>
		<g id="hair_2_">
		</g>
	</g>
	<g id="avatar1">
		<g id="back_1_">
		</g>
		<g id="clothes_2_">
		</g>
		<g id="face_6_">
		</g>
		<g id="hair_1_">
		</g>
	</g>
</g>
</svg>
