<?xml version="1.0" encoding="iso-8859-1"?>
<!-- Generator: Adobe Illustrator 16.0.3, SVG Export Plug-In . SVG Version: 6.00 Build 0)  -->
<!DOCTYPE svg PUBLIC "-//W3C//DTD SVG 1.1 Basic//EN" "http://www.w3.org/Graphics/SVG/1.1/DTD/svg11-basic.dtd">
<svg version="1.1" baseProfile="basic" xmlns="http://www.w3.org/2000/svg" xmlns:xlink="http://www.w3.org/1999/xlink" x="0px"
	 y="0px" width="512px" height="512px" viewBox="0 0 512 512" xml:space="preserve">
<g id="Layer_159" display="none">
	<rect x="-512" y="511" display="inline" fill="#FFFFFF" width="512" height="512"/>
	<rect x="512" y="511" display="inline" fill="#FFFFFF" width="512" height="512"/>
	<rect y="511" display="inline" fill="#FFFFFF" width="512" height="512"/>
	<rect x="512" y="-512" display="inline" fill="#FFFFFF" width="512" height="512"/>
	<rect y="-512" display="inline" fill="#FFFFFF" width="512" height="512"/>
	<rect x="-512" y="-512" display="inline" fill="#FFFFFF" width="512" height="512"/>
	<rect display="inline" fill="#FFFFFF" width="512" height="512"/>
	<rect x="512" display="inline" fill="#FFFFFF" width="512" height="512"/>
	<rect x="-512" display="inline" fill="#FFFFFF" width="512" height="512"/>
</g>
<g id="female" display="none">
	<g id="avatar15_1_" display="inline">
		<g id="baclk">
		</g>
		<g id="hair_back_8_">
		</g>
		<g id="clothes_30_">
		</g>
		<g id="face_98_">
		</g>
		<g id="hair_front_8_">
		</g>
	</g>
	<g id="avatar14_1_" display="inline">
		<g id="back_16_">
		</g>
		<g id="hair_back">
		</g>
		<g id="clothes_17_">
		</g>
		<g id="face_57_">
		</g>
		<g id="hair_front">
		</g>
	</g>
	<g id="avatar13_1_" display="inline">
		<g id="back_x27_">
		</g>
		<g id="clothes">
		</g>
		<g id="face">
		</g>
		<g id="hair">
		</g>
	</g>
	<g id="avatar12_1_" display="inline">
		<g id="back_27_">
		</g>
		<g id="clothes_29_">
		</g>
		<g id="face_97_">
		</g>
		<g id="hair_20_">
		</g>
	</g>
	<g id="avatar11_1_" display="inline">
		<g id="back_26_">
		</g>
		<g id="clothes_28_">
		</g>
		<g id="face_95_">
		</g>
		<g id="hair_19_">
		</g>
	</g>
	<g id="avatar10_1_" display="inline">
		<g id="back_25_">
		</g>
		<g id="clothes_27_">
		</g>
		<g id="face_94_">
		</g>
		<g id="glasses_11_">
		</g>
		<g id="hair_18_">
		</g>
	</g>
	<g id="avatar9_1_" display="inline">
		<g id="back_24_">
		</g>
		<g id="clothes_26_">
		</g>
		<g id="face_92_">
		</g>
		<g id="hair_17_">
		</g>
	</g>
	<g id="avatar8_1_" display="inline">
		<g id="back_23_">
		</g>
		<g id="hair_back_7_">
		</g>
		<g id="clothes_25_">
		</g>
		<g id="face_91_">
		</g>
		<g id="hair_front_7_">
		</g>
	</g>
	<g id="avatar7_1_" display="inline">
		<g id="back_22_">
		</g>
		<g id="clothes_24_">
		</g>
		<g id="face_90_">
		</g>
		<g id="necklace_1_">
		</g>
		<g id="earings_1_">
		</g>
		<g id="hair_16_">
		</g>
	</g>
	<g id="avatar6_1_" display="inline">
		<g id="back_21_">
		</g>
		<g id="hair_back_6_">
		</g>
		<g id="clothes_23_">
		</g>
		<g id="face_89_">
		</g>
		<g id="glasses_12_">
		</g>
		<g id="hair_front_6_">
		</g>
	</g>
	<g id="avatar5_1_" display="inline">
		<g id="back_20_">
		</g>
		<g id="hair_back_5_">
		</g>
		<g id="clothes_22_">
		</g>
		<g id="face_88_">
		</g>
		<g id="glasses_9_">
		</g>
		<g id="hair_front_5_">
		</g>
	</g>
	<g id="avatar4_1_" display="inline">
		<g id="back_19_">
		</g>
		<g id="hair_back_4_">
		</g>
		<g id="clothes_21_">
		</g>
		<g id="face_87_">
		</g>
		<g id="earing_1_">
		</g>
		<g id="hair_front_4_">
		</g>
	</g>
	<g id="avatar3_1_" display="inline">
		<g id="back_18_">
		</g>
		<g id="hair_back_3_">
		</g>
		<g id="clothes_20_">
		</g>
		<g id="face_86_">
		</g>
		<g id="earings">
		</g>
		<g id="glasses_8_">
		</g>
		<g id="hair_front_3_">
		</g>
	</g>
	<g id="avatar2_1_" display="inline">
		<g id="Layebackr_167">
		</g>
		<g id="hair_back_2_">
		</g>
		<g id="clothes_19_">
		</g>
		<g id="necklace">
		</g>
		<g id="face_85_">
		</g>
		<g id="hair_front_2_">
		</g>
	</g>
	<g id="avatar1_1_" display="inline">
		<g id="back_17_">
		</g>
		<g id="hair_back_1_">
		</g>
		<g id="clothes_18_">
		</g>
		<g id="face_84_">
		</g>
		<g id="hair_front_1_">
		</g>
	</g>
</g>
<g id="male">
	<g id="avatar20">
		<g id="back_32_">
		</g>
		<g id="clothes_34_">
		</g>
		<g id="face_100_">
		</g>
		<g id="hair_22_">
		</g>
	</g>
	<g id="avatar19">
		<g id="back_31_">
		</g>
		<g id="clothes_33_">
		</g>
		<g id="face_99_">
		</g>
		<g id="scaft">
		</g>
		<g id="hat">
		</g>
	</g>
	<g id="avatar18">
		<g id="back_30_">
			<circle fill="#DA4453" cx="256" cy="256" r="200"/>
		</g>
		<g id="clothes_32_">
			<path id="_x36__108_" fill="#434A54" d="M256,457c55.25,0,105.267-22.403,141.463-58.621
				c-4.014-12.872-11.378-27.114-24.795-38.712c-4.934-4.265-11.967-9.353-19.473-12.579c-3.682-1.582-7.475-2.724-11.193-3.087
				c-2.043-0.199-9.75-1.317-19.771-2.819C296.652,337.347,256,331.001,256,331.001s-40.652,6.346-66.231,10.181
				c-10.021,1.502-17.728,2.62-19.771,2.819c-3.719,0.363-7.512,1.505-11.193,3.087c-7.506,3.227-14.539,8.314-19.473,12.579
				c-13.417,11.598-20.781,25.84-24.795,38.712C150.733,434.597,200.75,457,256,457z"/>
			<path fill="#F9E0A8" d="M255.636,331.058c-0.216,0.034-0.526,0.082-0.926,0.145c-0.052,0.008-0.105,0.017-0.16,0.024
				c-6.327,0.986-32.215,5.016-53.794,8.295c0.871,14.102,12.994,41.44,84.577,44.479c41.652,1.768,60.414-17.813,70.468-35.705
				c-0.861-0.423-1.729-0.83-2.606-1.207c-3.682-1.582-7.475-2.724-11.193-3.087c-2.043-0.199-9.75-1.317-19.771-2.819
				C296.652,337.347,256,331.001,256,331.001s-0.079,0.013-0.22,0.034C255.734,331.043,255.698,331.048,255.636,331.058z"/>
			<path id="_x37__89_" fill="#F9E0A8" d="M256,253.121l-42.25-5.5l16.307,88.734c0,0,3.666,30.766,25.943,30.766
				s25.943-30.766,25.943-30.766l16.307-88.734L256,253.121z"/>
			<path id="_x36__107_" fill="#D9C392" d="M290,262.621l-69.525,21.592l7.086,38.557c10.66,13.145,26.918,25.186,50.957,26.264
				c2.709-6.691,3.426-12.678,3.426-12.678l12.127-65.99C291.686,265.568,290,262.621,290,262.621z"/>
			<polygon fill="#FFFFFF" points="223,323 223,335 207.75,329 			"/>
			<polygon fill="#FFFFFF" points="289,323 289,335 304.25,329 			"/>
			<path fill="#434A54" d="M295,329c0,3.866-3.134,7-7,7h-63c-3.866,0-7-3.134-7-7l0,0c0-3.866,3.134-7,7-7h63
				C291.866,322,295,325.134,295,329L295,329z"/>
			<circle fill="#FFFFFF" cx="256.833" cy="329" r="5.667"/>
			<path fill="#656D78" d="M121.5,381.5c0,0-0.644-10-3.822-11.25c0,0,5.572-2,7.572,1.75c0,0,2-8.5,0-11.25
				c0,0,14.25,21.035,17.25,34.018c0,0-13.537,8.354-20.75,5.982c0,0,3.75-1.5,6-4.5c0,0-13.75,0.75-17.5-2.25l7.428-4.192
				C117.678,389.808,128.75,384.25,121.5,381.5z"/>
			<path fill="#F9E0A8" d="M117.678,389.808l24.822,4.96l-18.204-17.627C121.636,381.328,119.458,385.591,117.678,389.808z"/>
			<path fill="#434A54" d="M293.833,414c-0.333-1,23.749-75.92,23.749-75.92l11.05,1.587L327.667,414H293.833z"/>
			<path fill="#272B30" d="M305.134,377.082c-0.668,2.106-1.333,4.208-1.987,6.28c9.896-1.224,18.125-3.877,25.015-7.435
				l0.078-6.042C321.803,373.221,314.182,375.757,305.134,377.082z"/>
			<path fill="#656D78" d="M205.333,380.962c0,0,88,39.371,146.333-9.295C351.667,371.667,329,440.59,205.333,380.962z"/>
		</g>
		<g id="face_55_">
			<path id="ear_122_" fill="#F9E0A8" d="M193,215.621c0,0-21.309-13.5-19.104,14.5s19.104,26,19.104,26V215.621z"/>
			<path id="ear_120_" fill="#F9E0A8" d="M319,215.621c0,0,21.31-13.5,19.104,14.5c-2.204,28-19.104,26-19.104,26V215.621z"/>
			<path id="face_77_" fill="#FFE9BA" d="M256,143.383c-63,0-63,34.738-63,34.738s0,59.5,0,80s19.237,36.287,35.226,50
				c13.408,11.5,27.774,11,27.774,11s14.366,0.5,27.774-11c15.988-13.713,35.226-29.5,35.226-50s0-80,0-80S319,143.383,256,143.383z
				"/>
		</g>
		<g id="earings_2_">
			<circle fill="#434A54" cx="187.076" cy="251.076" r="5.076"/>
			<circle fill="#FFFFFF" cx="177.625" cy="236.635" r="2.375"/>
			<circle fill="#FFFFFF" cx="184.796" cy="217.203" r="2.796"/>
			<path fill="#FFFFFF" d="M170.453,226.393c2.792,1.167,5.583,2.334,8.375,3.5c1.512,0.632,3.298-0.67,3.69-2.095
				c0.476-1.729-0.587-3.061-2.095-3.69c-2.792-1.167-5.583-2.334-8.375-3.5c-1.512-0.632-3.298,0.67-3.69,2.095
				C167.882,224.432,168.945,225.763,170.453,226.393L170.453,226.393z"/>
		</g>
		<g id="hair_21_">
			<path id="_x32__121_" fill="#272B30" d="M256.473,119.383c-37.333,0-68,12.344-68,49.227c0,38.18,5,47.012,5,47.012
				s5.001-20.832,13.667-23.832s7.083-18.334,7.083-18.334s28.917,4,42.25,4s42.25-4,42.25-4s-1.583,15.334,7.083,18.334
				s13.667,23.832,13.667,23.832s5-8.832,5-47.012C324.473,131.727,293.806,119.383,256.473,119.383z"/>
			<path fill="#434A54" d="M201.333,180.199c0,0,32.666,25.468,43.333,47.801c0,0-4.666-23-6.333-26c0,0,21,30,24,48
				c0,0,0.211-34.333-5.061-41.333c0,0,30.147,65.962,30.317,81c0,0,5.256-51.333,0-62c0,0,29.077,50.666,31.41,70.666
				c0,0,58-189.333-42-202s-84,47.05-84,47.05S169.667,163.666,201.333,180.199z"/>
			<path fill="#656D78" d="M189.849,171.863c2.361-4.64,5.84-7.666,5.84-7.666s-15.4-57.476,80.848-45.283
				c57.297,7.258,60.7,74.774,54.071,128.232c9.563-57.048,12.427-142.449-53.608-150.813c-100-12.667-84,47.05-84,47.05
				S176.704,157.556,189.849,171.863z"/>
			<path fill="#656D78" d="M202,152c0,0,88.26,39.818,98.333,113.667C300.333,265.667,281.333,124.333,202,152z"/>
			<path fill="#656D78" d="M205,167.502c0,0,19.82,13.165,19.41,52.165C224.41,219.667,212.333,186.004,205,167.502z"/>
			<path fill="#656D78" d="M205,142c0,0,87.333-32.589,114,65.039C319,207.039,294.667,77,205,142z"/>
		</g>
	</g>
	<g id="avatar17">
		<g id="back_29_">
		</g>
		<g id="hair_back_10_">
		</g>
		<g id="clothes_31_">
		</g>
		<g id="face_2_">
		</g>
		<g id="glasses_10_">
		</g>
		<g id="hair_front_10_">
		</g>
	</g>
	<g id="avatar16">
		<g id="back_28_">
		</g>
		<g id="hair_back_9_">
		</g>
		<g id="clothes_1_">
		</g>
		<g id="face_1_">
		</g>
		<g id="hair_front_9_">
		</g>
	</g>
	<g id="avatar15">
		<g id="back_5_">
		</g>
		<g id="clothes_6_">
		</g>
		<g id="face_29_">
		</g>
		<g id="glasses_4_">
		</g>
		<g id="hair_8_">
		</g>
	</g>
	<g id="avatar14">
		<g id="back_6_">
		</g>
		<g id="clothes_7_">
		</g>
		<g id="face_42_">
		</g>
		<g id="earings_3_">
		</g>
		<g id="hair_9_">
		</g>
	</g>
	<g id="avatar13">
		<g id="back_7_">
		</g>
		<g id="clothes_8_">
		</g>
		<g id="face_43_">
		</g>
		<g id="glasses_5_">
		</g>
		<g id="hair_10_">
		</g>
	</g>
	<g id="avatar12">
		<g id="back_8_">
		</g>
		<g id="clothes_9_">
		</g>
		<g id="face_44_">
		</g>
		<g id="beard_6_">
		</g>
		<g id="hair_11_">
		</g>
	</g>
	<g id="avatar11">
		<g id="back_9_">
		</g>
		<g id="clothes_10_">
		</g>
		<g id="face_45_">
		</g>
		<g id="glass">
		</g>
		<g id="hair_12_">
		</g>
	</g>
	<g id="avatar10">
		<g id="back_10_">
		</g>
		<g id="clothes_11_">
		</g>
		<g id="face_46_">
		</g>
		<g id="beard_7_">
		</g>
		<g id="glasses_6_">
		</g>
		<g id="hair_13_">
		</g>
	</g>
	<g id="avatar9">
		<g id="back_11_">
		</g>
		<g id="clothes_12_">
		</g>
		<g id="face_47_">
		</g>
		<g id="glasses_3_">
		</g>
		<g id="hair_7_">
		</g>
	</g>
	<g id="avatar8">
		<g id="back_12_">
		</g>
		<g id="clothes_13_">
		</g>
		<g id="face_48_">
		</g>
		<g id="beard_5_">
		</g>
		<g id="glasses_7_">
		</g>
		<g id="hair_6_">
		</g>
	</g>
	<g id="avatar7">
		<g id="back_4_">
		</g>
		<g id="clothes_14_">
		</g>
		<g id="face_11_">
		</g>
		<g id="hair_14_">
		</g>
	</g>
	<g id="avatar6">
		<g id="back_13_">
		</g>
		<g id="clothes_15_">
		</g>
		<g id="face_16_">
		</g>
		<g id="glasses_2_">
		</g>
		<g id="beard_4_">
		</g>
		<g id="hair_5_">
		</g>
	</g>
	<g id="avatar5">
		<g id="back_14_">
		</g>
		<g id="clothes_5_">
		</g>
		<g id="face_38_">
		</g>
		<g id="beard_3_">
		</g>
		<g id="hair_4_">
		</g>
	</g>
	<g id="avatar4">
		<g id="back_3_">
		</g>
		<g id="clothes_4_">
		</g>
		<g id="face_13_">
		</g>
		<g id="beard_2_">
		</g>
		<g id="glasses_1_">
		</g>
		<g id="hair_3_">
		</g>
	</g>
	<g id="avatar3">
		<g id="back_15_">
		</g>
		<g id="clothes_16_">
		</g>
		<g id="face_49_">
		</g>
		<g id="hair_15_">
		</g>
	</g>
	<g id="avatar2">
		<g id="back_2_">
		</g>
		<g id="clothes_3_">
		</g>
		<g id="face_9_">
		</g>
		<g id="beard_1_">
		</g>
		<g id="hair_2_">
		</g>
	</g>
	<g id="avatar1">
		<g id="back_1_">
		</g>
		<g id="clothes_2_">
		</g>
		<g id="face_6_">
		</g>
		<g id="hair_1_">
		</g>
	</g>
</g>
</svg>
