<?xml version="1.0" encoding="iso-8859-1"?>
<!-- Generator: Adobe Illustrator 16.0.3, SVG Export Plug-In . SVG Version: 6.00 Build 0)  -->
<!DOCTYPE svg PUBLIC "-//W3C//DTD SVG 1.1 Basic//EN" "http://www.w3.org/Graphics/SVG/1.1/DTD/svg11-basic.dtd">
<svg version="1.1" baseProfile="basic" xmlns="http://www.w3.org/2000/svg" xmlns:xlink="http://www.w3.org/1999/xlink" x="0px"
	 y="0px" width="512px" height="512px" viewBox="0 0 512 512" xml:space="preserve">
<g id="Layer_159" display="none">
	<rect x="512" y="512" display="inline" fill="#FFFFFF" width="512" height="512"/>
	<rect x="512" display="inline" fill="#FFFFFF" width="512" height="512"/>
	<rect display="inline" fill="#FFFFFF" width="512" height="512"/>
	<rect x="-512" display="inline" fill="#FFFFFF" width="512" height="512"/>
	<rect y="512" display="inline" fill="#FFFFFF" width="512" height="512"/>
	<rect x="-512" y="512" display="inline" fill="#FFFFFF" width="512" height="512"/>
</g>
<g id="female" display="none">
	<g id="avatar15_1_" display="inline">
		<g id="baclk">
		</g>
		<g id="hair_back_8_">
		</g>
		<g id="clothes_30_">
		</g>
		<g id="face_98_">
		</g>
		<g id="hair_front_8_">
		</g>
	</g>
	<g id="avatar14_1_" display="inline">
		<g id="back_16_">
		</g>
		<g id="hair_back">
		</g>
		<g id="clothes_17_">
		</g>
		<g id="face_57_">
		</g>
		<g id="hair_front">
		</g>
	</g>
	<g id="avatar13_1_" display="inline">
		<g id="back_x27_">
		</g>
		<g id="clothes">
		</g>
		<g id="face">
		</g>
		<g id="hair">
		</g>
	</g>
	<g id="avatar12_1_" display="inline">
		<g id="back_27_">
		</g>
		<g id="clothes_29_">
		</g>
		<g id="face_97_">
		</g>
		<g id="hair_20_">
		</g>
	</g>
	<g id="avatar11_1_" display="inline">
		<g id="back_26_">
		</g>
		<g id="clothes_28_">
		</g>
		<g id="face_95_">
		</g>
		<g id="hair_19_">
		</g>
	</g>
	<g id="avatar10_1_" display="inline">
		<g id="back_25_">
		</g>
		<g id="clothes_27_">
		</g>
		<g id="face_94_">
		</g>
		<g id="glasses_11_">
		</g>
		<g id="hair_18_">
		</g>
	</g>
	<g id="avatar9_1_" display="inline">
		<g id="back_24_">
		</g>
		<g id="clothes_26_">
		</g>
		<g id="face_92_">
		</g>
		<g id="hair_17_">
		</g>
	</g>
	<g id="avatar8_1_" display="inline">
		<g id="back_23_">
		</g>
		<g id="hair_back_7_">
		</g>
		<g id="clothes_25_">
		</g>
		<g id="face_91_">
		</g>
		<g id="hair_front_7_">
		</g>
	</g>
	<g id="avatar7_1_" display="inline">
		<g id="back_22_">
		</g>
		<g id="clothes_24_">
		</g>
		<g id="face_90_">
		</g>
		<g id="necklace_1_">
		</g>
		<g id="earings_1_">
		</g>
		<g id="hair_16_">
		</g>
	</g>
	<g id="avatar6_1_" display="inline">
		<g id="back_21_">
		</g>
		<g id="hair_back_6_">
		</g>
		<g id="clothes_23_">
		</g>
		<g id="face_89_">
		</g>
		<g id="glasses_12_">
		</g>
		<g id="hair_front_6_">
		</g>
	</g>
	<g id="avatar5_1_" display="inline">
		<g id="back_20_">
		</g>
		<g id="hair_back_5_">
		</g>
		<g id="clothes_22_">
		</g>
		<g id="face_88_">
		</g>
		<g id="glasses_9_">
		</g>
		<g id="hair_front_5_">
		</g>
	</g>
	<g id="avatar4_1_" display="inline">
		<g id="back_19_">
		</g>
		<g id="hair_back_4_">
		</g>
		<g id="clothes_21_">
		</g>
		<g id="face_87_">
		</g>
		<g id="earing_1_">
		</g>
		<g id="hair_front_4_">
		</g>
	</g>
	<g id="avatar3_1_" display="inline">
		<g id="back_18_">
		</g>
		<g id="hair_back_3_">
		</g>
		<g id="clothes_20_">
		</g>
		<g id="face_86_">
		</g>
		<g id="earings">
		</g>
		<g id="glasses_8_">
		</g>
		<g id="hair_front_3_">
		</g>
	</g>
	<g id="avatar2_1_" display="inline">
		<g id="Layebackr_167">
		</g>
		<g id="hair_back_2_">
		</g>
		<g id="clothes_19_">
		</g>
		<g id="necklace">
		</g>
		<g id="face_85_">
		</g>
		<g id="hair_front_2_">
		</g>
	</g>
	<g id="avatar1_1_" display="inline">
		<g id="back_17_">
		</g>
		<g id="hair_back_1_">
		</g>
		<g id="clothes_18_">
		</g>
		<g id="face_84_">
		</g>
		<g id="hair_front_1_">
		</g>
	</g>
</g>
<g id="male">
	<g id="avatar20">
		<g id="back_32_">
		</g>
		<g id="clothes_34_">
		</g>
		<g id="face_100_">
		</g>
		<g id="hair_22_">
		</g>
	</g>
	<g id="avatar19">
		<g id="back_31_">
		</g>
		<g id="clothes_33_">
		</g>
		<g id="face_99_">
		</g>
		<g id="scaft">
		</g>
		<g id="hat">
		</g>
	</g>
	<g id="avatar18">
		<g id="back_30_">
		</g>
		<g id="clothes_32_">
		</g>
		<g id="face_55_">
		</g>
		<g id="earings_2_">
		</g>
		<g id="hair_21_">
		</g>
	</g>
	<g id="avatar17">
		<g id="back_29_">
		</g>
		<g id="hair_back_10_">
		</g>
		<g id="clothes_31_">
		</g>
		<g id="face_2_">
		</g>
		<g id="glasses_10_">
		</g>
		<g id="hair_front_10_">
		</g>
	</g>
	<g id="avatar16">
		<g id="back_28_">
		</g>
		<g id="hair_back_9_">
		</g>
		<g id="clothes_1_">
		</g>
		<g id="face_1_">
		</g>
		<g id="hair_front_9_">
		</g>
	</g>
	<g id="avatar15">
		<g id="back_5_">
		</g>
		<g id="clothes_6_">
		</g>
		<g id="face_29_">
		</g>
		<g id="glasses_4_">
		</g>
		<g id="hair_8_">
		</g>
	</g>
	<g id="avatar14">
		<g id="back_6_">
		</g>
		<g id="clothes_7_">
		</g>
		<g id="face_42_">
		</g>
		<g id="earings_3_">
		</g>
		<g id="hair_9_">
		</g>
	</g>
	<g id="avatar13">
		<g id="back_7_">
		</g>
		<g id="clothes_8_">
		</g>
		<g id="face_43_">
		</g>
		<g id="glasses_5_">
		</g>
		<g id="hair_10_">
		</g>
	</g>
	<g id="avatar12">
		<g id="back_8_">
		</g>
		<g id="clothes_9_">
		</g>
		<g id="face_44_">
		</g>
		<g id="beard_6_">
		</g>
		<g id="hair_11_">
		</g>
	</g>
	<g id="avatar11">
		<g id="back_9_">
		</g>
		<g id="clothes_10_">
		</g>
		<g id="face_45_">
		</g>
		<g id="glass">
		</g>
		<g id="hair_12_">
		</g>
	</g>
	<g id="avatar10">
		<g id="back_10_">
		</g>
		<g id="clothes_11_">
		</g>
		<g id="face_46_">
		</g>
		<g id="beard_7_">
		</g>
		<g id="glasses_6_">
		</g>
		<g id="hair_13_">
		</g>
	</g>
	<g id="avatar9">
		<g id="back_11_">
		</g>
		<g id="clothes_12_">
		</g>
		<g id="face_47_">
		</g>
		<g id="glasses_3_">
		</g>
		<g id="hair_7_">
		</g>
	</g>
	<g id="avatar8">
		<g id="back_12_">
		</g>
		<g id="clothes_13_">
		</g>
		<g id="face_48_">
		</g>
		<g id="beard_5_">
		</g>
		<g id="glasses_7_">
		</g>
		<g id="hair_6_">
		</g>
	</g>
	<g id="avatar7">
		<g id="back_4_">
		</g>
		<g id="clothes_14_">
		</g>
		<g id="face_11_">
		</g>
		<g id="hair_14_">
		</g>
	</g>
	<g id="avatar6">
		<g id="back_13_">
		</g>
		<g id="clothes_15_">
		</g>
		<g id="face_16_">
		</g>
		<g id="glasses_2_">
		</g>
		<g id="beard_4_">
		</g>
		<g id="hair_5_">
		</g>
	</g>
	<g id="avatar5">
		<g id="back_14_">
		</g>
		<g id="clothes_5_">
		</g>
		<g id="face_38_">
		</g>
		<g id="beard_3_">
		</g>
		<g id="hair_4_">
		</g>
	</g>
	<g id="avatar4">
		<g id="back_3_">
			<circle fill="#DA4453" cx="256" cy="256" r="200"/>
		</g>
		<g id="clothes_4_">
			<path id="_x31_0_12_" fill="#434A54" d="M372.668,358.789c-7.353-6.355-19.364-14.563-30.666-15.666
				c-7.258-0.709-86.002-13-86.002-13s-78.744,12.291-86.002,13c-11.302,1.104-23.313,9.311-30.666,15.666
				c-13.417,11.598-20.781,25.84-24.795,38.711c36.195,36.219,86.213,58.621,141.463,58.621s105.268-22.402,141.463-58.621
				C393.449,384.629,386.085,370.387,372.668,358.789z"/>
			<path id="_x39__15_" fill="#434A54" d="M229.057,335.355l-3.025-16.465c-4.22-1.055-22.44-4.68-23.03,11.232
				C202.334,348.121,255,389.121,255,389.121l-10.289-25.637C231.531,356.043,229.057,335.355,229.057,335.355z"/>
			<path id="_x38__21_" fill="#434A54" d="M280.943,335.355l3.025-16.465c4.22-1.055,22.44-4.68,23.03,11.232
				C307.666,348.121,255,389.121,255,389.121l10.289-25.637C278.469,356.043,280.943,335.355,280.943,335.355z"/>
			<path id="_x35__52_" fill="#656D78" d="M348,337.121c-5.5-18.5-27.955-10.777-27.955-10.777
				c-10.543-22.4-33.758-11.484-35.492-10.631l-0.584,3.178c4.22-1.055,22.44-4.68,23.03,11.232
				C307.666,348.121,255,389.121,255,389.121l0,0c0,0-52.666-41-51.999-58.998c0.59-15.912,18.811-12.287,23.03-11.232l-0.584-3.178
				c-1.734-0.854-24.949-11.77-35.492,10.631c0,0-22.455-7.723-27.955,10.777c0,0-17-3.221-17.5,10.867S254.945,395,254.945,395
				h0.109c0,0,110.945-32.924,110.445-47.012S348,337.121,348,337.121z"/>
			<circle id="_x34__68_" fill="#434A54" cx="240.375" cy="386.496" r="3"/>
			<circle id="_x33__75_" fill="#434A54" cx="271.625" cy="386.496" r="3"/>
			<path id="_x32__79_" fill="#E6E9ED" d="M273,387c0,0,0,66,0,89c0,2-3,2-3,0c0-23,0-66,0-89C270,385,273,385,273,387
				C273,387,273,385,273,387z"/>
			<path id="_x31__96_" fill="#E6E9ED" d="M239,387c0,0,0,66,0,89c0,2,3,2,3,0c0-23,0-66,0-89C242,385,239,385,239,387
				C239,387,239,385,239,387z"/>
			<path id="_x37__37_" fill="#AB7049" d="M255,252.121l-42.25-5.5l16.307,88.734c0,0,3.666,30.766,25.943,30.766
				s25.943-30.766,25.943-30.766l16.307-88.734L255,252.121z"/>
			<path id="_x36__47_" fill="#8C5C3C" d="M289,261.621l-69.525,21.592l7.086,38.557c10.66,13.145,26.918,25.186,50.957,26.264
				c2.709-6.691,3.426-12.678,3.426-12.678l12.127-65.99C290.686,264.568,289,261.621,289,261.621z"/>
		</g>
		<g id="face_13_">
			<path id="ear_133_" fill="#AB7049" d="M193,215.621c0,0-21.309-13.5-19.104,14.5s19.104,26,19.104,26V215.621z"/>
			<path id="ear_130_" fill="#AB7049" d="M319,215.621c0,0,21.31-13.5,19.104,14.5c-2.204,28-19.104,26-19.104,26V215.621z"/>
			<path id="face_82_" fill="#BA7A50" d="M256,143.383c-63,0-63,34.738-63,34.738s0,59.5,0,80s19.237,36.287,35.226,50
				c13.408,11.5,27.774,11,27.774,11s14.366,0.5,27.774-11c15.988-13.713,35.226-29.5,35.226-50s0-80,0-80S319,143.383,256,143.383z
				"/>
		</g>
		<g id="beard_2_">
			<path id="_x31__91_" fill="#434A54" d="M319.473,256.121c0,0-17.453,44.584-43.119,42.25l-6.843-8.957
				c0,0,6.962,21.375-13.038,21.375s-13.038-21.375-13.038-21.375l-6.843,8.957c-25.666,2.334-43.119-42.25-43.119-42.25
				c-1.431,40.166,50.334,61.668,50.334,61.668c7.352,5,12.666,7.332,12.666,7.332s5.314-2.332,12.666-7.332
				C269.139,317.789,320.903,296.287,319.473,256.121z"/>
		</g>
		<g id="glasses_1_">
			<path id="_x37__48_" fill="#434A54" d="M302.139,255.789c-21.099,0-35.999-12.605-40.881-34.584
				c-0.386-1.734-2.935-3.141-4.788-3.844c-1.84,0.699-4.396,2.107-4.782,3.844c-4.882,21.979-19.782,34.584-40.881,34.584
				c-10.593,0-16.288-4.674-19.202-8.594c-9.406-12.66-3.357-34.002-2.637-36.393l0.704-2.34l2.279-0.881
				c0.963-0.373,24.054-9.127,64.521-9.127s63.559,8.754,64.521,9.127l2.279,0.881l0.704,2.34c0.721,2.391,6.77,23.732-2.637,36.393
				C318.427,251.115,312.731,255.789,302.139,255.789z"/>
			<path id="_x36__54_" fill="#656D78" d="M261,198.506c-1-0.029-3.299-0.051-5-0.051s-3,0.021-5,0.051v23.596
				c1-0.299,0.384-0.594,0.451-0.896c0.386-1.736,3.061-3.145,4.9-3.844c1.854,0.703,4.225,2.109,4.611,3.844
				c0.066,0.303,0.037,0.598,0.037,0.896V198.506z"/>
			<path id="_x35__57_" fill="#F6BB42" d="M319.19,212.244c0,0-22.718-8.789-62.718-8.789s-62.718,8.789-62.718,8.789
				s-11.614,38.545,17.052,38.545s34.667-24.666,36-30.668c1.333-6,9.666-8,9.666-8s8.333,2,9.666,8
				c1.333,6.002,7.334,30.668,36,30.668S319.19,212.244,319.19,212.244z"/>
			<path id="_x34__73_" fill="#FFCE54" d="M202.498,209.607l-10.865,23.072c0.688,6.752,3.271,13.309,9.987,16.348l20.354-43.227
				C213.735,206.975,207.199,208.396,202.498,209.607z"/>
			<path id="_x33__84_" fill="#FFD56B" d="M231.348,204.674l-21.703,46.09c0.381,0.014,0.767,0.025,1.162,0.025
				c2.434,0,4.691-0.191,6.809-0.52l21.783-46.262C236.593,204.193,233.913,204.418,231.348,204.674z"/>
			<path id="_x32__93_" fill="#FFCE54" d="M277.016,204.26l-9.649,20.492c1.47,4.686,4.302,11.303,9.821,16.699l16.591-35.232
				C288.854,205.449,283.256,204.758,277.016,204.26z"/>
			<path id="_x31__105_" fill="#FFD56B" d="M301.937,207.672l-18.211,38.674c1.933,1.09,4.064,2.031,6.438,2.758l18.777-39.875
				C306.898,208.725,304.561,208.197,301.937,207.672z"/>
		</g>
		<g id="hair_3_">
			<path id="_x34__64_" fill="#434A54" d="M342.68,60.777c-12.515-13.184-29.688-22.047-49.217-23.779
				c-14.978-1.328-29.328,1.721-41.811,8.066c-10.474-6.322-22.507-10.428-35.515-11.582c-45.66-4.051-85.96,29.68-90.012,75.34
				c-0.6,6.76-0.353,13.396,0.62,19.82c-9.375,9.115-15.663,21.492-16.91,35.539c-1.447,16.314,4.188,31.617,14.354,42.891
				c-0.973,28.805,20.744,53.674,49.802,56.252c6.648,0.59,13.122-0.04,19.206-1.699c-0.125-1.152-0.197-2.319-0.197-3.504
				c0-0.61,0-1.281,0-2c0,0-16.9,2-19.104-26s19.104-14.5,19.104-14.5c0-7.967,0-16.145,0-23.837
				c6.044-2.3,10.201-8.286,9.86-15.093c-0.095-1.883-0.54-3.66-1.245-5.295c0.215-0.004,0.429-0.006,0.646-0.016
				c5.288-0.266,10.036-2.408,13.638-5.748c8.066,10.326,20.855,16.703,34.936,15.998c14.328-0.717,26.6-8.594,33.534-19.99
				c5.593,5.592,13.438,8.887,21.958,8.461c2.554-0.129,5.012-0.586,7.34-1.324c1.095,1.996,2.568,3.744,4.326,5.152
				c-0.229,1.246-0.334,2.531-0.268,3.852c0.099,1.977,0.556,3.845,1.275,5.571c0,9.941,0,21.308,0,32.269
				c0,0,21.309-13.5,19.104,14.5s-19.104,26-19.104,26c0,0.719,0,1.39,0,2c0,4.832-1.068,9.398-2.896,13.74
				c9.113-1.035,16.936-6.897,20.542-15.178c21.593-1.291,39.57-18.215,41.54-40.412c0.687-7.738-0.659-15.184-3.588-21.822
				c3.554-5.766,5.986-12.332,6.95-19.428c11.623-10.734,19.45-25.654,20.959-42.656C405.727,96.078,378.949,64.051,342.68,60.777z"
				/>
			<path id="_x33__71_" fill="#656D78" d="M120.836,194.182c1.247-14.047,7.535-26.424,16.91-35.539
				c-0.973-6.424-1.22-13.061-0.62-19.82c4.052-45.66,44.352-79.391,90.012-75.34c13.008,1.154,25.041,5.26,35.515,11.582
				c12.482-6.346,26.833-9.395,41.811-8.066c19.529,1.732,36.702,10.596,49.217,23.779c20.511,1.852,37.98,12.902,48.711,28.715
				c-3.259-30.705-27.808-55.836-59.711-58.715c-12.515-13.184-29.688-22.047-49.217-23.779
				c-14.978-1.328-29.328,1.721-41.811,8.066c-10.474-6.322-22.507-10.428-35.515-11.582c-45.66-4.051-85.96,29.68-90.012,75.34
				c-0.6,6.76-0.353,13.396,0.62,19.82c-9.375,9.115-15.663,21.492-16.91,35.539c-1.273,14.357,2.942,27.928,10.898,38.66
				C120.554,200,120.576,197.107,120.836,194.182z"/>
			<path id="_x32__77_" fill="#656D78" d="M195.094,136.102c2.938-0.146,5.769,0.301,8.377,1.234c0.789-2.98,1.908-5.83,3.306-8.516
				c-2.125-0.568-4.368-0.834-6.683-0.719c-9.048,0.453-16.516,6.395-19.354,14.439
				C184.416,138.807,189.447,136.385,195.094,136.102z"/>
			<path id="_x31__95_" fill="#656D78" d="M345.411,164.471c0.36-1.531,0.527-3.137,0.444-4.787
				c-0.372-7.422-5.414-13.488-12.133-15.543c0.15-1.457,0.192-2.945,0.117-4.453c-0.802-15.996-14.418-28.314-30.415-27.514
				c-7.062,0.354-13.404,3.207-18.219,7.658c-7.467-13.461-22.129-22.252-38.54-21.432c-15.836,0.793-29.152,10.334-35.531,23.705
				c7.19-9.047,18.081-15.082,30.531-15.705c16.411-0.82,31.073,7.971,38.54,21.432c4.814-4.451,11.157-7.305,18.219-7.658
				c15.997-0.801,29.613,11.518,30.415,27.514c0.075,1.508,0.033,2.996-0.117,4.453c6.719,2.055,11.761,8.121,12.133,15.543
				c0.083,1.65-0.084,3.256-0.444,4.787c3.24,2.867,5.372,6.98,5.605,11.643c0.092,1.84-0.13,3.617-0.598,5.299
				c3.652-3.24,5.86-8.043,5.598-13.299C350.783,171.451,348.651,167.338,345.411,164.471z"/>
		</g>
	</g>
	<g id="avatar3">
		<g id="back_15_">
		</g>
		<g id="clothes_16_">
		</g>
		<g id="face_49_">
		</g>
		<g id="hair_15_">
		</g>
	</g>
	<g id="avatar2">
		<g id="back_2_">
		</g>
		<g id="clothes_3_">
		</g>
		<g id="face_9_">
		</g>
		<g id="beard_1_">
		</g>
		<g id="hair_2_">
		</g>
	</g>
	<g id="avatar1">
		<g id="back_1_">
		</g>
		<g id="clothes_2_">
		</g>
		<g id="face_6_">
		</g>
		<g id="hair_1_">
		</g>
	</g>
</g>
</svg>
