<?xml version="1.0" encoding="iso-8859-1"?>
<!-- Generator: Adobe Illustrator 16.0.3, SVG Export Plug-In . SVG Version: 6.00 Build 0)  -->
<!DOCTYPE svg PUBLIC "-//W3C//DTD SVG 1.1 Basic//EN" "http://www.w3.org/Graphics/SVG/1.1/DTD/svg11-basic.dtd">
<svg version="1.1" baseProfile="basic" xmlns="http://www.w3.org/2000/svg" xmlns:xlink="http://www.w3.org/1999/xlink" x="0px"
	 y="0px" width="512px" height="512px" viewBox="0 0 512 512" xml:space="preserve">
<g id="Layer_159" display="none">
	<rect x="512" y="512" display="inline" fill="#FFFFFF" width="512" height="512"/>
	<rect y="512" display="inline" fill="#FFFFFF" width="512" height="512"/>
	<rect x="512" y="-512" display="inline" fill="#FFFFFF" width="512" height="512"/>
	<rect y="-512" display="inline" fill="#FFFFFF" width="512" height="512"/>
	<rect x="512" display="inline" fill="#FFFFFF" width="512" height="512"/>
	<rect display="inline" fill="#FFFFFF" width="512" height="512"/>
</g>
<g id="female" display="none">
	<g id="avatar15_1_" display="inline">
		<g id="baclk">
		</g>
		<g id="hair_back_8_">
		</g>
		<g id="clothes_30_">
		</g>
		<g id="face_98_">
		</g>
		<g id="hair_front_8_">
		</g>
	</g>
	<g id="avatar14_1_" display="inline">
		<g id="back_16_">
		</g>
		<g id="hair_back">
		</g>
		<g id="clothes_17_">
		</g>
		<g id="face_57_">
		</g>
		<g id="hair_front">
		</g>
	</g>
	<g id="avatar13_1_" display="inline">
		<g id="back_x27_">
		</g>
		<g id="clothes">
		</g>
		<g id="face">
		</g>
		<g id="hair">
		</g>
	</g>
	<g id="avatar12_1_" display="inline">
		<g id="back_27_">
		</g>
		<g id="clothes_29_">
		</g>
		<g id="face_97_">
		</g>
		<g id="hair_20_">
		</g>
	</g>
	<g id="avatar11_1_" display="inline">
		<g id="back_26_">
		</g>
		<g id="clothes_28_">
		</g>
		<g id="face_95_">
		</g>
		<g id="hair_19_">
		</g>
	</g>
	<g id="avatar10_1_" display="inline">
		<g id="back_25_">
		</g>
		<g id="clothes_27_">
		</g>
		<g id="face_94_">
		</g>
		<g id="glasses_11_">
		</g>
		<g id="hair_18_">
		</g>
	</g>
	<g id="avatar9_1_" display="inline">
		<g id="back_24_">
		</g>
		<g id="clothes_26_">
		</g>
		<g id="face_92_">
		</g>
		<g id="hair_17_">
		</g>
	</g>
	<g id="avatar8_1_" display="inline">
		<g id="back_23_">
		</g>
		<g id="hair_back_7_">
		</g>
		<g id="clothes_25_">
		</g>
		<g id="face_91_">
		</g>
		<g id="hair_front_7_">
		</g>
	</g>
	<g id="avatar7_1_" display="inline">
		<g id="back_22_">
		</g>
		<g id="clothes_24_">
		</g>
		<g id="face_90_">
		</g>
		<g id="necklace_1_">
		</g>
		<g id="earings_1_">
		</g>
		<g id="hair_16_">
		</g>
	</g>
	<g id="avatar6_1_" display="inline">
		<g id="back_21_">
		</g>
		<g id="hair_back_6_">
		</g>
		<g id="clothes_23_">
		</g>
		<g id="face_89_">
		</g>
		<g id="glasses_12_">
		</g>
		<g id="hair_front_6_">
		</g>
	</g>
	<g id="avatar5_1_" display="inline">
		<g id="back_20_">
		</g>
		<g id="hair_back_5_">
		</g>
		<g id="clothes_22_">
		</g>
		<g id="face_88_">
		</g>
		<g id="glasses_9_">
		</g>
		<g id="hair_front_5_">
		</g>
	</g>
	<g id="avatar4_1_" display="inline">
		<g id="back_19_">
		</g>
		<g id="hair_back_4_">
		</g>
		<g id="clothes_21_">
		</g>
		<g id="face_87_">
		</g>
		<g id="earing_1_">
		</g>
		<g id="hair_front_4_">
		</g>
	</g>
	<g id="avatar3_1_" display="inline">
		<g id="back_18_">
		</g>
		<g id="hair_back_3_">
		</g>
		<g id="clothes_20_">
		</g>
		<g id="face_86_">
		</g>
		<g id="earings">
		</g>
		<g id="glasses_8_">
		</g>
		<g id="hair_front_3_">
		</g>
	</g>
	<g id="avatar2_1_" display="inline">
		<g id="Layebackr_167">
		</g>
		<g id="hair_back_2_">
		</g>
		<g id="clothes_19_">
		</g>
		<g id="necklace">
		</g>
		<g id="face_85_">
		</g>
		<g id="hair_front_2_">
		</g>
	</g>
	<g id="avatar1_1_" display="inline">
		<g id="back_17_">
		</g>
		<g id="hair_back_1_">
		</g>
		<g id="clothes_18_">
		</g>
		<g id="face_84_">
		</g>
		<g id="hair_front_1_">
		</g>
	</g>
</g>
<g id="male">
	<g id="avatar20">
		<g id="back_32_">
		</g>
		<g id="clothes_34_">
		</g>
		<g id="face_100_">
		</g>
		<g id="hair_22_">
		</g>
	</g>
	<g id="avatar19">
		<g id="back_31_">
		</g>
		<g id="clothes_33_">
		</g>
		<g id="face_99_">
		</g>
		<g id="scaft">
		</g>
		<g id="hat">
		</g>
	</g>
	<g id="avatar18">
		<g id="back_30_">
		</g>
		<g id="clothes_32_">
		</g>
		<g id="face_55_">
		</g>
		<g id="earings_2_">
		</g>
		<g id="hair_21_">
		</g>
	</g>
	<g id="avatar17">
		<g id="back_29_">
		</g>
		<g id="hair_back_10_">
		</g>
		<g id="clothes_31_">
		</g>
		<g id="face_2_">
		</g>
		<g id="glasses_10_">
		</g>
		<g id="hair_front_10_">
		</g>
	</g>
	<g id="avatar16">
		<g id="back_28_">
		</g>
		<g id="hair_back_9_">
		</g>
		<g id="clothes_1_">
		</g>
		<g id="face_1_">
		</g>
		<g id="hair_front_9_">
		</g>
	</g>
	<g id="avatar15">
		<g id="back_5_">
		</g>
		<g id="clothes_6_">
		</g>
		<g id="face_29_">
		</g>
		<g id="glasses_4_">
		</g>
		<g id="hair_8_">
		</g>
	</g>
	<g id="avatar14">
		<g id="back_6_">
		</g>
		<g id="clothes_7_">
		</g>
		<g id="face_42_">
		</g>
		<g id="earings_3_">
		</g>
		<g id="hair_9_">
		</g>
	</g>
	<g id="avatar13">
		<g id="back_7_">
		</g>
		<g id="clothes_8_">
		</g>
		<g id="face_43_">
		</g>
		<g id="glasses_5_">
		</g>
		<g id="hair_10_">
		</g>
	</g>
	<g id="avatar12">
		<g id="back_8_">
		</g>
		<g id="clothes_9_">
		</g>
		<g id="face_44_">
		</g>
		<g id="beard_6_">
		</g>
		<g id="hair_11_">
		</g>
	</g>
	<g id="avatar11">
		<g id="back_9_">
		</g>
		<g id="clothes_10_">
		</g>
		<g id="face_45_">
		</g>
		<g id="glass">
		</g>
		<g id="hair_12_">
		</g>
	</g>
	<g id="avatar10">
		<g id="back_10_">
		</g>
		<g id="clothes_11_">
		</g>
		<g id="face_46_">
		</g>
		<g id="beard_7_">
		</g>
		<g id="glasses_6_">
		</g>
		<g id="hair_13_">
		</g>
	</g>
	<g id="avatar9">
		<g id="back_11_">
		</g>
		<g id="clothes_12_">
		</g>
		<g id="face_47_">
		</g>
		<g id="glasses_3_">
		</g>
		<g id="hair_7_">
		</g>
	</g>
	<g id="avatar8">
		<g id="back_12_">
		</g>
		<g id="clothes_13_">
		</g>
		<g id="face_48_">
		</g>
		<g id="beard_5_">
		</g>
		<g id="glasses_7_">
		</g>
		<g id="hair_6_">
		</g>
	</g>
	<g id="avatar7">
		<g id="back_4_">
		</g>
		<g id="clothes_14_">
		</g>
		<g id="face_11_">
		</g>
		<g id="hair_14_">
		</g>
	</g>
	<g id="avatar6">
		<g id="back_13_">
			<circle fill="#3DB093" cx="256" cy="256" r="200"/>
		</g>
		<g id="clothes_15_">
			<path id="_x34__78_" fill="#F9E0A8" d="M256.473,253l-42.25-5.5l16.307,88.734c0,0,3.666,30.766,25.943,30.766
				s25.943-30.766,25.943-30.766l16.307-88.734L256.473,253z"/>
			<path id="_x33__94_" fill="#D9C392" d="M290.473,262.5l-69.525,21.592l7.086,38.556c10.66,13.146,26.918,25.187,50.957,26.265
				c2.709-6.691,3.426-12.678,3.426-12.678l12.127-65.99C292.158,265.447,290.473,262.5,290.473,262.5z"/>
			<path id="_x32__105_" fill="#434A54" d="M373.141,359.667c-4.934-4.265-11.967-9.353-19.473-12.579
				c-3.682-1.582-7.475-2.724-11.193-3.087c-2.043-0.199-9.75-1.317-19.771-2.819c-11.353-1.702-25.671-3.898-38.091-5.814
				c0.618-4.043,0.868-7.991-0.749-7.016c-4.393,2.649-27.392,1.649-27.392,1.649s-22.999,1-27.392-1.649
				c-1.617-0.976-1.367,2.973-0.749,7.016c-12.42,1.916-26.738,4.112-38.091,5.814c-10.021,1.502-17.728,2.62-19.771,2.819
				c-3.719,0.363-7.512,1.505-11.193,3.087c-7.506,3.227-14.539,8.314-19.473,12.579c-13.417,11.598-20.781,25.84-24.795,38.712
				C151.206,434.597,201.223,457,256.473,457s105.267-22.403,141.463-58.621C393.922,385.507,386.558,371.265,373.141,359.667z"/>
			<path id="_x31__131_" fill="#656D78" d="M139.805,374.667c4.934-4.265,11.967-9.353,19.473-12.579
				c3.682-1.582,7.475-2.724,11.193-3.087c2.043-0.199,9.75-1.317,19.771-2.819c11.353-1.702,25.671-3.898,38.091-5.814
				c-0.618-4.043-1.617-15.976,0-15c4.393,2.649,51.889,2.649,56.281,0c1.617-0.976,0.618,10.957,0,15
				c12.42,1.916,26.738,4.112,38.091,5.814c10.021,1.502,17.728,2.62,19.771,2.819c3.719,0.363,7.512,1.505,11.193,3.087
				c7.506,3.227,14.539,8.314,19.473,12.579c9.694,8.38,16.217,18.14,20.61,27.766c1.412-1.333,2.812-2.681,4.185-4.054
				c-4.014-12.872-11.378-27.114-24.795-38.712c-4.934-4.265-11.967-9.353-19.473-12.579c-3.682-1.582-7.475-2.724-11.193-3.087
				c-2.043-0.199-9.75-1.317-19.771-2.819c-11.353-1.702-25.671-3.898-38.091-5.814c0.618-4.043,0.868-7.991-0.749-7.016
				c-4.393,2.649-27.392,1.649-27.392,1.649s-22.999,1-27.392-1.649c-1.617-0.976-1.367,2.973-0.749,7.016
				c-12.42,1.916-26.738,4.112-38.091,5.814c-10.021,1.502-17.728,2.62-19.771,2.819c-3.719,0.363-7.512,1.505-11.193,3.087
				c-7.506,3.227-14.539,8.314-19.473,12.579c-13.417,11.598-20.781,25.84-24.795,38.712c1.373,1.373,2.772,2.721,4.185,4.054
				C123.588,392.807,130.11,383.047,139.805,374.667z"/>
		</g>
		<g id="face_16_">
			<path id="ear_32_" fill="#F9E0A8" d="M193,215.621c0,0-21.309-13.5-19.104,14.5s19.104,26,19.104,26V215.621z"/>
			<path id="ear_27_" fill="#F9E0A8" d="M319,215.621c0,0,21.31-13.5,19.104,14.5c-2.204,28-19.104,26-19.104,26V215.621z"/>
			<path id="face_19_" fill="#FFE9BA" d="M256,143.383c-63,0-63,34.738-63,34.738s0,59.5,0,80s19.237,36.287,35.226,50
				c13.408,11.5,27.774,11,27.774,11s14.366,0.5,27.774-11c15.988-13.713,35.226-29.5,35.226-50s0-80,0-80S319,143.383,256,143.383z
				"/>
		</g>
		<g id="glasses_2_">
			<path id="_x37__56_" fill="#656D78" d="M320.631,216.873l-24.189,9.623c-2.682-5.404-8.241-9.127-14.686-9.127
				c-8.054,0-14.74,5.807-16.131,13.461c-2.427-2.203-5.99-3.18-9.152-3.242c-3.162,0.063-6.728,1.039-9.152,3.242
				c-1.391-7.654-8.076-13.461-16.13-13.461c-6.444,0-12.005,3.723-14.689,9.127l-24.187-9.623l0.063,2.143
				c0,0,21.274,10.313,22.613,12.277c-0.124,0.813-0.208,1.637-0.208,2.484c0,9.063,7.345,16.408,16.408,16.408
				c8.917,0,16.153-7.115,16.387-15.977c1.732-3.043,5.634-4.219,8.896-4.285c3.262,0.066,7.164,1.242,8.896,4.285
				c0.231,8.861,7.471,15.977,16.388,15.977c9.063,0,16.407-7.346,16.407-16.408c0-0.848-0.084-1.672-0.207-2.484
				c1.338-1.965,22.609-12.277,22.609-12.277L320.631,216.873z"/>
			<circle id="_x36__62_" fill="#F5F7FA" cx="231.189" cy="233.777" r="14.266"/>
			<circle id="_x35__70_" fill="#F5F7FA" cx="281.757" cy="233.777" r="14.266"/>
			<path id="_x34__77_" fill="#E8EAED" d="M231.19,219.512c-1.347,0-2.643,0.199-3.878,0.547l-8.001,21.615
				c1.831,2.75,4.592,4.82,7.833,5.777l9.879-26.684C235.239,219.967,233.269,219.512,231.19,219.512z"/>
			<path id="_x33__93_" fill="#E8EAED" d="M238.414,221.492l-9.74,26.316c0.818,0.145,1.656,0.232,2.517,0.232
				c1.162,0,2.285-0.152,3.369-0.416l8.203-22.164C241.607,223.854,240.128,222.502,238.414,221.492z"/>
			<path id="_x32__103_" fill="#E8EAED" d="M281.907,219.512c-1.346,0-2.642,0.199-3.876,0.547l-8,21.615
				c1.832,2.75,4.59,4.82,7.833,5.777l9.876-26.684C285.959,219.967,283.988,219.512,281.907,219.512z"/>
			<path id="_x31__129_" fill="#E8EAED" d="M289.134,221.492l-9.74,26.316c0.816,0.145,1.656,0.232,2.514,0.232
				c1.163,0,2.288-0.152,3.37-0.416l8.202-22.164C292.325,223.854,290.845,222.502,289.134,221.492z"/>
		</g>
		<g id="beard_4_">
			<path id="_x31__101_" fill="#CCD1D9" d="M300.736,257.152c-2.25,25.111-6.069,25.281-13.382,22.469c0,0,10.226-17-30.941-17
				s-30.97,17-30.97,17c-7.313,2.813-11.472,2.643-13.722-22.469C210.316,241.469,193,243.621,193,243.621v23c19,65,63,53.5,63,53.5
				s45,11.5,63-53.5v-23C319,243.621,302.142,241.469,300.736,257.152z M268.678,289.859c-2.051,3.98-11.58,5.27-12.205,5.246
				c-0.625,0.023-10.154-1.266-12.205-5.246c-2.833-5.5-7.962-5.231-7.962-5.231S250.199,283,255.473,278h2
				c5.273,5,19.167,6.628,19.167,6.628S271.511,284.359,268.678,289.859z"/>
		</g>
		<g id="hair_5_">
			<path id="_x31__118_" fill="#CCD1D9" d="M325.973,200.365c-6.5-12.244,3-28.744-6.5-33.744s-11.5-39.5-63-39.5
				s-53.5,34.5-63,39.5s0,21.5-6.5,33.744s6.5,25.256,6.5,25.256l8.5,11.5c-2.099-11.311,6.96-12.443,4-20
				c-22.133-56.5,26.5-69,26.5-69c3.5,9.988,15.5,2,15.5,7s8.5,10,8.5,10s8.5-5,8.5-10s12,2.988,15.5-7c0,0,48.633,12.5,26.5,69
				c-2.96,7.557,6.099,8.689,4,20l8.5-11.5C319.473,225.621,332.473,212.609,325.973,200.365z"/>
		</g>
	</g>
	<g id="avatar5">
		<g id="back_14_">
		</g>
		<g id="clothes_5_">
		</g>
		<g id="face_38_">
		</g>
		<g id="beard_3_">
		</g>
		<g id="hair_4_">
		</g>
	</g>
	<g id="avatar4">
		<g id="back_3_">
		</g>
		<g id="clothes_4_">
		</g>
		<g id="face_13_">
		</g>
		<g id="beard_2_">
		</g>
		<g id="glasses_1_">
		</g>
		<g id="hair_3_">
		</g>
	</g>
	<g id="avatar3">
		<g id="back_15_">
		</g>
		<g id="clothes_16_">
		</g>
		<g id="face_49_">
		</g>
		<g id="hair_15_">
		</g>
	</g>
	<g id="avatar2">
		<g id="back_2_">
		</g>
		<g id="clothes_3_">
		</g>
		<g id="face_9_">
		</g>
		<g id="beard_1_">
		</g>
		<g id="hair_2_">
		</g>
	</g>
	<g id="avatar1">
		<g id="back_1_">
		</g>
		<g id="clothes_2_">
		</g>
		<g id="face_6_">
		</g>
		<g id="hair_1_">
		</g>
	</g>
</g>
</svg>
