<?xml version="1.0" encoding="iso-8859-1"?>
<!-- Generator: Adobe Illustrator 16.0.3, SVG Export Plug-In . SVG Version: 6.00 Build 0)  -->
<!DOCTYPE svg PUBLIC "-//W3C//DTD SVG 1.1 Basic//EN" "http://www.w3.org/Graphics/SVG/1.1/DTD/svg11-basic.dtd">
<svg version="1.1" baseProfile="basic" xmlns="http://www.w3.org/2000/svg" xmlns:xlink="http://www.w3.org/1999/xlink" x="0px"
	 y="0px" width="512px" height="512px" viewBox="0 0 512 512" xml:space="preserve">
<g id="Layer_159" display="none">
	<rect y="511" display="inline" fill="#FFFFFF" width="512" height="512"/>
	<rect x="-512" y="511" display="inline" fill="#FFFFFF" width="512" height="512"/>
	<rect x="512" y="511" display="inline" fill="#FFFFFF" width="512" height="512"/>
	<rect x="512" y="-512" display="inline" fill="#FFFFFF" width="512" height="512"/>
	<rect y="-512" display="inline" fill="#FFFFFF" width="512" height="512"/>
	<rect x="-512" y="-512" display="inline" fill="#FFFFFF" width="512" height="512"/>
	<rect x="512" display="inline" fill="#FFFFFF" width="512" height="512"/>
	<rect x="-512" display="inline" fill="#FFFFFF" width="512" height="512"/>
	<rect display="inline" fill="#FFFFFF" width="512" height="512"/>
</g>
<g id="female" display="none">
	<g id="avatar15_1_" display="inline">
		<g id="baclk">
		</g>
		<g id="hair_back_8_">
		</g>
		<g id="clothes_30_">
		</g>
		<g id="face_98_">
		</g>
		<g id="hair_front_8_">
		</g>
	</g>
	<g id="avatar14_1_" display="inline">
		<g id="back_16_">
		</g>
		<g id="hair_back">
		</g>
		<g id="clothes_17_">
		</g>
		<g id="face_57_">
		</g>
		<g id="hair_front">
		</g>
	</g>
	<g id="avatar13_1_" display="inline">
		<g id="back_x27_">
		</g>
		<g id="clothes">
		</g>
		<g id="face">
		</g>
		<g id="hair">
		</g>
	</g>
	<g id="avatar12_1_" display="inline">
		<g id="back_27_">
		</g>
		<g id="clothes_29_">
		</g>
		<g id="face_97_">
		</g>
		<g id="hair_20_">
		</g>
	</g>
	<g id="avatar11_1_" display="inline">
		<g id="back_26_">
		</g>
		<g id="clothes_28_">
		</g>
		<g id="face_95_">
		</g>
		<g id="hair_19_">
		</g>
	</g>
	<g id="avatar10_1_" display="inline">
		<g id="back_25_">
		</g>
		<g id="clothes_27_">
		</g>
		<g id="face_94_">
		</g>
		<g id="glasses_11_">
		</g>
		<g id="hair_18_">
		</g>
	</g>
	<g id="avatar9_1_" display="inline">
		<g id="back_24_">
		</g>
		<g id="clothes_26_">
		</g>
		<g id="face_92_">
		</g>
		<g id="hair_17_">
		</g>
	</g>
	<g id="avatar8_1_" display="inline">
		<g id="back_23_">
		</g>
		<g id="hair_back_7_">
		</g>
		<g id="clothes_25_">
		</g>
		<g id="face_91_">
		</g>
		<g id="hair_front_7_">
		</g>
	</g>
	<g id="avatar7_1_" display="inline">
		<g id="back_22_">
		</g>
		<g id="clothes_24_">
		</g>
		<g id="face_90_">
		</g>
		<g id="necklace_1_">
		</g>
		<g id="earings_1_">
		</g>
		<g id="hair_16_">
		</g>
	</g>
	<g id="avatar6_1_" display="inline">
		<g id="back_21_">
		</g>
		<g id="hair_back_6_">
		</g>
		<g id="clothes_23_">
		</g>
		<g id="face_89_">
		</g>
		<g id="glasses_12_">
		</g>
		<g id="hair_front_6_">
		</g>
	</g>
	<g id="avatar5_1_" display="inline">
		<g id="back_20_">
		</g>
		<g id="hair_back_5_">
		</g>
		<g id="clothes_22_">
		</g>
		<g id="face_88_">
		</g>
		<g id="glasses_9_">
		</g>
		<g id="hair_front_5_">
		</g>
	</g>
	<g id="avatar4_1_" display="inline">
		<g id="back_19_">
		</g>
		<g id="hair_back_4_">
		</g>
		<g id="clothes_21_">
		</g>
		<g id="face_87_">
		</g>
		<g id="earing_1_">
		</g>
		<g id="hair_front_4_">
		</g>
	</g>
	<g id="avatar3_1_" display="inline">
		<g id="back_18_">
		</g>
		<g id="hair_back_3_">
		</g>
		<g id="clothes_20_">
		</g>
		<g id="face_86_">
		</g>
		<g id="earings">
		</g>
		<g id="glasses_8_">
		</g>
		<g id="hair_front_3_">
		</g>
	</g>
	<g id="avatar2_1_" display="inline">
		<g id="Layebackr_167">
		</g>
		<g id="hair_back_2_">
		</g>
		<g id="clothes_19_">
		</g>
		<g id="necklace">
		</g>
		<g id="face_85_">
		</g>
		<g id="hair_front_2_">
		</g>
	</g>
	<g id="avatar1_1_" display="inline">
		<g id="back_17_">
		</g>
		<g id="hair_back_1_">
		</g>
		<g id="clothes_18_">
		</g>
		<g id="face_84_">
		</g>
		<g id="hair_front_1_">
		</g>
	</g>
</g>
<g id="male">
	<g id="avatar20">
		<g id="back_32_">
		</g>
		<g id="clothes_34_">
		</g>
		<g id="face_100_">
		</g>
		<g id="hair_22_">
		</g>
	</g>
	<g id="avatar19">
		<g id="back_31_">
			<circle fill="#3BAFDA" cx="256" cy="256" r="200"/>
		</g>
		<g id="clothes_33_">
			<path id="_x31_8_1_" fill="#434A54" d="M372.668,358.789c-7.353-6.355-19.364-14.563-30.666-15.666
				c-7.258-0.709-86.002-13-86.002-13s-78.744,12.291-86.002,13c-11.302,1.104-23.313,9.311-30.666,15.666
				c-13.417,11.598-20.781,25.84-24.795,38.711c36.195,36.219,86.213,58.621,141.463,58.621s105.268-22.402,141.463-58.621
				C393.449,384.629,386.085,370.387,372.668,358.789z"/>
			<path fill="#272B30" d="M250,456.023c1.994,0.06,3.992,0.098,6,0.098s4.006-0.038,6-0.098V365h-12V456.023z"/>
			<path fill="#BDAA80" d="M139.332,358.789c-5.514,4.766-9.991,9.981-13.647,15.361c1.681,10.084,2.228,22.374,2.062,35.425
				c25.243,21.122,55.773,36.126,89.32,42.745c0.743-17.528-0.126-32.973-4.421-39.82C199.79,392,216,353.25,216,353.25
				l-19.207-14.005c-13.318,2.017-24.295,3.634-26.795,3.878C158.696,344.227,146.685,352.434,139.332,358.789z"/>
			<path fill="#DEC896" d="M214.197,448.663c-30.498-6.598-59.249-20.541-83.436-40.483c0.114-13.167-0.532-24.36-1.923-33.316
				c3.603-5.131,7.79-9.771,12.456-13.805c4.752-4.107,17.09-13.787,28.996-14.95c2.206-0.215,10.86-1.464,25.732-3.713
				l16.337,11.913c-3.316,8.769-14.106,40.887-2.256,59.785C212.371,417.709,214.854,426.649,214.197,448.663z"/>
			<path fill="#BDAA80" d="M372.668,358.789c5.514,4.766,9.991,9.981,13.647,15.361c-1.681,10.084-2.228,22.374-2.062,35.425
				c-25.243,21.122-55.773,36.126-89.32,42.745c-0.743-17.528,0.126-32.973,4.421-39.82C312.21,392,296,353.25,296,353.25
				l19.207-14.005c13.318,2.017,24.295,3.634,26.795,3.878C353.304,344.227,365.315,352.434,372.668,358.789z"/>
			<path fill="#DEC896" d="M297.803,448.663c-0.657-22.014,1.826-30.954,4.093-34.569c11.851-18.898,1.06-51.017-2.256-59.785
				l16.337-11.913c14.872,2.249,23.526,3.498,25.732,3.713c11.905,1.163,24.244,10.843,28.996,14.95
				c4.667,4.033,8.853,8.674,12.456,13.805c-1.392,8.956-2.038,20.149-1.923,33.316
				C357.052,428.122,328.301,442.065,297.803,448.663z"/>
			<path id="_x31_2_2_" fill="#F9E0A8" d="M256,252.121l-42.25-5.5l16.307,88.734c0,0,3.666,30.766,25.943,30.766
				s25.943-30.766,25.943-30.766l16.307-88.734L256,252.121z"/>
			<path id="_x31_1_2_" fill="#D9C392" d="M290,261.621l-69.525,21.592l7.086,38.557c10.66,13.145,26.918,25.186,50.957,26.264
				c2.709-6.691,3.426-12.678,3.426-12.678l12.127-65.99C291.686,264.568,290,261.621,290,261.621z"/>
		</g>
		<g id="face_99_">
			<path id="ear_203_" fill="#F9E0A8" d="M193,215.621c0,0-21.309-13.5-19.104,14.5s19.104,26,19.104,26V215.621z"/>
			<path id="ear_200_" fill="#F9E0A8" d="M319,215.621c0,0,21.31-13.5,19.104,14.5c-2.204,28-19.104,26-19.104,26V215.621z"/>
			<path id="face_117_" fill="#FFE9BA" d="M256,143.383c-63,0-63,34.738-63,34.738s0,59.5,0,80s19.237,36.287,35.226,50
				c13.408,11.5,27.774,11,27.774,11s14.366,0.5,27.774-11c15.988-13.713,35.226-29.5,35.226-50s0-80,0-80S319,143.383,256,143.383z
				"/>
		</g>
		<g id="scaft">
			<path fill="#9C313C" d="M296.5,319.124C292.938,318.287,308.765,295,328.632,290S378.5,280.242,377,262.621
				C377,262.621,388.5,340.748,296.5,319.124z"/>
			<path fill="#C93F4D" d="M299.25,318.344c0,0,56.176,35.844,99.213,0c0,0-11.963,8.402-28.963,3.779S358,286.688,299.25,318.344z"
				/>
			<path fill="#C93F4D" d="M310.531,322.5c10.15-14.481-12.219-28.5-12.219-28.5s-23.711,4.397-42.313,25.121
				C237.398,298.397,213.688,294,213.688,294s-22.369,14.019-12.219,28.5c0,0-23.073,3.742-10.56,17.621S225,412.5,256,412.5
				s52.578-58.5,65.091-72.379S310.531,322.5,310.531,322.5z"/>
			<path fill="#E04656" d="M256,330.123c0,0-40.392-18.375-38.696-10.999S256,345,256,345s37-18.5,38.696-25.876
				S256,330.123,256,330.123z"/>
			<path fill="#E04656" d="M303,339.245c-3.5-7.255-47,26.876-47,26.876s-43.5-34.131-47-26.876s47.221,51.866,47,52.744
				C255.5,393.979,306.5,346.5,303,339.245z"/>
		</g>
		<g id="hat">
			<path fill="#DEC896" d="M365.429,187.078c-2.848-12.609-9.899,3.203-52.883-26.693L256,135.414l-56.545,24.971
				c-42.984,29.896-50.036,14.084-52.883,26.693c-2.848,12.611,40.762,27.279,54.66,45.193c29.955,38.608,79.583,38.608,109.538,0
				C324.667,214.357,368.276,199.689,365.429,187.078z"/>
			<path fill="#DEC896" d="M288.896,92.949c-26.544-1.068-31.845,14.72-32.896,14.72c-1.052,0-6.352-15.788-32.896-14.72
				c-30.337,1.221-27.413,77.713-27.413,77.713s4.004,43.18,60.309,43.18s60.309-43.18,60.309-43.18S319.231,94.17,288.896,92.949z"
				/>
			<path fill="#8F8061" d="M256,193.842c-49.394,0-58.537-33.228-60.038-41.385c-0.563,10.526-0.271,18.205-0.271,18.205
				s4.004,43.18,60.309,43.18s60.309-43.18,60.309-43.18s0.292-7.679-0.271-18.204C314.536,160.617,305.392,193.842,256,193.842z"/>
			<path fill="#BDAA80" d="M212.645,243.94c-8.611-12.11-19.686-29.118-26.7-40.041c-2.525-20.136-9.792-54.968-30.341-67.67
				c-29.612-18.306-8.651,54.918-9.167,56.139L212.645,243.94z"/>
			<path fill="#BDAA80" d="M299.355,243.94c8.611-12.11,19.686-29.118,26.7-40.041c2.525-20.136,9.792-54.968,30.341-67.67
				c29.612-18.306,8.651,54.918,9.167,56.139L299.355,243.94z"/>
			<path fill="#BDAA80" d="M270.25,129.25c0-12.484-2.1-23.6-5.37-30.788c-6.342,4.188-8.288,9.207-8.88,9.207
				c-0.587,0-2.502-4.917-8.69-9.077c-3.235,7.192-5.31,18.249-5.31,30.658c0,21.678,6.324,26.25,14.125,26.25
				S270.25,150.928,270.25,129.25z"/>
		</g>
	</g>
	<g id="avatar18">
		<g id="back_30_">
		</g>
		<g id="clothes_32_">
		</g>
		<g id="face_55_">
		</g>
		<g id="earings_2_">
		</g>
		<g id="hair_21_">
		</g>
	</g>
	<g id="avatar17">
		<g id="back_29_">
		</g>
		<g id="hair_back_10_">
		</g>
		<g id="clothes_31_">
		</g>
		<g id="face_2_">
		</g>
		<g id="glasses_10_">
		</g>
		<g id="hair_front_10_">
		</g>
	</g>
	<g id="avatar16">
		<g id="back_28_">
		</g>
		<g id="hair_back_9_">
		</g>
		<g id="clothes_1_">
		</g>
		<g id="face_1_">
		</g>
		<g id="hair_front_9_">
		</g>
	</g>
	<g id="avatar15">
		<g id="back_5_">
		</g>
		<g id="clothes_6_">
		</g>
		<g id="face_29_">
		</g>
		<g id="glasses_4_">
		</g>
		<g id="hair_8_">
		</g>
	</g>
	<g id="avatar14">
		<g id="back_6_">
		</g>
		<g id="clothes_7_">
		</g>
		<g id="face_42_">
		</g>
		<g id="earings_3_">
		</g>
		<g id="hair_9_">
		</g>
	</g>
	<g id="avatar13">
		<g id="back_7_">
		</g>
		<g id="clothes_8_">
		</g>
		<g id="face_43_">
		</g>
		<g id="glasses_5_">
		</g>
		<g id="hair_10_">
		</g>
	</g>
	<g id="avatar12">
		<g id="back_8_">
		</g>
		<g id="clothes_9_">
		</g>
		<g id="face_44_">
		</g>
		<g id="beard_6_">
		</g>
		<g id="hair_11_">
		</g>
	</g>
	<g id="avatar11">
		<g id="back_9_">
		</g>
		<g id="clothes_10_">
		</g>
		<g id="face_45_">
		</g>
		<g id="glass">
		</g>
		<g id="hair_12_">
		</g>
	</g>
	<g id="avatar10">
		<g id="back_10_">
		</g>
		<g id="clothes_11_">
		</g>
		<g id="face_46_">
		</g>
		<g id="beard_7_">
		</g>
		<g id="glasses_6_">
		</g>
		<g id="hair_13_">
		</g>
	</g>
	<g id="avatar9">
		<g id="back_11_">
		</g>
		<g id="clothes_12_">
		</g>
		<g id="face_47_">
		</g>
		<g id="glasses_3_">
		</g>
		<g id="hair_7_">
		</g>
	</g>
	<g id="avatar8">
		<g id="back_12_">
		</g>
		<g id="clothes_13_">
		</g>
		<g id="face_48_">
		</g>
		<g id="beard_5_">
		</g>
		<g id="glasses_7_">
		</g>
		<g id="hair_6_">
		</g>
	</g>
	<g id="avatar7">
		<g id="back_4_">
		</g>
		<g id="clothes_14_">
		</g>
		<g id="face_11_">
		</g>
		<g id="hair_14_">
		</g>
	</g>
	<g id="avatar6">
		<g id="back_13_">
		</g>
		<g id="clothes_15_">
		</g>
		<g id="face_16_">
		</g>
		<g id="glasses_2_">
		</g>
		<g id="beard_4_">
		</g>
		<g id="hair_5_">
		</g>
	</g>
	<g id="avatar5">
		<g id="back_14_">
		</g>
		<g id="clothes_5_">
		</g>
		<g id="face_38_">
		</g>
		<g id="beard_3_">
		</g>
		<g id="hair_4_">
		</g>
	</g>
	<g id="avatar4">
		<g id="back_3_">
		</g>
		<g id="clothes_4_">
		</g>
		<g id="face_13_">
		</g>
		<g id="beard_2_">
		</g>
		<g id="glasses_1_">
		</g>
		<g id="hair_3_">
		</g>
	</g>
	<g id="avatar3">
		<g id="back_15_">
		</g>
		<g id="clothes_16_">
		</g>
		<g id="face_49_">
		</g>
		<g id="hair_15_">
		</g>
	</g>
	<g id="avatar2">
		<g id="back_2_">
		</g>
		<g id="clothes_3_">
		</g>
		<g id="face_9_">
		</g>
		<g id="beard_1_">
		</g>
		<g id="hair_2_">
		</g>
	</g>
	<g id="avatar1">
		<g id="back_1_">
		</g>
		<g id="clothes_2_">
		</g>
		<g id="face_6_">
		</g>
		<g id="hair_1_">
		</g>
	</g>
</g>
</svg>
