<?xml version="1.0" encoding="iso-8859-1"?>
<!-- Generator: Adobe Illustrator 16.0.3, SVG Export Plug-In . SVG Version: 6.00 Build 0)  -->
<!DOCTYPE svg PUBLIC "-//W3C//DTD SVG 1.1 Basic//EN" "http://www.w3.org/Graphics/SVG/1.1/DTD/svg11-basic.dtd">
<svg version="1.1" baseProfile="basic" xmlns="http://www.w3.org/2000/svg" xmlns:xlink="http://www.w3.org/1999/xlink" x="0px"
	 y="0px" width="512px" height="512px" viewBox="0 0 512 512" xml:space="preserve">
<g id="Layer_159" display="none">
	<rect x="512" display="inline" fill="#FFFFFF" width="512" height="512"/>
	<rect display="inline" fill="#FFFFFF" width="512" height="512"/>
	<rect x="-512" display="inline" fill="#FFFFFF" width="512" height="512"/>
	<rect x="512" y="-512" display="inline" fill="#FFFFFF" width="512" height="512"/>
	<rect y="-512" display="inline" fill="#FFFFFF" width="512" height="512"/>
	<rect x="-512" y="-512" display="inline" fill="#FFFFFF" width="512" height="512"/>
	<rect x="512" y="512" display="inline" fill="#FFFFFF" width="512" height="512"/>
	<rect y="512" display="inline" fill="#FFFFFF" width="512" height="512"/>
	<rect x="-512" y="512" display="inline" fill="#FFFFFF" width="512" height="512"/>
</g>
<g id="female" display="none">
	<g id="avatar15_1_" display="inline">
		<g id="baclk">
		</g>
		<g id="hair_back_8_">
		</g>
		<g id="clothes_30_">
		</g>
		<g id="face_98_">
		</g>
		<g id="hair_front_8_">
		</g>
	</g>
	<g id="avatar14_1_" display="inline">
		<g id="back_16_">
		</g>
		<g id="hair_back">
		</g>
		<g id="clothes_17_">
		</g>
		<g id="face_57_">
		</g>
		<g id="hair_front">
		</g>
	</g>
	<g id="avatar13_1_" display="inline">
		<g id="back_x27_">
		</g>
		<g id="clothes">
		</g>
		<g id="face">
		</g>
		<g id="hair">
		</g>
	</g>
	<g id="avatar12_1_" display="inline">
		<g id="back_27_">
		</g>
		<g id="clothes_29_">
		</g>
		<g id="face_97_">
		</g>
		<g id="hair_20_">
		</g>
	</g>
	<g id="avatar11_1_" display="inline">
		<g id="back_26_">
		</g>
		<g id="clothes_28_">
		</g>
		<g id="face_95_">
		</g>
		<g id="hair_19_">
		</g>
	</g>
	<g id="avatar10_1_" display="inline">
		<g id="back_25_">
		</g>
		<g id="clothes_27_">
		</g>
		<g id="face_94_">
		</g>
		<g id="glasses_11_">
		</g>
		<g id="hair_18_">
		</g>
	</g>
	<g id="avatar9_1_" display="inline">
		<g id="back_24_">
		</g>
		<g id="clothes_26_">
		</g>
		<g id="face_92_">
		</g>
		<g id="hair_17_">
		</g>
	</g>
	<g id="avatar8_1_" display="inline">
		<g id="back_23_">
		</g>
		<g id="hair_back_7_">
		</g>
		<g id="clothes_25_">
		</g>
		<g id="face_91_">
		</g>
		<g id="hair_front_7_">
		</g>
	</g>
	<g id="avatar7_1_" display="inline">
		<g id="back_22_">
		</g>
		<g id="clothes_24_">
		</g>
		<g id="face_90_">
		</g>
		<g id="necklace_1_">
		</g>
		<g id="earings_1_">
		</g>
		<g id="hair_16_">
		</g>
	</g>
	<g id="avatar6_1_" display="inline">
		<g id="back_21_">
		</g>
		<g id="hair_back_6_">
		</g>
		<g id="clothes_23_">
		</g>
		<g id="face_89_">
		</g>
		<g id="glasses_12_">
		</g>
		<g id="hair_front_6_">
		</g>
	</g>
	<g id="avatar5_1_" display="inline">
		<g id="back_20_">
		</g>
		<g id="hair_back_5_">
		</g>
		<g id="clothes_22_">
		</g>
		<g id="face_88_">
		</g>
		<g id="glasses_9_">
		</g>
		<g id="hair_front_5_">
		</g>
	</g>
	<g id="avatar4_1_" display="inline">
		<g id="back_19_">
		</g>
		<g id="hair_back_4_">
		</g>
		<g id="clothes_21_">
		</g>
		<g id="face_87_">
		</g>
		<g id="earing_1_">
		</g>
		<g id="hair_front_4_">
		</g>
	</g>
	<g id="avatar3_1_" display="inline">
		<g id="back_18_">
		</g>
		<g id="hair_back_3_">
		</g>
		<g id="clothes_20_">
		</g>
		<g id="face_86_">
		</g>
		<g id="earings">
		</g>
		<g id="glasses_8_">
		</g>
		<g id="hair_front_3_">
		</g>
	</g>
	<g id="avatar2_1_" display="inline">
		<g id="Layebackr_167">
		</g>
		<g id="hair_back_2_">
		</g>
		<g id="clothes_19_">
		</g>
		<g id="necklace">
		</g>
		<g id="face_85_">
		</g>
		<g id="hair_front_2_">
		</g>
	</g>
	<g id="avatar1_1_" display="inline">
		<g id="back_17_">
		</g>
		<g id="hair_back_1_">
		</g>
		<g id="clothes_18_">
		</g>
		<g id="face_84_">
		</g>
		<g id="hair_front_1_">
		</g>
	</g>
</g>
<g id="male">
	<g id="avatar20">
		<g id="back_32_">
		</g>
		<g id="clothes_34_">
		</g>
		<g id="face_100_">
		</g>
		<g id="hair_22_">
		</g>
	</g>
	<g id="avatar19">
		<g id="back_31_">
		</g>
		<g id="clothes_33_">
		</g>
		<g id="face_99_">
		</g>
		<g id="scaft">
		</g>
		<g id="hat">
		</g>
	</g>
	<g id="avatar18">
		<g id="back_30_">
		</g>
		<g id="clothes_32_">
		</g>
		<g id="face_55_">
		</g>
		<g id="earings_2_">
		</g>
		<g id="hair_21_">
		</g>
	</g>
	<g id="avatar17">
		<g id="back_29_">
		</g>
		<g id="hair_back_10_">
		</g>
		<g id="clothes_31_">
		</g>
		<g id="face_2_">
		</g>
		<g id="glasses_10_">
		</g>
		<g id="hair_front_10_">
		</g>
	</g>
	<g id="avatar16">
		<g id="back_28_">
		</g>
		<g id="hair_back_9_">
		</g>
		<g id="clothes_1_">
		</g>
		<g id="face_1_">
		</g>
		<g id="hair_front_9_">
		</g>
	</g>
	<g id="avatar15">
		<g id="back_5_">
		</g>
		<g id="clothes_6_">
		</g>
		<g id="face_29_">
		</g>
		<g id="glasses_4_">
		</g>
		<g id="hair_8_">
		</g>
	</g>
	<g id="avatar14">
		<g id="back_6_">
		</g>
		<g id="clothes_7_">
		</g>
		<g id="face_42_">
		</g>
		<g id="earings_3_">
		</g>
		<g id="hair_9_">
		</g>
	</g>
	<g id="avatar13">
		<g id="back_7_">
		</g>
		<g id="clothes_8_">
		</g>
		<g id="face_43_">
		</g>
		<g id="glasses_5_">
		</g>
		<g id="hair_10_">
		</g>
	</g>
	<g id="avatar12">
		<g id="back_8_">
			<circle fill="#434A54" cx="256" cy="256" r="200"/>
		</g>
		<g id="clothes_9_">
			<path id="_x36__63_" fill="#FFE9BA" d="M256,457c55.25,0,105.267-22.403,141.463-58.621
				c-4.014-12.872-11.378-27.114-24.795-38.712c-4.934-4.265-11.967-9.353-19.473-12.579c-3.682-1.582-7.475-2.724-11.193-3.087
				c-2.043-0.199-9.75-1.317-19.771-2.819C296.652,337.347,256,331.001,256,331.001s-40.652,6.346-66.231,10.181
				c-10.021,1.502-17.728,2.62-19.771,2.819c-3.719,0.363-7.512,1.505-11.193,3.087c-7.506,3.227-14.539,8.314-19.473,12.579
				c-13.417,11.598-20.781,25.84-24.795,38.712C150.733,434.597,200.75,457,256,457z"/>
			<path id="_x35__71_" fill="#F5F7FA" d="M353.195,347.088c-3.682-1.582-7.475-2.724-11.193-3.087
				c-2.043-0.199-9.75-1.317-19.771-2.819C314.94,374.08,288.062,398.5,256,398.5s-58.94-24.42-66.231-57.318
				c-10.021,1.502-17.728,2.62-19.771,2.819c-3.719,0.363-7.512,1.505-11.193,3.087c15.119,15.305,24.563,36.933,24.563,60.929
				c0,11.646-2.224,22.737-6.238,32.819C201.33,451.232,227.99,457,256,457s54.67-5.768,78.871-16.164
				c-4.015-10.082-6.238-21.173-6.238-32.819C328.633,384.021,338.076,362.393,353.195,347.088z"/>
			<path id="_x34__88_" fill="#FFFFFF" d="M256,457c22.691,0,44.496-3.787,64.826-10.753c-1.454-8.339-2.193-16.892-2.193-25.588
				c0-24.559,5.816-47.819,16.624-67.27c-1.498-0.259-3.377-0.591-5.747-1.018c-11.077,41.079-40.183,58.063-73.51,58.063
				s-62.433-16.984-73.51-58.063c-2.37,0.427-4.249,0.759-5.747,1.018c10.808,19.45,16.624,42.711,16.624,67.27
				c0,8.696-0.739,17.249-2.193,25.588C211.504,453.213,233.309,457,256,457z"/>
			<path id="_x33__95_" fill="#F9E0A8" d="M256,398.5c32.062,0,58.94-24.42,66.231-57.318C296.652,337.347,256,331.001,256,331.001
				s-40.652,6.346-66.231,10.181C197.06,374.08,223.938,398.5,256,398.5z"/>
			<path id="_x32__106_" fill="#F9E0A8" d="M256,253l-42.25-5.5l16.307,88.734c0,0,3.666,30.766,25.943,30.766
				s25.943-30.766,25.943-30.766L298.25,247.5L256,253z"/>
			<path id="_x31__122_" fill="#D9C392" d="M290,262.5l-69.525,21.592l7.086,38.556c10.66,13.146,26.918,25.187,50.957,26.265
				c2.709-6.691,3.426-12.678,3.426-12.678l12.127-65.99C291.686,265.447,290,262.5,290,262.5z"/>
		</g>
		<g id="face_44_">
			<path id="ear_171_" fill="#F9E0A8" d="M193,215.621c0,0-21.309-13.5-19.104,14.5s19.104,26,19.104,26V215.621z"/>
			<path id="ear_168_" fill="#F9E0A8" d="M319,215.621c0,0,21.31-13.5,19.104,14.5c-2.204,28-19.104,26-19.104,26V215.621z"/>
			<path id="face_101_" fill="#FFE9BA" d="M256,143.383c-63,0-63,34.738-63,34.738s0,59.5,0,80s19.237,36.287,35.226,50
				c13.408,11.5,27.774,11,27.774,11s14.366,0.5,27.774-11c15.988-13.713,35.226-29.5,35.226-50s0-80,0-80S319,143.383,256,143.383z
				"/>
		</g>
		<g id="beard_6_">
			<path id="_x31__120_" fill="#F6BB42" d="M266,314.539c0,0-0.204,2.828-4.505,2.984L257,307.246l-4.495,10.277
				c-4.301-0.156-4.505-2.984-4.505-2.984c-6.277,1.064-18.774-5.418-18.774-5.418c17.558,13.666,22.353,10.521,22.353,10.521
				c3.911,5.188,5.422,4.479,5.422,4.479s1.511,0.709,5.422-4.479c0,0,4.795,3.145,22.353-10.521
				C284.774,309.121,272.277,315.604,266,314.539z"/>
			<polygon id="_x32__104_" fill="#F6BB42" points="264.333,281.123 284.999,286.789 260.728,285.455 			"/>
			<polygon id="_x31__119_" fill="#F6BB42" points="249.667,281.123 229.001,286.789 253.272,285.455 			"/>
		</g>
		<g id="hair_11_">
			<path fill="#F6BB42" d="M230.119,335.018l-5.661-30.125C209.369,291.932,193,277.033,193,258.121c0-2.475,0-5.523,0-8.962
				l-19.265-9.288c0,0,0.587,56.393,8.863,102.377c2.203-0.324,4.609-0.683,7.17-1.066
				C201.816,339.375,217.206,337.013,230.119,335.018z"/>
			<path fill="#F6BB42" d="M329.401,342.248c8.276-45.984,8.863-102.377,8.863-102.377L319,249.159c0,3.438,0,6.487,0,8.962
				c0,18.912-16.369,33.811-31.458,46.771l-5.661,30.125c12.913,1.995,28.303,4.357,40.351,6.164
				C324.792,341.565,327.199,341.924,329.401,342.248z"/>
			<path id="_x35__96_" fill="#FFCE54" d="M320.738,376.379c10.86-18.598,67.615-123.402,23.762-213.258
				C304.138,80.42,267.102,94.02,256,100.738c-11.102-6.719-48.138-20.318-88.5,62.383c-43.854,89.855,12.901,194.66,23.762,213.258
				c-10.627-19.166-10.848-51.889-7.773-82.463c1.31,59.809,30.377,100.205,30.377,100.205
				c-13.08-88.15,30.152-184.129,42.135-208.57c11.982,24.441,55.215,120.42,42.135,208.57c0,0,29.067-40.396,30.377-100.205
				C331.586,324.49,331.365,357.213,320.738,376.379z"/>
			<path id="_x34__110_" fill="#F6BB42" d="M256,185.551c-10.766,21.957-46.744,101.656-44.461,181.545
				c2.121-74.648,34.37-145.963,44.461-166.545c10.091,20.582,42.34,91.896,44.461,166.545
				C302.744,287.207,266.766,207.508,256,185.551z"/>
			<path id="_x33__124_" fill="#FFD56B" d="M256,115.738c11.102-6.719,48.138-20.318,88.5,62.383
				c10.726,21.977,15.422,44.846,16.255,67.131c0.991-26.904-3.105-55.188-16.255-82.131C304.138,80.42,267.102,94.02,256,100.738
				c-11.102-6.719-48.138-20.318-88.5,62.383c-13.149,26.943-17.246,55.227-16.255,82.131c0.833-22.285,5.529-45.154,16.255-67.131
				C207.862,95.42,244.898,109.02,256,115.738z"/>
			<path id="_x32__138_" fill="#F6BB42" d="M256.603,135.435c0.225-0.103,0.445-0.21,0.67-0.312c0,0-0.445,0.055-1.272,0.201
				c-0.828-0.146-1.272-0.201-1.272-0.201c0.225,0.102,0.445,0.209,0.67,0.312c-14.588,2.759-108.967,26.804-89.49,184.69
				l4.091,23.998c0,0-17.44-160.134,86.002-208.407c103.442,48.273,86.002,208.407,86.002,208.407l4.091-23.998
				C365.569,162.238,271.191,138.193,256.603,135.435z"/>
			<path id="_x31__156_" fill="#FFD56B" d="M256.258,155.378c0.337-0.504,0.673-1.009,1.014-1.511c0,0-0.458,0.426-1.272,1.25
				c-0.814-0.824-1.272-1.25-1.272-1.25c0.341,0.502,0.677,1.007,1.014,1.511c-11.757,12.013-86.471,96.011-51.408,258.411
				c0,0-15.921-156.548,51.666-258.026c67.587,101.479,51.666,258.026,51.666,258.026
				C342.729,251.389,268.016,167.391,256.258,155.378z"/>
		</g>
	</g>
	<g id="avatar11">
		<g id="back_9_">
		</g>
		<g id="clothes_10_">
		</g>
		<g id="face_45_">
		</g>
		<g id="glass">
		</g>
		<g id="hair_12_">
		</g>
	</g>
	<g id="avatar10">
		<g id="back_10_">
		</g>
		<g id="clothes_11_">
		</g>
		<g id="face_46_">
		</g>
		<g id="beard_7_">
		</g>
		<g id="glasses_6_">
		</g>
		<g id="hair_13_">
		</g>
	</g>
	<g id="avatar9">
		<g id="back_11_">
		</g>
		<g id="clothes_12_">
		</g>
		<g id="face_47_">
		</g>
		<g id="glasses_3_">
		</g>
		<g id="hair_7_">
		</g>
	</g>
	<g id="avatar8">
		<g id="back_12_">
		</g>
		<g id="clothes_13_">
		</g>
		<g id="face_48_">
		</g>
		<g id="beard_5_">
		</g>
		<g id="glasses_7_">
		</g>
		<g id="hair_6_">
		</g>
	</g>
	<g id="avatar7">
		<g id="back_4_">
		</g>
		<g id="clothes_14_">
		</g>
		<g id="face_11_">
		</g>
		<g id="hair_14_">
		</g>
	</g>
	<g id="avatar6">
		<g id="back_13_">
		</g>
		<g id="clothes_15_">
		</g>
		<g id="face_16_">
		</g>
		<g id="glasses_2_">
		</g>
		<g id="beard_4_">
		</g>
		<g id="hair_5_">
		</g>
	</g>
	<g id="avatar5">
		<g id="back_14_">
		</g>
		<g id="clothes_5_">
		</g>
		<g id="face_38_">
		</g>
		<g id="beard_3_">
		</g>
		<g id="hair_4_">
		</g>
	</g>
	<g id="avatar4">
		<g id="back_3_">
		</g>
		<g id="clothes_4_">
		</g>
		<g id="face_13_">
		</g>
		<g id="beard_2_">
		</g>
		<g id="glasses_1_">
		</g>
		<g id="hair_3_">
		</g>
	</g>
	<g id="avatar3">
		<g id="back_15_">
		</g>
		<g id="clothes_16_">
		</g>
		<g id="face_49_">
		</g>
		<g id="hair_15_">
		</g>
	</g>
	<g id="avatar2">
		<g id="back_2_">
		</g>
		<g id="clothes_3_">
		</g>
		<g id="face_9_">
		</g>
		<g id="beard_1_">
		</g>
		<g id="hair_2_">
		</g>
	</g>
	<g id="avatar1">
		<g id="back_1_">
		</g>
		<g id="clothes_2_">
		</g>
		<g id="face_6_">
		</g>
		<g id="hair_1_">
		</g>
	</g>
</g>
</svg>
